<?xml version="1.0" encoding="UTF-8" standalone="no"?>
<!-- Created with Inkscape (http://www.inkscape.org/) -->

<svg
   xmlns:dc="http://purl.org/dc/elements/1.1/"
   xmlns:cc="http://creativecommons.org/ns#"
   xmlns:rdf="http://www.w3.org/1999/02/22-rdf-syntax-ns#"
   xmlns:svg="http://www.w3.org/2000/svg"
   xmlns="http://www.w3.org/2000/svg"
   xmlns:sodipodi="http://sodipodi.sourceforge.net/DTD/sodipodi-0.dtd"
   xmlns:inkscape="http://www.inkscape.org/namespaces/inkscape"
   width="16.933311mm"
   height="13.908306mm"
   viewBox="0 0 16.933311 13.908306"
   version="1.1"
   id="svg6408"
   inkscape:version="0.92.4 (5da689c313, 2019-01-14)"
   sodipodi:docname="acacia_bush_stem.svg">
  <defs
     id="defs6402" />
  <sodipodi:namedview
     id="base"
     pagecolor="#ffffff"
     bordercolor="#666666"
     borderopacity="1.0"
     inkscape:pageopacity="0.0"
     inkscape:pageshadow="2"
     inkscape:zoom="4.3039601"
     inkscape:cx="34.680467"
     inkscape:cy="15.288503"
     inkscape:document-units="mm"
     inkscape:current-layer="layer1"
     showgrid="false"
     inkscape:window-width="2160"
     inkscape:window-height="1346"
     inkscape:window-x="-11"
     inkscape:window-y="-11"
     inkscape:window-maximized="1" />
  <metadata
     id="metadata6405">
    <rdf:RDF>
      <cc:Work
         rdf:about="">
        <dc:format>image/svg+xml</dc:format>
        <dc:type
           rdf:resource="http://purl.org/dc/dcmitype/StillImage" />
        <dc:title></dc:title>
      </cc:Work>
    </rdf:RDF>
  </metadata>
  <g
     inkscape:label="Layer 1"
     inkscape:groupmode="layer"
     id="layer1"
     transform="translate(-35.871683,-88.349874)">
    <g
       transform="matrix(0.26458333,0,0,0.26458333,-195.20528,-180.14323)"
       id="g6379"
       inkscape:export-filename="C:\Users\Rob\Minetest\minetest-5.0.1-win64\textures\Kenney\default\default_acacia_bush_stem.png"
       inkscape:export-xdpi="96"
       inkscape:export-ydpi="96">
      <path
         sodipodi:nodetypes="csccccscccccsssccccccccscsccccc"
         inkscape:connector-curvature="0"
         id="path6301"
         d="m 914.46464,1014.7828 c -0.79782,-0.01 -1.48931,0.1528 -1.8688,0.5324 -0.49791,0.4979 -3.06599,11.3412 -5.70826,18.3007 l -1.30554,3.4397 -0.50617,-1.361 c -2.29684,-6.1862 -4.66008,-16.9669 -5.25147,-18.1619 -1.18007,-2.3846 -3.81132,-2.9904 -6.05703,-1.1682 -1.25963,1.022 0.2957,0.4861 1.44134,11.8347 l 0.61573,3.4044 -4.74376,-3.9275 c -4.23607,-3.5079 -7.23749,-5.8727 -9.47211,-7.3255 -1.41168,-1.0235 -2.45346,-1.5694 -3.32095,-1.6683 -1.69198,-0.4613 -2.69524,0.1655 -3.69594,1.5942 -0.67648,0.9658 -1.22992,2.1683 -1.22992,2.6728 0,0.5045 2.93329,3.0492 6.51844,5.6542 7.79888,5.667 13.56091,11.64 15.63252,16.2036 1.66357,10.2791 -3.22464,21.9086 -3.22464,21.9086 l 27.07024,0.035 0.0123,-0.01 0.0508,-0.018 0.13735,-0.05 v 0 c -1.61808,-14.8533 -3.22595,-21.1481 0.47027,-28.4636 2.10174,-2.3572 6.91006,-6.5738 10.68506,-9.3686 7.45777,-5.5214 8.25089,-7.2594 4.31477,-9.4613 -2.03464,-1.1383 -2.25559,-1.0224 -9.7576,5.1095 -3.21994,2.6319 -6.36573,5.1779 -9.03692,7.3378 l 0.81017,-4.2252 c 1.73199,-9.0333 2.47983,-9.9618 2.04781,-10.7992 -0.60077,-1.1647 -2.8728,-2.0067 -4.62803,-2.0248 z"
         style="fill:#5b564f;fill-opacity:1;stroke-width:1" />
      <path
         inkscape:transform-center-y="-1.891761e-05"
         inkscape:transform-center-x="-2.2550993"
         inkscape:connector-curvature="0"
         style="fill:#494039;fill-opacity:1;stroke:none;stroke-width:1"
         d="m 895.26237,1058.1635 4.16401,3.6656 -5.26131,1.7789 1.0973,-5.4445"
         id="path6333"
         sodipodi:nodetypes="cccc" />
      <path
         sodipodi:nodetypes="cccc"
         id="path6335"
         d="m 915.0465,1053.0458 0.15462,5.5454 -4.88713,-2.6385 4.73251,-2.9069"
         style="fill:#494039;fill-opacity:1;stroke:none;stroke-width:1"
         inkscape:connector-curvature="0"
         inkscape:transform-center-x="-0.1952693"
         inkscape:transform-center-y="1.4459311" />
      <path
         inkscape:transform-center-y="-0.015567149"
         inkscape:transform-center-x="-3.3841697"
         inkscape:connector-curvature="0"
         style="fill:#494039;fill-opacity:1;stroke:none;stroke-width:1"
         d="m 908.5594,1058.6551 6.27407,4.8604 -7.35265,3.0118 1.07858,-7.8722"
         id="path6337"
         sodipodi:nodetypes="cccc" />
      <path
         sodipodi:nodetypes="cccc"
         id="path6339"
         d="m 902.84255,1036.1887 2.88415,7.3938 -7.85518,-1.1951 4.97103,-6.1987"
         style="fill:#656059;fill-opacity:1;stroke:none;stroke-width:1"
         inkscape:connector-curvature="0"
         inkscape:transform-center-x="-1.6620747"
         inkscape:transform-center-y="0.71123285" />
      <path
         inkscape:transform-center-y="1.9873811"
         inkscape:transform-center-x="0.0233307"
         inkscape:connector-curvature="0"
         style="fill:#494039;fill-opacity:1;stroke:none;stroke-width:1"
         d="m 902.29892,1048.4549 -4.19358,3.6317 -1.05325,-5.4531 5.24683,1.8214"
         id="path6341"
         sodipodi:nodetypes="cccc" />
      <path
         sodipodi:nodetypes="cccc"
         id="path6343"
         d="m 909.71225,1044.025 4.16401,3.6656 -5.26131,1.7789 1.0973,-5.4445"
         style="fill:#494039;fill-opacity:1;stroke:none;stroke-width:1"
         inkscape:connector-curvature="0"
         inkscape:transform-center-x="-2.2550993"
         inkscape:transform-center-y="-1.891761e-05" />
      <path
         inkscape:transform-center-y="-1.891761e-05"
         inkscape:transform-center-x="-2.2550993"
         inkscape:connector-curvature="0"
         style="fill:#494039;fill-opacity:1;stroke:none;stroke-width:1"
         d="m 912.21619,1021.579 4.16401,3.6656 -5.26131,1.7789 1.0973,-5.4445"
         id="path6345"
         sodipodi:nodetypes="cccc" />
      <path
         sodipodi:nodetypes="cccc"
         id="path6347"
         d="m 879.84389,1021.1319 4.16401,3.6656 -5.26131,1.7789 1.0973,-5.4445"
         style="fill:#494039;fill-opacity:1;stroke:none;stroke-width:1"
         inkscape:connector-curvature="0"
         inkscape:transform-center-x="-2.2550993"
         inkscape:transform-center-y="-1.891761e-05" />
      <path
         sodipodi:nodetypes="cccc"
         id="path6361"
         d="m 901.68457,1053.1001 4.16401,3.6656 -5.26131,1.7789 1.0973,-5.4445"
         style="fill:#656059;fill-opacity:1;stroke:none;stroke-width:1"
         inkscape:connector-curvature="0"
         inkscape:transform-center-x="-2.2550993"
         inkscape:transform-center-y="-1.891761e-05" />
      <path
         inkscape:transform-center-y="-1.891761e-05"
         inkscape:transform-center-x="-2.2550993"
         inkscape:connector-curvature="0"
         style="fill:#656059;fill-opacity:1;stroke:none;stroke-width:1"
         d="m 914.3831,1032.4426 4.16401,3.6656 -5.26131,1.7789 1.0973,-5.4445"
         id="path6363"
         sodipodi:nodetypes="cccc" />
      <path
         sodipodi:nodetypes="cccc"
         id="path6365"
         d="m 894.44105,1032.6215 4.16401,3.6656 -5.26131,1.7789 1.0973,-5.4445"
         style="fill:#494039;fill-opacity:1;stroke:none;stroke-width:1"
         inkscape:connector-curvature="0"
         inkscape:transform-center-x="-2.2550993"
         inkscape:transform-center-y="-1.891761e-05" />
      <path
         sodipodi:nodetypes="cccc"
         id="path6983"
         d="m 895.81809,1017.1634 4.16401,3.6656 -5.26131,1.7789 1.0973,-5.4445"
         style="fill:#656059;fill-opacity:1;stroke:none;stroke-width:1"
         inkscape:connector-curvature="0"
         inkscape:transform-center-x="-2.2550993"
         inkscape:transform-center-y="-1.891761e-05" />
      <path
         sodipodi:nodetypes="cccc"
         id="path6985"
         d="m 910.66785,1035.631 0.91508,5.4716 -5.20331,-1.9421 4.28823,-3.5295"
         style="fill:#494039;fill-opacity:1;stroke:none;stroke-width:1"
         inkscape:connector-curvature="0"
         inkscape:transform-center-x="-1.4427359"
         inkscape:transform-center-y="1.3328328" />
      <path
         sodipodi:nodetypes="cccc"
         id="path6987"
         d="m 927.849,1022.9681 5.53753,-0.3337 -2.47924,4.9698 -3.05829,-4.6361"
         style="fill:#656059;fill-opacity:1;stroke:none;stroke-width:1"
         inkscape:connector-curvature="0"
         inkscape:transform-center-x="-1.5371101"
         inkscape:transform-center-y="-1.2451613" />
      <path
         inkscape:transform-center-y="-1.2451613"
         inkscape:transform-center-x="-1.5371101"
         inkscape:connector-curvature="0"
         style="fill:#656059;fill-opacity:1;stroke:none;stroke-width:1"
         d="m 884.8866,1028.3076 5.53753,-0.3337 -2.47924,4.9698 -3.05829,-4.6361"
         id="path6989"
         sodipodi:nodetypes="cccc" />
      <path
         inkscape:transform-center-y="1.6507694"
         inkscape:transform-center-x="-1.1227276"
         inkscape:connector-curvature="0"
         style="fill:#494039;fill-opacity:1;stroke:none;stroke-width:1"
         d="m 924.25165,1027.7195 -0.0146,5.5475 -4.80436,-2.7864 4.81899,-2.7611"
         id="path6991"
         sodipodi:nodetypes="cccc" />
    </g>
  </g>
</svg>
