<?xml version="1.0" encoding="UTF-8" standalone="no"?>
<!-- Created with Inkscape (http://www.inkscape.org/) -->

<svg
   xmlns:dc="http://purl.org/dc/elements/1.1/"
   xmlns:cc="http://creativecommons.org/ns#"
   xmlns:rdf="http://www.w3.org/1999/02/22-rdf-syntax-ns#"
   xmlns:svg="http://www.w3.org/2000/svg"
   xmlns="http://www.w3.org/2000/svg"
   xmlns:sodipodi="http://sodipodi.sourceforge.net/DTD/sodipodi-0.dtd"
   xmlns:inkscape="http://www.inkscape.org/namespaces/inkscape"
   width="210mm"
   height="297mm"
   viewBox="0 0 210 297"
   version="1.1"
   id="svg3022"
   inkscape:version="0.92.4 (5da689c313, 2019-01-14)"
   sodipodi:docname="binoculars_all.svg">
  <defs
     id="defs3016">
    <filter
       inkscape:collect="always"
       style="color-interpolation-filters:sRGB"
       id="filter1821"
       x="-0.026849134"
       width="1.0536983"
       y="-0.021697534"
       height="1.043395">
      <feGaussianBlur
         inkscape:collect="always"
         stdDeviation="0.048846722"
         id="feGaussianBlur1823" />
    </filter>
  </defs>
  <sodipodi:namedview
     id="base"
     pagecolor="#ffffff"
     bordercolor="#666666"
     borderopacity="1.0"
     inkscape:pageopacity="0.0"
     inkscape:pageshadow="2"
     inkscape:zoom="4.593973"
     inkscape:cx="54.180488"
     inkscape:cy="1086.2075"
     inkscape:document-units="mm"
     inkscape:current-layer="layer1"
     showgrid="false"
     inkscape:window-width="2160"
     inkscape:window-height="1346"
     inkscape:window-x="-11"
     inkscape:window-y="-11"
     inkscape:window-maximized="1"
     inkscape:snap-global="true"
     inkscape:snap-bbox="true"
     inkscape:snap-bbox-midpoints="false"
     inkscape:bbox-nodes="true" />
  <metadata
     id="metadata3019">
    <rdf:RDF>
      <cc:Work
         rdf:about="">
        <dc:format>image/svg+xml</dc:format>
        <dc:type
           rdf:resource="http://purl.org/dc/dcmitype/StillImage" />
        <dc:title></dc:title>
      </cc:Work>
    </rdf:RDF>
  </metadata>
  <g
     inkscape:label="Layer 1"
     inkscape:groupmode="layer"
     id="layer1">
    <g
       id="g1732"
       transform="matrix(0.52405865,0,0,1,-4.6455121,-142.91115)"
       style="stroke-width:1.38137007">
      <rect
         ry="0"
         y="150.32443"
         x="-35.279892"
         height="5.4030161"
         width="8.3317547"
         id="rect1660"
         style="opacity:1;fill:#ced1e5;fill-opacity:1;fill-rule:nonzero;stroke:none;stroke-width:0.36606306;stroke-linecap:round;stroke-linejoin:bevel;stroke-miterlimit:4;stroke-dasharray:none;stroke-dashoffset:0;stroke-opacity:1;paint-order:normal" />
      <rect
         style="opacity:1;fill:#c3c6d9;fill-opacity:1;fill-rule:nonzero;stroke:none;stroke-width:0.36606306;stroke-linecap:round;stroke-linejoin:bevel;stroke-miterlimit:4;stroke-dasharray:none;stroke-dashoffset:0;stroke-opacity:1;paint-order:normal"
         id="rect1662"
         width="8.3317547"
         height="5.4030161"
         x="-26.948137"
         y="150.32443"
         ry="0" />
      <rect
         ry="0"
         y="150.32443"
         x="-18.616383"
         height="5.4030161"
         width="8.3317547"
         id="rect1664"
         style="opacity:1;fill:#b8bacc;fill-opacity:1;fill-rule:nonzero;stroke:none;stroke-width:0.36606306;stroke-linecap:round;stroke-linejoin:bevel;stroke-miterlimit:4;stroke-dasharray:none;stroke-dashoffset:0;stroke-opacity:1;paint-order:normal" />
      <rect
         style="opacity:1;fill:#a8aaba;fill-opacity:1;fill-rule:nonzero;stroke:none;stroke-width:0.36606306;stroke-linecap:round;stroke-linejoin:bevel;stroke-miterlimit:4;stroke-dasharray:none;stroke-dashoffset:0;stroke-opacity:1;paint-order:normal"
         id="rect1666"
         width="8.3317547"
         height="5.4030161"
         x="-10.284628"
         y="150.32443"
         ry="0" />
      <rect
         ry="0"
         y="150.32443"
         x="-1.9528732"
         height="5.4030161"
         width="8.3317547"
         id="rect1668"
         style="opacity:1;fill:#9b9dab;fill-opacity:1;fill-rule:nonzero;stroke:none;stroke-width:0.36606306;stroke-linecap:round;stroke-linejoin:bevel;stroke-miterlimit:4;stroke-dasharray:none;stroke-dashoffset:0;stroke-opacity:1;paint-order:normal" />
    </g>
    <rect
       style="opacity:1;fill:#d9c7a1;fill-opacity:1;fill-rule:nonzero;stroke:none;stroke-width:0.26499999;stroke-linecap:round;stroke-linejoin:bevel;stroke-miterlimit:4;stroke-dasharray:none;stroke-dashoffset:0;stroke-opacity:1;paint-order:normal"
       id="rect1757"
       width="4.3663287"
       height="5.4030161"
       x="-23.126898"
       y="13.287813"
       ry="0" />
    <rect
       ry="0"
       y="13.287813"
       x="-18.760572"
       height="5.4030161"
       width="4.3663287"
       id="rect1759"
       style="opacity:1;fill:#ccbb98;fill-opacity:1;fill-rule:nonzero;stroke:none;stroke-width:0.26499999;stroke-linecap:round;stroke-linejoin:bevel;stroke-miterlimit:4;stroke-dasharray:none;stroke-dashoffset:0;stroke-opacity:1;paint-order:normal" />
    <rect
       style="opacity:1;fill:#bfaf8e;fill-opacity:1;fill-rule:nonzero;stroke:none;stroke-width:0.26499999;stroke-linecap:round;stroke-linejoin:bevel;stroke-miterlimit:4;stroke-dasharray:none;stroke-dashoffset:0;stroke-opacity:1;paint-order:normal"
       id="rect1761"
       width="4.3663287"
       height="5.4030161"
       x="-14.39424"
       y="13.287813"
       ry="0" />
    <rect
       ry="0"
       y="13.287813"
       x="-10.027915"
       height="5.4030161"
       width="4.3663287"
       id="rect1763"
       style="opacity:1;fill:#ad9f81;fill-opacity:1;fill-rule:nonzero;stroke:none;stroke-width:0.26499999;stroke-linecap:round;stroke-linejoin:bevel;stroke-miterlimit:4;stroke-dasharray:none;stroke-dashoffset:0;stroke-opacity:1;paint-order:normal" />
    <rect
       style="opacity:1;fill:#a3967a;fill-opacity:1;fill-rule:nonzero;stroke:none;stroke-width:0.26499999;stroke-linecap:round;stroke-linejoin:bevel;stroke-miterlimit:4;stroke-dasharray:none;stroke-dashoffset:0;stroke-opacity:1;paint-order:normal"
       id="rect1765"
       width="4.3663287"
       height="5.4030161"
       x="-5.6615973"
       y="13.287813"
       ry="0" />
    <rect
       ry="0"
       y="1.4235363"
       x="-22.965141"
       height="5.4030161"
       width="4.3663287"
       id="rect1792"
       style="opacity:1;fill:#fcd145;fill-opacity:1;fill-rule:nonzero;stroke:none;stroke-width:0.26499999;stroke-linecap:round;stroke-linejoin:bevel;stroke-miterlimit:4;stroke-dasharray:none;stroke-dashoffset:0;stroke-opacity:1;paint-order:normal" />
    <rect
       style="opacity:1;fill:#f2c941;fill-opacity:1;fill-rule:nonzero;stroke:none;stroke-width:0.26499999;stroke-linecap:round;stroke-linejoin:bevel;stroke-miterlimit:4;stroke-dasharray:none;stroke-dashoffset:0;stroke-opacity:1;paint-order:normal"
       id="rect1794"
       width="4.3663287"
       height="5.4030161"
       x="-18.598812"
       y="1.4235363"
       ry="0" />
    <rect
       ry="0"
       y="1.4235363"
       x="-14.232483"
       height="5.4030161"
       width="4.3663282"
       id="rect1796"
       style="opacity:1;fill:#e5be3d;fill-opacity:1;fill-rule:nonzero;stroke:none;stroke-width:0.26499999;stroke-linecap:round;stroke-linejoin:bevel;stroke-miterlimit:4;stroke-dasharray:none;stroke-dashoffset:0;stroke-opacity:1;paint-order:normal;filter:url(#filter1821)" />
    <rect
       style="opacity:1;fill:#d6b239;fill-opacity:1;fill-rule:nonzero;stroke:none;stroke-width:0.26499999;stroke-linecap:round;stroke-linejoin:bevel;stroke-miterlimit:4;stroke-dasharray:none;stroke-dashoffset:0;stroke-opacity:1;paint-order:normal"
       id="rect1798"
       width="4.3663287"
       height="5.4030161"
       x="-9.8661575"
       y="1.4235363"
       ry="0" />
    <rect
       ry="0"
       y="1.4235363"
       x="-5.4998283"
       height="5.4030161"
       width="4.3663287"
       id="rect1800"
       style="opacity:1;fill:#c4a334;fill-opacity:1;fill-rule:nonzero;stroke:none;stroke-width:0.26499999;stroke-linecap:round;stroke-linejoin:bevel;stroke-miterlimit:4;stroke-dasharray:none;stroke-dashoffset:0;stroke-opacity:1;paint-order:normal" />
    <g
       id="g3884"
       inkscape:export-filename="C:\Users\Rob\Minetest\minetest-5.0.1-win64\textures\Kenney\binoculars\binoculars_binoculars.png"
       inkscape:export-xdpi="96"
       inkscape:export-ydpi="96">
      <rect
         y="4.647202"
         x="5.6371837"
         height="16.933332"
         width="16.933332"
         id="rect3765"
         style="opacity:1;fill:none;fill-opacity:1;fill-rule:nonzero;stroke:none;stroke-width:1.63971055;stroke-linecap:round;stroke-linejoin:round;stroke-miterlimit:4;stroke-dasharray:none;stroke-dashoffset:0;stroke-opacity:1;paint-order:normal" />
      <path
         id="path3682"
         d="m 13.154196,14.194459 0.01389,-6.2223141 1.725856,0.058265 0.03535,6.3011381 -1.775103,-0.137085"
         style="fill:#bfaf8e;stroke:none;stroke-width:0.38297614;fill-opacity:1"
         inkscape:connector-curvature="0"
         sodipodi:nodetypes="ccccc" />
      <path
         inkscape:connector-curvature="0"
         style="fill:#ad9f81;stroke:none;stroke-width:0.26458335;fill-opacity:1"
         d="m 16.683003,13.774048 v 1.852083 l -4.776905,-0.07199 v -1.766127 l 4.776905,-0.01396"
         id="path3684"
         sodipodi:nodetypes="ccccc" />
      <path
         sodipodi:nodetypes="ccccc"
         id="path3697"
         d="m 16.942175,9.7587497 v 1.0583173 l -5.871183,-0.04113 V 9.7667335 l 5.871183,-0.008"
         style="fill:#ad9f81;stroke:none;stroke-width:0.22173271;fill-opacity:1"
         inkscape:connector-curvature="0" />
      <path
         inkscape:connector-curvature="0"
         style="fill:#ad9f81;stroke:none;stroke-width:0.22173271;fill-opacity:1"
         d="m 17.028565,7.9445521 v 1.0583173 l -5.871183,-0.04113 V 7.9525359 l 5.871183,-0.008"
         id="path3699"
         sodipodi:nodetypes="ccccc" />
      <path
         id="path3701"
         transform="scale(0.26458333)"
         d="M 56.740234 30.027344 L 49.289062 30.056641 L 49.289062 33.871094 L 56.740234 34.027344 L 56.740234 30.027344 z M 56.740234 36.910156 L 49.289062 36.941406 L 49.289062 40.755859 L 56.740234 40.910156 L 56.740234 36.910156 z M 56.740234 51.808594 L 49.289062 51.867188 L 49.289062 59.158203 L 56.740234 59.455078 L 56.740234 51.808594 z "
         style="fill:#a3967a;fill-opacity:1;stroke:none;stroke-width:0.48566186" />
      <g
         transform="matrix(-1,0,0,1,19.029589,0)"
         id="g3739">
        <g
           id="g3726"
           style="fill:#4c5154;fill-opacity:1">
          <path
             inkscape:connector-curvature="0"
             style="fill:#4c5154;fill-opacity:1;stroke:none;stroke-width:0.2414481"
             d="m 12.211581,16.400274 0.545002,-0.841564 -0.05033,-2.376109 -0.668157,-1.269125 4.37e-4,-0.355806 -5.0226723,-0.0079 0.014933,0.513915 -0.5988292,1.311902 0.050327,2.376108 0.4710703,0.654613 5.2582172,-0.006 M 11.976044,8.7436221 11.947884,7.6575281 C 10.280063,7.0499297 8.6122415,7.2977025 6.9444203,8.0178672 l 0.0098,0.6887056 c 1.5928603,0.8096259 3.2660587,0.8292598 5.0218177,0.03705"
             id="path3711"
             sodipodi:nodetypes="cccccccccccccccc" />
          <path
             inkscape:connector-curvature="0"
             style="fill:#4c5154;fill-opacity:1;stroke:none;stroke-width:0.2414481"
             d="m 12.115896,16.933107 -0.0085,-0.391162 0.104218,-0.14167 -5.2582174,0.006 0.2118316,0.282611 0.00558,0.151881 4.9451518,0.09232"
             id="path3713" />
          <path
             inkscape:connector-curvature="0"
             style="fill:#4c5154;fill-opacity:1;stroke:none;stroke-width:0.2414481"
             d="m 7.0491387,20.131674 5.2776553,-0.156902 0.670971,-0.0199 -0.04521,-1.86842 -0.83025,-1.0306 -0.0064,-0.12275 C 10.467521,15.775186 8.8191373,15.505714 7.1707535,16.840782 l 0.00939,0.362031 -0.7820518,1.077096 0.045223,1.868418 0.6058387,-0.01665 M 12.038548,11.557673 11.976058,8.7435916 C 10.302119,7.5823679 8.6281799,7.9271106 6.9542409,8.7065416 l 0.061635,2.8432124 c 1.674224,0.922238 3.3484481,1.039065 5.0226721,0.0079 M 11.947876,7.6574651 11.946778,7.5232576 11.19574,7.0324682 11.176547,5.9817308 10.186984,5.2655942 8.5845105,5.3183218 7.6414562,6.0856702 7.660649,7.1364059 6.939479,7.673448 6.944379,8.0178003 C 8.7343748,7.0927724 10.280022,6.9803305 11.947843,7.6574632"
             id="path3717"
             sodipodi:nodetypes="ccccccccccccccccccccccccccc" />
          <path
             id="path3719"
             d="M 11.176547,5.9817308 10.186984,5.2655942 8.5845105,5.3183218 7.6414562,6.0856702"
             style="fill:#4c5154;fill-opacity:1;stroke:none;stroke-width:0.2414481"
             inkscape:connector-curvature="0"
             sodipodi:nodetypes="cccc" />
        </g>
        <path
           inkscape:connector-curvature="0"
           style="fill:#f2c941;stroke:none;stroke-width:0.2414481;fill-opacity:1"
           d="m 12.115896,16.933107 -0.0085,-0.391162 0.104218,-0.14167 -5.2582174,0.006 0.2118316,0.282611 0.00558,0.151881 4.9451518,0.09232"
           id="path596" />
        <path
           inkscape:connector-curvature="0"
           style="fill:#d3f4ff;fill-opacity:1;stroke:none;stroke-width:0.2414481"
           d="m 7.0491387,20.131674 q 2.4555589,1.392944 5.2776553,-0.156902 l -5.2776553,0.156902"
           id="path598" />
        <path
           inkscape:connector-curvature="0"
           style="fill:#ad9f81;fill-opacity:1;stroke:none;stroke-width:0.2414481"
           d="m 7.0491387,20.131674 5.2776553,-0.156902 0.670971,-0.0199 -0.04521,-1.86842 -0.83025,-1.0306 -0.0064,-0.12275 -4.9451515,-0.09232 0.00939,0.362031 -0.7820518,1.077096 0.045223,1.868418 0.6058387,-0.01665 m 4.9893946,-8.574004 -0.06249,-2.8140814 -5.0218171,-0.03705 0.061635,2.8432124 5.0226721,0.0079 M 11.947876,7.6574651 11.946778,7.5232576 11.19574,7.0324682 11.176547,5.9817308 10.186984,5.2655942 8.5845105,5.3183218 7.6414562,6.0856702 7.660649,7.1364059 6.939479,7.673448 l 0.0049,0.3443523 5.003464,-0.3603371"
           id="path592" />
        <path
           id="path594"
           transform="matrix(-0.26458333,0,0,0.26458333,19.029589,0)"
           d="M 33.419922 19.902344 L 29.681641 22.607422 L 43.041016 23 L 39.476562 20.101562 L 33.419922 19.902344 z M 26.765625 28.941406 L 26.658203 33.046875 L 45.638672 32.90625 L 45.675781 30.304688 L 26.765625 28.941406 z M 45.40625 43.652344 L 26.423828 43.681641 L 26.423828 45.027344 L 23.898438 49.824219 L 23.708984 58.804688 L 25.769531 61.984375 L 25.769531 61.986328 L 45.642578 62.007812 L 47.423828 59.533203 L 47.613281 50.552734 L 45.349609 45.595703 L 45.40625 43.652344 z "
           style="fill:#ccbb98;fill-opacity:1;stroke:none;stroke-width:0.91255975" />
        <path
           sodipodi:nodetypes="ccccccccccccccccccccccccccc"
           id="path3812"
           d="m 6.9842893,20.131674 4.7519537,-0.156902 0.604136,-0.0199 -0.0407,-1.86842 -0.74755,-1.0306 -0.0057,-0.12275 -4.4525705,-0.09232 0.00845,0.362031 -0.7041525,1.077096 0.040718,1.868418 0.5454918,-0.01665 m 4.4924072,-8.574004 -0.05627,-2.8140814 -4.5215995,-0.03705 0.055495,2.8432124 4.5223705,0.0079 M 11.39507,7.6981899 11.394083,7.5232576 10.717852,7.0324682 10.700571,5.9817308 9.8095774,5.2655942 8.3667244,5.3183218 7.5176067,6.0856702 7.5348877,7.1364059 6.8855526,7.673448 6.8899646,8.0178003 11.395039,7.6930974"
           style="fill:#a3967a;fill-opacity:1;stroke:none;stroke-width:0.22910756"
           inkscape:connector-curvature="0" />
        <path
           sodipodi:nodetypes="cccccccccccccccccccccc"
           inkscape:connector-curvature="0"
           style="fill:#bfaf8e;fill-opacity:1;stroke:none;stroke-width:0.22903642"
           d="M 9.8110719,5.2658285 10.701084,5.981547 7.5204761,6.0854166 8.3691034,5.3185382 Z m 1.5842591,2.4221287 0.02557,1.055695 -4.5188814,-0.037207 -0.00883,-0.6883299 z m -4.4379712,3.8617258 4.5193462,0.0078 v 0.356051 l 0.601246,1.269173 0.04511,2.376082 -0.490577,0.841292 v 5.17e-4 l -4.7313863,0.0057 -0.4240811,-0.65474 -0.045105,-2.376082 0.5389363,-1.311548 z"
           id="path3810" />
        <path
           id="path3814"
           d="m 11.557512,16.933107 -0.0076,-0.391162 0.09295,-0.14167 -4.6894804,0.006 0.1889196,0.282611 0.00498,0.151881 4.4102778,0.09232"
           style="fill:#e5be3d;fill-opacity:1;stroke:none;stroke-width:0.22801684"
           inkscape:connector-curvature="0" />
      </g>
      <g
         transform="translate(9.1994576)"
         id="g3763">
        <g
           style="fill:#4c5154;fill-opacity:1"
           id="g3751">
          <path
             sodipodi:nodetypes="cccccccccccccccc"
             id="path3741"
             d="m 12.211581,16.400274 0.545002,-0.841564 -0.05033,-2.376109 -0.668157,-1.269125 4.37e-4,-0.355806 -5.0226723,-0.0079 0.014933,0.513915 -0.5988292,1.311902 0.050327,2.376108 0.4710703,0.654613 5.2582172,-0.006 M 11.976044,8.7436221 11.947884,7.6575281 C 10.280063,7.0499297 8.6122415,7.2977025 6.9444203,8.0178672 l 0.0098,0.6887056 c 1.5928603,0.8096259 3.2660587,0.8292598 5.0218177,0.03705"
             style="fill:#4c5154;fill-opacity:1;stroke:none;stroke-width:0.2414481"
             inkscape:connector-curvature="0" />
          <path
             id="path3743"
             d="m 12.115896,16.933107 -0.0085,-0.391162 0.104218,-0.14167 -5.2582174,0.006 0.2118316,0.282611 0.00558,0.151881 4.9451518,0.09232"
             style="fill:#4c5154;fill-opacity:1;stroke:none;stroke-width:0.2414481"
             inkscape:connector-curvature="0" />
          <path
             sodipodi:nodetypes="ccccccccccccccccccccccccccc"
             id="path3747"
             d="m 7.0491387,20.131674 5.2776553,-0.156902 0.670971,-0.0199 -0.04521,-1.86842 -0.83025,-1.0306 -0.0064,-0.12275 C 10.467521,15.775186 8.8191373,15.505714 7.1707535,16.840782 l 0.00939,0.362031 -0.7820518,1.077096 0.045223,1.868418 0.6058387,-0.01665 M 12.038548,11.557673 11.976058,8.7435916 C 10.302119,7.5823679 8.6281799,7.9271106 6.9542409,8.7065416 l 0.061635,2.8432124 c 1.674224,0.922238 3.3484481,1.039065 5.0226721,0.0079 M 11.947876,7.6574651 11.946778,7.5232576 11.19574,7.0324682 11.176547,5.9817308 10.186984,5.2655942 8.5845105,5.3183218 7.6414562,6.0856702 7.660649,7.1364059 6.939479,7.673448 6.944379,8.0178003 C 8.7343748,7.0927724 10.280022,6.9803305 11.947843,7.6574632"
             style="fill:#4c5154;fill-opacity:1;stroke:none;stroke-width:0.2414481"
             inkscape:connector-curvature="0" />
          <path
             sodipodi:nodetypes="cccc"
             inkscape:connector-curvature="0"
             style="fill:#4c5154;fill-opacity:1;stroke:none;stroke-width:0.2414481"
             d="M 11.176547,5.9817308 10.186984,5.2655942 8.5845105,5.3183218 7.6414562,6.0856702"
             id="path3749" />
        </g>
        <path
           id="path3755"
           d="m 12.115896,16.933107 -0.0085,-0.391162 0.104218,-0.14167 -5.2582174,0.006 0.2118316,0.282611 0.00558,0.151881 4.9451518,0.09232"
           style="fill:#e5be3d;stroke:none;stroke-width:0.2414481;fill-opacity:1"
           inkscape:connector-curvature="0" />
        <path
           id="path3757"
           d="m 7.0491387,20.131674 q 2.4555589,1.392944 5.2776553,-0.156902 l -5.2776553,0.156902"
           style="fill:#d3f4ff;fill-opacity:1;stroke:none;stroke-width:0.2414481"
           inkscape:connector-curvature="0" />
        <path
           id="path3759"
           d="m 7.0491387,20.131674 5.2776553,-0.156902 0.670971,-0.0199 -0.04521,-1.86842 -0.83025,-1.0306 -0.0064,-0.12275 -4.9451515,-0.09232 0.00939,0.362031 -0.7820518,1.077096 0.045223,1.868418 0.6058387,-0.01665 m 4.9893946,-8.574004 -0.06249,-2.8140814 -5.0218171,-0.03705 0.061635,2.8432124 5.0226721,0.0079 M 11.947876,7.6574651 11.946778,7.5232576 11.19574,7.0324682 11.176547,5.9817308 10.186984,5.2655942 8.5845105,5.3183218 7.6414562,6.0856702 7.660649,7.1364059 6.939479,7.673448 l 0.0049,0.3443523 5.003464,-0.3603371"
           style="fill:#a3967a;fill-opacity:1;stroke:none;stroke-width:0.2414481"
           inkscape:connector-curvature="0" />
        <path
           id="path3753"
           transform="matrix(0.26458333,0,0,0.26458333,-9.1994576,0)"
           d="M 73.271484 19.902344 L 67.214844 20.101562 L 63.650391 23 L 77.011719 22.607422 L 73.271484 19.902344 z M 79.927734 28.941406 L 61.015625 30.304688 L 61.052734 32.90625 L 80.033203 33.046875 L 79.927734 28.941406 z M 61.287109 43.652344 L 61.341797 45.595703 L 59.080078 50.552734 L 59.269531 59.533203 L 61.050781 62.007812 L 80.923828 61.986328 L 80.923828 61.984375 L 82.984375 58.804688 L 82.792969 49.824219 L 80.267578 45.027344 L 80.269531 43.681641 L 61.287109 43.652344 z "
           style="fill:#ccbb98;stroke:none;stroke-width:0.91255975;fill-opacity:1" />
      </g>
      <g
         id="g3840"
         transform="translate(9.3233071)">
        <g
           style="fill:#4c5154;fill-opacity:1"
           id="g3824">
          <path
             sodipodi:nodetypes="cccccccccccccccc"
             id="path3816"
             d="m 12.211581,16.400274 0.545002,-0.841564 -0.05033,-2.376109 -0.668157,-1.269125 4.37e-4,-0.355806 -5.0226723,-0.0079 0.014933,0.513915 -0.5988292,1.311902 0.050327,2.376108 0.4710703,0.654613 5.2582172,-0.006 M 11.976044,8.7436221 11.947884,7.6575281 C 10.280063,7.0499297 8.6122415,7.2977025 6.9444203,8.0178672 l 0.0098,0.6887056 c 1.5928603,0.8096259 3.2660587,0.8292598 5.0218177,0.03705"
             style="fill:#4c5154;fill-opacity:1;stroke:none;stroke-width:0.2414481"
             inkscape:connector-curvature="0" />
          <path
             id="path3818"
             d="m 12.115896,16.933107 -0.0085,-0.391162 0.104218,-0.14167 -5.2582174,0.006 0.2118316,0.282611 0.00558,0.151881 4.9451518,0.09232"
             style="fill:#4c5154;fill-opacity:1;stroke:none;stroke-width:0.2414481"
             inkscape:connector-curvature="0" />
          <path
             sodipodi:nodetypes="ccccccccccccccccccccccccccc"
             id="path3820"
             d="m 7.0491387,20.131674 5.2776553,-0.156902 0.670971,-0.0199 -0.04521,-1.86842 -0.83025,-1.0306 -0.0064,-0.12275 C 10.467521,15.775186 8.8191373,15.505714 7.1707535,16.840782 l 0.00939,0.362031 -0.7820518,1.077096 0.045223,1.868418 0.6058387,-0.01665 M 12.038548,11.557673 11.976058,8.7435916 C 10.302119,7.5823679 8.6281799,7.9271106 6.9542409,8.7065416 l 0.061635,2.8432124 c 1.674224,0.922238 3.3484481,1.039065 5.0226721,0.0079 M 11.947876,7.6574651 11.946778,7.5232576 11.19574,7.0324682 11.176547,5.9817308 10.186984,5.2655942 8.5845105,5.3183218 7.6414562,6.0856702 7.660649,7.1364059 6.939479,7.673448 6.944379,8.0178003 C 8.7343748,7.0927724 10.280022,6.9803305 11.947843,7.6574632"
             style="fill:#4c5154;fill-opacity:1;stroke:none;stroke-width:0.2414481"
             inkscape:connector-curvature="0" />
          <path
             sodipodi:nodetypes="cccc"
             inkscape:connector-curvature="0"
             style="fill:#4c5154;fill-opacity:1;stroke:none;stroke-width:0.2414481"
             d="M 11.176547,5.9817308 10.186984,5.2655942 8.5845105,5.3183218 7.6414562,6.0856702"
             id="path3822" />
        </g>
        <path
           id="path3826"
           d="m 12.115896,16.933107 -0.0085,-0.391162 0.104218,-0.14167 -5.2582174,0.006 0.2118316,0.282611 0.00558,0.151881 4.9451518,0.09232"
           style="fill:#f2c941;fill-opacity:1;stroke:none;stroke-width:0.2414481"
           inkscape:connector-curvature="0" />
        <path
           id="path3828"
           d="m 7.0491387,20.131674 q 2.4555589,1.392944 5.2776553,-0.156902 l -5.2776553,0.156902"
           style="fill:#d3f4ff;fill-opacity:1;stroke:none;stroke-width:0.2414481"
           inkscape:connector-curvature="0" />
        <path
           id="path3830"
           d="m 7.0491387,20.131674 5.2776553,-0.156902 0.670971,-0.0199 -0.04521,-1.86842 -0.83025,-1.0306 -0.0064,-0.12275 -4.9451515,-0.09232 0.00939,0.362031 -0.7820518,1.077096 0.045223,1.868418 0.6058387,-0.01665 m 4.9893946,-8.574004 -0.06249,-2.8140814 -5.0218171,-0.03705 0.061635,2.8432124 5.0226721,0.0079 M 11.947876,7.6574651 11.946778,7.5232576 11.19574,7.0324682 11.176547,5.9817308 10.186984,5.2655942 8.5845105,5.3183218 7.6414562,6.0856702 7.660649,7.1364059 6.939479,7.673448 l 0.0049,0.3443523 5.003464,-0.3603371"
           style="fill:#ad9f81;fill-opacity:1;stroke:none;stroke-width:0.2414481"
           inkscape:connector-curvature="0" />
        <path
           inkscape:connector-curvature="0"
           style="fill:#ccbb98;fill-opacity:1;stroke:none;stroke-width:0.91255975"
           d="M 33.419922,19.902344 29.681641,22.607422 43.041016,23 39.476562,20.101562 Z m -6.654297,9.039062 -0.107422,4.105469 18.980469,-0.140625 0.03711,-2.601562 z m 18.640625,14.710938 -18.982422,0.0293 v 1.345703 l -2.52539,4.796875 -0.189454,8.980469 2.060547,3.179687 v 0.002 l 19.873047,0.02148 1.78125,-2.474609 0.189453,-8.980469 -2.263672,-4.957031 z"
           transform="matrix(-0.26458333,0,0,0.26458333,19.029589,0)"
           id="path3832" />
        <path
           inkscape:connector-curvature="0"
           style="fill:#a3967a;fill-opacity:1;stroke:none;stroke-width:0.22910756"
           d="m 6.9842893,20.131674 4.7519537,-0.156902 0.604136,-0.0199 -0.0407,-1.86842 -0.74755,-1.0306 -0.0057,-0.12275 -4.4525705,-0.09232 0.00845,0.362031 -0.7041525,1.077096 0.040718,1.868418 0.5454918,-0.01665 m 4.4924072,-8.574004 -0.05627,-2.8140814 -4.5215995,-0.03705 0.055495,2.8432124 4.5223705,0.0079 M 11.39507,7.6981899 11.394083,7.5232576 10.717852,7.0324682 10.700571,5.9817308 9.8095774,5.2655942 8.3667244,5.3183218 7.5176067,6.0856702 7.5348877,7.1364059 6.8855526,7.673448 6.8899646,8.0178003 11.395039,7.6930974"
           id="path3834"
           sodipodi:nodetypes="ccccccccccccccccccccccccccc" />
        <path
           id="path3836"
           d="M 9.8110719,5.2658285 10.701084,5.981547 7.5204761,6.0854166 8.3691034,5.3185382 Z m 1.5842591,2.4221287 0.02557,1.055695 -4.5188814,-0.037207 -0.00883,-0.6883299 z m -4.4379712,3.8617258 4.5193462,0.0078 v 0.356051 l 0.601246,1.269173 0.04511,2.376082 -0.490577,0.841292 v 5.17e-4 l -4.7313863,0.0057 -0.4240811,-0.65474 -0.045105,-2.376082 0.5389363,-1.311548 z"
           style="fill:#bfaf8e;fill-opacity:1;stroke:none;stroke-width:0.22903642"
           inkscape:connector-curvature="0"
           sodipodi:nodetypes="cccccccccccccccccccccc" />
        <path
           inkscape:connector-curvature="0"
           style="fill:#e5be3d;fill-opacity:1;stroke:none;stroke-width:0.22801684"
           d="m 11.557512,16.933107 -0.0076,-0.391162 0.09295,-0.14167 -4.6894804,0.006 0.1889196,0.282611 0.00498,0.151881 4.4102778,0.09232"
           id="path3838" />
      </g>
    </g>
  </g>
</svg>
