<?xml version="1.0" encoding="UTF-8" standalone="no"?>
<!-- Created with Inkscape (http://www.inkscape.org/) -->

<svg
   xmlns:dc="http://purl.org/dc/elements/1.1/"
   xmlns:cc="http://creativecommons.org/ns#"
   xmlns:rdf="http://www.w3.org/1999/02/22-rdf-syntax-ns#"
   xmlns:svg="http://www.w3.org/2000/svg"
   xmlns="http://www.w3.org/2000/svg"
   xmlns:sodipodi="http://sodipodi.sourceforge.net/DTD/sodipodi-0.dtd"
   xmlns:inkscape="http://www.inkscape.org/namespaces/inkscape"
   width="210mm"
   height="297mm"
   viewBox="0 0 210 297"
   version="1.1"
   id="svg2347"
   inkscape:version="0.92.4 (5da689c313, 2019-01-14)"
   sodipodi:docname="bones_all.svg">
  <defs
     id="defs2341" />
  <sodipodi:namedview
     id="base"
     pagecolor="#ffffff"
     bordercolor="#666666"
     borderopacity="1.0"
     inkscape:pageopacity="0.0"
     inkscape:pageshadow="2"
     inkscape:zoom="4.3039601"
     inkscape:cx="37.677798"
     inkscape:cy="1136.978"
     inkscape:document-units="mm"
     inkscape:current-layer="layer1"
     showgrid="false"
     inkscape:window-width="2160"
     inkscape:window-height="1346"
     inkscape:window-x="-11"
     inkscape:window-y="-11"
     inkscape:window-maximized="1"
     showguides="true"
     inkscape:guide-bbox="true"
     inkscape:snap-global="true"
     inkscape:snap-bbox="true"
     inkscape:bbox-nodes="true">
    <sodipodi:guide
       position="3.4775167,276.98422"
       orientation="0,1"
       id="guide2894"
       inkscape:locked="false" />
  </sodipodi:namedview>
  <metadata
     id="metadata2344">
    <rdf:RDF>
      <cc:Work
         rdf:about="">
        <dc:format>image/svg+xml</dc:format>
        <dc:type
           rdf:resource="http://purl.org/dc/dcmitype/StillImage" />
        <dc:title></dc:title>
      </cc:Work>
    </rdf:RDF>
  </metadata>
  <g
     inkscape:label="Layer 1"
     inkscape:groupmode="layer"
     id="layer1">
    <g
       transform="translate(-14.438656,-19.284411)"
       id="g2777"
       inkscape:export-filename="C:\Users\Rob\Minetest\minetest-5.0.1-win64\textures\Kenney\bones\bones_bottom.png"
       inkscape:export-xdpi="96"
       inkscape:export-ydpi="96">
      <g
         id="g2700"
         transform="rotate(-2.0818203,2149.5046,352.25743)" />
      <g
         id="g1830">
        <rect
           y="22.366034"
           x="41.990013"
           height="16.933332"
           width="16.933334"
           id="rect2694"
           style="opacity:1;fill:#48484d;fill-opacity:1;fill-rule:nonzero;stroke:none;stroke-width:0.26499999;stroke-linecap:round;stroke-linejoin:bevel;stroke-miterlimit:4;stroke-dasharray:none;stroke-dashoffset:0;stroke-opacity:1;paint-order:normal" />
        <path
           inkscape:connector-curvature="0"
           style="fill:#3c3c40;fill-opacity:1;stroke:none;stroke-width:0.26458332"
           d="m 47.189074,34.483943 2.579688,0.582083 -0.582084,2.579687 -2.566458,-0.568854 0.568854,-2.592916 m 7.593542,-12.117917 -0.171979,1.521354 -2.526771,-0.291041 0.145521,-1.230313 h 2.553229 m -12.792604,2.447396 h 0.01323 l 0.47625,2.010833 -0.489479,0.119063 v -2.129896 m 0,6.654271 0.542396,-0.06615 0.171979,1.42875 -0.714375,0.0926 v -1.455208 m 10.239375,7.831666 0.145521,-1.296458 2.526771,0.291042 -0.105834,1.005416 h -2.566458 m 6.693958,-6.376458 -0.714375,0.07938 -0.171979,-1.42875 0.886354,-0.105833 v 1.455208 m 0,-5.979583 -1.521354,0.343958 -0.463021,-1.997604 1.984375,-0.47625 v 2.129896 m -2.8575,3.413125 1.349375,0.515937 -0.502708,1.362604 -1.362604,-0.529166 0.515937,-1.349375 m 0.396875,6.548437 0.145521,-1.441979 1.441979,0.145521 -0.15875,1.441979 -1.42875,-0.145521 m -7.540625,-12.091463 -1.680104,1.825625 -1.825625,-1.680104 1.680104,-1.825625 1.825625,1.680104 m -6.455833,12.620625 1.415521,-0.224896 0.224895,1.415521 -1.41552,0.224896 -0.224896,-1.415521 m 11.337396,-7.223125 0.926041,1.11125 -1.124479,0.912812 -0.912812,-1.11125 1.11125,-0.912812 m -2.275417,-1.336146 -1.42875,-0.145521 0.145521,-1.42875 1.42875,0.145521 -0.145521,1.42875 m -2.156354,3.664479 -0.635,-1.971146 1.971146,-0.62177 0.62177,1.971145 -1.957916,0.621771 m -4.511146,-5.08 2.606146,0.674688 -0.674688,2.619375 -2.606146,-0.687917 0.674688,-2.606146 m 6.932083,7.104063 0.595313,1.322916 -1.309688,0.582084 -0.582083,-1.309688 1.296458,-0.595312"
           id="path158-1" />
        <path
           style="fill:#79767a;fill-opacity:1;stroke:none;stroke-width:0.26458335"
           d="m 55.364876,-53.975119 -0.615131,16.922156 16.922158,0.615131 0.615131,-16.922156 z"
           id="path2696"
           inkscape:connector-curvature="0"
           sodipodi:nodetypes="ccccc"
           transform="rotate(-2.0818203,2149.5047,352.25676)" />
        <path
           style="fill:#8d8a8f;fill-opacity:1;stroke:none;stroke-width:0.26458335"
           d="m 55.364875,-53.97512 -0.02216,0.60966 16.921296,0.614999 0.02298,-0.609527 z"
           id="path2698"
           inkscape:connector-curvature="0"
           sodipodi:nodetypes="ccccc"
           transform="rotate(-2.0818203,2149.5047,352.25676)" />
        <path
           sodipodi:nodetypes="ccccc"
           inkscape:connector-curvature="0"
           id="path1808"
           d="m 54.771906,-37.662638 -0.02216,0.60966 16.921296,0.614999 0.02298,-0.609527 z"
           style="fill:#8d8a8f;fill-opacity:1;stroke:none;stroke-width:0.26458335"
           transform="rotate(-2.0818203,2149.5047,352.25676)" />
        <path
           style="fill:#8d8a8f;fill-opacity:1;stroke:none;stroke-width:0.26458335"
           d="m 55.974404,-53.952099 -0.60966,-0.02216 -0.614999,16.921296 0.609527,0.02298 z"
           id="path1810"
           inkscape:connector-curvature="0"
           sodipodi:nodetypes="ccccc"
           transform="rotate(-2.0818203,2149.5047,352.25676)" />
        <path
           sodipodi:nodetypes="ccccc"
           inkscape:connector-curvature="0"
           id="path1812"
           d="m 72.286991,-53.359991 -0.60966,-0.02216 -0.614999,16.921296 0.609527,0.02298 z"
           style="fill:#8d8a8f;fill-opacity:1;stroke:none;stroke-width:0.26458335"
           transform="rotate(-2.0818203,2149.5047,352.25676)" />
        <path
           sodipodi:nodetypes="cccccccccccccccccccccccccccccc"
           inkscape:connector-curvature="0"
           style="opacity:0.75;fill:#858287;fill-opacity:1;stroke:none;stroke-width:0.26458332"
           d="m 53.803664,30.210936 0.926041,1.11125 -1.124479,0.912813 -0.912812,-1.11125 1.11125,-0.912813 m 3.611562,0.661459 -0.502708,1.362604 -1.362604,-0.529167 0.515937,-1.349375 1.349375,0.515938 m -4.11427,3.201457 1.957916,-0.62177 0.621771,1.957916 -1.957917,0.621771 -0.62177,-1.957917 m 2.778124,1.91823 1.441979,0.145521 -0.15875,1.441979 -1.42875,-0.145521 0.145521,-1.441979 m -6.707187,-3.452813 -0.635,-1.971145 1.971146,-0.621771 0.621771,1.971146 -1.957917,0.62177 m -5.185834,-2.473854 0.674688,-2.606145 2.606146,0.674687 -0.674688,2.619375 -2.606146,-0.687917"
           id="path2702" />
        <path
           sodipodi:nodetypes="ccccccccccccccc"
           inkscape:connector-curvature="0"
           style="opacity:0.75;fill:#8d8a8f;fill-opacity:1;stroke:none;stroke-width:0.26458332"
           d="m 54.266684,25.448436 -0.833438,1.164167 -1.177396,-0.833438 0.846667,-1.177395 1.164167,0.846666 m -8.228542,7.064375 -0.833438,1.164166 -1.164167,-0.846666 0.846667,-1.150937 1.150938,0.833437 m 4.458229,2.645833 1.296459,-0.595312 0.595312,1.322916 -1.309687,0.582084 -0.582084,-1.309688"
           id="path2704" />
        <path
           sodipodi:nodetypes="cccccccccc"
           inkscape:connector-curvature="0"
           style="opacity:0.75;fill:#646266;fill-opacity:1;stroke:none;stroke-width:0.26458332"
           d="m 50.245017,27.300507 1.42875,0.14552 -0.145521,1.42875 -1.42875,-0.14552 0.145521,-1.42875 m -5.979584,7.487707 1.217084,-0.423333 0.410104,1.230313 -1.217084,0.410104 -0.410104,-1.217084"
           id="path2706" />
        <path
           sodipodi:nodetypes="ccccccccccccccc"
           inkscape:connector-curvature="0"
           style="opacity:0.75;fill:#6e6c70;fill-opacity:1;stroke:none;stroke-width:0.26458332"
           d="m 56.317204,28.663124 -0.992187,1.045104 -1.045104,-0.992188 0.992187,-1.045104 1.045104,0.992188 m -7.395104,-3.320521 -1.680104,1.825625 -1.825625,-1.680104 1.680104,-1.825625 1.825625,1.680104 m 0.264583,12.303124 -2.566458,-0.568854 0.568854,-2.592916 2.579688,0.582083 -0.582084,2.579687"
           id="path2708" />
      </g>
    </g>
    <g
       transform="translate(3.4775917,-18.054885)"
       id="g2194"
       inkscape:export-filename="C:\Users\Rob\Minetest\minetest-5.0.1-win64\textures\Kenney\bones\bones_side.png"
       inkscape:export-xdpi="96"
       inkscape:export-ydpi="96">
      <rect
         style="opacity:1;fill:#48484d;fill-opacity:1;fill-rule:nonzero;stroke:none;stroke-width:0.26499999;stroke-linecap:round;stroke-linejoin:bevel;stroke-miterlimit:4;stroke-dasharray:none;stroke-dashoffset:0;stroke-opacity:1;paint-order:normal"
         id="rect1904"
         width="16.933334"
         height="16.933332"
         x="2.6660157e-07"
         y="21.136509"
         inkscape:export-filename="C:\Users\Rob\Minetest\minetest-5.0.1-win64\textures\Kenney\default\default_furnace_side.png"
         inkscape:export-xdpi="96"
         inkscape:export-ydpi="96" />
      <path
         id="path1906"
         d="M 5.199062,33.254417 7.77875,33.8365 7.196666,36.416187 4.630208,35.847333 5.199062,33.254417 M 12.792604,21.1365 12.620625,22.657854 10.093854,22.366813 10.239375,21.1365 h 2.553229 M 0,23.583896 H 0.01323 L 0.48948,25.594729 1e-6,25.713792 v -2.129896 m 0,6.654271 0.542396,-0.06615 0.171979,1.42875 -0.714375,0.0926 v -1.455208 m 10.239375,7.831666 0.145521,-1.296458 2.526771,0.291042 -0.105834,1.005416 h -2.566458 m 6.693958,-6.376458 -0.714375,0.07938 -0.171979,-1.42875 0.886354,-0.105833 v 1.455208 m 0,-5.979583 -1.521354,0.343958 -0.463021,-1.997604 1.984375,-0.47625 v 2.129896 m -2.8575,3.413125 1.349375,0.515937 -0.502708,1.362604 -1.362604,-0.529166 0.515937,-1.349375 m 0.396875,6.548437 0.145521,-1.441979 1.441979,0.145521 -0.15875,1.441979 -1.42875,-0.145521 M 6.932084,23.583888 5.25198,25.409513 3.426355,23.729409 5.106459,21.903784 6.932084,23.583888 m -6.455833,12.620625 1.415521,-0.224896 0.224895,1.415521 -1.41552,0.224896 -0.224896,-1.415521 m 11.337396,-7.223125 0.926041,1.11125 -1.124479,0.912812 -0.912812,-1.11125 1.11125,-0.912812 M 9.53823,27.645242 8.10948,27.499721 l 0.145521,-1.42875 1.42875,0.145521 -0.145521,1.42875 m -2.156354,3.664479 -0.635,-1.971146 1.971146,-0.62177 0.62177,1.971145 -1.957916,0.621771 m -4.511146,-5.08 2.606146,0.674688 -0.674688,2.619375 -2.606146,-0.687917 0.674688,-2.606146 m 6.932083,7.104063 0.595313,1.322916 -1.309688,0.582084 -0.582083,-1.309688 1.296458,-0.595312"
         style="fill:#3c3c40;fill-opacity:1;stroke:none;stroke-width:0.26458332"
         inkscape:connector-curvature="0"
         inkscape:export-filename="C:\Users\Rob\Minetest\minetest-5.0.1-win64\textures\Kenney\default\default_furnace_side.png"
         inkscape:export-xdpi="96"
         inkscape:export-ydpi="96" />
      <path
         sodipodi:nodetypes="ccccc"
         inkscape:connector-curvature="0"
         style="opacity:0.75;fill:#8d8a8f;fill-opacity:1;stroke:none;stroke-width:0.26458332"
         d="M 1.660677,34.542278 2.877761,34.118945 3.287865,35.349258 2.070781,35.759362 1.660677,34.542278"
         id="path1938"
         inkscape:export-filename="C:\Users\Rob\Minetest\minetest-5.0.1-win64\textures\Kenney\default\default_furnace_side.png"
         inkscape:export-xdpi="96"
         inkscape:export-ydpi="96" />
      <path
         sodipodi:nodetypes="ccccc"
         inkscape:connector-curvature="0"
         id="path1908"
         d="M 2.5e-5,21.136511 V 38.069843 H 16.93336 V 21.136511 Z"
         style="fill:#79767a;fill-opacity:1;stroke:none;stroke-width:0.26458335"
         inkscape:export-filename="C:\Users\Rob\Minetest\minetest-5.0.1-win64\textures\Kenney\default\default_furnace_side.png"
         inkscape:export-xdpi="96"
         inkscape:export-ydpi="96" />
      <path
         sodipodi:nodetypes="ccccc"
         inkscape:connector-curvature="0"
         id="path1910"
         d="m 2.4e-5,21.13651 2e-6,0.610062 16.932468,-10e-5 8.23e-4,-0.60996 z"
         style="fill:#8d8a8f;fill-opacity:1;stroke:none;stroke-width:0.26458335"
         inkscape:export-filename="C:\Users\Rob\Minetest\minetest-5.0.1-win64\textures\Kenney\default\default_furnace_side.png"
         inkscape:export-xdpi="96"
         inkscape:export-ydpi="96" />
      <path
         id="path1920"
         d="m 11.813652,28.98141 0.926041,1.11125 -1.124479,0.912813 -0.912812,-1.11125 1.11125,-0.912813 m 3.611562,0.661459 -0.502708,1.362604 -1.362604,-0.529167 0.515937,-1.349375 1.349375,0.515938 m -8.043333,0.07937 -0.635,-1.971145 1.971146,-0.621771 0.621771,1.971146 -1.957917,0.62177 M 2.196047,28.835885 2.870735,26.22974 5.476881,26.904427 4.802193,29.523802 2.196047,28.835885"
         style="opacity:0.75;fill:#858287;fill-opacity:1;stroke:none;stroke-width:0.26458332"
         inkscape:connector-curvature="0"
         sodipodi:nodetypes="cccccccccccccccccccc"
         inkscape:export-filename="C:\Users\Rob\Minetest\minetest-5.0.1-win64\textures\Kenney\default\default_furnace_side.png"
         inkscape:export-xdpi="96"
         inkscape:export-ydpi="96" />
      <path
         id="path1928"
         d="m 14.327192,27.433598 -0.992187,1.045104 -1.045104,-0.992188 0.992187,-1.045104 1.045104,0.992188 M 5.873755,24.113077 4.193651,25.938702 2.368026,24.258598 4.04813,22.432973 5.873755,24.113077"
         style="opacity:0.75;fill:#6e6c70;fill-opacity:1;stroke:none;stroke-width:0.26458332"
         inkscape:connector-curvature="0"
         sodipodi:nodetypes="cccccccccc"
         inkscape:export-filename="C:\Users\Rob\Minetest\minetest-5.0.1-win64\textures\Kenney\default\default_furnace_side.png"
         inkscape:export-xdpi="96"
         inkscape:export-ydpi="96" />
      <path
         sodipodi:nodetypes="ccccc"
         inkscape:connector-curvature="0"
         style="opacity:0.75;fill:#8c888e;fill-opacity:1;stroke:none;stroke-width:0.26458332"
         d="M 7.381094,37.092419 4.814636,36.523565 5.38349,33.930649 7.963178,34.512732 7.381094,37.092419"
         id="path1934"
         inkscape:export-filename="C:\Users\Rob\Minetest\minetest-5.0.1-win64\textures\Kenney\default\default_furnace_side.png"
         inkscape:export-xdpi="96"
         inkscape:export-ydpi="96" />
      <path
         sodipodi:nodetypes="cccccccccc"
         inkscape:connector-curvature="0"
         style="opacity:0.75;fill:#858287;fill-opacity:1;stroke:none;stroke-width:0.26458332"
         d="m 11.089149,34.418558 1.957916,-0.62177 0.621771,1.957916 -1.957917,0.621771 -0.62177,-1.957917 m 3.307291,1.389063 1.441979,0.145521 -0.15875,1.441979 -1.42875,-0.145521 0.145521,-1.441979"
         id="path1936"
         inkscape:export-filename="C:\Users\Rob\Minetest\minetest-5.0.1-win64\textures\Kenney\default\default_furnace_side.png"
         inkscape:export-xdpi="96"
         inkscape:export-ydpi="96" />
      <path
         id="path1922"
         d="m 14.922505,23.160577 -0.833438,1.164167 -1.177396,-0.833438 0.846667,-1.177395 1.164167,0.846666 M 4.04813,31.283285 c -0.971108,1.428555 -0.667385,1.284932 -1.997605,0.3175 l 0.846667,-1.150937 1.150938,0.833437"
         style="opacity:0.75;fill:#8d8a8f;fill-opacity:1;stroke:none;stroke-width:0.26458332"
         inkscape:connector-curvature="0"
         sodipodi:nodetypes="ccccccccc"
         inkscape:export-filename="C:\Users\Rob\Minetest\minetest-5.0.1-win64\textures\Kenney\default\default_furnace_side.png"
         inkscape:export-xdpi="96"
         inkscape:export-ydpi="96" />
      <path
         style="fill:#a19da3;fill-opacity:1;stroke:none;stroke-width:0.21986906"
         d="m 2.5819505,26.419707 0.061474,11.632132 H 14.351436 L 13.98259,25.867119 10.885161,23.735061 6.0706391,23.50854 Z"
         id="path1912"
         inkscape:connector-curvature="0"
         sodipodi:nodetypes="ccccccc"
         inkscape:export-filename="C:\Users\Rob\Minetest\minetest-5.0.1-win64\textures\Kenney\default\default_furnace_side.png"
         inkscape:export-xdpi="96"
         inkscape:export-ydpi="96" />
      <path
         sodipodi:nodetypes="ccccc"
         inkscape:connector-curvature="0"
         id="path1916"
         d="m 0.609987,21.137373 -0.610062,2e-6 1e-4,16.932468 0.60996,8.23e-4 z"
         style="fill:#8d8a8f;fill-opacity:1;stroke:none;stroke-width:0.26458335"
         inkscape:export-filename="C:\Users\Rob\Minetest\minetest-5.0.1-win64\textures\Kenney\default\default_furnace_side.png"
         inkscape:export-xdpi="96"
         inkscape:export-ydpi="96" />
      <path
         style="fill:#8d8a8f;fill-opacity:1;stroke:none;stroke-width:0.26458335"
         d="m 16.933317,21.136509 -0.610063,2e-6 1.01e-4,16.932468 0.609959,8.23e-4 z"
         id="path1918"
         inkscape:connector-curvature="0"
         sodipodi:nodetypes="ccccc"
         inkscape:export-filename="C:\Users\Rob\Minetest\minetest-5.0.1-win64\textures\Kenney\default\default_furnace_side.png"
         inkscape:export-xdpi="96"
         inkscape:export-ydpi="96" />
      <g
         id="g2974"
         transform="matrix(1.3047907,0,0,1.3047907,-2.5679674,-10.769616)">
        <path
           inkscape:connector-curvature="0"
           style="fill:#b6b2b8;fill-opacity:1;stroke:none;stroke-width:0.26458332"
           d="m 13.599584,28.372878 0.820209,-0.238125 0.515937,2.20927 -0.873125,0.211667 -1.322917,0.304271 h -0.01323 l -0.46302,-2.076979 -0.01323,-0.02646 1.349375,-0.383645 M 2.870732,30.54246 1.997607,30.330793 l 0.515938,-2.209271 0.833437,0.238125 1.336146,0.383646 v 0.03969 l -0.47625,2.06375 H 4.193648 L 2.870731,30.542462 m 1.322917,-3.346979 -0.555625,-0.648229 1.74625,-1.44198 0.542396,0.661459 0.899583,1.084791 -0.02646,0.02646 L 5.08,28.227359 4.193646,27.195484 m 3.135312,-1.878541 v -0.899587 l 2.2621877,0.01323 v 0.873125 l -0.01323,1.389063 -2.1695837,-0.01323 h -0.0926 l 0.01323,-1.362604 m 3.677709,0.449792 0.542395,-0.661459 1.74625,1.44198 -0.555625,0.648229 -0.886354,1.031875 -1.733021,-1.362604 -0.01323,-0.01323 0.899584,-1.084792"
           id="path1132"
           inkscape:export-filename="C:\Users\Rob\Minetest\minetest-5.0.1-win64\textures\Kenney\default\default_furnace_front.png"
           inkscape:export-xdpi="96"
           inkscape:export-ydpi="96"
           sodipodi:nodetypes="cccccccccccccccccccccccccccccccccccccccccc" />
        <path
           inkscape:connector-curvature="0"
           style="fill:#918d93;fill-opacity:1;stroke:none;stroke-width:0.26458332"
           d="m 11.006668,25.766732 -0.899584,1.084791 0.01323,0.01323 -0.5423953,-0.171979 0.01323,-1.389062 1.4155213,0.463021 m 3.055937,4.788958 v 1.283229 l -1.322917,0.674687 -0.132291,1.322917 m -8.281458,0 L 4.18042,32.500378 2.870732,31.83892 v -1.296458 l 1.322917,0.304271 v 0.634999 1.031875 m 9.017185,0.235572 -0.471144,-1.267447 v -0.62177 l 1.322915,-0.304271 M 3.34698,28.359649 4.193647,27.195483 5.080001,28.227358 4.683126,28.782983 v -0.03969 L 3.34698,28.359647 m 2.579688,-2.592916 1.402291,-0.449792 -0.01323,1.362604 h 0.0926 l -0.608541,0.198438 0.02646,-0.02646 -0.899583,-1.084792 m 6.81302,1.42875 0.859896,1.177396 -1.349375,0.383646 0.01323,0.02646 -0.410104,-0.555625 0.886354,-1.031875"
           id="path1134"
           inkscape:export-filename="C:\Users\Rob\Minetest\minetest-5.0.1-win64\textures\Kenney\default\default_furnace_front.png"
           inkscape:export-xdpi="96"
           inkscape:export-ydpi="96"
           sodipodi:nodetypes="cccccccccccccccccccccccccccccccccccccccc" />
        <rect
           style="opacity:1;fill:#918d93;fill-opacity:1;fill-rule:nonzero;stroke:none;stroke-width:0.85377681;stroke-linecap:round;stroke-linejoin:round;stroke-miterlimit:4;stroke-dasharray:none;stroke-dashoffset:0;stroke-opacity:1;paint-order:normal"
           id="rect2984"
           width="1.5547743"
           height="2.5912902"
           x="2.6194105"
           y="32.985176" />
        <path
           inkscape:export-ydpi="96"
           inkscape:export-xdpi="96"
           inkscape:export-filename="C:\Users\Rob\Minetest\minetest-5.0.1-win64\textures\Kenney\default\default_furnace_front.png"
           id="path2976"
           d="m 2.979336,34.021282 -0.8980056,0.02713 -0.087594,-2.267024 0.866742,0.0089 1.3900402,0.01608 0.010512,0.03827 0.087325,2.116188 -0.012758,0.0035 -1.3562618,0.05696"
           style="fill:#b6b2b8;fill-opacity:1;stroke:none;stroke-width:0.26458332"
           inkscape:connector-curvature="0"
           sodipodi:nodetypes="ccccccccc" />
        <path
           sodipodi:nodetypes="ccccccccc"
           inkscape:connector-curvature="0"
           style="fill:#b6b2b8;fill-opacity:1;stroke:none;stroke-width:0.26458332"
           d="m 3.0264504,37.341495 -0.8980056,0.02713 -0.087594,-2.267024 0.866742,0.0089 1.3900402,0.01608 0.010512,0.03827 0.087325,2.116188 -0.012758,0.0035 -1.3562618,0.05696"
           id="path2978"
           inkscape:export-filename="C:\Users\Rob\Minetest\minetest-5.0.1-win64\textures\Kenney\default\default_furnace_front.png"
           inkscape:export-xdpi="96"
           inkscape:export-ydpi="96" />
        <rect
           y="33.314976"
           x="12.749001"
           height="2.5912902"
           width="1.5547743"
           id="rect2986"
           style="opacity:1;fill:#918d93;fill-opacity:1;fill-rule:nonzero;stroke:none;stroke-width:0.85377681;stroke-linecap:round;stroke-linejoin:round;stroke-miterlimit:4;stroke-dasharray:none;stroke-dashoffset:0;stroke-opacity:1;paint-order:normal" />
        <path
           sodipodi:nodetypes="ccccccccc"
           inkscape:connector-curvature="0"
           style="fill:#b6b2b8;fill-opacity:1;stroke:none;stroke-width:0.26458332"
           d="m 13.954347,34.021282 0.898007,0.02713 0.08759,-2.267024 -0.866743,0.0089 -1.390041,0.01608 -0.01051,0.03827 -0.08732,2.116188 0.01276,0.0035 1.356262,0.05696"
           id="path2980"
           inkscape:export-filename="C:\Users\Rob\Minetest\minetest-5.0.1-win64\textures\Kenney\default\default_furnace_front.png"
           inkscape:export-xdpi="96"
           inkscape:export-ydpi="96" />
        <path
           inkscape:export-ydpi="96"
           inkscape:export-xdpi="96"
           inkscape:export-filename="C:\Users\Rob\Minetest\minetest-5.0.1-win64\textures\Kenney\default\default_furnace_front.png"
           id="path2982"
           d="m 13.907233,37.341495 0.898006,0.02713 0.08759,-2.267024 -0.866742,0.0089 -1.390041,0.01608 -0.01051,0.03827 -0.08732,2.116188 0.01276,0.0035 1.356263,0.05696"
           style="fill:#b6b2b8;fill-opacity:1;stroke:none;stroke-width:0.26458332"
           inkscape:connector-curvature="0"
           sodipodi:nodetypes="ccccccccc" />
      </g>
      <text
         id="text2994"
         y="30.001215"
         x="4.0223641"
         style="font-style:normal;font-weight:normal;font-size:5.75532627px;line-height:125%;font-family:Sans;letter-spacing:0px;word-spacing:0px;fill:#69676b;fill-opacity:1;stroke:none;stroke-width:0.14388315px;stroke-linecap:butt;stroke-linejoin:miter;stroke-opacity:1"
         xml:space="preserve"><tspan
           style="font-style:normal;font-variant:normal;font-weight:normal;font-stretch:normal;font-family:'Times New Roman';-inkscape-font-specification:'Times New Roman, ';fill:#69676b;fill-opacity:1;stroke-width:0.14388315px"
           y="30.001215"
           x="4.0223641"
           id="tspan2992"
           sodipodi:role="line">RIP</tspan></text>
    </g>
  </g>
</svg>
