<?xml version="1.0" encoding="UTF-8" standalone="no"?>
<!-- Created with Inkscape (http://www.inkscape.org/) -->

<svg
   xmlns:dc="http://purl.org/dc/elements/1.1/"
   xmlns:cc="http://creativecommons.org/ns#"
   xmlns:rdf="http://www.w3.org/1999/02/22-rdf-syntax-ns#"
   xmlns:svg="http://www.w3.org/2000/svg"
   xmlns="http://www.w3.org/2000/svg"
   xmlns:sodipodi="http://sodipodi.sourceforge.net/DTD/sodipodi-0.dtd"
   xmlns:inkscape="http://www.inkscape.org/namespaces/inkscape"
   width="16.933334mm"
   height="16.933332mm"
   viewBox="0 0 16.933334 16.933332"
   version="1.1"
   id="svg2378"
   inkscape:version="0.92.4 (5da689c313, 2019-01-14)"
   sodipodi:docname="Book_Bookcase_Slot.svg">
  <defs
     id="defs2372">
    <filter
       inkscape:collect="always"
       style="color-interpolation-filters:sRGB"
       id="filter6252"
       x="-0.015288405"
       width="1.0305768"
       y="-0.055790225"
       height="1.1115804">
      <feGaussianBlur
         inkscape:collect="always"
         stdDeviation="0.035125916"
         id="feGaussianBlur6254" />
    </filter>
  </defs>
  <sodipodi:namedview
     id="base"
     pagecolor="#ffffff"
     bordercolor="#666666"
     borderopacity="1.0"
     inkscape:pageopacity="0.0"
     inkscape:pageshadow="2"
     inkscape:zoom="5.0846218"
     inkscape:cx="25.761642"
     inkscape:cy="39.188523"
     inkscape:document-units="mm"
     inkscape:current-layer="layer1"
     showgrid="false"
     inkscape:window-width="2160"
     inkscape:window-height="1346"
     inkscape:window-x="-11"
     inkscape:window-y="-11"
     inkscape:window-maximized="1" />
  <metadata
     id="metadata2375">
    <rdf:RDF>
      <cc:Work
         rdf:about="">
        <dc:format>image/svg+xml</dc:format>
        <dc:type
           rdf:resource="http://purl.org/dc/dcmitype/StillImage" />
        <dc:title></dc:title>
      </cc:Work>
    </rdf:RDF>
  </metadata>
  <g
     inkscape:label="Layer 1"
     inkscape:groupmode="layer"
     id="layer1"
     transform="translate(-44.543198,-88.172234)">
    <rect
       style="opacity:1;fill:none;fill-opacity:1;fill-rule:nonzero;stroke:none;stroke-width:0.265;stroke-linecap:butt;stroke-linejoin:bevel;stroke-miterlimit:4;stroke-dasharray:none;stroke-dashoffset:0;stroke-opacity:1;paint-order:normal"
       id="rect2933"
       width="16.933334"
       height="16.933332"
       x="44.543198"
       y="88.172234"
       inkscape:export-xdpi="96"
       inkscape:export-ydpi="96"
       inkscape:export-filename="C:\Users\Rob\Minetest\minetest-5.0.1-win64\textures\Kenney\default\default_book_written.png" />
    <path
       inkscape:connector-curvature="0"
       style="fill:none;stroke:#000000;stroke-width:0.265;stroke-opacity:1;stroke-miterlimit:4;stroke-dasharray:none;stroke-linejoin:bevel"
       d="m 50.58456,95.454888 -0.635001,-2.793999 6.349998,-0.9525 0.635001,2.794 -6.349998,0.952499 m 8.267697,7.112002 -8.775698,1.27 v -1.2065 l 9.055099,-1.5113 -0.279401,1.4478"
       id="path696"
       inkscape:export-xdpi="96"
       inkscape:export-ydpi="96"
       inkscape:export-filename="C:\Users\Rob\Minetest\minetest-5.0.1-win64\textures\Kenney\default\default_book_written.png" />
    <path
       inkscape:connector-curvature="0"
       style="fill:none;stroke:#000000;stroke-width:0.265;fill-opacity:1;stroke-opacity:1;stroke-miterlimit:4;stroke-dasharray:none;stroke-linejoin:bevel"
       d="m 50.58456,95.454888 6.349998,-0.952499 -0.635001,-2.794 -6.349998,0.9525 0.635001,2.793999 m 9.397997,4.952992 -10.096497,1.46051 -2.6035,-11.4935 10.286997,-1.4605 2.413,11.49349"
       id="path698"
       inkscape:export-xdpi="96"
       inkscape:export-ydpi="96"
       inkscape:export-filename="C:\Users\Rob\Minetest\minetest-5.0.1-win64\textures\Kenney\default\default_book_written.png" />
    <path
       inkscape:connector-curvature="0"
       style="fill:none;stroke:#000000;stroke-width:0.265;fill-opacity:1;stroke-opacity:1;stroke-miterlimit:4;stroke-dasharray:none;stroke-linejoin:bevel"
       d="m 59.982557,100.40788 -0.07619,0.58421 -0.7747,0.127 -9.055098,1.5113 v 1.2065 l 8.775693,-1.27 0.8509,-0.127 -0.1016,0.6985 -10.921997,1.651 -2.4765,-11.176001 1.0795,-3.238499 2.6035,11.4935 10.096497,-1.46051"
       id="path700"
       inkscape:export-xdpi="96"
       inkscape:export-ydpi="96"
       inkscape:export-filename="C:\Users\Rob\Minetest\minetest-5.0.1-win64\textures\Kenney\default\default_book_written.png" />
    <text
       xml:space="preserve"
       style="font-style:normal;font-weight:normal;font-size:10.58333302px;line-height:125%;font-family:Sans;letter-spacing:0px;word-spacing:0px;fill:#000000;fill-opacity:1;stroke:none;stroke-width:0.26458332px;stroke-linecap:butt;stroke-linejoin:miter;stroke-opacity:1"
       x="62.300091"
       y="60.633347"
       id="text6163"><tspan
         sodipodi:role="line"
         id="tspan6161"
         x="62.300091"
         y="69.997116"
         style="stroke-width:0.26458332px" /><tspan
         sodipodi:role="line"
         x="62.300091"
         y="83.22628"
         style="stroke-width:0.26458332px"
         id="tspan6165" /></text>
    <g
       aria-label="Written Book   "
       transform="rotate(-8.090464,0.8926521,0.16359759)"
       style="font-style:normal;font-weight:normal;font-size:10.58333302px;line-height:100%;font-family:Sans;letter-spacing:0px;word-spacing:0px;fill:#000000;fill-opacity:1;stroke:none;stroke-width:0.265;stroke-linecap:butt;stroke-linejoin:bevel;stroke-opacity:1;filter:url(#filter6252);stroke-miterlimit:4;stroke-dasharray:none"
       id="text6215"
       inkscape:export-filename="C:\Users\Rob\Minetest\minetest-5.0.1-win64\textures\Kenney\default\default_book_written.png"
       inkscape:export-xdpi="96"
       inkscape:export-ydpi="96">
      <path
         d="m 37.686743,99.943862 q -0.02343,0.03169 -0.08613,0.142628 -0.261139,0.46991 -0.292144,0.46991 -0.04685,0 -0.07579,-0.0551 -0.02894,-0.0544 -0.07993,-0.29008 -0.0503,-0.235643 -0.08544,-0.450617 -0.01309,-0.06063 -0.02549,-0.09922 -0.01722,-0.05168 -0.01722,-0.07717 0,-0.02687 0.01998,-0.04823 0.02067,-0.02205 0.04548,-0.02205 0.03032,0 0.05237,0.04685 0.02274,0.04616 0.0503,0.225309 0.05926,0.389298 0.121268,0.588428 0.172254,-0.27492 0.214285,-0.34933 0.04203,-0.07511 0.118511,-0.241854 0.01998,-0.03652 0.05512,-0.03652 0.01516,0 0.03445,0.03032 0.01929,0.02963 0.06752,0.164675 0.11989,0.334179 0.163298,0.401009 0.242534,-0.401009 0.281809,-0.831646 0,-0.0096 0.01791,-0.02618 0.0186,-0.01723 0.03514,-0.01723 0.05512,0 0.05512,0.07028 0,0.07304 -0.03721,0.219108 -0.03652,0.145383 -0.08819,0.268718 -0.05099,0.12264 -0.172255,0.37413 -0.01998,0.0407 -0.03376,0.0724 -0.0069,0.0131 -0.02687,0.022 -0.01929,0.009 -0.03101,0.009 -0.02963,0 -0.05994,-0.0324 -0.03032,-0.0324 -0.09233,-0.18948 -0.06201,-0.15778 -0.08957,-0.23702 -0.01929,-0.05443 -0.03927,-0.100594 z"
         style="font-style:normal;font-variant:normal;font-weight:normal;font-stretch:normal;font-size:1.41111112px;line-height:0%;font-family:'Segoe Print';-inkscape-font-specification:'Segoe Print';text-align:center;text-anchor:middle;stroke-width:0.265;stroke-miterlimit:4;stroke-dasharray:none;stroke-linejoin:bevel"
         id="path6217"
         inkscape:connector-curvature="0" />
      <path
         d="m 38.59487,100.21534 q 0.0069,-0.0124 0.01654,-0.0345 0.04685,-0.10748 0.08613,-0.16812 0.03927,-0.06132 0.08613,-0.117129 0.04754,-0.05581 0.08613,-0.08475 0.03927,-0.02894 0.07097,-0.03996 0.03169,-0.01171 0.06132,-0.01171 0.05994,0 0.09784,0.03652 0.0379,0.03583 0.0379,0.08406 0,0.02136 -0.01378,0.03859 -0.01309,0.01722 -0.04065,0.01722 -0.02894,0 -0.05306,-0.02549 -0.0248,-0.02549 -0.05168,-0.02549 -0.07166,0 -0.198438,0.173629 -0.126779,0.17363 -0.15434,0.38241 -0.0069,0.0537 -0.02618,0.071 -0.01929,0.0172 -0.05443,0.0172 -0.03376,0 -0.04892,-0.0503 -0.01516,-0.0503 -0.01516,-0.1695 0,-0.0324 0.0034,-0.14262 0.0041,-0.13023 0.01654,-0.210151 0.0021,-0.01309 0.0069,-0.06132 0.0048,-0.05306 0.01171,-0.07372 0.0076,-0.02067 0.02963,-0.03858 0.02274,-0.01792 0.04892,-0.01792 0.02549,0 0.0379,0.01654 0.01309,0.01585 0.01309,0.03445 0,0.02687 -0.01378,0.07579 -0.01585,0.05443 -0.0186,0.0751 -0.0021,0.02343 -0.0076,0.04892 -0.0069,0.0296 -0.01378,0.15572 l -6.89e-4,0.0255 z"
         style="font-style:normal;font-variant:normal;font-weight:normal;font-stretch:normal;font-size:1.41111112px;line-height:0%;font-family:'Segoe Print';-inkscape-font-specification:'Segoe Print';text-align:center;text-anchor:middle;stroke-width:0.265;stroke-miterlimit:4;stroke-dasharray:none;stroke-linejoin:bevel"
         id="path6219"
         inkscape:connector-curvature="0" />
      <path
         d="m 39.410669,99.56628 q -0.01447,0 -0.02205,-0.03101 -0.0028,-0.0096 -0.0076,-0.02136 -0.0186,-0.04479 -0.0186,-0.07786 0,-0.02756 0.03238,-0.05581 0.03307,-0.02894 0.07304,-0.02894 0.01998,0 0.04479,0.01585 0.0248,0.01516 0.0248,0.02963 0,0.02274 -0.01722,0.07717 -0.01654,0.05443 -0.05374,0.07372 -0.03652,0.0186 -0.05581,0.0186 z m -0.09026,0.76963 q 0,0.0524 0.01447,0.11783 0.0028,0.0124 0.0028,0.0207 0,0.0124 -0.02274,0.0317 -0.02274,0.02 -0.04823,0.02 -0.06683,0 -0.06683,-0.12264 0,-0.12678 0.05237,-0.40101 0.01791,-0.09578 0.01791,-0.117823 0,-0.04341 0.01585,-0.07372 0.01585,-0.03101 0.04479,-0.03101 0.03514,0 0.05512,0.01722 0.02067,0.01654 0.02067,0.03721 0,0.02067 -0.0096,0.05443 -0.05168,0.181903 -0.06408,0.260453 -0.0124,0.0785 -0.0124,0.18672 z"
         style="font-style:normal;font-variant:normal;font-weight:normal;font-stretch:normal;font-size:1.41111112px;line-height:0%;font-family:'Segoe Print';-inkscape-font-specification:'Segoe Print';text-align:center;text-anchor:middle;stroke-width:0.265;stroke-miterlimit:4;stroke-dasharray:none;stroke-linejoin:bevel"
         id="path6221"
         inkscape:connector-curvature="0" />
      <path
         d="m 39.877135,99.793656 q 0.07097,-0.0055 0.133669,-0.01309 0.06201,-0.0069 0.103353,-0.0069 0.05237,0 0.06615,0.0096 0.01378,0.0096 0.01378,0.03376 0,0.05581 -0.07786,0.06063 -0.09991,0.0062 -0.183968,0.01723 -0.08406,0.01102 -0.09095,0.0186 -0.0062,0.0069 -0.04134,0.163984 -0.03514,0.15641 -0.03514,0.20326 0,0.0758 0.01998,0.10129 0.01998,0.0248 0.05994,0.0248 0.05926,0 0.164675,-0.0889 0.04065,-0.0365 0.0627,-0.0365 0.02963,0 0.02963,0.0317 0,0.0496 -0.09577,0.12884 -0.09508,0.0786 -0.194992,0.0786 -0.166743,0 -0.166743,-0.19637 0,-0.071 0.03445,-0.2198 0.03376,-0.148134 0.03376,-0.177762 0,-0.01034 -0.01654,-0.01034 l -0.07166,0.0062 q -0.08819,0 -0.08819,-0.07028 0,-0.03996 0.04065,-0.03996 h 0.141938 q 0.01447,0 0.02549,-0.01309 0.01102,-0.01309 0.03238,-0.0875 0.02136,-0.0751 0.0379,-0.148139 0.01654,-0.07235 0.06477,-0.07235 0.02963,0 0.04616,0.02067 0.01654,0.02067 0.01654,0.03858 0,0.0096 -0.0248,0.09853 z"
         style="font-style:normal;font-variant:normal;font-weight:normal;font-stretch:normal;font-size:1.41111112px;line-height:0%;font-family:'Segoe Print';-inkscape-font-specification:'Segoe Print';text-align:center;text-anchor:middle;stroke-width:0.265;stroke-miterlimit:4;stroke-dasharray:none;stroke-linejoin:bevel"
         id="path6223"
         inkscape:connector-curvature="0" />
      <path
         d="m 40.538593,99.793656 q 0.07097,-0.0055 0.13367,-0.01309 0.06201,-0.0069 0.103353,-0.0069 0.05237,0 0.06615,0.0096 0.01378,0.0096 0.01378,0.03376 0,0.05581 -0.07786,0.06063 -0.09991,0.0062 -0.183968,0.01723 -0.08406,0.01102 -0.09095,0.0186 -0.0062,0.0069 -0.04134,0.163984 -0.03514,0.15641 -0.03514,0.20326 0,0.0758 0.01998,0.10129 0.01998,0.0248 0.05994,0.0248 0.05926,0 0.164676,-0.0889 0.04065,-0.0365 0.0627,-0.0365 0.02963,0 0.02963,0.0317 0,0.0496 -0.09577,0.12884 -0.09508,0.0786 -0.194993,0.0786 -0.166742,0 -0.166742,-0.19637 0,-0.071 0.03445,-0.2198 0.03376,-0.148134 0.03376,-0.177762 0,-0.01034 -0.01654,-0.01034 l -0.07166,0.0062 q -0.08819,0 -0.08819,-0.07028 0,-0.03996 0.04065,-0.03996 h 0.141938 q 0.01447,0 0.02549,-0.01309 0.01103,-0.01309 0.03238,-0.0875 0.02136,-0.0751 0.0379,-0.148139 0.01654,-0.07235 0.06477,-0.07235 0.02963,0 0.04616,0.02067 0.01654,0.02067 0.01654,0.03858 0,0.0096 -0.02481,0.09853 z"
         style="font-style:normal;font-variant:normal;font-weight:normal;font-stretch:normal;font-size:1.41111112px;line-height:0%;font-family:'Segoe Print';-inkscape-font-specification:'Segoe Print';text-align:center;text-anchor:middle;stroke-width:0.265;stroke-miterlimit:4;stroke-dasharray:none;stroke-linejoin:bevel"
         id="path6225"
         inkscape:connector-curvature="0" />
      <path
         d="m 41.509421,100.2553 q 0,0.0703 -0.124712,0.1695 -0.124024,0.0992 -0.256316,0.0992 -0.110932,0 -0.171565,-0.0655 -0.05994,-0.0655 -0.05994,-0.18259 0,-0.19706 0.132981,-0.374827 0.13298,-0.177767 0.290766,-0.177767 0.05168,0 0.08406,0.03376 0.03307,0.03376 0.03307,0.0813 0,0.106109 -0.104042,0.203254 -0.104042,0.0971 -0.278364,0.19086 -0.03583,0.0186 -0.03583,0.0482 0,0.0572 0.03307,0.0916 0.03307,0.0345 0.09784,0.0345 0.148139,0 0.302479,-0.16398 0.02274,-0.0227 0.03445,-0.0227 0.02205,0 0.02205,0.0351 z m -0.478868,-0.10749 q 0.292144,-0.173631 0.292144,-0.279051 0,-0.04134 -0.03721,-0.04134 -0.06339,0 -0.143316,0.09302 -0.07924,0.09301 -0.111621,0.227371 z"
         style="font-style:normal;font-variant:normal;font-weight:normal;font-stretch:normal;font-size:1.41111112px;line-height:0%;font-family:'Segoe Print';-inkscape-font-specification:'Segoe Print';text-align:center;text-anchor:middle;stroke-width:0.265;stroke-miterlimit:4;stroke-dasharray:none;stroke-linejoin:bevel"
         id="path6227"
         inkscape:connector-curvature="0" />
      <path
         d="m 42.121959,99.959021 q -0.03583,0 -0.07855,0.04685 -0.04203,0.0469 -0.128847,0.21015 -0.114377,0.21911 -0.148139,0.24943 -0.03307,0.0303 -0.05512,0.0303 -0.08131,0 -0.08131,-0.0785 0,-0.0331 0.01103,-0.0937 0.0379,-0.20808 0.0379,-0.438902 0,-0.02618 0.02205,-0.05788 0.02274,-0.03238 0.04272,-0.03238 0.03583,0 0.05099,0.02205 0.01516,0.02205 0.01516,0.08888 0,0.06959 -0.04134,0.286632 -0.01378,0.0717 -0.01378,0.091 0,0.011 0.0055,0.011 0.01033,0 0.09577,-0.16467 0.08613,-0.167432 0.150895,-0.235645 0.06477,-0.06821 0.142627,-0.06821 0.06201,0 0.100597,0.0565 0.03927,0.0565 0.05719,0.206015 0.01929,0.17018 0.03445,0.21222 0.01585,0.0413 0.04961,0.0413 0.02136,0 0.05374,-0.0152 0.0055,-0.003 0.0083,-0.003 0.02963,0 0.02963,0.0345 0,0.0303 -0.04065,0.0648 -0.04065,0.0338 -0.09784,0.0338 -0.05857,0 -0.09095,-0.0462 -0.03169,-0.0469 -0.0503,-0.24874 -0.01929,-0.202565 -0.0813,-0.202565 z"
         style="font-style:normal;font-variant:normal;font-weight:normal;font-stretch:normal;font-size:1.41111112px;line-height:0%;font-family:'Segoe Print';-inkscape-font-specification:'Segoe Print';text-align:center;text-anchor:middle;stroke-width:0.265;stroke-miterlimit:4;stroke-dasharray:none;stroke-linejoin:bevel"
         id="path6229"
         inkscape:connector-curvature="0" />
    </g>
    <g
       id="g6270"
       style="font-style:normal;font-weight:normal;font-size:10.58333302px;line-height:100%;font-family:Sans;letter-spacing:0px;word-spacing:0px;fill:#000000;fill-opacity:1;stroke:none;stroke-width:0.265;stroke-linecap:butt;stroke-linejoin:bevel;stroke-opacity:1;stroke-miterlimit:4;stroke-dasharray:none"
       transform="rotate(-8.090464,0.8926521,0.16359759)"
       aria-label="Written Book   "
       inkscape:export-filename="C:\Users\Rob\Minetest\minetest-5.0.1-win64\textures\Kenney\default\default_book_written.png"
       inkscape:export-xdpi="96"
       inkscape:export-ydpi="96">
      <path
         inkscape:connector-curvature="0"
         id="path6256"
         style="font-style:normal;font-variant:normal;font-weight:normal;font-stretch:normal;font-size:1.41111112px;line-height:0%;font-family:'Segoe Print';-inkscape-font-specification:'Segoe Print';text-align:center;text-anchor:middle;stroke-width:0.265;stroke-miterlimit:4;stroke-dasharray:none;stroke-linejoin:bevel"
         d="m 37.686743,99.943862 q -0.02343,0.03169 -0.08613,0.142628 -0.261139,0.46991 -0.292144,0.46991 -0.04685,0 -0.07579,-0.0551 -0.02894,-0.0544 -0.07993,-0.29008 -0.0503,-0.235643 -0.08544,-0.450617 -0.01309,-0.06063 -0.02549,-0.09922 -0.01722,-0.05168 -0.01722,-0.07717 0,-0.02687 0.01998,-0.04823 0.02067,-0.02205 0.04548,-0.02205 0.03032,0 0.05237,0.04685 0.02274,0.04616 0.0503,0.225309 0.05926,0.389298 0.121268,0.588428 0.172254,-0.27492 0.214285,-0.34933 0.04203,-0.07511 0.118511,-0.241854 0.01998,-0.03652 0.05512,-0.03652 0.01516,0 0.03445,0.03032 0.01929,0.02963 0.06752,0.164675 0.11989,0.334179 0.163298,0.401009 0.242534,-0.401009 0.281809,-0.831646 0,-0.0096 0.01791,-0.02618 0.0186,-0.01723 0.03514,-0.01723 0.05512,0 0.05512,0.07028 0,0.07304 -0.03721,0.219108 -0.03652,0.145383 -0.08819,0.268718 -0.05099,0.12264 -0.172255,0.37413 -0.01998,0.0407 -0.03376,0.0724 -0.0069,0.0131 -0.02687,0.022 -0.01929,0.009 -0.03101,0.009 -0.02963,0 -0.05994,-0.0324 -0.03032,-0.0324 -0.09233,-0.18948 -0.06201,-0.15778 -0.08957,-0.23702 -0.01929,-0.05443 -0.03927,-0.100594 z" />
      <path
         inkscape:connector-curvature="0"
         id="path6258"
         style="font-style:normal;font-variant:normal;font-weight:normal;font-stretch:normal;font-size:1.41111112px;line-height:0%;font-family:'Segoe Print';-inkscape-font-specification:'Segoe Print';text-align:center;text-anchor:middle;stroke-width:0.265;stroke-miterlimit:4;stroke-dasharray:none;stroke-linejoin:bevel"
         d="m 38.59487,100.21534 q 0.0069,-0.0124 0.01654,-0.0345 0.04685,-0.10748 0.08613,-0.16812 0.03927,-0.06132 0.08613,-0.117129 0.04754,-0.05581 0.08613,-0.08475 0.03927,-0.02894 0.07097,-0.03996 0.03169,-0.01171 0.06132,-0.01171 0.05994,0 0.09784,0.03652 0.0379,0.03583 0.0379,0.08406 0,0.02136 -0.01378,0.03859 -0.01309,0.01722 -0.04065,0.01722 -0.02894,0 -0.05306,-0.02549 -0.0248,-0.02549 -0.05168,-0.02549 -0.07166,0 -0.198438,0.173629 -0.126779,0.17363 -0.15434,0.38241 -0.0069,0.0537 -0.02618,0.071 -0.01929,0.0172 -0.05443,0.0172 -0.03376,0 -0.04892,-0.0503 -0.01516,-0.0503 -0.01516,-0.1695 0,-0.0324 0.0034,-0.14262 0.0041,-0.13023 0.01654,-0.210151 0.0021,-0.01309 0.0069,-0.06132 0.0048,-0.05306 0.01171,-0.07372 0.0076,-0.02067 0.02963,-0.03858 0.02274,-0.01792 0.04892,-0.01792 0.02549,0 0.0379,0.01654 0.01309,0.01585 0.01309,0.03445 0,0.02687 -0.01378,0.07579 -0.01585,0.05443 -0.0186,0.0751 -0.0021,0.02343 -0.0076,0.04892 -0.0069,0.0296 -0.01378,0.15572 l -6.89e-4,0.0255 z" />
      <path
         inkscape:connector-curvature="0"
         id="path6260"
         style="font-style:normal;font-variant:normal;font-weight:normal;font-stretch:normal;font-size:1.41111112px;line-height:0%;font-family:'Segoe Print';-inkscape-font-specification:'Segoe Print';text-align:center;text-anchor:middle;stroke-width:0.265;stroke-miterlimit:4;stroke-dasharray:none;stroke-linejoin:bevel"
         d="m 39.410669,99.56628 q -0.01447,0 -0.02205,-0.03101 -0.0028,-0.0096 -0.0076,-0.02136 -0.0186,-0.04479 -0.0186,-0.07786 0,-0.02756 0.03238,-0.05581 0.03307,-0.02894 0.07304,-0.02894 0.01998,0 0.04479,0.01585 0.0248,0.01516 0.0248,0.02963 0,0.02274 -0.01722,0.07717 -0.01654,0.05443 -0.05374,0.07372 -0.03652,0.0186 -0.05581,0.0186 z m -0.09026,0.76963 q 0,0.0524 0.01447,0.11783 0.0028,0.0124 0.0028,0.0207 0,0.0124 -0.02274,0.0317 -0.02274,0.02 -0.04823,0.02 -0.06683,0 -0.06683,-0.12264 0,-0.12678 0.05237,-0.40101 0.01791,-0.09578 0.01791,-0.117823 0,-0.04341 0.01585,-0.07372 0.01585,-0.03101 0.04479,-0.03101 0.03514,0 0.05512,0.01722 0.02067,0.01654 0.02067,0.03721 0,0.02067 -0.0096,0.05443 -0.05168,0.181903 -0.06408,0.260453 -0.0124,0.0785 -0.0124,0.18672 z" />
      <path
         inkscape:connector-curvature="0"
         id="path6262"
         style="font-style:normal;font-variant:normal;font-weight:normal;font-stretch:normal;font-size:1.41111112px;line-height:0%;font-family:'Segoe Print';-inkscape-font-specification:'Segoe Print';text-align:center;text-anchor:middle;stroke-width:0.265;stroke-miterlimit:4;stroke-dasharray:none;stroke-linejoin:bevel"
         d="m 39.877135,99.793656 q 0.07097,-0.0055 0.133669,-0.01309 0.06201,-0.0069 0.103353,-0.0069 0.05237,0 0.06615,0.0096 0.01378,0.0096 0.01378,0.03376 0,0.05581 -0.07786,0.06063 -0.09991,0.0062 -0.183968,0.01723 -0.08406,0.01102 -0.09095,0.0186 -0.0062,0.0069 -0.04134,0.163984 -0.03514,0.15641 -0.03514,0.20326 0,0.0758 0.01998,0.10129 0.01998,0.0248 0.05994,0.0248 0.05926,0 0.164675,-0.0889 0.04065,-0.0365 0.0627,-0.0365 0.02963,0 0.02963,0.0317 0,0.0496 -0.09577,0.12884 -0.09508,0.0786 -0.194992,0.0786 -0.166743,0 -0.166743,-0.19637 0,-0.071 0.03445,-0.2198 0.03376,-0.148134 0.03376,-0.177762 0,-0.01034 -0.01654,-0.01034 l -0.07166,0.0062 q -0.08819,0 -0.08819,-0.07028 0,-0.03996 0.04065,-0.03996 h 0.141938 q 0.01447,0 0.02549,-0.01309 0.01102,-0.01309 0.03238,-0.0875 0.02136,-0.0751 0.0379,-0.148139 0.01654,-0.07235 0.06477,-0.07235 0.02963,0 0.04616,0.02067 0.01654,0.02067 0.01654,0.03858 0,0.0096 -0.0248,0.09853 z" />
      <path
         inkscape:connector-curvature="0"
         id="path6264"
         style="font-style:normal;font-variant:normal;font-weight:normal;font-stretch:normal;font-size:1.41111112px;line-height:0%;font-family:'Segoe Print';-inkscape-font-specification:'Segoe Print';text-align:center;text-anchor:middle;stroke-width:0.265;stroke-miterlimit:4;stroke-dasharray:none;stroke-linejoin:bevel"
         d="m 40.538593,99.793656 q 0.07097,-0.0055 0.13367,-0.01309 0.06201,-0.0069 0.103353,-0.0069 0.05237,0 0.06615,0.0096 0.01378,0.0096 0.01378,0.03376 0,0.05581 -0.07786,0.06063 -0.09991,0.0062 -0.183968,0.01723 -0.08406,0.01102 -0.09095,0.0186 -0.0062,0.0069 -0.04134,0.163984 -0.03514,0.15641 -0.03514,0.20326 0,0.0758 0.01998,0.10129 0.01998,0.0248 0.05994,0.0248 0.05926,0 0.164676,-0.0889 0.04065,-0.0365 0.0627,-0.0365 0.02963,0 0.02963,0.0317 0,0.0496 -0.09577,0.12884 -0.09508,0.0786 -0.194993,0.0786 -0.166742,0 -0.166742,-0.19637 0,-0.071 0.03445,-0.2198 0.03376,-0.148134 0.03376,-0.177762 0,-0.01034 -0.01654,-0.01034 l -0.07166,0.0062 q -0.08819,0 -0.08819,-0.07028 0,-0.03996 0.04065,-0.03996 h 0.141938 q 0.01447,0 0.02549,-0.01309 0.01103,-0.01309 0.03238,-0.0875 0.02136,-0.0751 0.0379,-0.148139 0.01654,-0.07235 0.06477,-0.07235 0.02963,0 0.04616,0.02067 0.01654,0.02067 0.01654,0.03858 0,0.0096 -0.02481,0.09853 z" />
      <path
         inkscape:connector-curvature="0"
         id="path6266"
         style="font-style:normal;font-variant:normal;font-weight:normal;font-stretch:normal;font-size:1.41111112px;line-height:0%;font-family:'Segoe Print';-inkscape-font-specification:'Segoe Print';text-align:center;text-anchor:middle;stroke-width:0.265;stroke-miterlimit:4;stroke-dasharray:none;stroke-linejoin:bevel"
         d="m 41.509421,100.2553 q 0,0.0703 -0.124712,0.1695 -0.124024,0.0992 -0.256316,0.0992 -0.110932,0 -0.171565,-0.0655 -0.05994,-0.0655 -0.05994,-0.18259 0,-0.19706 0.132981,-0.374827 0.13298,-0.177767 0.290766,-0.177767 0.05168,0 0.08406,0.03376 0.03307,0.03376 0.03307,0.0813 0,0.106109 -0.104042,0.203254 -0.104042,0.0971 -0.278364,0.19086 -0.03583,0.0186 -0.03583,0.0482 0,0.0572 0.03307,0.0916 0.03307,0.0345 0.09784,0.0345 0.148139,0 0.302479,-0.16398 0.02274,-0.0227 0.03445,-0.0227 0.02205,0 0.02205,0.0351 z m -0.478868,-0.10749 q 0.292144,-0.173631 0.292144,-0.279051 0,-0.04134 -0.03721,-0.04134 -0.06339,0 -0.143316,0.09302 -0.07924,0.09301 -0.111621,0.227371 z" />
      <path
         inkscape:connector-curvature="0"
         id="path6268"
         style="font-style:normal;font-variant:normal;font-weight:normal;font-stretch:normal;font-size:1.41111112px;line-height:0%;font-family:'Segoe Print';-inkscape-font-specification:'Segoe Print';text-align:center;text-anchor:middle;stroke-width:0.265;stroke-miterlimit:4;stroke-dasharray:none;stroke-linejoin:bevel"
         d="m 42.121959,99.959021 q -0.03583,0 -0.07855,0.04685 -0.04203,0.0469 -0.128847,0.21015 -0.114377,0.21911 -0.148139,0.24943 -0.03307,0.0303 -0.05512,0.0303 -0.08131,0 -0.08131,-0.0785 0,-0.0331 0.01103,-0.0937 0.0379,-0.20808 0.0379,-0.438902 0,-0.02618 0.02205,-0.05788 0.02274,-0.03238 0.04272,-0.03238 0.03583,0 0.05099,0.02205 0.01516,0.02205 0.01516,0.08888 0,0.06959 -0.04134,0.286632 -0.01378,0.0717 -0.01378,0.091 0,0.011 0.0055,0.011 0.01033,0 0.09577,-0.16467 0.08613,-0.167432 0.150895,-0.235645 0.06477,-0.06821 0.142627,-0.06821 0.06201,0 0.100597,0.0565 0.03927,0.0565 0.05719,0.206015 0.01929,0.17018 0.03445,0.21222 0.01585,0.0413 0.04961,0.0413 0.02136,0 0.05374,-0.0152 0.0055,-0.003 0.0083,-0.003 0.02963,0 0.02963,0.0345 0,0.0303 -0.04065,0.0648 -0.04065,0.0338 -0.09784,0.0338 -0.05857,0 -0.09095,-0.0462 -0.03169,-0.0469 -0.0503,-0.24874 -0.01929,-0.202565 -0.0813,-0.202565 z" />
    </g>
  </g>
</svg>
