<?xml version="1.0" encoding="UTF-8" standalone="no"?>
<!-- Created with Inkscape (http://www.inkscape.org/) -->

<svg
   xmlns:dc="http://purl.org/dc/elements/1.1/"
   xmlns:cc="http://creativecommons.org/ns#"
   xmlns:rdf="http://www.w3.org/1999/02/22-rdf-syntax-ns#"
   xmlns:svg="http://www.w3.org/2000/svg"
   xmlns="http://www.w3.org/2000/svg"
   xmlns:sodipodi="http://sodipodi.sourceforge.net/DTD/sodipodi-0.dtd"
   xmlns:inkscape="http://www.inkscape.org/namespaces/inkscape"
   width="107.8279mm"
   height="17.024244mm"
   viewBox="0 0 107.8279 17.024244"
   version="1.1"
   id="svg1319"
   inkscape:version="0.92.4 (5da689c313, 2019-01-14)"
   sodipodi:docname="creative_all.svg">
  <defs
     id="defs1313" />
  <sodipodi:namedview
     id="base"
     pagecolor="#ffffff"
     bordercolor="#666666"
     borderopacity="1.0"
     inkscape:pageopacity="0.0"
     inkscape:pageshadow="2"
     inkscape:zoom="1.07599"
     inkscape:cx="331.38027"
     inkscape:cy="17.757687"
     inkscape:document-units="mm"
     inkscape:current-layer="layer1"
     showgrid="false"
     inkscape:window-width="2160"
     inkscape:window-height="1346"
     inkscape:window-x="-11"
     inkscape:window-y="-11"
     inkscape:window-maximized="1"
     showguides="true"
     inkscape:guide-bbox="true"
     inkscape:snap-bbox="true"
     inkscape:snap-bbox-midpoints="false"
     inkscape:snap-global="false"
     inkscape:bbox-nodes="true"
     inkscape:snap-bbox-edge-midpoints="true">
    <sodipodi:guide
       position="15.127194,0.0039788122"
       orientation="0,1"
       id="guide1924"
       inkscape:locked="false" />
  </sodipodi:namedview>
  <metadata
     id="metadata1316">
    <rdf:RDF>
      <cc:Work
         rdf:about="">
        <dc:format>image/svg+xml</dc:format>
        <dc:type
           rdf:resource="http://purl.org/dc/dcmitype/StillImage" />
        <dc:title></dc:title>
      </cc:Work>
    </rdf:RDF>
  </metadata>
  <g
     inkscape:label="Layer 1"
     inkscape:groupmode="layer"
     id="layer1"
     transform="translate(-1.043259,-18.122715)">
    <g
       id="g1985"
       transform="matrix(-1,0,0,1,19.019852,0)"
       inkscape:export-filename="C:\Users\Rob\Minetest\minetest-5.0.1-win64\textures\Kenney\creative\creative_prev_icon.png"
       inkscape:export-xdpi="192.00018"
       inkscape:export-ydpi="192.00018">
      <rect
         style="opacity:1;fill:none;fill-opacity:1;fill-rule:nonzero;stroke:none;stroke-width:0.26499999;stroke-linecap:round;stroke-linejoin:bevel;stroke-miterlimit:4;stroke-dasharray:none;stroke-dashoffset:0;stroke-opacity:1;paint-order:normal"
         id="rect1939"
         width="16.933334"
         height="16.933334"
         x="1.0432587"
         y="18.20965" />
      <g
         style="stroke-width:0.63782209"
         transform="matrix(1.5678353,0,0,1.5678353,-101.71667,2.2282751)"
         id="g1944">
        <path
           inkscape:connector-curvature="0"
           style="fill:#886644;stroke:none;stroke-width:0.16875708"
           d="m 68.75853,12.901364 0.767292,0.03969 3.704167,1.693333 c 0.255763,0.114653 0.436562,0.304271 0.542395,0.568854 0.105833,0.264583 0.105833,0.529167 0,0.79375 -0.105833,0.264583 -0.286632,0.454201 -0.542395,0.568854 l -3.704167,1.680104 -0.767292,0.03969 H 68.7453 c -0.264583,-0.08819 -0.458611,-0.255764 -0.582083,-0.502708 -0.132292,-0.246945 -0.163159,-0.502709 -0.0926,-0.767292 l 0.370416,-1.415521 -0.370416,-1.42875 c -0.07056,-0.264583 -0.03969,-0.520347 0.0926,-0.767291 0.132291,-0.246945 0.330729,-0.414514 0.595312,-0.502709"
           id="path402"
           sodipodi:nodetypes="cccsscccccccccc" />
        <path
           inkscape:connector-curvature="0"
           style="fill:#b7916a;stroke:none;stroke-width:0.16875708"
           d="m 68.626239,13.655427 c 0.07055,-0.123473 0.171979,-0.207257 0.30427,-0.251354 l 0.383646,0.02646 3.704167,1.693333 c 0.123472,0.05291 0.211666,0.145518 0.264583,0.277813 0.05291,0.132291 0.05291,0.264583 0,0.396875 -0.05291,0.132291 -0.141108,0.229305 -0.264583,0.291041 l -3.704167,1.680104 -0.396875,0.01323 c -0.132291,-0.0441 -0.229305,-0.127885 -0.291041,-0.251355 -0.06173,-0.123472 -0.07496,-0.251354 -0.03969,-0.383645 l 0.396875,-1.547813 -0.396875,-1.561042 c -0.0441,-0.132291 -0.03087,-0.260173 0.03969,-0.383645"
           id="path404"
           sodipodi:nodetypes="cccccccccccccc" />
        <path
           inkscape:connector-curvature="0"
           style="fill:#97714a;stroke:none;stroke-width:0.16875708"
           d="m 69.089259,17.280218 0.436563,-1.680104 h 3.267604 l -3.704167,1.680104"
           id="path406" />
      </g>
    </g>
    <g
       id="g1978"
       transform="translate(-4.7815856,-1.7958327e-6)"
       inkscape:export-filename="C:\Users\Rob\Minetest\minetest-5.0.1-win64\textures\Kenney\creative\creative_next_icon.png"
       inkscape:export-xdpi="192.00018"
       inkscape:export-ydpi="192.00018">
      <rect
         y="18.209648"
         x="26.429131"
         height="16.933334"
         width="16.933334"
         id="rect1953"
         style="opacity:1;fill:none;fill-opacity:1;fill-rule:nonzero;stroke:none;stroke-width:0.26499999;stroke-linecap:round;stroke-linejoin:bevel;stroke-miterlimit:4;stroke-dasharray:none;stroke-dashoffset:0;stroke-opacity:1;paint-order:normal" />
      <g
         id="g1961"
         transform="matrix(1.5678353,0,0,1.5678353,-76.330797,2.2282733)"
         style="stroke-width:0.63782209">
        <path
           sodipodi:nodetypes="cccsscccccccccc"
           id="path1955"
           d="m 68.75853,12.901364 0.767292,0.03969 3.704167,1.693333 c 0.255763,0.114653 0.436562,0.304271 0.542395,0.568854 0.105833,0.264583 0.105833,0.529167 0,0.79375 -0.105833,0.264583 -0.286632,0.454201 -0.542395,0.568854 l -3.704167,1.680104 -0.767292,0.03969 H 68.7453 c -0.264583,-0.08819 -0.458611,-0.255764 -0.582083,-0.502708 -0.132292,-0.246945 -0.163159,-0.502709 -0.0926,-0.767292 l 0.370416,-1.415521 -0.370416,-1.42875 c -0.07056,-0.264583 -0.03969,-0.520347 0.0926,-0.767291 0.132291,-0.246945 0.330729,-0.414514 0.595312,-0.502709"
           style="fill:#886644;stroke:none;stroke-width:0.16875708"
           inkscape:connector-curvature="0" />
        <path
           sodipodi:nodetypes="cccccccccccccc"
           id="path1957"
           d="m 68.626239,13.655427 c 0.07055,-0.123473 0.171979,-0.207257 0.30427,-0.251354 l 0.383646,0.02646 3.704167,1.693333 c 0.123472,0.05291 0.211666,0.145518 0.264583,0.277813 0.05291,0.132291 0.05291,0.264583 0,0.396875 -0.05291,0.132291 -0.141108,0.229305 -0.264583,0.291041 l -3.704167,1.680104 -0.396875,0.01323 c -0.132291,-0.0441 -0.229305,-0.127885 -0.291041,-0.251355 -0.06173,-0.123472 -0.07496,-0.251354 -0.03969,-0.383645 l 0.396875,-1.547813 -0.396875,-1.561042 c -0.0441,-0.132291 -0.03087,-0.260173 0.03969,-0.383645"
           style="fill:#b7916a;stroke:none;stroke-width:0.16875708"
           inkscape:connector-curvature="0" />
        <path
           id="path1959"
           d="m 69.089259,17.280218 0.436563,-1.680104 h 3.267604 l -3.704167,1.680104"
           style="fill:#97714a;stroke:none;stroke-width:0.16875708"
           inkscape:connector-curvature="0" />
      </g>
    </g>
    <g
       id="g2041"
       inkscape:export-filename="C:\Users\Rob\Minetest\minetest-5.0.1-win64\textures\Kenney\creative\creative_clear_icon.png"
       inkscape:export-xdpi="192.00018"
       inkscape:export-ydpi="192.00018">
      <rect
         y="18.209648"
         x="47.87912"
         height="16.933332"
         width="16.933332"
         id="rect2035"
         style="opacity:1;fill:none;fill-opacity:1;fill-rule:nonzero;stroke:none;stroke-width:0.26499999;stroke-linecap:round;stroke-linejoin:bevel;stroke-miterlimit:4;stroke-dasharray:none;stroke-dashoffset:0;stroke-opacity:1;paint-order:normal" />
      <g
         transform="translate(12.571445,-0.4020934)"
         id="g2033">
        <path
           style="fill:#886644;fill-opacity:1;stroke:none;stroke-width:0.26458332"
           d="m 41.757441,22.605248 c -0.06118,0 -0.119875,0.02848 -0.176352,0.08495 l -2.158341,2.044767 c -0.131781,0.131765 -0.131781,0.25427 0,0.367224 l 2.015796,1.976072 -2.015796,1.998688 c -0.131781,0.112954 -0.131781,0.235459 0,0.367223 l 2.045274,2.022692 c 0.112954,0.112938 0.234921,0.112938 0.366686,0 l 1.942579,-2.024842 1.959248,2.002258 c 0.131778,0.112941 0.253746,0.112941 0.366686,0 l 2.000111,-1.954945 c 0.131765,-0.131778 0.131765,-0.253745 0,-0.366686 l -1.945302,-1.999158 1.967917,-1.953398 c 0.131764,-0.112941 0.131764,-0.235446 0,-0.367225 l -2.022726,-1.999634 c -0.11294,-0.112939 -0.234908,-0.112939 -0.366686,0 l -1.914021,1.889192 -1.874739,-2.002228 c -0.06588,-0.05647 -0.129152,-0.08495 -0.190334,-0.08495 z"
           id="path2024"
           inkscape:connector-curvature="0"
           sodipodi:nodetypes="sccccccccccccccccccccs" />
        <path
           inkscape:connector-curvature="0"
           style="fill:#c9a37d;stroke:none;stroke-width:0.26458332"
           d="m 40.466847,24.950765 1.147628,-1.14763 q 0.11252,-0.135007 0.270031,0 l 1.867711,1.890214 1.890213,-1.890214 q 0.157511,-0.135007 0.292533,0 l 1.125126,1.14763 q 0.157511,0.157511 0,0.292533 l -1.867709,1.890213 1.867709,1.867711 q 0.157511,0.135007 0,0.292533 l -1.125126,1.125127 q -0.135007,0.135006 -0.292533,0 l -1.867711,-1.890214 -1.890213,1.890214 q -0.157511,0.135006 -0.292533,0 l -1.125126,-1.125127 q -0.157528,-0.15751 0,-0.292533 l 1.890213,-1.867711 -1.890213,-1.890213 q -0.135007,-0.135006 0,-0.292533"
           id="path490" />
      </g>
    </g>
    <rect
       style="opacity:1;fill:none;fill-opacity:1;fill-rule:nonzero;stroke:none;stroke-width:0.465;stroke-linecap:round;stroke-linejoin:round;stroke-miterlimit:4;stroke-dasharray:none;stroke-dashoffset:0;stroke-opacity:1;paint-order:normal"
       id="rect2118"
       width="16.933332"
       height="16.933332"
       x="70.854408"
       y="18.122715"
       inkscape:export-filename="C:\Users\Rob\Minetest\minetest-5.0.1-win64\textures\Kenney\creative\creative_search_icon.png"
       inkscape:export-xdpi="191.99982"
       inkscape:export-ydpi="191.99982" />
    <g
       id="g2116"
       transform="translate(31.007019,16.329354)"
       inkscape:export-filename="C:\Users\Rob\Minetest\minetest-5.0.1-win64\textures\Kenney\creative\creative_search_icon.png"
       inkscape:export-xdpi="191.99982"
       inkscape:export-ydpi="191.99982">
      <path
         inkscape:connector-curvature="0"
         style="fill:#2b2200;fill-opacity:1;stroke:#886644;stroke-width:0.96499997;stroke-linejoin:round;stroke-miterlimit:4;stroke-dasharray:none;stroke-opacity:1"
         d="m 53.477154,13.997712 0.283255,-0.283255 0.56651,0.566511 -2.004577,2.004578 -0.56651,-0.566512 0.283255,-0.283255 1.438067,-1.438067"
         id="path2136"
         sodipodi:nodetypes="ccccccc" />
      <path
         inkscape:connector-curvature="0"
         style="fill:#b7916a;fill-opacity:1;stroke:#886644;stroke-width:1.06500006;stroke-linejoin:round;stroke-miterlimit:4;stroke-dasharray:none;stroke-opacity:1"
         d="m 48.221015,11.679181 1.438067,-1.438067 3.818072,3.756598 -1.438067,1.438067 -3.941021,-3.971758"
         id="path2134"
         sodipodi:nodetypes="ccccc" />
      <path
         sodipodi:nodetypes="ccccccc"
         id="path328"
         d="m 53.477154,13.997712 0.283255,-0.283255 0.56651,0.566511 -2.004577,2.004578 -0.56651,-0.566512 0.283255,-0.283255 1.438067,-1.438067"
         style="fill:#b7916a;fill-opacity:1;stroke:#886644;stroke-width:0.465;stroke-linejoin:round;stroke-miterlimit:4;stroke-dasharray:none;stroke-opacity:1"
         inkscape:connector-curvature="0" />
      <path
         inkscape:connector-curvature="0"
         style="fill:#886644;stroke:#886644;stroke-width:0.565;stroke-miterlimit:4;stroke-dasharray:none;stroke-opacity:1"
         d="m 42.101211,8.5499387 v -0.125429 q 0,-1.818708 1.266825,-3.110617 l 0.01254,-0.01254 q 1.291909,-1.266824 3.110617,-1.266824 1.818709,0 3.098076,1.266824 v 0.01254 q 1.29191,1.291909 1.29191,3.110617 v 0.125429 q -0.05017,1.7434513 -1.29191,2.9726473 -1.279367,1.29191 -3.098076,1.29191 -1.818708,0 -3.110617,-1.29191 h -0.01254 Q 42.151383,10.29339 42.101211,8.5499387 m 0.48917,-0.125429 q 0,1.6180243 1.141396,2.7594203 1.141396,1.128853 2.759419,1.128853 1.605481,0 2.746877,-1.128853 l 0.01254,-0.01254 q 1.128853,-1.141396 1.128853,-2.7468773 0,-1.618022 -1.128853,-2.759418 -1.141396,-1.141396 -2.75942,-1.141396 -1.60548,0 -2.759418,1.141396 -1.141396,1.153938 -1.141396,2.759418"
         id="path2132" />
      <path
         id="path452"
         d="m 42.101211,8.5499387 v -0.125429 q 0,-1.818708 1.266825,-3.110617 l 0.01254,-0.01254 q 1.291909,-1.266824 3.110617,-1.266824 1.818709,0 3.098076,1.266824 v 0.01254 q 1.29191,1.291909 1.29191,3.110617 v 0.125429 q -0.05017,1.7434513 -1.29191,2.9726473 -1.279367,1.29191 -3.098076,1.29191 -1.818708,0 -3.110617,-1.29191 h -0.01254 Q 42.151383,10.29339 42.101211,8.5499387 m 0.48917,-0.125429 q 0,1.6180243 1.141396,2.7594203 1.141396,1.128853 2.759419,1.128853 1.605481,0 2.746877,-1.128853 l 0.01254,-0.01254 q 1.128853,-1.141396 1.128853,-2.7468773 0,-1.618022 -1.128853,-2.759418 -1.141396,-1.141396 -2.75942,-1.141396 -1.60548,0 -2.759418,1.141396 -1.141396,1.153938 -1.141396,2.759418"
         style="fill:#886644;stroke:none;stroke-width:0.26458332"
         inkscape:connector-curvature="0" />
      <path
         sodipodi:nodetypes="ccccc"
         id="path332"
         d="m 48.221015,11.679181 1.438067,-1.438067 3.818072,3.756598 -1.438067,1.438067 -3.941021,-3.971758"
         style="fill:#b7916a;fill-opacity:1;stroke:#886644;stroke-width:0.465;stroke-linejoin:round;stroke-miterlimit:4;stroke-dasharray:none;stroke-opacity:1"
         inkscape:connector-curvature="0" />
      <path
         id="path456"
         d="m 43.092093,8.4245097 q 0,1.404796 0.97834,2.3956783 1.003426,1.003426 2.420763,1.003426 1.404796,0 2.395678,-1.003426 1.003426,-0.9908823 1.003426,-2.3956783 0,-1.417337 -1.003426,-2.420763 -0.990882,-0.978339 -2.395678,-0.978339 -1.417337,0 -2.420763,0.978339 -0.97834,1.003426 -0.97834,2.420763 m -0.501712,0 q 0,-1.60548 1.141396,-2.759418 1.153939,-1.141396 2.759419,-1.141396 1.618024,0 2.75942,1.141396 1.128853,1.141396 1.128853,2.759418 0,1.6054813 -1.128853,2.7468773 l -0.01254,0.01254 q -1.141396,1.128853 -2.746877,1.128853 -1.618023,0 -2.759419,-1.128853 -1.1414,-1.141396 -1.1414,-2.7594203"
         style="fill:#b7916a;stroke:none;stroke-width:0.26458332"
         inkscape:connector-curvature="0" />
      <path
         inkscape:connector-curvature="0"
         id="path458"
         d="m 46.491238,5.0255651 c -0.944891,0 -1.75209,0.326009 -2.421041,0.9782355 -0.652226,0.6689505 -0.978235,1.4756326 -0.978235,2.4205239 0,0.9365306 0.326009,1.7351315 0.978235,2.3957195 0.668951,0.668951 1.47615,1.003556 2.421041,1.003556 0.93653,0 1.735131,-0.334605 2.395719,-1.003556 0.668951,-0.660588 1.003557,-1.4591889 1.003557,-2.3957195 0,-0.9448913 -0.334606,-1.7515734 -1.003557,-2.4205239 C 48.226369,5.3515741 47.427768,5.0255651 46.491238,5.0255651 Z m 0,0.4914435 c 0.80103,0 1.483959,0.2792989 2.048971,0.837158 0.572164,0.5721646 0.858345,1.2619773 0.858345,2.0701579 0,0.80103 -0.286181,1.484476 -0.858345,2.0494875 -0.565012,0.572165 -1.247941,0.857829 -2.048971,0.857829 -0.808181,0 -1.49851,-0.285664 -2.070675,-0.857829 -0.55786,-0.5650115 -0.836641,-1.2484575 -0.836641,-2.0494875 0,-0.8081806 0.278781,-1.4979933 0.836641,-2.0701579 0.572165,-0.5578591 1.262494,-0.837158 2.070675,-0.837158 z"
         style="fill:#886644;fill-opacity:1;stroke:none;stroke-width:0.26458332" />
    </g>
    <g
       id="g2192"
       transform="translate(-87.999194,147.96188)" />
    <g
       id="g2258"
       transform="matrix(0.3324268,0,0,0.29640254,46.074962,37.272372)"
       inkscape:export-filename="C:\Users\Rob\Minetest\minetest-5.0.1-win64\textures\Kenney\creative\creative_trash_icon.png"
       inkscape:export-xdpi="191.99982"
       inkscape:export-ydpi="191.99982">
      <g
         id="g2320"
         transform="translate(199.53527,-60.561298)"
         inkscape:export-filename="C:\Users\Rob\Minetest\minetest-5.0.1-win64\textures\Kenney\creative\creative_trash_icon.png"
         inkscape:export-xdpi="96"
         inkscape:export-ydpi="96">
        <rect
           y="36.16415"
           x="25.606951"
           height="16.933332"
           width="16.933332"
           id="rect2260"
           style="opacity:1;fill:none;fill-opacity:1;fill-rule:nonzero;stroke:none;stroke-width:0.58395487;stroke-linecap:round;stroke-linejoin:round;stroke-miterlimit:4;stroke-dasharray:none;stroke-dashoffset:0;stroke-opacity:1;paint-order:normal"
           transform="matrix(3.0081811,0,0,3.3737903,-138.60183,-125.74917)" />
        <g
           id="g2339"
           transform="matrix(1.1367002,0,0,1.0512683,4.5378443,-1.7031917)">
          <g
             transform="translate(1.0653974e-6,2.5303427e-6)"
             id="g2287"
             style="fill:#886644;fill-opacity:1;stroke:#886644;stroke-width:3.54892015;stroke-linecap:round;stroke-linejoin:round;stroke-miterlimit:4;stroke-dasharray:none;stroke-opacity:1">
            <path
               inkscape:connector-curvature="0"
               style="opacity:1;fill:#886644;fill-opacity:1;fill-rule:nonzero;stroke:#886644;stroke-width:13.41324139;stroke-linecap:round;stroke-linejoin:round;stroke-miterlimit:4;stroke-dasharray:none;stroke-dashoffset:0;stroke-opacity:1;paint-order:normal"
               d="M -195.04688,0.50390625 V 83.681641 h 28.81055 v 20.912109 h 15.33399 15.33398 15.33594 15.33398 V 83.681641 h 29.275393 V 0.50390625 Z m 18.12305,34.85156275 h 24.16211 v 26.486328 h -24.16211 z m 60,0 h 24.162111 v 26.486328 h -24.162111 z"
               id="path2273"
               transform="scale(0.26458333)" />
            <path
               transform="translate(-87.999194,147.96188)"
               style="opacity:1;fill:#886644;fill-opacity:1;fill-rule:nonzero;stroke:#886644;stroke-width:3.54892015;stroke-linecap:round;stroke-linejoin:round;stroke-miterlimit:4;stroke-dasharray:none;stroke-dashoffset:0;stroke-opacity:1;paint-order:normal"
               d="m 52.130285,-126.80446 v 6.51629 h -4.05731 v -6.51629"
               id="path2275"
               inkscape:connector-curvature="0"
               sodipodi:nodetypes="cccc" />
            <path
               transform="translate(-87.999194,147.96188)"
               style="opacity:1;fill:#886644;fill-opacity:1;fill-rule:nonzero;stroke:#886644;stroke-width:3.54892015;stroke-linecap:round;stroke-linejoin:round;stroke-miterlimit:4;stroke-dasharray:none;stroke-dashoffset:0;stroke-opacity:1;paint-order:normal"
               d="m 56.187597,-126.80446 v 6.51629 h -4.05731 v -6.51629"
               id="path2277"
               inkscape:connector-curvature="0"
               sodipodi:nodetypes="cccc" />
            <path
               transform="translate(-87.999194,147.96188)"
               sodipodi:nodetypes="cccc"
               inkscape:connector-curvature="0"
               id="path2279"
               d="m 51.699964,-128.8645 -2.950771,0.016 2.95077,-3.82676 z"
               style="fill:#886644;fill-opacity:1;fill-rule:evenodd;stroke:#886644;stroke-width:3.54892015;stroke-linecap:round;stroke-linejoin:round;stroke-miterlimit:4;stroke-dasharray:none;stroke-opacity:1" />
            <path
               transform="translate(-87.999194,147.96188)"
               style="fill:#886644;fill-opacity:1;fill-rule:evenodd;stroke:#886644;stroke-width:3.54892015;stroke-linecap:round;stroke-linejoin:round;stroke-miterlimit:4;stroke-dasharray:none;stroke-opacity:1"
               d="m 52.675157,-128.8645 2.950771,0.016 -2.95077,-3.82676 z"
               id="path2281"
               inkscape:connector-curvature="0"
               sodipodi:nodetypes="cccc" />
            <path
               inkscape:connector-curvature="0"
               id="path2283"
               d="m -54.767741,40.460147 1.253918,2.915214 2.635135,-1.133454 1.648818,3.833311 -2.635134,1.133444 1.25392,2.915221 4.631778,-1.992263 -1.167956,-2.715358 25.869971,-11.127435 1.167955,2.715362 4.631776,-1.992264 -1.25392,-2.915216 -2.635132,1.133445 -1.648817,-3.833312 2.635132,-1.133446 -1.253919,-2.915215 -4.631775,1.992264 1.167955,2.715363 -25.869971,11.127428 -1.167956,-2.715351 z"
               style="opacity:1;fill:#886644;fill-opacity:1;fill-rule:nonzero;stroke:#886644;stroke-width:3.54892015;stroke-linecap:round;stroke-linejoin:round;stroke-miterlimit:4;stroke-dasharray:none;stroke-dashoffset:0;stroke-opacity:1;paint-order:normal"
               inkscape:transform-center-x="-14.827225"
               inkscape:transform-center-y="-6.9129831" />
            <path
               inkscape:transform-center-y="-6.9914831"
               inkscape:transform-center-x="14.790372"
               style="opacity:1;fill:#886644;fill-opacity:1;fill-rule:nonzero;stroke:#886644;stroke-width:3.54892015;stroke-linecap:round;stroke-linejoin:round;stroke-miterlimit:4;stroke-dasharray:none;stroke-dashoffset:0;stroke-opacity:1;paint-order:normal"
               d="m -17.064022,40.485745 -1.269354,2.908526 -2.62909,-1.147407 -1.669114,3.824517 2.629089,1.147396 -1.269355,2.908534 -4.621153,-2.016787 1.182333,-2.709129 -25.810622,-11.264412 -1.182333,2.709133 -4.62115,-2.016789 1.269356,-2.908528 2.629087,1.147398 1.669113,-3.824518 -2.629087,-1.147398 1.269355,-2.908528 4.62115,2.016789 -1.182333,2.709133 25.810622,11.264404 1.182333,-2.709121 z"
               id="path2285"
               inkscape:connector-curvature="0" />
          </g>
          <path
             transform="scale(0.26458333)"
             id="rect2153"
             d="M -195.04688,0.50390625 V 83.681641 h 28.81055 v 20.912109 h 15.33399 15.33398 15.33594 15.33398 V 83.681641 h 29.275393 V 0.50390625 Z m 18.12305,34.85156275 h 24.16211 v 26.486328 h -24.16211 z m 60,0 h 24.162111 v 26.486328 h -24.162111 z"
             style="opacity:1;fill:#b7916a;fill-opacity:1;fill-rule:nonzero;stroke:#886644;stroke-width:3.64724398;stroke-linecap:round;stroke-linejoin:round;stroke-miterlimit:4;stroke-dasharray:none;stroke-dashoffset:0;stroke-opacity:1;paint-order:normal"
             inkscape:connector-curvature="0" />
          <path
             sodipodi:nodetypes="cccc"
             inkscape:connector-curvature="0"
             id="rect2155"
             d="m 52.130285,-126.80446 v 6.51629 h -4.05731 v -6.51629"
             style="opacity:1;fill:#b7916a;fill-opacity:1;fill-rule:nonzero;stroke:#886644;stroke-width:0.96499997;stroke-linecap:round;stroke-linejoin:round;stroke-miterlimit:4;stroke-dasharray:none;stroke-dashoffset:0;stroke-opacity:1;paint-order:normal"
             transform="translate(-87.999194,147.96188)" />
          <path
             sodipodi:nodetypes="cccc"
             inkscape:connector-curvature="0"
             id="rect2157"
             d="m 56.187597,-126.80446 v 6.51629 h -4.05731 v -6.51629"
             style="opacity:1;fill:#b7916a;fill-opacity:1;fill-rule:nonzero;stroke:#886644;stroke-width:0.96499997;stroke-linecap:round;stroke-linejoin:round;stroke-miterlimit:4;stroke-dasharray:none;stroke-dashoffset:0;stroke-opacity:1;paint-order:normal"
             transform="translate(-87.999194,147.96188)" />
          <path
             style="fill:#886644;fill-opacity:1;fill-rule:evenodd;stroke:none;stroke-width:0.26458335px;stroke-linecap:butt;stroke-linejoin:miter;stroke-opacity:1"
             d="m 51.699964,-128.8645 -2.950771,0.016 2.95077,-3.82676 z"
             id="path2163"
             inkscape:connector-curvature="0"
             sodipodi:nodetypes="cccc"
             transform="translate(-87.999194,147.96188)" />
          <path
             sodipodi:nodetypes="cccc"
             inkscape:connector-curvature="0"
             id="path2165"
             d="m 52.675157,-128.8645 2.950771,0.016 -2.95077,-3.82676 z"
             style="fill:#886644;fill-opacity:1;fill-rule:evenodd;stroke:none;stroke-width:0.26458335px;stroke-linecap:butt;stroke-linejoin:miter;stroke-opacity:1"
             transform="translate(-87.999194,147.96188)" />
          <path
             inkscape:transform-center-y="-6.9129831"
             inkscape:transform-center-x="-14.827225"
             style="opacity:1;fill:#b7916a;fill-opacity:1;fill-rule:nonzero;stroke:#886644;stroke-width:1;stroke-linecap:round;stroke-linejoin:round;stroke-miterlimit:4;stroke-dasharray:none;stroke-dashoffset:0;stroke-opacity:1;paint-order:normal"
             d="m -54.767741,40.460147 1.253918,2.915214 2.635135,-1.133454 1.648818,3.833311 -2.635134,1.133444 1.25392,2.915221 4.631778,-1.992263 -1.167956,-2.715358 25.869971,-11.127435 1.167955,2.715362 4.631776,-1.992264 -1.25392,-2.915216 -2.635132,1.133445 -1.648817,-3.833312 2.635132,-1.133446 -1.253919,-2.915215 -4.631775,1.992264 1.167955,2.715363 -25.869971,11.127428 -1.167956,-2.715351 z"
             id="path2216"
             inkscape:connector-curvature="0" />
          <path
             inkscape:connector-curvature="0"
             id="path2218"
             d="m -17.064022,40.485745 -1.269354,2.908526 -2.62909,-1.147407 -1.669114,3.824517 2.629089,1.147396 -1.269355,2.908534 -4.621153,-2.016787 1.182333,-2.709129 -25.810622,-11.264412 -1.182333,2.709133 -4.62115,-2.016789 1.269356,-2.908528 2.629087,1.147398 1.669113,-3.824518 -2.629087,-1.147398 1.269355,-2.908528 4.62115,2.016789 -1.182333,2.709133 25.810622,11.264404 1.182333,-2.709121 z"
             style="opacity:1;fill:#b7916a;fill-opacity:1;fill-rule:nonzero;stroke:#886644;stroke-width:1;stroke-linecap:round;stroke-linejoin:round;stroke-miterlimit:4;stroke-dasharray:none;stroke-dashoffset:0;stroke-opacity:1;paint-order:normal"
             inkscape:transform-center-x="14.790372"
             inkscape:transform-center-y="-6.9914831" />
          <rect
             style="opacity:1;fill:#886644;fill-opacity:1;fill-rule:nonzero;stroke:none;stroke-width:3.54892015;stroke-linecap:round;stroke-linejoin:round;stroke-miterlimit:4;stroke-dasharray:none;stroke-dashoffset:0;stroke-opacity:1;paint-order:normal"
             id="rect2289"
             width="4.4382267"
             height="6.6368546"
             x="-45.95385"
             y="9.5348034" />
          <rect
             y="9.5348034"
             x="-30.23513"
             height="6.6368546"
             width="4.4382267"
             id="rect2291"
             style="opacity:1;fill:#886644;fill-opacity:1;fill-rule:nonzero;stroke:none;stroke-width:3.54892015;stroke-linecap:round;stroke-linejoin:round;stroke-miterlimit:4;stroke-dasharray:none;stroke-dashoffset:0;stroke-opacity:1;paint-order:normal" />
        </g>
      </g>
    </g>
  </g>
</svg>
