<?xml version="1.0" encoding="UTF-8" standalone="no"?>
<!-- Created with Inkscape (http://www.inkscape.org/) -->

<svg
   xmlns:dc="http://purl.org/dc/elements/1.1/"
   xmlns:cc="http://creativecommons.org/ns#"
   xmlns:rdf="http://www.w3.org/1999/02/22-rdf-syntax-ns#"
   xmlns:svg="http://www.w3.org/2000/svg"
   xmlns="http://www.w3.org/2000/svg"
   xmlns:sodipodi="http://sodipodi.sourceforge.net/DTD/sodipodi-0.dtd"
   xmlns:inkscape="http://www.inkscape.org/namespaces/inkscape"
   width="210mm"
   height="297mm"
   viewBox="0 0 210 297"
   version="1.1"
   id="svg4381"
   inkscape:version="0.92.4 (5da689c313, 2019-01-14)"
   sodipodi:docname="default_gui_all.svg">
  <defs
     id="defs4375" />
  <sodipodi:namedview
     id="base"
     pagecolor="#ffffff"
     bordercolor="#666666"
     borderopacity="1.0"
     inkscape:pageopacity="0.0"
     inkscape:pageshadow="2"
     inkscape:zoom="3.3063369"
     inkscape:cx="273.83835"
     inkscape:cy="10.842232"
     inkscape:document-units="mm"
     inkscape:current-layer="g1461"
     showgrid="false"
     inkscape:window-width="2160"
     inkscape:window-height="1346"
     inkscape:window-x="-11"
     inkscape:window-y="-11"
     inkscape:window-maximized="1"
     showguides="true"
     inkscape:guide-bbox="true"
     inkscape:snap-bbox="true"
     inkscape:snap-bbox-midpoints="false"
     inkscape:bbox-paths="false"
     inkscape:bbox-nodes="true"
     inkscape:snap-global="true">
    <sodipodi:guide
       position="7.4766609,272.46345"
       orientation="0,1"
       id="guide4968"
       inkscape:locked="false" />
    <sodipodi:guide
       position="7.4766607,272.46346"
       orientation="1,0"
       id="guide4970"
       inkscape:locked="false" />
    <sodipodi:guide
       position="26.994224,281.0703"
       orientation="1,0"
       id="guide4976"
       inkscape:locked="false" />
    <sodipodi:guide
       position="26.994223,242.20905"
       orientation="0,1"
       id="guide5035"
       inkscape:locked="false" />
    <sodipodi:guide
       position="26.994218,203.3822"
       orientation="0,1"
       id="guide5073"
       inkscape:locked="false" />
    <sodipodi:guide
       position="158.22755,164.22462"
       orientation="1,0"
       id="guide5202"
       inkscape:locked="false" />
    <sodipodi:guide
       position="183.77067,43.790066"
       orientation="0,1"
       id="guide5219"
       inkscape:locked="false" />
    <sodipodi:guide
       position="-4.1821972,222.64051"
       orientation="1,0"
       id="guide5273"
       inkscape:locked="false" />
    <sodipodi:guide
       position="34.23385,32.716584"
       orientation="0,1"
       id="guide4616"
       inkscape:locked="false" />
    <sodipodi:guide
       position="26.994224,13.934362"
       orientation="0,1"
       id="guide4678"
       inkscape:locked="false" />
  </sodipodi:namedview>
  <metadata
     id="metadata4378">
    <rdf:RDF>
      <cc:Work
         rdf:about="">
        <dc:format>image/svg+xml</dc:format>
        <dc:type
           rdf:resource="http://purl.org/dc/dcmitype/StillImage" />
        <dc:title />
      </cc:Work>
    </rdf:RDF>
  </metadata>
  <g
     inkscape:label="Layer 1"
     inkscape:groupmode="layer"
     id="layer1">
    <rect
       style="opacity:1;fill:none;fill-opacity:1;fill-rule:nonzero;stroke:none;stroke-width:0.26499999;stroke-linecap:round;stroke-linejoin:bevel;stroke-miterlimit:4;stroke-dasharray:none;stroke-dashoffset:0;stroke-opacity:1;paint-order:normal"
       id="rect4972"
       width="16.933332"
       height="16.933332"
       x="7.4766607"
       y="7.6032162"
       ry="0"
       inkscape:export-filename="C:\Users\Rob\Minetest\minetest-5.0.1-win64\textures\Kenney\default\gui_furnace_arrow_bg.png"
       inkscape:export-xdpi="96"
       inkscape:export-ydpi="96" />
    <g
       id="g3492"
       transform="matrix(0,-0.61791113,0.61791113,0,-73.56867,84.283873)"
       style="stroke-width:0.42818984;fill:#8d8d8d;fill-opacity:1"
       inkscape:export-filename="C:\Users\Rob\Minetest\minetest-5.0.1-win64\textures\Kenney\default\gui_furnace_arrow_bg.png"
       inkscape:export-xdpi="96"
       inkscape:export-ydpi="96">
      <g
         transform="scale(0.26458333)"
         id="use3490"
         style="stroke-width:0.42818984;fill:#8d8d8d;fill-opacity:1">
        <path
           style="fill:#8d8d8d;fill-opacity:1;stroke:none;stroke-width:0.42818981"
           inkscape:connector-curvature="0"
           id="path4940"
           d="m 373.0316,540.87186 c -0.73767,0.77279 -1.1065,1.70366 -1.1065,2.7926 v 7.74553 c 0,1.08894 0.36883,2.03737 1.1065,2.84529 0.73767,0.80793 1.63342,1.26458 2.68723,1.36996 l 55.48325,5.58521 v 5.26907 c 0,1.15919 0.40396,2.16031 1.21189,3.00336 h 0.0527 c 0.80792,0.80793 1.79148,1.21189 2.95067,1.21189 h 3.84642 c 1.15919,0 2.14275,-0.40396 2.95068,-1.21189 l 19.07401,-18.96863 c 0.84305,-0.80793 1.26458,-1.79149 1.26458,-2.95068 v -0.0527 c 0,-1.19432 -0.42153,-2.19544 -1.26458,-3.00337 l -19.07401,-18.96863 c -0.80793,-0.80792 -1.79149,-1.21188 -2.95068,-1.21188 h -3.84642 c -1.15919,0 -2.14275,0.40396 -2.95067,1.21188 l -0.0527,0.0527 c -0.80793,0.80793 -1.21189,1.79149 -1.21189,2.95068 v 5.32175 l -55.48325,5.58521 c -1.05381,0.10538 -1.94956,0.56203 -2.68723,1.36996 v 0.0527"
           sodipodi:nodetypes="csssccsccssccssccssssscccc" />
        <path
           style="fill:#787878;stroke:none;stroke-width:0.42818981;fill-opacity:1"
           inkscape:connector-curvature="0"
           id="path4942"
           d="m 374.29618,543.66446 v 7.74553 l 59.27698,5.95404 v 9.11549 h 3.84642 l 19.07401,-18.96864 -19.07401,-18.96863 h -3.84642 v 9.16817 z" />
      </g>
    </g>
    <rect
       ry="0"
       y="7.6032181"
       x="26.994225"
       height="16.933332"
       width="16.933332"
       id="rect4978"
       style="opacity:1;fill:none;fill-opacity:1;fill-rule:nonzero;stroke:none;stroke-width:0.26499999;stroke-linecap:round;stroke-linejoin:bevel;stroke-miterlimit:4;stroke-dasharray:none;stroke-dashoffset:0;stroke-opacity:1;paint-order:normal"
       inkscape:export-filename="C:\Users\Rob\Minetest\minetest-5.0.1-win64\textures\Kenney\default\gui_furnace_arrow_fg.png"
       inkscape:export-xdpi="96"
       inkscape:export-ydpi="96" />
    <g
       style="stroke-width:0.42818984"
       transform="matrix(0,-0.61791113,0.61791113,0,-54.051107,84.283875)"
       id="g4986"
       inkscape:export-filename="C:\Users\Rob\Minetest\minetest-5.0.1-win64\textures\Kenney\default\gui_furnace_arrow_fg.png"
       inkscape:export-xdpi="96"
       inkscape:export-ydpi="96">
      <g
         style="stroke-width:0.42818984"
         id="g4984"
         transform="scale(0.26458333)">
        <path
           d="m 373.0316,540.87186 c -0.73767,0.77279 -1.1065,1.70366 -1.1065,2.7926 v 7.74553 c 0,1.08894 0.36883,2.03737 1.1065,2.84529 0.73767,0.80793 1.63342,1.26458 2.68723,1.36996 l 55.48325,5.58521 v 5.26907 c 0,1.15919 0.40396,2.16031 1.21189,3.00336 h 0.0527 c 0.80792,0.80793 1.79148,1.21189 2.95067,1.21189 h 3.84642 c 1.15919,0 2.14275,-0.40396 2.95068,-1.21189 l 19.07401,-18.96863 c 0.84305,-0.80793 1.26458,-1.79149 1.26458,-2.95068 v -0.0527 c 0,-1.19432 -0.42153,-2.19544 -1.26458,-3.00337 l -19.07401,-18.96863 c -0.80793,-0.80792 -1.79149,-1.21188 -2.95068,-1.21188 h -3.84642 c -1.15919,0 -2.14275,0.40396 -2.95067,1.21188 l -0.0527,0.0527 c -0.80793,0.80793 -1.21189,1.79149 -1.21189,2.95068 v 5.32175 l -55.48325,5.58521 c -1.05381,0.10538 -1.94956,0.56203 -2.68723,1.36996 v 0.0527"
           id="path4980"
           inkscape:connector-curvature="0"
           style="fill:#ffcc00;stroke:none;stroke-width:0.42818981"
           sodipodi:nodetypes="csssccsccssccssccssssscccc" />
        <path
           d="m 374.29618,543.66446 v 7.74553 l 59.27698,5.95404 v 9.11549 h 3.84642 l 19.07401,-18.96864 -19.07401,-18.96863 h -3.84642 v 9.16817 z"
           id="path4982"
           inkscape:connector-curvature="0"
           style="fill:#ff6600;stroke:none;stroke-width:0.42818981" />
      </g>
    </g>
    <g
       transform="matrix(0.26458333,0,0,0.26458333,-131.55878,-105.35455)"
       id="g1461"
       inkscape:export-filename="C:\Users\Rob\Minetest\minetest-5.0.1-win64\textures\Kenney\gui_hotbar.png"
       inkscape:export-xdpi="95.928886"
       inkscape:export-ydpi="95.928886"
       style="fill:#d9cdaf;fill-opacity:1">
      <g
         id="g5086"
         style="opacity:1"
         inkscape:export-filename="C:\Users\Rob\Minetest\minetest-5.0.1-win64\textures\Kenney\gui_hotbar.png"
         inkscape:export-xdpi="95.928886"
         inkscape:export-ydpi="95.928886"
         transform="translate(6.357203e-6,-146.74714)">
        <path
           style="fill:#e5d09d;fill-opacity:1;stroke:none;stroke-width:0.99999982"
           inkscape:connector-curvature="0"
           id="path1428"
           d="m 829.62047,686.81929 -0.0817,-0.0822 0.0817,1.15111 v 8.71556 l -3.92428,3.94666 3.92428,3.94667 v 37.65778 q 0,3.20666 -3.02496,3.28889 h -57.39262 l -2.53443,-2.54889 -2.53444,2.54889 h -69.57423 l -4.49658,-4.52223 -4.49657,4.52223 H 535.13585 q -3.10672,-0.0822 -3.10672,-3.28889 v -5.92 l 4.49657,-4.52222 -4.49657,-4.52223 V 687.8882 l 0.0817,-0.82222 0.0817,-0.32889 q 0.40879,-2.13778 3.10673,-2.13778 h 27.87875 l 3.67902,3.7 3.67901,-3.7 h 15.28834 l 4.57833,4.60445 4.57833,-4.60445 H 826.3502 q 2.69795,0 3.27023,2.22" />
        <path
           style="fill:#ccba8c;fill-opacity:1;stroke:none;stroke-width:0.99999982"
           inkscape:connector-curvature="0"
           id="path1430"
           d="m 829.62047,686.81929 q -0.57228,-2.22 -3.27023,-2.22 H 594.98115 l -4.57833,4.60445 -4.57833,-4.60445 h -15.28834 l -3.67901,3.7 -3.67902,-3.7 h -27.87875 q -2.69794,0 -3.10673,2.13778 l -0.0817,0.32889 -0.0817,0.82222 v 39.30222 l 4.49657,4.52223 -4.49657,4.52222 v 5.92 q 0,3.20666 3.10672,3.28889 h 150.43079 l 4.49657,-4.52223 4.49658,4.52223 h 69.57423 l 2.53444,-2.54889 2.53443,2.54889 h 57.39262 q 3.02496,-0.0822 3.02496,-3.28889 v -37.65778 l -3.92428,-3.94667 3.92428,-3.94666 v -8.71556 l -0.0817,-1.15111 0.0817,0.0822 m -3.27023,-5.50888 q 5.72291,0 6.45871,5.01555 l 0.0817,1.56222 v 54.26667 l -0.0817,1.64444 q -0.7358,4.93334 -6.45871,4.93334 H 535.29941 q -5.72291,0 -6.37695,-4.93334 l -0.16352,-1.64444 v -54.26667 l 0.16352,-1.56222 q 0.65404,-5.01555 6.37695,-5.01555 h 291.05087" />
        <path
           style="fill:#ede0bf;fill-opacity:1;stroke:none;stroke-width:0.99999982"
           d="m 535.29883,678.02148 c -6.54048,0 -9.81055,3.28942 -9.81055,9.86719 v 54.67774 l 0.082,0.98632 c 0.38153,5.20741 3.13445,8.03024 8.25781,8.46875 h 0.16407 0.16211 0.16406 0.32617 0.24609 0.40821 285.37305 5.67773 285.37312 c 6.5404,0 9.8105,-3.28941 9.8105,-9.86718 v -54.67774 c -0.1636,-6.3037 -3.4336,-9.45508 -9.8105,-9.45508 h -285.37312 -7.15039 z m 0,3.28907 h 285.37305 5.67773 c 3.81527,0 5.96845,1.67192 6.45898,5.01562 l 0.082,1.5625 v 54.26563 l -0.082,1.64453 c -0.49053,3.28889 -2.64371,4.93359 -6.45898,4.93359 h -5.67773 -285.37305 c -3.81528,0 -5.94093,-1.6447 -6.37695,-4.93359 l -0.16211,-1.64453 v -54.26563 l 0.16211,-1.5625 c 0.43602,-3.3437 2.56167,-5.01562 6.37695,-5.01562 z m 299.09765,0 h 277.32622 c 3.8152,0 5.9683,1.6447 6.4589,4.93359 l 0.082,1.64453 v 54.26563 l -0.082,1.5625 c -0.4906,3.3437 -2.6437,5.01562 -6.4589,5.01562 H 834.375 c 1.11709,-1.52606 1.71794,-3.57483 1.78516,-6.16601 v -54.67774 c 0,-2.78374 -0.59227,-4.97247 -1.76368,-6.57812 z"
           id="path1432"
           inkscape:connector-curvature="0" />
        <path
           d="m 1114.9922,743.22374 -0.082,0.0822 0.082,-1.15111 v -8.71556 l -3.9243,-3.94666 3.9243,-3.94667 v -37.65778 q 0,-3.20666 -3.025,-3.28889 h -57.3926 l -2.5344,2.54889 -2.5345,-2.54889 h -69.57419 l -4.49657,4.52223 -4.49657,-4.52223 h -150.4308 q -3.10671,0.0822 -3.10671,3.28889 v 5.92 l 4.49657,4.52222 -4.49657,4.52223 v 39.30222 l 0.0817,0.82222 0.0817,0.32889 q 0.40879,2.13778 3.10673,2.13778 h 27.87875 l 3.67902,-3.7 3.67901,3.7 h 15.28834 l 4.57833,-4.60445 4.57833,4.60445 h 231.36903 q 2.698,0 3.2703,-2.22"
           id="path1434"
           inkscape:connector-curvature="0"
           style="fill:#e5d09d;fill-opacity:1;stroke:none;stroke-width:0.99999982" />
        <path
           sodipodi:nodetypes="csccccccccccccccscccccccccscccccc"
           d="m 1114.9922,743.22374 c -0.3815,1.48 -1.4716,2.22 -3.2702,2.22 H 880.35287 l -4.57833,-4.60445 -4.57833,4.60445 h -15.28834 l -3.67901,-3.7 -3.67902,3.7 h -27.87875 l 4e-5,3.2889 H 1111.722 m 0,0 c 3.8153,0 5.9682,-1.67185 6.4587,-5.01555 l 0.082,-1.56222 V 687.8882 l -0.082,-1.64444 c -0.4905,-3.28889 -2.6434,-4.93334 -6.4587,-4.93334 H 820.67113 l -0.16352,3.28887 h 150.4308 l 4.49657,4.52223 4.49657,-4.52223 h 69.57425 l 2.5344,2.54889 2.5345,-2.54889 h 57.3926 c 2.0166,0.0548 3.0249,1.1511 3.0249,3.28889 v 37.65778 l -3.9243,3.94667 3.9243,3.94666 v 8.71556 l -0.082,1.15111 0.082,-0.0822"
           id="path1436"
           inkscape:connector-curvature="0"
           style="fill:#ccba8c;fill-opacity:1;stroke:none;stroke-width:0.99999982" />
      </g>
      <g
         id="g5271"
         transform="matrix(1,0,0,1.0000038,-73.767154,-0.00382588)"
         style="stroke-width:0.99999809"
         inkscape:export-filename="C:\Users\Rob\Minetest\minetest-5.0.1-win64\textures\Kenney\default\gui_formbg.png"
         inkscape:export-xdpi="96"
         inkscape:export-ydpi="96">
        <path
           id="path290"
           transform="translate(497.23004,398.19043)"
           d="m 360.44531,353.83203 c -0.0143,0 -0.0268,0.002 -0.041,0.002 h -81.44532 v 0.002 h -84.0332 -1.86719 -83.98242 c -4.7,0 -7.05078,2.34883 -7.05078,7.04883 v 80.19531 5.70508 77.34961 c 0,0.20361 0.0101,0.39732 0.0195,0.59179 -0.009,0.1949 -0.0195,0.38771 -0.0195,0.5918 v 80.19922 5.70117 77.35352 c 0,0.16469 0.01,0.31959 0.0156,0.47851 -0.006,0.15954 -0.0156,0.31511 -0.0156,0.48047 v 80.19531 5.70508 77.34961 c 0,2.3334 0.61621,4.06582 1.84961,5.19922 1.1333,1.2333 2.8833,1.84961 5.25,1.84961 h 76.52148 0.11524 84.74414 67.23242 1.86719 81.37305 0.11328 85.90039 c 0.014,0 0.027,1e-4 0.041,0 h 83.94141 c 4.7,0 7.05078,-2.34883 7.05078,-7.04883 v -77.35352 -5.70117 -80.19922 c 0,-0.16434 -0.01,-0.31817 -0.0156,-0.47656 0.006,-0.15866 0.0156,-0.31387 0.0156,-0.47851 v -77.34961 -5.70508 -80.19531 c 0,-0.20436 -0.0106,-0.39829 -0.0195,-0.59375 0.009,-0.19547 0.0195,-0.3894 0.0195,-0.59375 v -77.35352 -5.70117 -80.19922 c 0,-2.33333 -0.61621,-4.06589 -1.84961,-5.19922 -1.1333,-1.23333 -2.8833,-1.84961 -5.25,-1.84961 h -84.74414 v 0.002 h -59.7793 c -0.0194,-9e-5 -0.0371,-0.002 -0.0566,-0.002 z m 7.25977,2 h 61.83984 v 0.002 H 446.375 c 3.34586,0.0105 5.01953,1.70818 5.01953,5.09766 v 85.84961 c 0,3.36667 -1.68216,5.05078 -5.04883,5.05078 h -30.30273 v -10.75195 h -2 v 10.75195 h -46.33594 c 1.13292,-1.13401 1.70508,-2.8125 1.70508,-5.04883 v -85.90039 c 0,-2.23761 -0.57281,-3.91673 -1.70703,-5.05078 z m 151.97656,0 h 71.24414 c 3.4,0 5.09961,1.68216 5.09961,5.04883 v 80.19922 5.70117 c 0,3.36667 -1.69961,5.04883 -5.09961,5.04883 h -71.24023 c 1.1316,-1.13395 1.70312,-2.81183 1.70312,-5.04688 v -85.90039 c 0,-2.23761 -0.57293,-3.91679 -1.70703,-5.05078 z m -235.22852,0.002 h 74.95899 v 0.0684 c 0.31799,-0.0394 0.64853,-0.0664 1.00391,-0.0684 h 1.89648 c 3.4,0 5.09961,1.68216 5.09961,5.04883 v 85.90039 c 0,3.36667 -1.69961,5.04884 -5.09961,5.04883 h -1.86719 c -0.36737,0 -0.70593,-0.0302 -1.0332,-0.0703 v 0.0703 h -26.77344 v -10.75195 h -2 v 10.75195 h -46.33203 c 1.13028,-1.13534 1.70117,-2.83002 1.70117,-5.0957 v -85.84961 c 0,-2.20247 -0.52285,-3.88219 -1.55469,-5.05274 z m 167.23829,0 h 62.59765 c 3.4,0 5.09961,1.68216 5.09961,5.04883 v 85.90039 c 0,3.34604 -1.68261,5.02637 -5.04101,5.04688 h -8.16602 v 0.004 h -6.15625 v -10.7539 h -2 v 10.7539 h -46.18555 c 1.03184,-1.17055 1.55469,-2.85025 1.55469,-5.05273 v -85.84961 c 0,-2.26697 -0.57154,-3.96231 -1.70312,-5.09766 z m -342.61524,0.002 h 82.94922 v 0.0703 c 0.32728,-0.0401 0.66583,-0.0703 1.0332,-0.0703 h 1.86719 c 3.4,0 5.09961,1.68216 5.09961,5.04883 v 85.90039 c 0,3.36667 -1.69961,5.04882 -5.09961,5.04882 h -1.89648 c -0.35538,-0.002 -0.68591,-0.029 -1.00391,-0.0684 v 0.0684 h -11.36328 v -10.7539 h -2 v 10.7539 h -69.58594 c -3.36666,0 -5.05078,-1.68215 -5.05078,-5.04882 v -5.70508 -80.19531 c 0,-3.36667 1.68412,-5.04883 5.05078,-5.04883 z m 91.24414,0 h 78.63867 c 3.36667,0 5.04883,1.68411 5.04883,5.05078 v 85.84961 c 0,3.37896 -1.66511,5.07481 -4.99023,5.0957 h -0.0586 v 0.004 h -30.30273 v -10.75586 h -2 v 10.75586 h -46.33789 c 1.13422,-1.13405 1.70703,-2.81317 1.70703,-5.05078 v -85.90039 c 0,-2.23633 -0.57216,-3.9148 -1.70508,-5.04883 z M 596.02539,452.125 v 67.70312 c -1.17049,-1.03089 -2.8493,-1.55468 -5.05078,-1.55468 h -83.98242 -1.86719 -5.09961 v -64.43946 h 14.26367 c 0.04,0 0.076,-0.004 0.11524,-0.004 h 76.52148 c 2.26831,0 3.96428,-0.57219 5.09961,-1.70508 z m -492,0.15625 c 1.17047,1.03061 2.84961,1.55273 5.05078,1.55273 h 69.58594 v 64.43555 H 109.125 c -2.26831,0 -3.96428,0.57218 -5.09961,1.70508 z m 175.04688,1.55078 h 51.5664 v 64.4375 h -76.93359 c -0.0195,0 -0.0372,0.002 -0.0566,0.002 h -4.99219 v -64.43554 h 30.30273 c 0.039,0 0.0746,-0.004 0.11329,-0.004 z m 53.5664,0 h 27.80664 1.86719 51.73047 v 64.43945 h -74.39649 c -0.0142,0 -0.0267,-0.002 -0.041,-0.002 h -6.9668 z m 83.4043,0 h 13.50195 v 0.002 h 68.48047 v 64.43946 H 421.0918 v -0.002 h -5.04883 z m -235.38086,0.002 h 12.35547 c 0.0142,6e-5 0.0267,0.002 0.041,0.002 h 53.59766 v 64.43554 h -52.78711 v -0.002 h -13.20702 z m -71.53711,66.4355 h 69.53711 v 3.86328 c 0,0.20416 0.01,0.39888 0.0195,0.59375 -0.01,0.19509 -0.0195,0.38936 -0.0195,0.59375 v 3.85938 H 109.125 c -3.18678,0 -4.85879,-1.49756 -5.05859,-4.45508 0.1998,-2.95749 1.87181,-4.45508 5.05859,-4.45508 z m 161.38086,0 h 60.13281 v 3.86328 c 0,0.20428 0.01,0.39878 0.0195,0.59375 -0.01,0.19508 -0.0195,0.38936 -0.0195,0.59375 v 3.86133 h -76.93359 c -3.14722,0 -4.8028,-1.49143 -5.00781,-4.43359 0.20391,-2.96245 1.85069,-4.46675 4.97851,-4.47657 h 16.83008 z m -84.74414,0.002 h 60.89453 v 3.85938 c 0,0.21756 0.009,0.42544 0.0195,0.63281 -0.01,0.19776 -0.0195,0.39425 -0.0195,0.60156 v 3.81836 h -52.78711 v -0.004 h -8.16602 c -3.14435,-0.0192 -4.80115,-1.51329 -5.00195,-4.44727 0.19793,-2.96147 1.87163,-4.46094 5.06055,-4.46094 z m 151.97656,0 h 1.89649 c 0.35538,0.002 0.68591,0.029 1.0039,0.0684 v -0.0684 h 73.4043 v 3.81446 c 0,0.20786 0.01,0.40526 0.0195,0.60351 -0.0102,0.20797 -0.0195,0.41655 -0.0195,0.63477 v 3.85742 h -73.4043 v -0.0703 c -0.32727,0.0401 -0.66583,0.0703 -1.0332,0.0703 h -1.86719 c -3.18678,10e-6 -4.85879,-1.49756 -5.05859,-4.45508 0.1998,-2.95749 1.87181,-4.45508 5.05859,-4.45508 z m 83.35352,0.002 h 76.93359 v 3.86133 c 0,0.20372 0.01,0.39732 0.0195,0.59179 -0.009,0.19437 -0.0195,0.3882 -0.0195,0.5918 v 3.86719 H 421.0918 v -0.004 h -0.0586 c -3.10772,-0.0195 -4.74574,-1.52222 -4.94922,-4.47461 0.20502,-2.94217 1.8606,-4.43359 5.00782,-4.43359 z m 84.0332,0 h 1.86719 c 0.3674,0 0.7059,0.0302 1.0332,0.0703 v -0.0703 h 82.94922 c 3.15559,0 4.81376,1.49754 5.01172,4.45508 -0.19795,2.95756 -1.85613,4.45507 -5.01172,4.45507 h -82.94922 v -0.0684 c -0.318,0.0394 -0.64851,0.0664 -1.00391,0.0684 H 505.125 c -3.18672,0 -4.85878,-1.49756 -5.05859,-4.45507 0.1998,-2.9575 1.87184,-4.45508 5.05859,-4.45508 z m -401.09961,9.20508 c 1.13533,1.13288 2.8313,1.70507 5.09961,1.70507 h 69.53711 v 80.03711 c 0,2.235 0.57152,3.91288 1.70312,5.04688 H 109.125 c -3.4,0 -5.09961,-1.68213 -5.09961,-5.04883 v -5.70117 z m 492,0.15234 v 75.88672 5.70508 c 0,3.3667 -1.68408,5.04882 -5.05078,5.04882 h -69.58594 v -10.7539 h -2 v 10.7539 h -11.36328 v -0.0664 c -0.318,0.039 -0.64851,0.0664 -1.00391,0.0664 H 505.125 c -3.39997,0 -5.09961,-1.68212 -5.09961,-5.04882 v -80.03907 h 6.9668 c 0.014,0 0.027,10e-5 0.041,0 h 83.94141 c 2.20117,0 3.88031,-0.52212 5.05078,-1.55273 z m -415.36328,1.55273 h 4.98437 0.11524 60.89453 v 80.03125 c 0,2.2025 0.52285,3.88214 1.55469,5.05274 h -46.18555 v -10.75391 h -2 v 10.75391 h -6.15625 -8.16602 c -3.35838,-0.0206 -5.04101,-1.70088 -5.04101,-5.04688 z m 67.99414,0 h 21.84961 60.13281 v 80.03711 c 0,2.2363 0.57216,3.91483 1.70508,5.04883 h -46.33594 v -10.75195 h -2 v 10.75195 h -30.30273 c -3.36667,0 -5.04883,-1.68408 -5.04883,-5.05078 z m 83.98242,0 h 5.09961 1.86719 74.4375 v 79.99024 c 0,2.2658 0.57089,3.9604 1.70117,5.0957 h -46.33203 v -10.75195 h -2 v 10.75195 h -26.77344 v -0.0684 c -0.32727,0.04 -0.66583,0.0684 -1.0332,0.0684 h -1.86719 c -3.4,0 -5.09961,-1.68223 -5.09961,-5.04883 z m 83.4043,0 h 4.93555 0.11328 76.93359 v 80.03516 c 0,2.2376 0.57281,3.91678 1.70703,5.05078 h -46.33789 v -10.75586 h -2 v 10.75586 h -30.30273 -0.0586 c -3.32512,-0.0209 -4.99023,-1.7167 -4.99023,-5.0957 z M 104.02539,616.5665 c 1.1353,1.1329 2.83131,1.70507 5.09961,1.70507 h 76.52148 0.11524 14.26367 v 64.21094 h -5.09961 -1.86719 -83.98242 c -2.20148,0 -3.88029,0.52379 -5.05078,1.55469 z m 492,0.15234 v 67.46484 c -1.13533,-1.13294 -2.8313,-1.70507 -5.09961,-1.70507 h -69.53711 v -64.20704 h 69.58594 c 2.2012,0 3.88038,-0.52213 5.05078,-1.55273 z m -394,1.55078 h 68.48047 13.50195 v 64.21289 h -5.04883 -76.93359 z m 83.98242,0 h 51.73047 1.86719 27.80664 v 64.21289 h -6.9668 -0.041 -74.39649 z m 83.4043,0 h 51.56641 v 0.004 h 0.11328 30.30273 v 64.20508 h -4.99219 c -0.019,-10e-5 -0.0366,0 -0.0566,0 l -76.93359,0.004 z m 83.98242,0 h 53.59766 0.041 12.35547 v 64.20899 h -13.20703 -52.78711 z m -344.31836,66.21289 h 82.94922 v 0.0703 c 0.3273,-0.04 0.6658,-0.0703 1.0332,-0.0703 h 1.86719 c 3.22744,0 4.90266,1.53481 5.06641,4.56836 -0.16313,3.03487 -1.83835,4.57031 -5.06641,4.57031 h -1.89648 c -0.3554,-0.002 -0.68591,-0.0274 -1.00391,-0.0664 v 0.0664 h -82.94922 c -3.19657,0 -4.85793,-1.53539 -5.01953,-4.57031 0.16223,-3.0336 1.82366,-4.56836 5.01953,-4.56836 z m 92.94922,0 h 76.93359 c 3.18754,0 4.84612,1.5289 5.01563,4.54688 -0.16726,3.03068 -1.80829,4.57191 -4.95703,4.59179 h -0.0586 -76.93359 v -4.09375 c 0,-0.16462 -0.009,-0.31993 -0.0156,-0.47851 0.006,-0.15868 0.0156,-0.31379 0.0156,-0.47852 z m 83.98242,0 h 73.4043 v 0.0684 c 0.318,-0.039 0.64851,-0.0664 1.00391,-0.0684 h 1.89648 c 3.22746,0 4.90266,1.53481 5.06641,4.56836 -0.16375,3.03356 -1.83895,4.56836 -5.06641,4.56836 h -1.86719 c -0.36737,0 -0.70593,-0.0284 -1.0332,-0.0684 v 0.0684 h -73.4043 v -4.08398 c 0,-0.17794 -0.009,-0.34646 -0.0156,-0.51758 0.006,-0.16375 0.0156,-0.32396 0.0156,-0.49414 z m 83.4043,0 h 60.13281 16.83008 c 3.16764,0.0104 4.8175,1.55172 4.98633,4.58985 -0.16952,3.01797 -1.82812,4.54687 -5.01563,4.54687 h -76.93359 v -4.08789 c 0,-0.16539 -0.009,-0.32117 -0.0156,-0.48047 0.006,-0.15921 0.0156,-0.31517 0.0156,-0.48047 z m 83.98242,0 h 60.89453 c 3.2289,0 4.90591,1.536 5.06836,4.57227 -0.16433,3.01109 -1.82428,4.54353 -5.00976,4.5625 h -8.16602 -52.78711 v -4.03907 c 0,-0.17055 -0.009,-0.332 -0.0156,-0.49609 0.007,-0.17112 0.0156,-0.33964 0.0156,-0.51758 z m 67.99414,0 h 69.53711 c 3.22746,0 4.90266,1.53481 5.06641,4.56836 -0.16438,3.03224 -1.83965,4.56641 -5.06641,4.56641 h -69.53711 v -4.08399 c 0,-0.16607 -0.009,-0.32249 -0.0156,-0.48242 0.006,-0.15912 0.0156,-0.31527 0.0156,-0.48047 z m 74.63672,9.4336 v 75.81445 5.70117 c 0,3.3667 -1.69961,5.04883 -5.09961,5.04883 h -71.24023 c 1.1316,-1.134 1.70312,-2.81188 1.70312,-5.04688 v -79.8125 h 69.53711 c 2.26831,0 3.96428,-0.57221 5.09961,-1.70507 z m -492,0.15234 c 1.17047,1.03061 2.84961,1.55273 5.05078,1.55273 h 83.94141 c 0.014,10e-5 0.027,0 0.041,0 h 6.9668 v 79.81055 c 0,3.3667 -1.69963,5.04883 -5.09961,5.04883 h -1.89648 c -0.3554,0 -0.68591,-0.0274 -1.00391,-0.0664 v 0.0664 H 180.6621 v -10.75391 h -2 v 10.75391 h -69.58594 c -3.3667,0 -5.05078,-1.68213 -5.05078,-5.04883 v -5.70508 z m 98,1.55273 h 76.93359 0.11329 4.93554 v 79.76172 c 0,3.379 -1.66513,5.07481 -4.99023,5.09571 h -0.0586 -30.30273 v -10.75586 h -2 v 10.75586 h -46.33789 c 1.1342,-1.134 1.70703,-2.81319 1.70703,-5.05079 z m 83.98242,0 h 74.4375 1.86719 5.09961 v 79.81055 c 0,3.3666 -1.69961,5.04883 -5.09961,5.04883 h -1.86719 c -0.3674,0 -0.7059,-0.0284 -1.0332,-0.0684 v 0.0684 h -26.77344 v -10.75195 h -2 v 10.75195 h -46.33203 c 1.1303,-1.1353 1.70117,-2.8299 1.70117,-5.0957 z m 83.4043,0 h 60.13281 21.84961 v 79.8086 c 0,3.3667 -1.68213,5.05078 -5.04883,5.05078 h -30.30273 v -10.75195 h -2 v 10.75195 h -46.33594 c 1.133,-1.134 1.70508,-2.81253 1.70508,-5.04883 z m 83.98242,0 h 60.89453 0.11524 4.98437 v 79.81055 c 0,3.346 -1.68261,5.02628 -5.04101,5.04688 h -8.16602 -6.15625 V 769.7247 h -2 v 10.75391 h -46.18555 c 1.0319,-1.1706 1.55469,-2.85024 1.55469,-5.05274 z m 142.63086,85.1543 v 72.00586 c 0,3.3667 -1.68408,5.04883 -5.05078,5.04883 h -82.94922 v -0.0664 c -0.318,0.039 -0.64851,0.0644 -1.00391,0.0664 H 505.125 c -3.3999,0 -5.09961,-1.68213 -5.09961,-5.04883 v -70.30078 h 14.26367 0.11524 76.52148 c 2.2683,0 3.96431,-0.57218 5.09961,-1.70508 z m -492,0.15234 c 1.1704,1.0306 2.84958,1.55274 5.05078,1.55274 h 69.58594 v 70.29883 c 0,2.235 0.57162,3.91287 1.70312,5.04687 H 109.125 c -3.4,0 -5.09961,-1.68213 -5.09961,-5.04883 z m 76.63672,1.55079 h 12.35547 0.041 53.59766 v 70.29492 c 0,2.2025 0.52289,3.88213 1.55469,5.05273 h -54.3418 -8.16602 c -3.35839,-0.02 -5.04101,-1.70087 -5.04101,-5.04687 z m 98.41016,0 h 51.5664 v 70.30078 c 0,2.2363 0.57208,3.91483 1.70508,5.04882 h -78.63867 c -3.3667,0 -5.04883,-1.68408 -5.04883,-5.05078 v -70.29492 h 30.30273 0.11329 z m 53.5664,0 h 27.80664 1.86719 51.73047 v 70.2539 c 0,2.2657 0.57097,3.96041 1.70117,5.0957 h -75.10547 v -0.0684 c -0.3273,0.04 -0.6659,0.0684 -1.0332,0.0684 h -1.86719 c -3.4,0 -5.09961,-1.68212 -5.09961,-5.04882 z m 83.4043,0 h 13.50195 68.48047 v 70.30078 c 0,2.2377 0.57283,3.91678 1.70703,5.05078 h -78.64062 -0.0586 c -3.3251,-0.021 -4.99023,-1.71671 -4.99023,-5.0957 z"
           style="fill:#886644;stroke:none;stroke-width:0.99999809"
           inkscape:connector-curvature="0" />
        <path
           id="path286"
           transform="translate(497.23004,398.19043)"
           d="m 506.18164,355.83203 v 0.002 H 446.3457 429.54492 362.3125 360.44531 278.95898 l -84.0332,0.002 h -1.86719 -83.98242 c -3.36666,0 -5.05078,1.68216 -5.05078,5.04883 v 80.19531 5.70508 77.3457 c 0,0.21044 0.0277,0.39452 0.041,0.5918 -0.0133,0.19727 -0.041,0.38135 -0.041,0.59179 v 80.19922 5.70117 77.35352 c 0,0.17151 0.0225,0.31965 0.0312,0.48242 -0.009,0.16215 -0.0312,0.30965 -0.0312,0.48047 v 80.19531 5.70508 77.3457 c 0,3.3667 1.69961,5.04883 5.09961,5.04883 h 76.57812 0.0586 67.94336 16.80078 67.23242 1.86719 81.45703 0.0293 84.0332 1.86719 83.98242 c 3.3667,0 5.05078,-1.68213 5.05078,-5.04883 v -77.35351 -5.70117 -80.19922 c 0,-0.16947 -0.0246,-0.31563 -0.0332,-0.47656 0.009,-0.16156 0.0332,-0.30836 0.0332,-0.47852 v -77.3457 -5.70508 -80.19531 c 0,-0.21111 -0.0258,-0.39589 -0.0391,-0.59375 0.0132,-0.19787 0.0391,-0.38265 0.0391,-0.59375 v -77.35352 -5.70117 -80.19922 c 0,-3.36667 -1.69961,-5.04883 -5.09961,-5.04883 z m 12.50391,2 H 546.625 l 2.90039,2.89844 2.84961,-2.89844 h 38.55078 c 2.0667,0 3.09961,1.0155 3.09961,3.04883 v 10.55078 l -3.09961,3.15039 3.09961,3.09961 v 55.14844 l -4.09961,4.15039 4.09961,4.09961 v 5.70117 c 0,2.03333 -1.03291,3.04883 -3.09961,3.04883 H 518.6875 c 0.4669,-0.7854 0.70117,-1.79929 0.70117,-3.04688 v -85.90039 c 0,-1.24877 -0.23542,-2.26541 -0.70312,-3.05078 z m -319.36328,0.002 h 4.43554 l 2.80078,2.80079 2.80079,-2.80079 h 4.94921 l 1.69922,1.75 1.75,-1.75 h 61.20117 c 2.03333,0 3.04883,1.01746 3.04883,3.05079 v 41.54882 l -2.89843,2.90039 2.89843,2.84961 v 38.55079 c 0,2.05604 -1.00699,3.08519 -3.01953,3.0957 h -0.0293 v 0.004 H 268.4082 l -3.15039,-3.0996 -3.09961,3.0996 h -11.50195 v -8.7539 h -2 v 8.7539 h -41.64844 l -4.14843,-4.0996 -3.11915,3.11718 c 0.18398,-0.60098 0.28516,-1.28326 0.28516,-2.0664 v -85.90039 c 0,-1.24954 -0.23476,-2.26502 -0.70312,-3.05079 z m 83.99023,0 h 1.94922 l 2.20117,2.19922 2.19922,-2.19922 h 69.75 v 0.12305 c 0.312,-0.0741 0.64835,-0.12305 1.0332,-0.12305 h 1.86719 c 2.06667,0 3.09961,1.0155 3.09961,3.04883 v 5.70117 l -4.09961,4.09961 4.09961,4.15039 v 55.14844 l -3.09961,3.09766 3.09961,3.15234 v 10.55078 c 0,2.03333 -1.03294,3.04688 -3.09961,3.04688 h -1.89648 c -0.37201,-0.003 -0.70028,-0.0482 -1.00391,-0.11914 v 0.11914 h -22.44922 l 1.77539,-1.79688 -4.09961,-4.09961 v -2.85351 h -2 v 8.75 h -8.87695 l -2.84961,-2.89649 -2.90039,2.89649 h -34.70703 c 0.46943,-0.7955 0.70312,-1.82587 0.70312,-3.0957 v -85.84961 c 0,-1.24874 -0.23234,-2.26509 -0.69531,-3.05079 z m 91.08203,0 h 55.15039 l 3.09961,3.09961 3.15039,-3.09961 h 10.55078 c 2.03333,0 3.04883,1.03295 3.04883,3.09961 v 38.55079 l -2.89844,2.8496 2.89844,2.9004 v 41.54882 c 0,2.03333 -1.0155,3.05078 -3.04883,3.05078 h -4.70703 l -2.20117,-2.20117 -2.19922,2.20117 h -7.69336 -11.50195 v -8.7539 h -2 v 8.7539 h -30.89844 l -1.75,-1.75 -1.69922,1.75 h -4.94922 l -2.80078,-2.80078 -2.80078,2.80078 h -4.43555 c 0.46836,-0.78577 0.70313,-1.80124 0.70313,-3.05078 v -85.90039 c 0,-0.78314 -0.10118,-1.46542 -0.28516,-2.0664 l 3.11914,3.11718 z m 76.29492,0 h 19.29883 l 2.90039,2.89844 2.84961,-2.89844 h 38.55078 c 2.0667,0 3.09961,1.0155 3.09961,3.04883 v 10.55078 l -3.09961,3.15039 3.09961,3.09961 v 55.15039 l -4.09961,4.14844 4.09961,4.10156 v 5.69922 c 0,0.71898 -0.13623,1.30271 -0.39453,1.76758 l -0.91992,-0.91992 -2.19922,2.19922 h -7.69336 v 0.004 h -3.125 l -1.03125,-1.04882 v -7.70508 h -2 v 8.7539 h -49.32617 c 0.46297,-0.7857 0.69531,-1.80204 0.69531,-3.05078 v -85.84961 c 0,-1.27106 -0.23477,-2.30379 -0.70508,-3.09961 z m -341.61328,0.002 H 150.625 l 2.90039,2.89844 2.84961,-2.89844 h 35.65039 v 0.12109 c 0.30364,-0.0709 0.6319,-0.11847 1.00391,-0.12109 h 1.89648 c 2.06667,0 3.09961,1.0155 3.09961,3.04883 v 10.55078 l -3.09961,3.15039 3.09961,3.09961 v 55.14843 l -4.09961,4.1504 4.09961,4.0996 v 5.70118 c 0,2.03333 -1.03294,3.04882 -3.09961,3.04882 h -1.86719 c -0.38485,0 -0.72119,-0.049 -1.0332,-0.12304 v 0.12304 h -8.33008 l -1.0332,-1.05078 v -7.70312 h -2 v 8.7539 h -58.38672 l -2.19922,-2.19921 -2.20117,2.19921 h -8.79883 c -2.03333,0 -3.05078,-1.01549 -3.05078,-3.04882 v -5.70508 -4.9961 l 2.80078,-2.79882 -2.80078,-2.80078 v -4.94922 l 1.75,-1.70118 -1.75,-1.75 v -61.19921 c 0,-2.03333 1.01745,-3.04883 3.05078,-3.04883 z m 82.94922,13.86718 v 0.36524 l 0.18359,-0.18359 z m 167.38672,63.89649 v 0.36523 l 0.18359,-0.18164 z m 148.61328,13.45312 -0.18359,0.18165 0.18359,0.18359 z m 86,2.07227 v 48.30859 l -1.75,1.75 1.75,1.70118 v 4.94921 l -2.80078,2.80079 2.80078,2.79882 v 7.53711 c -0.7857,-0.46296 -1.80203,-0.69726 -3.05078,-0.69726 h -83.98242 -1.86719 -3.09961 v -1.83985 l 4.09961,-4.09961 -4.09961,-4.15039 v -55.14843 l 3.09961,-3.09961 -0.0996,-0.10157 h 9.26367 c 0.021,0 0.0376,-0.004 0.0586,-0.004 h 76.57812 c 1.27106,0 2.3038,-0.23477 3.09961,-0.70508 z m -485,0.70508 c 0.018,10e-5 0.0327,0.004 0.0508,0.004 h 71.58594 v 68.43555 l -71.53711,-0.004 c -1.27106,0 -2.30379,0.23673 -3.09961,0.70704 v -2.54297 l 4.09961,-4.09961 -4.09961,-4.15039 v -55.14844 l 3.09961,-3.09961 z m 169.96289,0.002 h 53.65039 v 68.43945 h -62.13281 -16.80078 -3.04883 v -37.6875 l 2.89844,-2.90039 -2.89844,-2.84961 v -25 h 28.30273 c 0.0104,0 0.0189,-0.002 0.0293,-0.002 z m 55.99805,0 h 25.45898 1.86719 l 53.73047,0.002 v 68.4375 h -76.4375 -1.86719 -3.09961 v -6.68945 l 3.09961,-3.15234 -3.09961,-3.09766 v -55.14844 z m -149.32227,0.002 h 7.39453 1.86719 53.73047 v 68.4375 h -54.78711 v -0.002 h -11.20703 v -1.83594 l 4.09961,-4.10156 -4.09961,-4.14844 V 455.0332 l 3.09961,-3.09961 z m 232.37891,0 h 11.50195 16.80078 53.67969 v 68.43946 l -78.93359,-0.002 h -3.04883 V 485.5332 l 2.89844,-2.84961 -2.89844,-2.90039 z m -77.4043,61.11524 -0.18359,0.18359 0.18359,0.18164 z M 109.125,522.26953 h 38.55078 l 2.84961,2.89844 2.90039,-2.89844 h 27.23633 v 1.86328 c 0,0.21226 0.0157,0.40867 0.0293,0.60742 -0.0124,0.19065 -0.0293,0.37718 -0.0293,0.58008 v 1.85938 H 109.125 c -1.85211,0 -2.86636,-0.82227 -3.05859,-2.45508 0.19223,-1.63279 1.20648,-2.45508 3.05859,-2.45508 z m 76.63672,0.002 h 38.55078 l 2.84961,2.89844 2.90039,-2.89844 h 18.59375 v 1.86133 c 0,0.21859 0.0151,0.42065 0.0293,0.625 -0.0132,0.1998 -0.0293,0.39617 -0.0293,0.60938 v 1.8164 h -54.78711 v -0.004 h -7.69336 l -2.19922,-2.19922 -0.91992,0.91992 c -0.18128,-0.32622 -0.29933,-0.71512 -0.35547,-1.16406 0.18941,-1.63908 1.20487,-2.46485 3.06055,-2.46485 z m 67.94336,0 h 10.55078 l 3.15039,3.09961 3.09961,-3.09961 h 55.15039 l 4.14844,4.09961 2.83398,-2.83203 v 0.59375 c 0,0.2379 0.0181,0.45873 0.0352,0.67969 -0.0105,0.17006 -0.0352,0.32726 -0.0352,0.50781 v 1.86328 h -3.73242 l -2.80078,-2.80078 -2.80078,2.80078 h -4.94922 l -1.69922,-1.75 -1.75,1.75 h -44.40039 -7.69336 l -2.19922,-2.20117 -2.20117,2.20117 h -4.70703 c -1.81526,0 -2.81333,-0.81679 -3.00781,-2.4375 0.19494,-1.64601 1.19313,-2.47461 3.00781,-2.47461 z m 84.0332,0 h 1.86719 c 0.38485,0 0.7212,0.0489 1.0332,0.12305 v -0.12305 h 69.75 l 2.19922,2.19922 2.20117,-2.19922 h 1.25391 v 1.8125 c 0,0.21847 0.0154,0.42069 0.0293,0.625 -0.0137,0.20079 -0.0293,0.3988 -0.0293,0.61329 v 1.85742 h -34.00391 l -2.90039,-2.89649 -2.84961,2.89649 h -35.65039 v -0.11914 c -0.30363,0.0709 -0.63189,0.11614 -1.0039,0.11914 h -1.89649 c -1.85209,0 -2.86636,-0.82064 -3.05859,-2.45313 0.19223,-1.63279 1.2065,-2.45508 3.05859,-2.45508 z m 83.35352,0 h 61.20117 l 1.75,1.75 1.69922,-1.75 h 4.94922 l 2.80078,2.80079 2.80078,-2.80079 h 3.73242 v 1.86329 c 0,0.17979 0.0228,0.33646 0.0332,0.50585 -0.0169,0.22034 -0.0332,0.44057 -0.0332,0.67774 v 0.59766 l -2.83398,-2.83204 -4.14844,4.09961 h -55.15039 l -3.09961,-3.09961 -3.15039,3.09961 H 421.0918 v -0.004 h -0.0293 c -1.79563,-0.009 -2.78486,-0.8356 -2.97852,-2.47266 0.19503,-1.61941 1.19325,-2.43555 3.00782,-2.43555 z m 84.0332,0.002 h 1.89648 c 0.372,0.003 0.70031,0.0502 1.00391,0.12109 v -0.12109 h 35.65039 l 2.84961,2.89844 2.90039,-2.89844 h 41.54883 c 1.82228,0 2.8224,0.82227 3.01172,2.45508 -0.18932,1.63282 -1.18944,2.45507 -3.01172,2.45507 h -8.79883 l -2.20117,-2.19921 -2.19922,2.19921 h -69.75 v -0.12304 c -0.312,0.074 -0.6483,0.12304 -1.0332,0.12304 H 505.125 c -1.85211,0 -2.86636,-0.82226 -3.05859,-2.45507 0.19224,-1.6328 1.20657,-2.45508 3.05859,-2.45508 z m -399.09961,6.20117 c 0.79582,0.47031 1.82855,0.70508 3.09961,0.70508 h 71.53711 v 82.04101 c 0,1.2476 0.23427,2.26148 0.70117,3.04688 H 109.125 c -2.0667,0 -3.09961,-1.01543 -3.09961,-3.04883 v -5.70117 l 4.09961,-4.09961 -4.09961,-4.15039 v -55.14844 l 3.09961,-3.09961 -3.09961,-3.15039 z m 488,0.0137 v 58.0332 l -1.75,1.75 1.75,1.70118 v 4.94922 l -2.80078,2.80078 2.80078,2.79882 v 4.9961 5.70508 c 0,2.0334 -1.01738,3.04882 -3.05078,3.04882 h -8.79883 l -2.20117,-2.19921 -2.19922,2.19921 h -58.38672 v -8.7539 h -2 v 7.70312 l -1.0332,1.05078 h -8.33008 v -0.12304 c -0.312,0.0741 -0.6483,0.12304 -1.0332,0.12304 H 505.125 c -2.0666,0 -3.09961,-1.01542 -3.09961,-3.04882 v -5.70118 l 4.09961,-4.0996 -4.09961,-4.1504 v -55.14843 l 3.09961,-3.09961 -3.09961,-3.15039 v -6.68946 h 3.09961 1.86719 83.98242 c 1.24875,0 2.26508,-0.23234 3.05078,-0.69531 z m -411.36328,0.69141 h 3.04101 c 0.0207,0 0.0378,0.004 0.0586,0.004 h 62.89453 v 82.03321 c 0,1.2487 0.23234,2.26508 0.69531,3.05078 h -49.32617 v -8.75391 h -2 v 7.70508 l -1.03125,1.04883 h -3.125 -7.69336 l -2.19922,-2.19922 -0.91992,0.91992 c -0.2583,-0.4649 -0.39453,-1.04858 -0.39453,-1.76758 v -5.69922 l 4.09961,-4.10156 -4.09961,-4.14844 v -55.15039 l 3.09961,-3.09961 -3.09961,-3.15039 z m 149.97656,0.002 v 82.03906 c 0,1.2494 0.23477,2.26488 0.70313,3.05078 h -4.43555 l -2.80078,-2.80078 -2.80078,2.80078 h -4.94922 l -1.69922,-1.75 -1.75,1.75 h -30.89844 v -8.7539 h -2 v 8.7539 h -11.50195 -7.69336 l -2.19922,-2.20117 -2.20117,2.20117 h -4.70703 c -2.03333,0 -3.04883,-1.01748 -3.04883,-3.05078 v -41.54882 l 2.89844,-2.9004 -2.89844,-2.8496 v -34.73829 h 3.04883 16.80078 z m 2,0 h 3.09961 1.86719 76.4375 v 81.99024 c 0,1.26978 0.23369,2.3002 0.70312,3.0957 h -34.70703 l -2.90039,-2.89649 -2.84961,2.89649 h -8.87695 v -8.75 h -2 v 2.85351 l -4.09961,4.09961 1.77539,1.79688 h -22.44922 v -0.11914 c -0.30363,0.0713 -0.63189,0.11914 -1.0039,0.11914 h -1.89649 c -2.06667,0 -3.09961,-1.01358 -3.09961,-3.04688 v -10.55078 l 3.09961,-3.15234 -3.09961,-3.09766 v -55.14844 l 4.09961,-4.15039 -4.09961,-4.09961 z m 83.4043,0 h 3.01953 c 0.0104,0 0.0189,0.002 0.0293,0.002 h 78.93359 v 82.03516 c 0,0.7831 0.10118,1.46551 0.28516,2.06641 l -3.11914,-3.11719 -4.14844,4.09961 h -41.64844 v -8.75391 h -2 v 8.75391 h -11.50195 l -3.09961,-3.09961 -3.15039,3.09961 h -10.55078 -0.0293 c -2.01254,-0.0106 -3.01953,-1.03972 -3.01953,-3.0957 v -38.55079 l 2.89844,-2.84961 -2.89844,-2.90039 z m 89.98242,6.95898 -0.18359,0.18165 0.18359,0.18359 z m -167.38672,63.89649 -0.18359,0.18359 0.18359,0.18164 z M 192.02539,613.4904 v 0.36524 l 0.18359,-0.18359 z m -86,2.07618 c 0.7958,0.4703 1.82851,0.70507 3.09961,0.70507 h 76.57812 0.0586 9.26367 l -0.0996,0.10157 3.09961,3.09961 v 55.14843 l -4.09961,4.15039 4.09961,4.09961 v 1.61133 h -3.09961 -1.86719 -83.98242 c -1.24875,0 -2.26508,0.23431 -3.05078,0.69727 v -7.3086 l 2.80078,-2.79882 -2.80078,-2.80079 v -4.94921 l 1.75,-1.70118 -1.75,-1.75 z m 94,0.70117 h 53.67969 16.80078 11.50195 v 27.95312 l -2.89843,2.90039 2.89843,2.84961 v 34.51172 h -3.04883 -78.93359 z m 83.98242,0 h 53.73047 1.86719 25.45898 l 0.34766,0.34961 v 55.14843 l -3.09961,3.09766 3.09961,3.15234 v 6.4668 h -3.09961 -1.86719 -76.4375 z m 83.4043,0 h 53.65039 v 0.002 h 0.0293 28.30273 v 25 l -2.89844,2.84961 2.89844,2.90039 v 37.46289 h -3.04883 -16.80078 -62.13281 z m 83.98242,0 h 53.73047 1.86719 7.39453 l -0.0977,0.10351 3.09961,3.09961 v 55.15039 l -4.09961,4.14844 4.09961,4.10156 v 1.60938 l -11.20703,0.002 h -54.78711 z m 67.99414,0 h 71.58594 c 0.018,0 0.0328,10e-5 0.0508,0 l -0.0996,0.0977 3.09961,3.09961 v 55.14844 l -4.09961,4.15039 4.09961,4.09961 v 2.31836 c -0.79581,-0.4703 -1.82855,-0.70703 -3.09961,-0.70703 l -71.53711,0.006 z m -159.97656,61.11523 v 0.36524 l 0.18359,-0.18164 z m -250.33594,9.09961 H 150.625 l 2.90039,2.90039 2.84961,-2.90039 h 35.65039 v 0.1211 c 0.3036,-0.071 0.63191,-0.1185 1.00391,-0.1211 h 1.89648 c 1.89296,0 2.9074,0.86255 3.06641,2.56836 -0.15841,1.70715 -1.17265,2.57031 -3.06641,2.57031 h -1.86719 c -0.3849,0 -0.7212,-0.049 -1.0332,-0.12304 v 0.12304 h -69.75 l -2.19922,-2.19921 -2.20117,2.19921 h -8.79883 c -1.86326,0 -2.86353,-0.86314 -3.01953,-2.57031 0.15658,-1.70584 1.15696,-2.56836 3.01953,-2.56836 z m 90.94922,0 h 3.73242 l 2.80078,2.80078 2.80079,-2.80078 h 4.94921 l 1.69922,1.75 1.75,-1.75 h 61.20117 c 1.85414,0 2.85242,0.85601 3.01563,2.54688 -0.16136,1.71098 -1.15057,2.57877 -2.98633,2.58789 h -0.0293 -10.55078 l -3.15039,-3.09961 -3.09961,3.09961 h -55.15039 l -4.14843,-4.09961 -2.83399,2.83203 v -0.82031 c 0,-0.19618 -0.0158,-0.37589 -0.0273,-0.56055 0.007,-0.1358 0.0273,-0.25804 0.0273,-0.40039 z m 83.98242,0 h 1.25391 l 2.20117,2.19922 2.19922,-2.19922 h 69.75 v 0.12305 c 0.312,-0.074 0.6484,-0.12305 1.0332,-0.12305 h 1.86719 c 1.89235,0 2.90683,0.86186 3.06641,2.56641 -0.15959,1.70427 -1.17409,2.56445 -3.06641,2.56445 h -1.89648 c -0.37201,-0.003 -0.70028,-0.0481 -1.00391,-0.11914 v 0.11914 h -35.65039 l -2.84961,-2.89648 -2.90039,2.89648 h -34.00391 v -2.08008 c 0,-0.17622 -0.0142,-0.33693 -0.0234,-0.5039 0.009,-0.16937 0.0234,-0.33287 0.0234,-0.51172 z m 90.38672,0 h 55.15039 l 3.09961,3.09961 3.15039,-3.09961 h 10.55078 c 1.85429,0 2.85255,0.86914 3.01563,2.58789 -0.16264,1.69214 -1.16078,2.54883 -3.01563,2.54883 h -4.70703 l -2.20117,-2.20117 -2.19922,2.20117 h -7.69336 -44.40039 l -1.75,-1.75 -1.69922,1.75 h -4.94922 l -2.80078,-2.80078 -2.80078,2.80078 h -3.73242 v -2.08789 c 0,-0.14649 -0.0204,-0.27255 -0.0273,-0.41211 0.0112,-0.18163 0.0273,-0.35803 0.0273,-0.55078 V 687.75 l 2.83398,2.83203 z m 77,0 h 18.59375 l 2.90039,2.89844 2.84961,-2.89844 h 38.55078 c 1.91353,0 2.92855,0.88208 3.07032,2.625 -0.0521,0.47861 -0.17477,0.88766 -0.36524,1.23047 l -0.91992,-0.91992 -2.19922,2.19922 h -7.69336 -54.78711 v -2.03907 c 0,-0.17427 -0.0166,-0.33272 -0.0254,-0.49804 0.01,-0.17005 0.0254,-0.33401 0.0254,-0.51367 z m 67.99414,0 H 546.625 l 2.90039,2.89844 2.84961,-2.89844 h 38.55078 c 1.89165,0 2.90625,0.86118 3.06641,2.56446 -0.15958,1.70461 -1.17406,2.5664 -3.06641,2.5664 h -71.53711 v -2.08008 c 0,-0.16531 -0.0152,-0.31547 -0.0234,-0.47265 0.009,-0.16373 0.0234,-0.32148 0.0234,-0.49414 z m 74.63672,6.42969 v 7.16992 l -3.09961,3.15039 3.09961,3.09961 v 55.14844 l -4.09961,4.15039 4.09961,4.09961 v 5.70117 c 0,2.0334 -1.03291,3.04883 -3.09961,3.04883 H 518.6875 c 0.4669,-0.7854 0.70117,-1.79928 0.70117,-3.04688 v -81.8164 h 71.53711 c 1.27106,0 2.30379,-0.23477 3.09961,-0.70508 z m -488,0.01 c 0.7857,0.46296 1.80203,0.69531 3.05078,0.69531 h 83.98242 1.86719 3.09961 v 6.46484 l -3.09961,3.15039 3.09961,3.09961 v 55.14844 l -4.09961,4.15039 4.09961,4.09961 v 5.70117 c 0,2.0334 -1.03301,3.04883 -3.09961,3.04883 h -1.86719 c -0.3849,0 -0.7212,-0.0489 -1.0332,-0.12305 v 0.12305 h -8.33008 l -1.0332,-1.05078 v -7.70313 h -2 v 8.75391 h -58.38672 l -2.19922,-2.19922 -2.20117,2.19922 h -8.79883 c -2.0334,0 -3.05078,-1.01543 -3.05078,-3.04883 v -5.70508 -4.99609 l 2.80078,-2.79883 -2.80078,-2.80078 v -4.94922 l 1.75,-1.70117 -1.75,-1.75 z m 94,0.69531 h 78.93359 0.0293 3.01953 v 37.46484 l -2.89843,2.90235 2.89843,2.8496 v 38.54883 c 0,2.056 -1.00703,3.08511 -3.01953,3.09571 h -0.0293 -10.55078 l -3.15039,-3.09961 -3.09961,3.09961 h -11.50195 v -8.75391 h -2 v 8.75391 h -41.64844 l -4.14843,-4.09961 -3.11915,3.11718 c 0.184,-0.6009 0.28516,-1.2833 0.28516,-2.0664 z m 83.98242,0 h 76.4375 1.86719 3.09961 v 1.61523 l -4.09961,4.09961 4.09961,4.15039 v 55.14844 l -3.09961,3.09766 3.09961,3.15234 v 10.55078 c 0,2.0333 -1.03291,3.04688 -3.09961,3.04688 h -1.89648 c -0.372,0 -0.70031,-0.0479 -1.00391,-0.11914 v 0.11914 h -22.44922 l 1.77539,-1.79688 -4.09961,-4.09961 v -2.85351 h -2 v 8.75 h -8.87695 l -2.84961,-2.89649 -2.90039,2.89649 h -34.70703 c 0.4694,-0.7955 0.70312,-1.82591 0.70312,-3.09571 z m 83.4043,0 h 62.13281 16.80078 3.04883 v 34.51758 l -2.89844,2.84765 2.89844,2.90235 v 41.54687 c 0,2.0333 -1.01553,3.05078 -3.04883,3.05078 h -4.70703 l -2.20117,-2.20117 -2.19922,2.20117 h -7.69336 -11.50195 v -8.7539 h -2 v 8.7539 h -30.89844 l -1.75,-1.75 -1.69922,1.75 h -4.94922 l -2.80078,-2.80078 -2.80078,2.80078 h -4.43555 c 0.4683,-0.7859 0.70313,-1.80138 0.70313,-3.05078 z m 83.98242,0 h 62.89453 0.0586 3.04101 v 6.46484 l -3.09961,3.15039 3.09961,3.09961 v 55.15039 l -4.09961,4.14844 4.09961,4.10156 v 5.69922 c 0,0.719 -0.13623,1.30268 -0.39453,1.76758 l -0.91992,-0.91992 -2.19922,2.19922 h -7.69336 -3.125 l -1.03125,-1.04883 v -7.70508 h -2 v 8.75391 h -49.32617 c 0.463,-0.7857 0.69531,-1.80209 0.69531,-3.05079 z m -259.36914,6.73242 v 0.36523 l 0.18359,-0.18359 z m 167.38672,63.89648 v 0.36524 l 0.18359,-0.18164 z m 148.61328,13.45313 -0.18359,0.18164 0.18359,0.18359 z m 86,2.07617 v 48.30469 l -1.75,1.75 1.75,1.70117 v 4.94922 l -2.80078,2.80078 2.80078,2.79883 v 10.70117 c 0,2.0334 -1.01738,3.04883 -3.05078,3.04883 h -8.79883 l -2.20117,-2.19922 -2.19922,2.19922 h -69.75 v -0.12305 c -0.312,0.074 -0.6483,0.12305 -1.0332,0.12305 H 505.125 c -2.0667,0 -3.09961,-1.01543 -3.09961,-3.04883 v -5.70117 l 4.09961,-4.09961 -4.09961,-4.15039 v -55.14844 l 3.09961,-3.09961 -0.0996,-0.10156 h 9.26367 0.0586 76.57812 c 1.2711,0 2.30381,-0.23478 3.09961,-0.70508 z m -485,0.70117 c 0.018,1e-4 0.0328,0 0.0508,0 h 71.58594 v 72.29883 c 0,1.2476 0.23437,2.26148 0.70117,3.04688 H 109.125 c -2.0667,0 -3.09961,-1.01543 -3.09961,-3.04883 v -5.70117 l 4.09961,-4.09961 -4.09961,-4.15039 v -55.14844 l 3.09961,-3.09961 z m 76.63867,0 h 7.39453 1.86719 53.73047 v 72.29883 c 0,1.2487 0.23231,2.26508 0.69531,3.05078 h -55.48242 -7.69336 l -2.19922,-2.19922 -0.91992,0.91993 c -0.2583,-0.4649 -0.39453,-1.04858 -0.39453,-1.76758 v -5.69922 l 4.09961,-4.10156 -4.09961,-4.14844 v -55.15039 l 3.09961,-3.09961 z m 93.32422,0 h 53.65039 v 72.30078 c 0,1.2495 0.23473,2.26499 0.70313,3.05078 h -4.43555 l -2.80078,-2.80078 -2.80078,2.80078 h -4.94922 l -1.69922,-1.75 -1.75,1.75 h -44.40039 -7.69336 l -2.19922,-2.20117 -2.20117,2.20117 h -4.70703 c -2.0333,0 -3.04883,-1.01748 -3.04883,-3.05078 v -41.54882 l 2.89844,-2.9004 -2.89844,-2.8496 v -25 h 28.30273 0.0293 z m 55.99805,0 h 25.45898 1.86719 53.73047 v 72.25 c 0,1.2698 0.23372,2.30021 0.70312,3.09571 h -34.70703 l -2.90039,-2.89649 -2.84961,2.89649 h -35.65039 v -0.11915 c -0.3037,0.071 -0.6319,0.11615 -1.0039,0.11915 h -1.89649 c -2.0667,0 -3.09961,-1.01358 -3.09961,-3.04688 v -10.55078 l 3.09961,-3.15234 -3.09961,-3.09766 v -55.14844 z m 83.05664,0 h 11.50195 16.80078 53.67969 v 72.30078 c 0,0.7832 0.10116,1.46551 0.28516,2.06641 l -3.11914,-3.11719 -4.14844,4.09961 h -55.15039 l -3.09961,-3.09961 -3.15039,3.09961 h -10.55078 -0.0293 c -2.0125,-0.01 -3.01953,-1.0397 -3.01953,-3.0957 v -38.55078 l 2.89844,-2.84961 -2.89844,-2.90039 z m -77.4043,61.11524 -0.18359,0.18359 0.18359,0.18164 z"
           style="fill:#b7916a;stroke:none;stroke-width:0.99999809"
           inkscape:connector-curvature="0" />
        <path
           id="path288"
           transform="translate(497.23004,398.19043)"
           d="m 506.18164,357.83203 v 0.002 h -30.44336 l -2.84961,2.89844 -2.90039,-2.89844 h -23.64258 -10.55078 -6.25 -55.15039 l -4.14844,4.09961 -4.10156,-4.09961 h -3.83203 -1.86719 -70.7832 l -2.19922,2.19922 -2.20117,-2.19922 h -6.30274 v 0.002 h -61.20117 l -1.75,1.75 -1.69922,-1.75 h -4.94921 l -2.80079,2.79883 -2.80078,-2.79883 h -8.83203 -1.86719 -36.68359 l -2.84961,2.89844 -2.90039,-2.89844 h -41.54883 c -2.03333,0 -3.05078,1.0155 -3.05078,3.04883 v 61.19921 l 1.75,1.75 -1.75,1.70118 v 4.94922 l 2.80078,2.80078 -2.80078,2.79882 v 4.9961 5.70508 1.99609 l 3.09961,3.15039 -3.09961,3.09961 v 55.14844 l 4.09961,4.15039 -4.09961,4.09961 v 5.70117 c 0,0.21112 0.0187,0.40457 0.041,0.59375 -0.0223,0.18918 -0.041,0.38263 -0.041,0.59375 v 10.55078 l 3.09961,3.15039 -3.09961,3.09961 v 55.14844 l 4.09961,4.15039 -4.09961,4.09961 v 5.70117 52.65234 l 1.75,1.75 -1.75,1.70118 v 4.94921 l 2.80078,2.80079 -2.80078,2.79882 v 10.70118 c 0,0.17014 0.017,0.32262 0.0312,0.47851 -0.0144,0.15646 -0.0312,0.30965 -0.0312,0.48047 v 61.19922 l 1.75,1.75 -1.75,1.70117 v 4.94922 l 2.80078,2.80078 -2.80078,2.79883 v 4.99609 5.70508 1.99609 l 3.09961,3.15039 -3.09961,3.09961 v 55.14844 l 4.09961,4.15039 -4.09961,4.09961 v 5.70117 c 0,2.0334 1.03291,3.04883 3.09961,3.04883 h 72.65039 l 1.28125,-1.27929 c 0.4723,0.84979 1.36918,1.2832 2.70508,1.2832 h 72.65039 4.39648 7.69336 44.40039 l 1.75,-1.75 1.69922,1.75 h 4.94922 l 2.80078,-2.79883 2.80078,2.79883 h 8.83204 1.86718 36.6836 l 2.84961,-2.89844 2.90039,2.89844 h 39.02343 0.0293 10.55078 l 3.15039,-3.09961 3.09961,3.09961 h 55.15039 l 4.14844,-4.09961 4.10156,4.09961 h 3.83203 1.86719 70.7832 l 2.19922,-2.19922 2.20118,2.19922 h 8.79882 c 2.0334,0 3.05078,-1.01543 3.05078,-3.04883 v -10.70117 l -2.80078,-2.79883 2.80078,-2.80078 v -4.94922 l -1.75,-1.70117 1.75,-1.75 v -52.65235 -5.70117 l -4.0996,-4.09961 4.0996,-4.15039 v -55.14844 l -3.0996,-3.0996 3.0996,-3.1504 v -10.55078 c 0,-0.16086 -0.0183,-0.30305 -0.0312,-0.45117 0.0163,-0.16452 0.0352,-0.32724 0.0352,-0.50781 v -5.70117 l -4.09961,-4.09961 4.09961,-4.15039 v -55.14844 l -3.09961,-3.09961 3.09961,-3.15039 v -1.99609 -5.70508 -4.9961 l -2.80078,-2.79882 2.80078,-2.80078 v -4.94922 l -1.75,-1.70118 1.75,-1.75 v -61.19921 c 0,-0.21111 -0.0171,-0.40458 -0.0391,-0.59375 0.0219,-0.18918 0.0391,-0.38264 0.0391,-0.59375 v -10.70118 l -2.80078,-2.79882 2.80078,-2.80079 v -4.94921 l -1.75,-1.70118 1.75,-1.75 v -52.65234 -5.70117 l -4.09961,-4.09961 4.09961,-4.15039 v -55.14844 l -3.09961,-3.09961 3.09961,-3.15039 v -10.55078 c 0,-2.03333 -1.03291,-3.04883 -3.09961,-3.04883 H 552.375 l -2.84961,2.89844 -2.90039,-2.89844 z"
           style="fill:#97714a;stroke:none;stroke-width:0.99999809"
           inkscape:connector-curvature="0" />
      </g>
      <flowRoot
         xml:space="preserve"
         id="flowRoot5275"
         style="font-style:normal;font-weight:normal;font-size:40px;line-height:125%;font-family:Sans;letter-spacing:0px;word-spacing:0px;fill:#000000;fill-opacity:1;stroke:none;stroke-width:1px;stroke-linecap:butt;stroke-linejoin:miter;stroke-opacity:1"
         transform="translate(497.23004,398.19043)"><flowRegion
           id="flowRegion5277"><rect
             id="rect5279"
             width="340.8754"
             height="49.279804"
             x="28.258245"
             y="-45.318707" /></flowRegion><flowPara
           id="flowPara5281"
           style="font-size:24.0000003px">Furnace arrow</flowPara></flowRoot>      <flowRoot
         transform="translate(494.87501,529.50852)"
         xml:space="preserve"
         id="flowRoot5275-1"
         style="font-style:normal;font-weight:normal;font-size:40px;line-height:125%;font-family:Sans;letter-spacing:0px;word-spacing:0px;fill:#000000;fill-opacity:1;stroke:none;stroke-width:1px;stroke-linecap:butt;stroke-linejoin:miter;stroke-opacity:1"><flowRegion
           id="flowRegion5277-4"><rect
             id="rect5279-2"
             width="340.8754"
             height="49.279804"
             x="28.258245"
             y="-45.318707" /></flowRegion><flowPara
           id="flowPara5281-8"
           style="font-size:24px">Item Selection Bar - Std 8</flowPara><flowPara
           style="font-size:24px"
           id="flowPara5307" /></flowRoot>      <flowRoot
         transform="translate(496.66765,731.59863)"
         xml:space="preserve"
         id="flowRoot5275-1-7"
         style="font-style:normal;font-weight:normal;font-size:40px;line-height:125%;font-family:Sans;letter-spacing:0px;word-spacing:0px;fill:#000000;fill-opacity:1;stroke:none;stroke-width:1px;stroke-linecap:butt;stroke-linejoin:miter;stroke-opacity:1"><flowRegion
           id="flowRegion5277-4-9"><rect
             id="rect5279-2-2"
             width="340.8754"
             height="49.279804"
             x="28.258245"
             y="-45.318707" /></flowRegion><flowPara
           id="flowPara5281-8-8"
           style="font-size:24px">Menu Background</flowPara><flowPara
           style="font-size:24px"
           id="flowPara5307-0" /></flowRoot>      <g
         id="g4574"
         transform="translate(-37.675355,4.3065999)"
         inkscape:export-filename="C:\Users\Rob\Minetest\minetest-5.0.1-win64\textures\Kenney\menu\progress_bar_bg.png"
         inkscape:export-xdpi="96"
         inkscape:export-ydpi="96">
        <path
           id="path244"
           d="m 887.54136,1356.6441 -0.0674,-0.053 0.0674,0.7466 v 5.6534 l -3.23368,2.56 3.23368,2.56 v 24.4266 q 0,2.08 -2.49263,2.1334 h -47.29261 l -2.08843,-1.6534 -2.08842,1.6534 h -57.33052 l -3.70526,-2.9334 -3.70527,2.9334 h -123.9579 q -2.56,-0.053 -2.56,-2.1334 v -3.84 l 3.70526,-2.9333 -3.70526,-2.9333 v -25.4934 l 0.0674,-0.5333 0.0674,-0.2133 q 0.33684,-1.3867 2.56,-1.3867 h 22.97263 l 3.03158,2.4 3.03158,-2.4 h 12.5979 l 3.77263,2.9867 3.77263,-2.9867 H 884.8467 q 2.22316,0 2.69473,1.44"
           style="fill:#d3bf8f;stroke:none;stroke-width:1"
           inkscape:connector-curvature="0" />
        <path
           id="path246"
           d="m 887.54136,1356.6441 q -0.47157,-1.44 -2.69473,-1.44 H 694.194 l -3.77263,2.9867 -3.77263,-2.9867 h -12.5979 l -3.03158,2.4 -3.03158,-2.4 h -22.97263 q -2.22316,0 -2.56,1.3867 l -0.0674,0.2133 -0.0674,0.5333 v 25.4934 l 3.70526,2.9333 -3.70526,2.9333 v 3.84 q 0,2.08 2.56,2.1334 h 123.9579 l 3.70527,-2.9334 3.70526,2.9334 h 57.33052 l 2.08842,-1.6534 2.08843,1.6534 h 47.29261 q 2.49263,-0.053 2.49263,-2.1334 v -24.4266 l -3.23368,-2.56 3.23368,-2.56 v -5.6534 l -0.0674,-0.7466 0.0674,0.053 m -2.69473,-3.5733 q 4.71579,0 5.3221,3.2533 l 0.0674,1.0133 v 35.2 l -0.0674,1.0667 q -0.60631,3.2 -5.3221,3.2 H 645.01505 q -4.71579,0 -5.25473,-3.2 l -0.13474,-1.0667 v -35.2 l 0.13474,-1.0133 q 0.53894,-3.2533 5.25473,-3.2533 h 239.83158"
           style="fill:#b1a077;stroke:none;stroke-width:1"
           inkscape:connector-curvature="0" />
        <path
           id="path248"
           d="M 884.84663,1353.0708 H 645.01505 q -4.71579,0 -5.25473,3.2533 l -0.13474,1.0133 v 35.2 l 0.13474,1.0667 q 0.53894,3.2 5.25473,3.2 h 239.83158 q 4.71579,0 5.3221,-3.2 l 0.0674,-1.0667 v -35.2 l -0.0674,-1.0133 q -0.60631,-3.2533 -5.3221,-3.2533 m 8.08421,4.2666 v 35.4667 q -0.20211,6.1333 -8.08421,6.1333 h -239.83158 -0.33684 -0.2021 -0.26948 -0.13474 -0.13473 -0.13474 q -6.33263,-0.4266 -6.80421,-5.4933 l -0.0674,-0.64 v -35.4667 q 0,-6.4 8.08421,-6.4 H 884.8466 q 8.08421,0 8.08421,6.4"
           style="fill:#d9cdaf;stroke:none;stroke-width:1"
           inkscape:connector-curvature="0" />
      </g>
      <path
         inkscape:connector-curvature="0"
         style="fill:#d9cdaf;stroke:none"
         d="m 636.33464,1368.5569 q -4.55,-4.55 -11,-4.55 -6.4,0 -11,4.55 -4.55,4.6 -4.55,11 0,6.45 4.55,11 4.55,4.5 11,4.5 6.4,0 10.95,-4.5 l 0.05,-0.05 q 4.5,-4.55 4.5,-10.95 0,-6.45 -4.5,-11 m -28.5,11.5 v -0.5 q 0,-7.25 5.05,-12.4 l 0.05,-0.05 q 5.15,-5.05 12.4,-5.05 7.25,0 12.35,5.05 v 0.05 q 5.15,5.15 5.15,12.4 v 0.5 q -0.2,6.95 -5.15,11.85 -5.1,5.15 -12.35,5.15 -7.25,0 -12.4,-5.15 h -0.05 q -4.85,-4.9 -5.05,-11.85"
         id="path460"
         inkscape:export-filename="C:\Users\Rob\Minetest\minetest-5.0.1-win64\textures\Kenney\menu\progress_bar_bg.png"
         inkscape:export-xdpi="96"
         inkscape:export-ydpi="96" />
      <path
         inkscape:connector-curvature="0"
         style="fill:#b1a077;stroke:none"
         d="m 636.33464,1368.5569 q 4.5,4.55 4.5,11 0,6.4 -4.5,10.95 l -0.05,0.05 q -4.55,4.5 -10.95,4.5 -6.45,0 -11,-4.5 -4.55,-4.55 -4.55,-11 0,-6.4 4.55,-11 4.6,-4.55 11,-4.55 6.45,0 11,4.55 m -1.45,1.35 q -3.95,-3.9 -9.55,-3.9 -5.65,0 -9.65,3.9 -3.9,4 -3.9,9.65 0,5.6 3.9,9.55 4,4 9.65,4 5.6,0 9.55,-4 4,-3.95 4,-9.55 0,-5.65 -4,-9.65"
         id="path462"
         inkscape:export-filename="C:\Users\Rob\Minetest\minetest-5.0.1-win64\textures\Kenney\menu\progress_bar_bg.png"
         inkscape:export-xdpi="96"
         inkscape:export-ydpi="96" />
      <path
         inkscape:connector-curvature="0"
         style="fill:#d3bf8f;stroke:none"
         d="m 634.88464,1369.9069 q 4,4 4,9.65 0,5.6 -4,9.55 -3.95,4 -9.55,4 -5.65,0 -9.65,-4 -3.9,-3.95 -3.9,-9.55 0,-5.65 3.9,-9.65 4,-3.9 9.65,-3.9 5.6,0 9.55,3.9"
         id="path464"
         inkscape:export-filename="C:\Users\Rob\Minetest\minetest-5.0.1-win64\textures\Kenney\menu\progress_bar_bg.png"
         inkscape:export-xdpi="96"
         inkscape:export-ydpi="96" />
      <path
         id="path4610"
         d="m 677.18269,1368.5569 q -4.55,-4.55 -11,-4.55 -6.4,0 -11,4.55 -4.55,4.6 -4.55,11 0,6.45 4.55,11 4.55,4.5 11,4.5 6.4,0 10.95,-4.5 l 0.05,-0.05 q 4.5,-4.55 4.5,-10.95 0,-6.45 -4.5,-11 m -28.5,11.5 v -0.5 q 0,-7.25 5.05,-12.4 l 0.05,-0.05 q 5.15,-5.05 12.4,-5.05 7.25,0 12.35,5.05 v 0.05 q 5.15,5.15 5.15,12.4 v 0.5 q -0.2,6.95 -5.15,11.85 -5.1,5.15 -12.35,5.15 -7.25,0 -12.4,-5.15 h -0.05 q -4.85,-4.9 -5.05,-11.85"
         style="fill:#d9cdaf;stroke:none"
         inkscape:connector-curvature="0"
         inkscape:export-filename="C:\Users\Rob\Minetest\minetest-5.0.1-win64\textures\Kenney\menu\progress_bar_bg.png"
         inkscape:export-xdpi="96"
         inkscape:export-ydpi="96" />
      <path
         id="path4612"
         d="m 677.18269,1368.5569 q 4.5,4.55 4.5,11 0,6.4 -4.5,10.95 l -0.05,0.05 q -4.55,4.5 -10.95,4.5 -6.45,0 -11,-4.5 -4.55,-4.55 -4.55,-11 0,-6.4 4.55,-11 4.6,-4.55 11,-4.55 6.45,0 11,4.55 m -1.45,1.35 q -3.95,-3.9 -9.55,-3.9 -5.65,0 -9.65,3.9 -3.9,4 -3.9,9.65 0,5.6 3.9,9.55 4,4 9.65,4 5.6,0 9.55,-4 4,-3.95 4,-9.55 0,-5.65 -4,-9.65"
         style="fill:#b1a077;stroke:none"
         inkscape:connector-curvature="0"
         inkscape:export-filename="C:\Users\Rob\Minetest\minetest-5.0.1-win64\textures\Kenney\menu\progress_bar_bg.png"
         inkscape:export-xdpi="96"
         inkscape:export-ydpi="96" />
      <path
         id="path4614"
         d="m 675.73269,1369.9069 q 4,4 4,9.65 0,5.6 -4,9.55 -3.95,4 -9.55,4 -5.65,0 -9.65,-4 -3.9,-3.95 -3.9,-9.55 0,-5.65 3.9,-9.65 4,-3.9 9.65,-3.9 5.6,0 9.55,3.9"
         style="fill:#d3bf8f;stroke:none"
         inkscape:connector-curvature="0"
         inkscape:export-filename="C:\Users\Rob\Minetest\minetest-5.0.1-win64\textures\Kenney\menu\progress_bar_bg.png"
         inkscape:export-xdpi="96"
         inkscape:export-ydpi="96" />
      <path
         inkscape:connector-curvature="0"
         style="fill:#d9cdaf;stroke:none"
         d="m 717.17528,1368.5569 q -4.55,-4.55 -11,-4.55 -6.4,0 -11,4.55 -4.55,4.6 -4.55,11 0,6.45 4.55,11 4.55,4.5 11,4.5 6.4,0 10.95,-4.5 l 0.05,-0.05 q 4.5,-4.55 4.5,-10.95 0,-6.45 -4.5,-11 m -28.5,11.5 v -0.5 q 0,-7.25 5.05,-12.4 l 0.05,-0.05 q 5.15,-5.05 12.4,-5.05 7.25,0 12.35,5.05 v 0.05 q 5.15,5.15 5.15,12.4 v 0.5 q -0.2,6.95 -5.15,11.85 -5.1,5.15 -12.35,5.15 -7.25,0 -12.4,-5.15 h -0.05 q -4.85,-4.9 -5.05,-11.85"
         id="path4618"
         inkscape:export-filename="C:\Users\Rob\Minetest\minetest-5.0.1-win64\textures\Kenney\menu\progress_bar_bg.png"
         inkscape:export-xdpi="96"
         inkscape:export-ydpi="96" />
      <path
         inkscape:connector-curvature="0"
         style="fill:#b1a077;stroke:none"
         d="m 717.17528,1368.5569 q 4.5,4.55 4.5,11 0,6.4 -4.5,10.95 l -0.05,0.05 q -4.55,4.5 -10.95,4.5 -6.45,0 -11,-4.5 -4.55,-4.55 -4.55,-11 0,-6.4 4.55,-11 4.6,-4.55 11,-4.55 6.45,0 11,4.55 m -1.45,1.35 q -3.95,-3.9 -9.55,-3.9 -5.65,0 -9.65,3.9 -3.9,4 -3.9,9.65 0,5.6 3.9,9.55 4,4 9.65,4 5.6,0 9.55,-4 4,-3.95 4,-9.55 0,-5.65 -4,-9.65"
         id="path4620"
         inkscape:export-filename="C:\Users\Rob\Minetest\minetest-5.0.1-win64\textures\Kenney\menu\progress_bar_bg.png"
         inkscape:export-xdpi="96"
         inkscape:export-ydpi="96" />
      <path
         inkscape:connector-curvature="0"
         style="fill:#d3bf8f;stroke:none"
         d="m 715.72528,1369.9069 q 4,4 4,9.65 0,5.6 -4,9.55 -3.95,4 -9.55,4 -5.65,0 -9.65,-4 -3.9,-3.95 -3.9,-9.55 0,-5.65 3.9,-9.65 4,-3.9 9.65,-3.9 5.6,0 9.55,3.9"
         id="path4622"
         inkscape:export-filename="C:\Users\Rob\Minetest\minetest-5.0.1-win64\textures\Kenney\menu\progress_bar_bg.png"
         inkscape:export-xdpi="96"
         inkscape:export-ydpi="96" />
      <path
         id="path4624"
         d="m 758.87879,1368.5569 q -4.55,-4.55 -11,-4.55 -6.4,0 -11,4.55 -4.55,4.6 -4.55,11 0,6.45 4.55,11 4.55,4.5 11,4.5 6.4,0 10.95,-4.5 l 0.05,-0.05 q 4.5,-4.55 4.5,-10.95 0,-6.45 -4.5,-11 m -28.5,11.5 v -0.5 q 0,-7.25 5.05,-12.4 l 0.05,-0.05 q 5.15,-5.05 12.4,-5.05 7.25,0 12.35,5.05 v 0.05 q 5.15,5.15 5.15,12.4 v 0.5 q -0.2,6.95 -5.15,11.85 -5.1,5.15 -12.35,5.15 -7.25,0 -12.4,-5.15 h -0.05 q -4.85,-4.9 -5.05,-11.85"
         style="fill:#d9cdaf;stroke:none"
         inkscape:connector-curvature="0"
         inkscape:export-filename="C:\Users\Rob\Minetest\minetest-5.0.1-win64\textures\Kenney\menu\progress_bar_bg.png"
         inkscape:export-xdpi="96"
         inkscape:export-ydpi="96" />
      <path
         id="path4626"
         d="m 758.87879,1368.5569 q 4.5,4.55 4.5,11 0,6.4 -4.5,10.95 l -0.05,0.05 q -4.55,4.5 -10.95,4.5 -6.45,0 -11,-4.5 -4.55,-4.55 -4.55,-11 0,-6.4 4.55,-11 4.6,-4.55 11,-4.55 6.45,0 11,4.55 m -1.45,1.35 q -3.95,-3.9 -9.55,-3.9 -5.65,0 -9.65,3.9 -3.9,4 -3.9,9.65 0,5.6 3.9,9.55 4,4 9.65,4 5.6,0 9.55,-4 4,-3.95 4,-9.55 0,-5.65 -4,-9.65"
         style="fill:#b1a077;stroke:none"
         inkscape:connector-curvature="0"
         inkscape:export-filename="C:\Users\Rob\Minetest\minetest-5.0.1-win64\textures\Kenney\menu\progress_bar_bg.png"
         inkscape:export-xdpi="96"
         inkscape:export-ydpi="96" />
      <path
         id="path4628"
         d="m 757.42879,1369.9069 q 4,4 4,9.65 0,5.6 -4,9.55 -3.95,4 -9.55,4 -5.65,0 -9.65,-4 -3.9,-3.95 -3.9,-9.55 0,-5.65 3.9,-9.65 4,-3.9 9.65,-3.9 5.6,0 9.55,3.9"
         style="fill:#d3bf8f;stroke:none"
         inkscape:connector-curvature="0"
         inkscape:export-filename="C:\Users\Rob\Minetest\minetest-5.0.1-win64\textures\Kenney\menu\progress_bar_bg.png"
         inkscape:export-xdpi="96"
         inkscape:export-ydpi="96" />
      <path
         inkscape:connector-curvature="0"
         style="fill:#d9cdaf;stroke:none"
         d="m 798.87138,1368.5569 q -4.55,-4.55 -11,-4.55 -6.4,0 -11,4.55 -4.55,4.6 -4.55,11 0,6.45 4.55,11 4.55,4.5 11,4.5 6.4,0 10.95,-4.5 l 0.05,-0.05 q 4.5,-4.55 4.5,-10.95 0,-6.45 -4.5,-11 m -28.5,11.5 v -0.5 q 0,-7.25 5.05,-12.4 l 0.05,-0.05 q 5.15,-5.05 12.4,-5.05 7.25,0 12.35,5.05 v 0.05 q 5.15,5.15 5.15,12.4 v 0.5 q -0.2,6.95 -5.15,11.85 -5.1,5.15 -12.35,5.15 -7.25,0 -12.4,-5.15 h -0.05 q -4.85,-4.9 -5.05,-11.85"
         id="path4630"
         inkscape:export-filename="C:\Users\Rob\Minetest\minetest-5.0.1-win64\textures\Kenney\menu\progress_bar_bg.png"
         inkscape:export-xdpi="96"
         inkscape:export-ydpi="96" />
      <path
         inkscape:connector-curvature="0"
         style="fill:#b1a077;stroke:none"
         d="m 798.87138,1368.5569 q 4.5,4.55 4.5,11 0,6.4 -4.5,10.95 l -0.05,0.05 q -4.55,4.5 -10.95,4.5 -6.45,0 -11,-4.5 -4.55,-4.55 -4.55,-11 0,-6.4 4.55,-11 4.6,-4.55 11,-4.55 6.45,0 11,4.55 m -1.45,1.35 q -3.95,-3.9 -9.55,-3.9 -5.65,0 -9.65,3.9 -3.9,4 -3.9,9.65 0,5.6 3.9,9.55 4,4 9.65,4 5.6,0 9.55,-4 4,-3.95 4,-9.55 0,-5.65 -4,-9.65"
         id="path4632"
         inkscape:export-filename="C:\Users\Rob\Minetest\minetest-5.0.1-win64\textures\Kenney\menu\progress_bar_bg.png"
         inkscape:export-xdpi="96"
         inkscape:export-ydpi="96" />
      <path
         inkscape:connector-curvature="0"
         style="fill:#d3bf8f;stroke:none"
         d="m 797.42138,1369.9069 q 4,4 4,9.65 0,5.6 -4,9.55 -3.95,4 -9.55,4 -5.65,0 -9.65,-4 -3.9,-3.95 -3.9,-9.55 0,-5.65 3.9,-9.65 4,-3.9 9.65,-3.9 5.6,0 9.55,3.9"
         id="path4634"
         inkscape:export-filename="C:\Users\Rob\Minetest\minetest-5.0.1-win64\textures\Kenney\menu\progress_bar_bg.png"
         inkscape:export-xdpi="96"
         inkscape:export-ydpi="96" />
      <path
         id="path4636"
         d="m 838.43624,1368.5569 q -4.55,-4.55 -11,-4.55 -6.4,0 -11,4.55 -4.55,4.6 -4.55,11 0,6.45 4.55,11 4.55,4.5 11,4.5 6.4,0 10.95,-4.5 l 0.05,-0.05 q 4.5,-4.55 4.5,-10.95 0,-6.45 -4.5,-11 m -28.5,11.5 v -0.5 q 0,-7.25 5.05,-12.4 l 0.05,-0.05 q 5.15,-5.05 12.4,-5.05 7.25,0 12.35,5.05 v 0.05 q 5.15,5.15 5.15,12.4 v 0.5 q -0.2,6.95 -5.15,11.85 -5.1,5.15 -12.35,5.15 -7.25,0 -12.4,-5.15 h -0.05 q -4.85,-4.9 -5.05,-11.85"
         style="fill:#d9cdaf;stroke:none"
         inkscape:connector-curvature="0"
         inkscape:export-filename="C:\Users\Rob\Minetest\minetest-5.0.1-win64\textures\Kenney\menu\progress_bar_bg.png"
         inkscape:export-xdpi="96"
         inkscape:export-ydpi="96" />
      <path
         id="path4638"
         d="m 838.43624,1368.5569 q 4.5,4.55 4.5,11 0,6.4 -4.5,10.95 l -0.05,0.05 q -4.55,4.5 -10.95,4.5 -6.45,0 -11,-4.5 -4.55,-4.55 -4.55,-11 0,-6.4 4.55,-11 4.6,-4.55 11,-4.55 6.45,0 11,4.55 m -1.45,1.35 q -3.95,-3.9 -9.55,-3.9 -5.65,0 -9.65,3.9 -3.9,4 -3.9,9.65 0,5.6 3.9,9.55 4,4 9.65,4 5.6,0 9.55,-4 4,-3.95 4,-9.55 0,-5.65 -4,-9.65"
         style="fill:#b1a077;stroke:none"
         inkscape:connector-curvature="0"
         inkscape:export-filename="C:\Users\Rob\Minetest\minetest-5.0.1-win64\textures\Kenney\menu\progress_bar_bg.png"
         inkscape:export-xdpi="96"
         inkscape:export-ydpi="96" />
      <path
         id="path4640"
         d="m 836.98624,1369.9069 q 4,4 4,9.65 0,5.6 -4,9.55 -3.95,4 -9.55,4 -5.65,0 -9.65,-4 -3.9,-3.95 -3.9,-9.55 0,-5.65 3.9,-9.65 4,-3.9 9.65,-3.9 5.6,0 9.55,3.9"
         style="fill:#d3bf8f;stroke:none"
         inkscape:connector-curvature="0"
         inkscape:export-filename="C:\Users\Rob\Minetest\minetest-5.0.1-win64\textures\Kenney\menu\progress_bar_bg.png"
         inkscape:export-xdpi="96"
         inkscape:export-ydpi="96" />
      <g
         inkscape:export-ydpi="96"
         inkscape:export-xdpi="96"
         inkscape:export-filename="C:\Users\Rob\Minetest\minetest-5.0.1-win64\textures\Kenney\menu\progress_bar.png"
         transform="translate(-37.675355,69.107425)"
         id="g4686">
        <path
           inkscape:connector-curvature="0"
           style="fill:#d3bf8f;stroke:none;stroke-width:1"
           d="m 887.54136,1356.6441 -0.0674,-0.053 0.0674,0.7466 v 5.6534 l -3.23368,2.56 3.23368,2.56 v 24.4266 q 0,2.08 -2.49263,2.1334 h -47.29261 l -2.08843,-1.6534 -2.08842,1.6534 h -57.33052 l -3.70526,-2.9334 -3.70527,2.9334 h -123.9579 q -2.56,-0.053 -2.56,-2.1334 v -3.84 l 3.70526,-2.9333 -3.70526,-2.9333 v -25.4934 l 0.0674,-0.5333 0.0674,-0.2133 q 0.33684,-1.3867 2.56,-1.3867 h 22.97263 l 3.03158,2.4 3.03158,-2.4 h 12.5979 l 3.77263,2.9867 3.77263,-2.9867 H 884.8467 q 2.22316,0 2.69473,1.44"
           id="path4680" />
        <path
           inkscape:connector-curvature="0"
           style="fill:#b1a077;stroke:none;stroke-width:1"
           d="m 887.54136,1356.6441 q -0.47157,-1.44 -2.69473,-1.44 H 694.194 l -3.77263,2.9867 -3.77263,-2.9867 h -12.5979 l -3.03158,2.4 -3.03158,-2.4 h -22.97263 q -2.22316,0 -2.56,1.3867 l -0.0674,0.2133 -0.0674,0.5333 v 25.4934 l 3.70526,2.9333 -3.70526,2.9333 v 3.84 q 0,2.08 2.56,2.1334 h 123.9579 l 3.70527,-2.9334 3.70526,2.9334 h 57.33052 l 2.08842,-1.6534 2.08843,1.6534 h 47.29261 q 2.49263,-0.053 2.49263,-2.1334 v -24.4266 l -3.23368,-2.56 3.23368,-2.56 v -5.6534 l -0.0674,-0.7466 0.0674,0.053 m -2.69473,-3.5733 q 4.71579,0 5.3221,3.2533 l 0.0674,1.0133 v 35.2 l -0.0674,1.0667 q -0.60631,3.2 -5.3221,3.2 H 645.01505 q -4.71579,0 -5.25473,-3.2 l -0.13474,-1.0667 v -35.2 l 0.13474,-1.0133 q 0.53894,-3.2533 5.25473,-3.2533 h 239.83158"
           id="path4682" />
        <path
           inkscape:connector-curvature="0"
           style="fill:#d9cdaf;stroke:none;stroke-width:1"
           d="M 884.84663,1353.0708 H 645.01505 q -4.71579,0 -5.25473,3.2533 l -0.13474,1.0133 v 35.2 l 0.13474,1.0667 q 0.53894,3.2 5.25473,3.2 h 239.83158 q 4.71579,0 5.3221,-3.2 l 0.0674,-1.0667 v -35.2 l -0.0674,-1.0133 q -0.60631,-3.2533 -5.3221,-3.2533 m 8.08421,4.2666 v 35.4667 q -0.20211,6.1333 -8.08421,6.1333 h -239.83158 -0.33684 -0.2021 -0.26948 -0.13474 -0.13473 -0.13474 q -6.33263,-0.4266 -6.80421,-5.4933 l -0.0674,-0.64 v -35.4667 q 0,-6.4 8.08421,-6.4 H 884.8466 q 8.08421,0 8.08421,6.4"
           id="path4684" />
      </g>
      <path
         inkscape:export-ydpi="96"
         inkscape:export-xdpi="96"
         inkscape:export-filename="C:\Users\Rob\Minetest\minetest-5.0.1-win64\textures\Kenney\menu\progress_bar.png"
         id="path4688"
         d="m 636.33464,1433.3577 q -4.55,-4.55 -11,-4.55 -6.4,0 -11,4.55 -4.55,4.6 -4.55,11 0,6.45 4.55,11 4.55,4.5 11,4.5 6.4,0 10.95,-4.5 l 0.05,-0.05 q 4.5,-4.55 4.5,-10.95 0,-6.45 -4.5,-11 m -28.5,11.5 v -0.5 q 0,-7.25 5.05,-12.4 l 0.05,-0.05 q 5.15,-5.05 12.4,-5.05 7.25,0 12.35,5.05 v 0.05 q 5.15,5.15 5.15,12.4 v 0.5 q -0.2,6.95 -5.15,11.85 -5.1,5.15 -12.35,5.15 -7.25,0 -12.4,-5.15 h -0.05 q -4.85,-4.9 -5.05,-11.85"
         style="fill:#fa8132;stroke:none;fill-opacity:1"
         inkscape:connector-curvature="0" />
      <path
         inkscape:export-ydpi="96"
         inkscape:export-xdpi="96"
         inkscape:export-filename="C:\Users\Rob\Minetest\minetest-5.0.1-win64\textures\Kenney\menu\progress_bar.png"
         id="path4690"
         d="m 636.33464,1433.3577 q 4.5,4.55 4.5,11 0,6.4 -4.5,10.95 l -0.05,0.05 q -4.55,4.5 -10.95,4.5 -6.45,0 -11,-4.5 -4.55,-4.55 -4.55,-11 0,-6.4 4.55,-11 4.6,-4.55 11,-4.55 6.45,0 11,4.55 m -1.45,1.35 q -3.95,-3.9 -9.55,-3.9 -5.65,0 -9.65,3.9 -3.9,4 -3.9,9.65 0,5.6 3.9,9.55 4,4 9.65,4 5.6,0 9.55,-4 4,-3.95 4,-9.55 0,-5.65 -4,-9.65"
         style="fill:#cd5d12;stroke:none;fill-opacity:1"
         inkscape:connector-curvature="0" />
      <path
         inkscape:export-ydpi="96"
         inkscape:export-xdpi="96"
         inkscape:export-filename="C:\Users\Rob\Minetest\minetest-5.0.1-win64\textures\Kenney\menu\progress_bar.png"
         id="path4692"
         d="m 634.88464,1434.7077 q 4,4 4,9.65 0,5.6 -4,9.55 -3.95,4 -9.55,4 -5.65,0 -9.65,-4 -3.9,-3.95 -3.9,-9.55 0,-5.65 3.9,-9.65 4,-3.9 9.65,-3.9 5.6,0 9.55,3.9"
         style="fill:#e86a17;stroke:none;fill-opacity:1"
         inkscape:connector-curvature="0" />
      <path
         inkscape:export-ydpi="96"
         inkscape:export-xdpi="96"
         inkscape:export-filename="C:\Users\Rob\Minetest\minetest-5.0.1-win64\textures\Kenney\menu\progress_bar.png"
         inkscape:connector-curvature="0"
         style="fill:#fa8132;stroke:none;fill-opacity:1"
         d="m 677.18269,1433.3577 q -4.55,-4.55 -11,-4.55 -6.4,0 -11,4.55 -4.55,4.6 -4.55,11 0,6.45 4.55,11 4.55,4.5 11,4.5 6.4,0 10.95,-4.5 l 0.05,-0.05 q 4.5,-4.55 4.5,-10.95 0,-6.45 -4.5,-11 m -28.5,11.5 v -0.5 q 0,-7.25 5.05,-12.4 l 0.05,-0.05 q 5.15,-5.05 12.4,-5.05 7.25,0 12.35,5.05 v 0.05 q 5.15,5.15 5.15,12.4 v 0.5 q -0.2,6.95 -5.15,11.85 -5.1,5.15 -12.35,5.15 -7.25,0 -12.4,-5.15 h -0.05 q -4.85,-4.9 -5.05,-11.85"
         id="path4694" />
      <path
         inkscape:export-ydpi="96"
         inkscape:export-xdpi="96"
         inkscape:export-filename="C:\Users\Rob\Minetest\minetest-5.0.1-win64\textures\Kenney\menu\progress_bar.png"
         inkscape:connector-curvature="0"
         style="fill:#cd5d12;stroke:none;fill-opacity:1"
         d="m 677.18269,1433.3577 q 4.5,4.55 4.5,11 0,6.4 -4.5,10.95 l -0.05,0.05 q -4.55,4.5 -10.95,4.5 -6.45,0 -11,-4.5 -4.55,-4.55 -4.55,-11 0,-6.4 4.55,-11 4.6,-4.55 11,-4.55 6.45,0 11,4.55 m -1.45,1.35 q -3.95,-3.9 -9.55,-3.9 -5.65,0 -9.65,3.9 -3.9,4 -3.9,9.65 0,5.6 3.9,9.55 4,4 9.65,4 5.6,0 9.55,-4 4,-3.95 4,-9.55 0,-5.65 -4,-9.65"
         id="path4696" />
      <path
         inkscape:export-ydpi="96"
         inkscape:export-xdpi="96"
         inkscape:export-filename="C:\Users\Rob\Minetest\minetest-5.0.1-win64\textures\Kenney\menu\progress_bar.png"
         inkscape:connector-curvature="0"
         style="fill:#e86a17;stroke:none;fill-opacity:1"
         d="m 675.73269,1434.7077 q 4,4 4,9.65 0,5.6 -4,9.55 -3.95,4 -9.55,4 -5.65,0 -9.65,-4 -3.9,-3.95 -3.9,-9.55 0,-5.65 3.9,-9.65 4,-3.9 9.65,-3.9 5.6,0 9.55,3.9"
         id="path4698" />
      <path
         inkscape:export-ydpi="96"
         inkscape:export-xdpi="96"
         inkscape:export-filename="C:\Users\Rob\Minetest\minetest-5.0.1-win64\textures\Kenney\menu\progress_bar.png"
         id="path4700"
         d="m 717.17528,1433.3577 q -4.55,-4.55 -11,-4.55 -6.4,0 -11,4.55 -4.55,4.6 -4.55,11 0,6.45 4.55,11 4.55,4.5 11,4.5 6.4,0 10.95,-4.5 l 0.05,-0.05 q 4.5,-4.55 4.5,-10.95 0,-6.45 -4.5,-11 m -28.5,11.5 v -0.5 q 0,-7.25 5.05,-12.4 l 0.05,-0.05 q 5.15,-5.05 12.4,-5.05 7.25,0 12.35,5.05 v 0.05 q 5.15,5.15 5.15,12.4 v 0.5 q -0.2,6.95 -5.15,11.85 -5.1,5.15 -12.35,5.15 -7.25,0 -12.4,-5.15 h -0.05 q -4.85,-4.9 -5.05,-11.85"
         style="fill:#ffd948;stroke:none;fill-opacity:1"
         inkscape:connector-curvature="0" />
      <path
         inkscape:export-ydpi="96"
         inkscape:export-xdpi="96"
         inkscape:export-filename="C:\Users\Rob\Minetest\minetest-5.0.1-win64\textures\Kenney\menu\progress_bar.png"
         id="path4702"
         d="m 717.17528,1433.3577 q 4.5,4.55 4.5,11 0,6.4 -4.5,10.95 l -0.05,0.05 q -4.55,4.5 -10.95,4.5 -6.45,0 -11,-4.5 -4.55,-4.55 -4.55,-11 0,-6.4 4.55,-11 4.6,-4.55 11,-4.55 6.45,0 11,4.55 m -1.45,1.35 q -3.95,-3.9 -9.55,-3.9 -5.65,0 -9.65,3.9 -3.9,4 -3.9,9.65 0,5.6 3.9,9.55 4,4 9.65,4 5.6,0 9.55,-4 4,-3.95 4,-9.55 0,-5.65 -4,-9.65"
         style="fill:#cda400;stroke:none;fill-opacity:1"
         inkscape:connector-curvature="0" />
      <path
         inkscape:export-ydpi="96"
         inkscape:export-xdpi="96"
         inkscape:export-filename="C:\Users\Rob\Minetest\minetest-5.0.1-win64\textures\Kenney\menu\progress_bar.png"
         id="path4704"
         d="m 715.72528,1434.7077 q 4,4 4,9.65 0,5.6 -4,9.55 -3.95,4 -9.55,4 -5.65,0 -9.65,-4 -3.9,-3.95 -3.9,-9.55 0,-5.65 3.9,-9.65 4,-3.9 9.65,-3.9 5.6,0 9.55,3.9"
         style="fill:#ffcc00;stroke:none;fill-opacity:1"
         inkscape:connector-curvature="0" />
      <path
         inkscape:export-ydpi="96"
         inkscape:export-xdpi="96"
         inkscape:export-filename="C:\Users\Rob\Minetest\minetest-5.0.1-win64\textures\Kenney\menu\progress_bar.png"
         inkscape:connector-curvature="0"
         style="fill:#ffd948;stroke:none;fill-opacity:1"
         d="m 758.87879,1433.3577 q -4.55,-4.55 -11,-4.55 -6.4,0 -11,4.55 -4.55,4.6 -4.55,11 0,6.45 4.55,11 4.55,4.5 11,4.5 6.4,0 10.95,-4.5 l 0.05,-0.05 q 4.5,-4.55 4.5,-10.95 0,-6.45 -4.5,-11 m -28.5,11.5 v -0.5 q 0,-7.25 5.05,-12.4 l 0.05,-0.05 q 5.15,-5.05 12.4,-5.05 7.25,0 12.35,5.05 v 0.05 q 5.15,5.15 5.15,12.4 v 0.5 q -0.2,6.95 -5.15,11.85 -5.1,5.15 -12.35,5.15 -7.25,0 -12.4,-5.15 h -0.05 q -4.85,-4.9 -5.05,-11.85"
         id="path4706" />
      <path
         inkscape:export-ydpi="96"
         inkscape:export-xdpi="96"
         inkscape:export-filename="C:\Users\Rob\Minetest\minetest-5.0.1-win64\textures\Kenney\menu\progress_bar.png"
         inkscape:connector-curvature="0"
         style="fill:#cda400;stroke:none;fill-opacity:1"
         d="m 758.87879,1433.3577 q 4.5,4.55 4.5,11 0,6.4 -4.5,10.95 l -0.05,0.05 q -4.55,4.5 -10.95,4.5 -6.45,0 -11,-4.5 -4.55,-4.55 -4.55,-11 0,-6.4 4.55,-11 4.6,-4.55 11,-4.55 6.45,0 11,4.55 m -1.45,1.35 q -3.95,-3.9 -9.55,-3.9 -5.65,0 -9.65,3.9 -3.9,4 -3.9,9.65 0,5.6 3.9,9.55 4,4 9.65,4 5.6,0 9.55,-4 4,-3.95 4,-9.55 0,-5.65 -4,-9.65"
         id="path4708" />
      <path
         inkscape:export-ydpi="96"
         inkscape:export-xdpi="96"
         inkscape:export-filename="C:\Users\Rob\Minetest\minetest-5.0.1-win64\textures\Kenney\menu\progress_bar.png"
         inkscape:connector-curvature="0"
         style="fill:#ffcc00;stroke:none;fill-opacity:1"
         d="m 757.42879,1434.7077 q 4,4 4,9.65 0,5.6 -4,9.55 -3.95,4 -9.55,4 -5.65,0 -9.65,-4 -3.9,-3.95 -3.9,-9.55 0,-5.65 3.9,-9.65 4,-3.9 9.65,-3.9 5.6,0 9.55,3.9"
         id="path4710" />
      <path
         inkscape:export-ydpi="96"
         inkscape:export-xdpi="96"
         inkscape:export-filename="C:\Users\Rob\Minetest\minetest-5.0.1-win64\textures\Kenney\menu\progress_bar.png"
         id="path4712"
         d="m 798.87138,1433.3577 q -4.55,-4.55 -11,-4.55 -6.4,0 -11,4.55 -4.55,4.6 -4.55,11 0,6.45 4.55,11 4.55,4.5 11,4.5 6.4,0 10.95,-4.5 l 0.05,-0.05 q 4.5,-4.55 4.5,-10.95 0,-6.45 -4.5,-11 m -28.5,11.5 v -0.5 q 0,-7.25 5.05,-12.4 l 0.05,-0.05 q 5.15,-5.05 12.4,-5.05 7.25,0 12.35,5.05 v 0.05 q 5.15,5.15 5.15,12.4 v 0.5 q -0.2,6.95 -5.15,11.85 -5.1,5.15 -12.35,5.15 -7.25,0 -12.4,-5.15 h -0.05 q -4.85,-4.9 -5.05,-11.85"
         style="fill:#88e060;stroke:none;fill-opacity:1"
         inkscape:connector-curvature="0" />
      <path
         inkscape:export-ydpi="96"
         inkscape:export-xdpi="96"
         inkscape:export-filename="C:\Users\Rob\Minetest\minetest-5.0.1-win64\textures\Kenney\menu\progress_bar.png"
         id="path4714"
         d="m 798.87138,1433.3577 q 4.5,4.55 4.5,11 0,6.4 -4.5,10.95 l -0.05,0.05 q -4.55,4.5 -10.95,4.5 -6.45,0 -11,-4.5 -4.55,-4.55 -4.55,-11 0,-6.4 4.55,-11 4.6,-4.55 11,-4.55 6.45,0 11,4.55 m -1.45,1.35 q -3.95,-3.9 -9.55,-3.9 -5.65,0 -9.65,3.9 -3.9,4 -3.9,9.65 0,5.6 3.9,9.55 4,4 9.65,4 5.6,0 9.55,-4 4,-3.95 4,-9.55 0,-5.65 -4,-9.65"
         style="fill:#5fb13a;stroke:none;fill-opacity:1"
         inkscape:connector-curvature="0" />
      <path
         inkscape:export-ydpi="96"
         inkscape:export-xdpi="96"
         inkscape:export-filename="C:\Users\Rob\Minetest\minetest-5.0.1-win64\textures\Kenney\menu\progress_bar.png"
         id="path4716"
         d="m 797.42138,1434.7077 q 4,4 4,9.65 0,5.6 -4,9.55 -3.95,4 -9.55,4 -5.65,0 -9.65,-4 -3.9,-3.95 -3.9,-9.55 0,-5.65 3.9,-9.65 4,-3.9 9.65,-3.9 5.6,0 9.55,3.9"
         style="fill:#73cd4b;stroke:none;fill-opacity:1"
         inkscape:connector-curvature="0" />
      <path
         inkscape:export-ydpi="96"
         inkscape:export-xdpi="96"
         inkscape:export-filename="C:\Users\Rob\Minetest\minetest-5.0.1-win64\textures\Kenney\menu\progress_bar.png"
         inkscape:connector-curvature="0"
         style="fill:#88e060;stroke:none;fill-opacity:1"
         d="m 838.43624,1433.3577 q -4.55,-4.55 -11,-4.55 -6.4,0 -11,4.55 -4.55,4.6 -4.55,11 0,6.45 4.55,11 4.55,4.5 11,4.5 6.4,0 10.95,-4.5 l 0.05,-0.05 q 4.5,-4.55 4.5,-10.95 0,-6.45 -4.5,-11 m -28.5,11.5 v -0.5 q 0,-7.25 5.05,-12.4 l 0.05,-0.05 q 5.15,-5.05 12.4,-5.05 7.25,0 12.35,5.05 v 0.05 q 5.15,5.15 5.15,12.4 v 0.5 q -0.2,6.95 -5.15,11.85 -5.1,5.15 -12.35,5.15 -7.25,0 -12.4,-5.15 h -0.05 q -4.85,-4.9 -5.05,-11.85"
         id="path4718" />
      <path
         inkscape:export-ydpi="96"
         inkscape:export-xdpi="96"
         inkscape:export-filename="C:\Users\Rob\Minetest\minetest-5.0.1-win64\textures\Kenney\menu\progress_bar.png"
         inkscape:connector-curvature="0"
         style="fill:#5fb13a;stroke:none;fill-opacity:1"
         d="m 838.43624,1433.3577 q 4.5,4.55 4.5,11 0,6.4 -4.5,10.95 l -0.05,0.05 q -4.55,4.5 -10.95,4.5 -6.45,0 -11,-4.5 -4.55,-4.55 -4.55,-11 0,-6.4 4.55,-11 4.6,-4.55 11,-4.55 6.45,0 11,4.55 m -1.45,1.35 q -3.95,-3.9 -9.55,-3.9 -5.65,0 -9.65,3.9 -3.9,4 -3.9,9.65 0,5.6 3.9,9.55 4,4 9.65,4 5.6,0 9.55,-4 4,-3.95 4,-9.55 0,-5.65 -4,-9.65"
         id="path4720" />
      <path
         inkscape:export-ydpi="96"
         inkscape:export-xdpi="96"
         inkscape:export-filename="C:\Users\Rob\Minetest\minetest-5.0.1-win64\textures\Kenney\menu\progress_bar.png"
         inkscape:connector-curvature="0"
         style="fill:#73cd4b;stroke:none;fill-opacity:1"
         d="m 836.98624,1434.7077 q 4,4 4,9.65 0,5.6 -4,9.55 -3.95,4 -9.55,4 -5.65,0 -9.65,-4 -3.9,-3.95 -3.9,-9.55 0,-5.65 3.9,-9.65 4,-3.9 9.65,-3.9 5.6,0 9.55,3.9"
         id="path4722" />
    </g>
    <path
       inkscape:export-ydpi="95.928886"
       inkscape:export-xdpi="95.928886"
       inkscape:export-filename="C:\Users\Rob\Minetest\minetest-5.0.1-win64\textures\Kenney\gui_hotbar_selected.png"
       style="fill:#d3bf8f;fill-opacity:1;stroke:none;stroke-width:0.26458332"
       inkscape:connector-curvature="0"
       d="m 174.19441,37.604797 0.0218,-0.08702 q 0.10878,-0.56562 0.82668,-0.56562 h 14.358 q 0.71791,0 0.87019,0.587375 l -0.0217,-0.02175 0.0217,0.304564 v 2.305992 l -1.04422,1.044221 1.04422,1.044223 v 9.963621 q 0,0.870183 -0.87019,0.870183 h -14.35805 q -0.87019,0 -0.87019,-0.870183 V 50.61407 l 1.19651,-1.196507 -1.19651,-1.196504 V 37.822348 l 0.0218,-0.217545"
       id="path5075" />
    <path
       inkscape:export-ydpi="95.928886"
       inkscape:export-xdpi="95.928886"
       inkscape:export-filename="C:\Users\Rob\Minetest\minetest-5.0.1-win64\textures\Kenney\gui_hotbar_selected.png"
       style="fill:#b1a077;fill-opacity:1;stroke:none;stroke-width:0.26458332"
       inkscape:connector-curvature="0"
       d="m 174.19441,37.604797 -0.0217,0.217546 v 10.398713 l 1.1965,1.196504 -1.1965,1.196507 V 52.1804 q 0,0.870183 0.87018,0.870183 h 14.35806 q 0.87018,0 0.87018,-0.870183 v -9.963621 l -1.04422,-1.044223 1.04422,-1.044221 v -2.305992 l -0.0217,-0.304564 0.0217,0.02175 q -0.15228,-0.587376 -0.87018,-0.587376 h -14.35806 q -0.7179,0 -0.82667,0.565621 l -0.0217,0.08702 m -0.89194,0.217546 0.0435,-0.413337 q 0.17404,-1.327034 1.69686,-1.327034 H 189.401 q 1.52282,0 1.71861,1.327034 l 0.0217,0.413337 v 14.358057 q 0,1.740368 -1.74037,1.740368 h -14.35806 q -1.74037,0 -1.74037,-1.740368 V 37.822338"
       id="path5077" />
    <path
       inkscape:export-ydpi="95.928886"
       inkscape:export-xdpi="95.928886"
       inkscape:export-filename="C:\Users\Rob\Minetest\minetest-5.0.1-win64\textures\Kenney\gui_hotbar_selected.png"
       style="fill:#d9cdaf;fill-opacity:1;stroke:none;stroke-width:0.26458332"
       inkscape:connector-curvature="0"
       d="M 173.30247,37.822343 V 52.1804 q 0,1.740368 1.74038,1.740368 h 14.35805 q 1.74037,0 1.74037,-1.740368 V 37.822343 l -0.0217,-0.413337 q -0.19579,-1.327034 -1.71861,-1.327034 H 175.0429 q -1.52282,0 -1.69686,1.327034 l -0.0435,0.413337 m -0.87019,14.46683 v -14.46683 q 0,-2.610556 2.61056,-2.610556 h 14.35806 q 2.61055,0 2.61055,2.610556 v 14.46683 q -0.0653,2.501781 -2.61055,2.501781 h -14.35806 q -2.54529,0 -2.61056,-2.501781"
       id="path5079" />
  </g>
</svg>
