<?xml version="1.0" encoding="UTF-8" standalone="no"?>
<!-- Created with Inkscape (http://www.inkscape.org/) -->

<svg
   xmlns:dc="http://purl.org/dc/elements/1.1/"
   xmlns:cc="http://creativecommons.org/ns#"
   xmlns:rdf="http://www.w3.org/1999/02/22-rdf-syntax-ns#"
   xmlns:svg="http://www.w3.org/2000/svg"
   xmlns="http://www.w3.org/2000/svg"
   xmlns:sodipodi="http://sodipodi.sourceforge.net/DTD/sodipodi-0.dtd"
   xmlns:inkscape="http://www.inkscape.org/namespaces/inkscape"
   width="74.02935mm"
   height="42.034641mm"
   viewBox="0 0 74.02935 42.034641"
   version="1.1"
   id="svg5155"
   inkscape:version="0.92.4 (5da689c313, 2019-01-14)"
   sodipodi:docname="default_tree_all.svg"
   shape-rendering="crispEdges">
  <defs
     id="defs5149" />
  <sodipodi:namedview
     id="base"
     pagecolor="#ffffff"
     bordercolor="#666666"
     borderopacity="1.0"
     inkscape:pageopacity="0"
     inkscape:pageshadow="2"
     inkscape:zoom="8.4950129"
     inkscape:cx="98.300069"
     inkscape:cy="115.5272"
     inkscape:document-units="mm"
     inkscape:current-layer="g18886"
     showgrid="false"
     inkscape:window-width="2160"
     inkscape:window-height="1346"
     inkscape:window-x="-11"
     inkscape:window-y="-11"
     inkscape:window-maximized="1"
     showguides="true"
     inkscape:guide-bbox="true"
     inkscape:snap-grids="true"
     inkscape:snap-others="true"
     inkscape:object-nodes="false"
     inkscape:snap-object-midpoints="false"
     inkscape:pagecheckerboard="false">
    <sodipodi:guide
       position="23.06159,4.1297265e-06"
       orientation="0,1"
       id="guide6041"
       inkscape:locked="false" />
  </sodipodi:namedview>
  <metadata
     id="metadata5152">
    <rdf:RDF>
      <cc:Work
         rdf:about="">
        <dc:format>image/svg+xml</dc:format>
        <dc:type
           rdf:resource="http://purl.org/dc/dcmitype/StillImage" />
        <dc:title></dc:title>
      </cc:Work>
    </rdf:RDF>
  </metadata>
  <g
     inkscape:label="Layer 1"
     inkscape:groupmode="layer"
     id="layer1"
     transform="translate(4.4568755,-72.395721)">
    <rect
       style="opacity:1;fill:none;fill-opacity:1;fill-rule:nonzero;stroke:none;stroke-width:0.26499999;stroke-linecap:round;stroke-linejoin:round;stroke-miterlimit:4;stroke-dasharray:none;stroke-dashoffset:0;stroke-opacity:1;paint-order:normal"
       id="rect6428"
       width="16.933332"
       height="16.933332"
       x="52.639145"
       y="72.395721"
       inkscape:export-filename="C:\Users\Rob\Minetest\minetest-5.0.1-win64\textures\Kenney\default\default_acacia_sapling.png"
       inkscape:export-xdpi="96"
       inkscape:export-ydpi="96" />
    <rect
       y="98.443787"
       x="1.0633639"
       height="3.8252699"
       width="5.4770875"
       id="rect5988"
       style="opacity:1;fill:#9c7249;fill-opacity:1;fill-rule:nonzero;stroke:none;stroke-width:0.26499999;stroke-linecap:round;stroke-linejoin:round;stroke-miterlimit:4;stroke-dasharray:none;stroke-dashoffset:0;stroke-opacity:1;paint-order:normal" />
    <rect
       style="opacity:1;fill:#91673f;fill-opacity:1;fill-rule:nonzero;stroke:none;stroke-width:0.26499999;stroke-linecap:round;stroke-linejoin:round;stroke-miterlimit:4;stroke-dasharray:none;stroke-dashoffset:0;stroke-opacity:1;paint-order:normal"
       id="rect5990"
       width="5.4770875"
       height="3.8252699"
       x="1.0633639"
       y="102.26905" />
    <rect
       y="106.09434"
       x="1.0633639"
       height="3.8252699"
       width="5.4770875"
       id="rect5992"
       style="opacity:1;fill:#8a6038;fill-opacity:1;fill-rule:nonzero;stroke:none;stroke-width:0.26499999;stroke-linecap:round;stroke-linejoin:round;stroke-miterlimit:4;stroke-dasharray:none;stroke-dashoffset:0;stroke-opacity:1;paint-order:normal" />
    <g
       id="g18892"
       inkscape:export-filename="C:\Users\Rob\Minetest\minetest-5.0.1-win64\textures\Kenney\default\default_tree.png"
       inkscape:export-xdpi="96"
       inkscape:export-ydpi="96">
      <rect
         inkscape:export-ydpi="96"
         inkscape:export-xdpi="96"
         inkscape:export-filename="C:\Users\Rob\Minetest\minetest-5.0.1-win64\textures\Kenney\default\default_acacia_tree.png"
         y="97.497032"
         x="10.649894"
         height="16.933332"
         width="16.933332"
         id="rect5986"
         style="opacity:1;fill:#91673f;fill-opacity:1;fill-rule:nonzero;stroke:none;stroke-width:0.26499999;stroke-linecap:round;stroke-linejoin:round;stroke-miterlimit:4;stroke-dasharray:none;stroke-dashoffset:0;stroke-opacity:1;paint-order:normal" />
      <path
         inkscape:export-ydpi="96"
         inkscape:export-xdpi="96"
         inkscape:export-filename="C:\Users\Rob\Minetest\minetest-5.0.1-win64\textures\Kenney\default\default_acacia_tree.png"
         inkscape:connector-curvature="0"
         style="fill:#7b5632;fill-opacity:1;stroke:none;stroke-width:0.26458332"
         d="m 27.583226,114.41713 h -0.992187 l 0.992187,-1.6801 -0.992187,-1.70656 0.992187,-1.68011 -0.992187,-1.70656 0.992187,-1.6801 -0.992187,-1.70657 0.992187,-1.6801 -0.992187,-1.70656 0.992187,-1.68011 -0.992187,-1.69333 h 0.992187 v 1.69333 3.38667 3.38667 3.38666 3.38667 1.6801 m -15.941146,-16.9201 -0.992187,1.69333 0.992187,1.68011 -0.992187,1.70656 0.992187,1.6801 -0.992187,1.70657 0.992187,1.6801 -0.992187,1.70656 0.992187,1.68011 -0.992187,1.70656 0.992187,1.6801 h -0.992187 v -1.6801 -3.38667 -3.38666 -3.38667 -3.38667 -1.69333 h 0.992187"
         id="path5996" />
      <path
         inkscape:export-ydpi="96"
         inkscape:export-xdpi="96"
         inkscape:export-filename="C:\Users\Rob\Minetest\minetest-5.0.1-win64\textures\Kenney\default\default_acacia_tree.png"
         inkscape:connector-curvature="0"
         style="fill:#8a6038;fill-opacity:1;stroke:none;stroke-width:0.26458332"
         d="m 20.928955,109.93245 v -3.88938 h 1.150938 v 3.88938 h -1.150938 m 1.150938,-12.43542 v 5.18583 h -1.150938 v -5.18583 h 1.150938 m -7.9375,0 v 5.18583 h -1.150938 v -5.18583 h 1.150938 m 0,8.79739 v 2.52678 h -1.150938 v -2.52678 h 1.150938 m 1.005417,8.13594 v -2.52677 h 1.150937 v 2.52677 H 15.14781 m 8.956145,0 v -2.52677 h 1.150938 v 2.52677 h -1.150938 m 0,-8.62541 V 99.2962 h 1.150938 v 6.50875 h -1.150938 m -4.987395,-2.20928 v 9.77636 h -1.150938 v -9.77636 h 1.150938 m -2.817813,-5.04031 v 11.13896 H 15.14781 V 98.55536 h 1.150937"
         id="path6000" />
      <path
         inkscape:export-ydpi="96"
         inkscape:export-xdpi="96"
         inkscape:export-filename="C:\Users\Rob\Minetest\minetest-5.0.1-win64\textures\Kenney\default\default_acacia_tree.png"
         inkscape:connector-curvature="0"
         style="fill:#9c7249;fill-opacity:1;stroke:none;stroke-width:0.26458332"
         d="m 14.142393,102.68286 v 3.61156 h -1.150938 v -3.61156 h 1.150938 m 9.961562,9.22073 v -2.03729 h 1.150938 v 2.03729 h -1.150938 m 1.150938,-6.09864 v 2.03729 h -1.150938 v -2.03729 h 1.150938 m -7.289271,-2.20928 v -3.61156 h 1.150938 v 3.61156 h -1.150938 m 4.114271,6.33678 v 2.03729 h -1.150938 v -2.03729 h 1.150938"
         id="path6002" />
    </g>
    <g
       id="g18899"
       inkscape:export-filename="C:\Users\Rob\Minetest\minetest-5.0.1-win64\textures\Kenney\default\default_tree_top.png"
       inkscape:export-xdpi="96"
       inkscape:export-ydpi="96">
      <rect
         inkscape:export-ydpi="96"
         inkscape:export-xdpi="96"
         inkscape:export-filename="C:\Users\Rob\Minetest\minetest-5.0.1-win64\textures\Kenney\default\default_acacia_tree_top.png"
         style="opacity:1;fill:#91673f;fill-opacity:1;fill-rule:nonzero;stroke:none;stroke-width:0.26499999;stroke-linecap:round;stroke-linejoin:round;stroke-miterlimit:4;stroke-dasharray:none;stroke-dashoffset:0;stroke-opacity:1;paint-order:normal"
         id="rect6010"
         width="16.933332"
         height="16.933332"
         x="30.123989"
         y="97.497032" />
      <path
         inkscape:export-ydpi="96"
         inkscape:export-xdpi="96"
         inkscape:export-filename="C:\Users\Rob\Minetest\minetest-5.0.1-win64\textures\Kenney\default\default_acacia_tree_top.png"
         inkscape:connector-curvature="0"
         style="fill:#7b5632;fill-opacity:1;stroke:none;stroke-width:0.26458332"
         d="m 31.790862,97.510256 -1.666875,1.69333 0.992187,1.680104 -0.992187,1.70657 0.992187,1.6801 -0.992187,1.70656 0.992187,1.68011 -0.992187,1.70656 0.992187,1.6801 -0.992187,1.70657 1.680104,1.6801 1.706563,-0.99219 1.680104,0.99219 q 0.859896,-0.48948 1.706562,-0.99219 l 1.680104,0.99219 1.706563,-0.99219 1.680104,0.99219 1.706563,-0.99219 1.680104,0.99219 1.706562,-1.6801 -0.992187,-1.70657 0.992187,-1.6801 -0.992187,-1.70656 0.992187,-1.68011 -0.992187,-1.70656 0.992187,-1.6801 -0.992187,-1.70657 0.992187,-1.680104 -1.680104,-1.69333 -0.02646,-0.0132 h 1.693333 v 0.0132 h 0.01323 v 1.69333 3.386674 3.38666 3.38667 3.38667 1.6801 h -1.706561 -3.386667 -3.386667 -3.386666 -3.386667 -1.680104 v -1.6801 -3.38667 -3.38667 -3.38666 -3.386674 -1.70656 h 1.680104 l -0.01323,0.0132 m 13.546667,0 -1.666875,0.97895 -1.680105,-0.96573 v -0.0132 l -0.02646,-0.0132 -0.01323,0.0132 -1.666875,0.97896 -1.680104,-0.97896 -0.02646,-0.0132 -0.01323,0.0132 -1.666875,0.97896 -1.680104,-0.96573 v -0.0132 l -0.02646,-0.0132 -0.01323,0.0132 -1.666875,0.97896 -1.680104,-0.97896 -0.02646,-0.0132 h 3.386666 3.386667 3.386666 3.386667 l -0.01323,0.0132"
         id="path6026" />
      <path
         sodipodi:nodetypes="cccccccccc"
         id="path6960"
         d="m 35.071697,100.1561 h 7.051146 l 2.288646,2.28864 v 7.03792 h -0.01323 l -2.301875,2.31511 h -7.037916 l -2.301875,-2.31511 v -7.02469 l 2.315104,-2.30187"
         style="fill:none;fill-opacity:1;stroke:#7b5632;stroke-width:0.86500001;stroke-linecap:round;stroke-linejoin:round;stroke-miterlimit:4;stroke-dasharray:none;stroke-opacity:1"
         inkscape:connector-curvature="0"
         inkscape:export-filename="C:\Users\Rob\Minetest\minetest-5.0.1-win64\textures\Kenney\default\default_aspen_tree_top.png"
         inkscape:export-xdpi="96"
         inkscape:export-ydpi="96" />
      <path
         inkscape:export-ydpi="96"
         inkscape:export-xdpi="96"
         inkscape:export-filename="C:\Users\Rob\Minetest\minetest-5.0.1-win64\textures\Kenney\default\default_acacia_tree_top.png"
         inkscape:connector-curvature="0"
         style="fill:#c28954;fill-opacity:1;stroke:none;stroke-width:0.26458332"
         d="m 35.071695,100.15609 h 7.051146 l 2.288646,2.28864 v 7.03792 h -0.01323 l -2.301875,2.31511 h -7.037916 l -2.301875,-2.31511 v -7.02469 l 2.315104,-2.30187 m 1.098021,2.64583 h 4.868333 l 0.727605,0.72761 v 4.8551 l -0.767292,0.76729 h -4.841875 l -0.754063,-0.75406 v -4.82865 l 0.767292,-0.76729 m 1.878542,3.70417 v -1.05833 h 1.071562 v 1.05833 h -1.071562 m 3.532187,-5.02708 H 35.62732 l -1.547812,1.53458 v 5.92667 l 1.534583,1.53458 h 5.939896 l 1.534583,-1.54781 v -5.9399 l -1.508125,-1.50812 m -4.855104,2.64583 v 3.70417 h 3.717396 v -3.70417 h -3.717396"
         id="path6030" />
      <path
         inkscape:export-ydpi="96"
         inkscape:export-xdpi="96"
         inkscape:export-filename="C:\Users\Rob\Minetest\minetest-5.0.1-win64\textures\Kenney\default\default_acacia_tree_top.png"
         inkscape:connector-curvature="0"
         style="fill:#db9a5f;fill-opacity:1;stroke:none;stroke-width:0.26458332"
         d="m 36.725341,104.12484 h 3.717396 v 3.70417 h -3.717396 v -3.70417 m 1.322917,2.38125 h 1.071562 v -1.05833 h -1.071562 v 1.05833 m -1.878542,-3.70417 -0.767292,0.76729 v 4.82865 l 0.754063,0.75406 h 4.841875 l 0.767292,-0.76729 v -4.8551 l -0.727605,-0.72761 h -4.868333 m 5.410729,-1.32291 1.508125,1.50812 v 5.9399 l -1.534583,1.54781 h -5.939896 l -1.534583,-1.53458 v -5.92667 l 1.547812,-1.53458 h 5.953125"
         id="path6032" />
    </g>
    <rect
       style="opacity:1;fill:#7b5632;fill-opacity:1;fill-rule:nonzero;stroke:none;stroke-width:0.26499999;stroke-linecap:round;stroke-linejoin:round;stroke-miterlimit:4;stroke-dasharray:none;stroke-dashoffset:0;stroke-opacity:1;paint-order:normal"
       id="rect6037"
       width="5.4770875"
       height="3.8252699"
       x="1.0633639"
       y="109.91959" />
    <g
       id="g18905"
       inkscape:export-filename="C:\Users\Rob\Minetest\minetest-5.0.1-win64\textures\Kenney\default\default_wood.png"
       inkscape:export-xdpi="96"
       inkscape:export-ydpi="96">
      <rect
         inkscape:export-ydpi="96"
         inkscape:export-xdpi="96"
         inkscape:export-filename="C:\Users\Rob\Minetest\minetest-5.0.1-win64\textures\Kenney\default\default_acacia_wood.png"
         ry="0"
         y="97.497025"
         x="49.554615"
         height="16.933334"
         width="16.933334"
         id="rect6465"
         style="opacity:1;fill:#b47b41;fill-opacity:1;fill-rule:nonzero;stroke:none;stroke-width:0.26499999;stroke-linecap:round;stroke-linejoin:round;stroke-miterlimit:4;stroke-dasharray:none;stroke-dashoffset:0;stroke-opacity:1;paint-order:normal" />
      <path
         inkscape:export-ydpi="96"
         inkscape:export-xdpi="96"
         inkscape:export-filename="C:\Users\Rob\Minetest\minetest-5.0.1-win64\textures\Kenney\default\default_acacia_wood.png"
         inkscape:connector-curvature="0"
         style="fill:#c6894c;fill-opacity:1;stroke:none;stroke-width:0.26458332"
         d="m 56.473471,107.7364 0.05292,1.99761 -5.953125,0.1852 -1.018646,0.0265 v -3.10885 l 1.42875,-0.0397 5.463646,-0.15875 0.02646,1.09802 m -6.918854,-9.233954 7.236354,-0.21167 0.06615,2.275414 0.02646,0.82021 -2.936875,0.0926 -4.392083,0.11906 v -3.095624 m 8.479896,2.196044 -0.05292,-1.957924 8.506354,-0.23812 v 3.095624 l -4.180416,0.13229 -4.233334,0.11907 -0.03969,-1.15094 m 8.453437,6.13833 v 3.10886 l -7.355416,0.21166 -1.402292,0.0397 -0.07937,-2.55323 -0.01323,-0.55562 1.719792,-0.0397 7.13052,-0.21167 m -7.209895,-0.89958 -8.374063,-0.33073 -1.031875,-0.0397 0.132292,-3.28083 3.823229,0.14552 8.360833,0.33073 3.571875,0.13229 -0.119062,3.28083 -6.363229,-0.23812 m -6.852709,-2.67229 0.07937,1.65364 5.622396,-0.33073 -0.0926,-1.65364 -5.609167,0.33073 m 6.482292,-3.915844 -0.03969,1.666884 5.622395,0.0794 0.02646,-1.653654 -5.609166,-0.0926 m 3.849688,13.652504 0.06615,-1.65365 -5.622396,-0.21166 -0.06615,1.65364 5.622395,0.21167 m -7.064381,-5.47687 -5.622395,-0.21167 -0.06615,1.65364 5.622396,0.21167 0.06615,-1.65364 m 9.816042,5.11968 -0.02646,1.41552 -15.742709,-0.3175 0.01323,-1.03187 0.05292,-2.06375 0.727604,0.0132 8.559271,0.17198 6.455833,0.13229 -0.03969,1.6801"
         id="path6469" />
      <path
         inkscape:export-ydpi="96"
         inkscape:export-xdpi="96"
         inkscape:export-filename="C:\Users\Rob\Minetest\minetest-5.0.1-win64\textures\Kenney\default\default_acacia_wood.png"
         inkscape:connector-curvature="0"
         style="fill:#a5703b;fill-opacity:1;stroke:none;stroke-width:0.26458332"
         d="m 56.857117,100.56619 1.177396,0.1323 0.03969,1.15093 4.233334,-0.11906 -0.119063,1.03188 -8.360833,-0.33073 0.119062,-0.9525 2.936875,-0.0926 -0.02646,-0.82021 m 9.630833,9.37948 v 2.75166 l -0.978958,-0.0529 0.03969,-1.6801 -6.455836,-0.13229 0.03969,-0.67469 7.355416,-0.21166 m -16.933336,2.75166 v -2.75167 l 1.018646,-0.0265 -0.03969,0.74084 -0.727604,-0.0132 -0.05292,2.06375 -0.198437,-0.0132 m 1.42875,-5.90021 -0.07937,-1.19063 8.374063,0.33073 0.07937,1.11125 -1.719792,0.0397 0.01323,0.55563 -1.177396,0.0926 -0.02646,-1.09802 -5.463646,0.15875"
         id="path6471" />
      <path
         inkscape:export-ydpi="96"
         inkscape:export-xdpi="96"
         inkscape:export-filename="C:\Users\Rob\Minetest\minetest-5.0.1-win64\textures\Kenney\default\default_acacia_wood.png"
         inkscape:connector-curvature="0"
         style="fill:#d19251;fill-opacity:1;stroke:none;stroke-width:0.26458332"
         d="m 58.907638,99.349106 5.609166,0.0926 -0.02646,1.653654 -5.622396,-0.0794 0.03969,-1.666884 m -6.482289,3.915844 5.609167,-0.33073 0.0926,1.65364 -5.622396,0.33073 -0.07937,-1.65364 m 3.267604,4.25979 -0.06615,1.65364 -5.622396,-0.21166 0.06615,-1.65365 5.622395,0.21167 m 7.064375,5.47687 -5.622395,-0.21166 0.06615,-1.65365 5.622395,0.21167 -0.06615,1.65364"
         id="path6473" />
    </g>
    <g
       id="g18886"
       inkscape:export-filename="C:\Users\Rob\Minetest\minetest-5.0.1-win64\textures\Kenney\default\default_leaves.png"
       inkscape:export-xdpi="96"
       inkscape:export-ydpi="96">
      <path
         style="opacity:1;fill:#24590b;fill-opacity:1;fill-rule:nonzero;stroke:none;stroke-width:1.00157464;stroke-linecap:round;stroke-linejoin:round;stroke-miterlimit:4;stroke-dasharray:none;stroke-dashoffset:0;stroke-opacity:1;paint-order:normal"
         d="M 56.505859 0.001953125 L 56.505859 9.2519531 L 56.556641 9.2519531 L 58.109375 15.814453 L 58.505859 15.853516 L 62.255859 16.302734 L 61.207031 25.603516 L 61.15625 25.853516 L 56.505859 25.302734 L 56.505859 34.402344 L 58.556641 34.152344 L 59.207031 39.552734 L 59.005859 39.603516 L 56.505859 39.902344 L 56.505859 64.001953 L 65.755859 64.001953 L 65.755859 63.953125 L 73.355469 62.152344 L 73.457031 62.603516 L 73.806641 64.001953 L 90.90625 64.001953 L 90.65625 61.953125 L 95.501953 61.369141 L 95.755859 59.103516 L 105.30664 60.203125 L 105.10547 62.203125 L 104.90625 64.001953 L 120.50586 64.001953 L 120.50586 39.902344 L 117.80664 40.203125 L 117.40625 36.802734 L 117.15625 34.802734 L 120.50586 34.402344 L 120.50586 25.302734 L 115.60547 24.751953 L 116.35742 18.242188 L 114.75586 18.603516 L 113.45703 12.953125 L 113.08984 11.410156 L 108.80664 10.978516 L 109.35547 5.5273438 L 111.35547 5.7285156 L 114.80664 6.1269531 L 114.36523 10.726562 L 120.50586 9.2519531 L 120.50586 0.001953125 L 104.85547 0.001953125 L 104.65625 2.0019531 L 104.20703 5.7519531 L 94.90625 4.703125 L 94.65625 4.6523438 L 94.861328 2.9199219 L 93.306641 3.1035156 L 91.306641 3.3535156 L 90.90625 0.001953125 L 73.806641 0.001953125 L 75.105469 5.7519531 L 69.457031 7.0527344 L 67.556641 7.5019531 L 65.755859 0.001953125 L 56.505859 0.001953125 z M 64.505859 1.703125 L 66.707031 6.6035156 L 65.957031 6.953125 L 61.755859 8.8535156 L 60.255859 5.6035156 L 59.505859 3.9023438 L 64.505859 1.703125 z M 88.65625 5.703125 L 90.40625 6.3535156 L 93.806641 7.6035156 L 92.056641 12.052734 L 91.806641 12.751953 L 86.707031 10.802734 L 88.65625 5.703125 z M 80.306641 9.8535156 L 81.355469 10.853516 L 84.255859 13.603516 L 81.457031 16.552734 L 80.505859 17.552734 L 76.556641 13.802734 L 80.306641 9.8535156 z M 105.80664 11.501953 L 106.00586 12.052734 L 108.15625 18.902344 L 102.60547 20.652344 L 100.75586 21.251953 L 98.40625 13.853516 L 105.80664 11.501953 z M 90.355469 15.853516 L 91.15625 16.853516 L 93.070312 19.199219 L 93.105469 19.203125 L 93.101562 19.240234 L 93.806641 20.103516 L 92.945312 20.806641 L 92.90625 21.203125 L 92.556641 24.603516 L 87.355469 24.103516 L 87.15625 24.052734 L 87.472656 20.955078 L 86.15625 19.353516 L 90.355469 15.853516 z M 67.355469 19.251953 L 70.738281 20.128906 L 70.957031 19.828125 L 71.759766 20.392578 L 77.207031 21.802734 L 76.755859 23.703125 L 75.783203 27.410156 L 77.707031 27.603516 L 81.105469 27.953125 L 80.605469 33.152344 L 80.556641 33.353516 L 75.15625 32.802734 L 75.658203 27.888672 L 74.65625 31.703125 L 65.306641 29.251953 L 64.806641 29.103516 L 67.355469 19.251953 z M 106.70703 20.052734 L 110.65625 23.802734 L 109.65625 24.853516 L 106.90625 27.751953 L 103.95703 24.953125 L 102.95703 24.001953 L 106.70703 20.052734 z M 110.40625 26.927734 L 110.75586 27.677734 L 112.60547 31.876953 L 109.30664 33.328125 L 107.65625 34.078125 L 105.40625 29.177734 L 110.40625 26.927734 z M 101.15625 29.652344 L 104.65625 33.853516 L 103.65625 34.652344 L 100.40625 37.302734 L 97.957031 34.302734 L 96.957031 33.103516 L 101.15625 29.652344 z M 95.40625 30.927734 L 95.605469 31.478516 L 97.755859 38.328125 L 92.15625 40.126953 L 90.306641 40.728516 L 87.957031 33.277344 L 95.40625 30.927734 z M 104.50586 34.603516 L 106.40625 35.001953 L 114.25586 36.802734 L 112.20703 46.052734 L 112.10547 46.501953 L 107.81836 45.5625 L 109.00586 49.302734 L 108.45703 49.501953 L 101.60547 51.652344 L 99.855469 46.103516 L 99.255859 44.251953 L 102.56641 43.201172 L 104.50586 34.603516 z M 68.556641 40.027344 L 69.65625 41.027344 L 75.457031 46.376953 L 70.056641 52.277344 L 69.105469 53.277344 L 62.207031 46.927734 L 68.556641 40.027344 z M 78.306641 43.302734 L 80.207031 43.751953 L 88.207031 45.853516 L 85.755859 55.203125 L 85.605469 55.703125 L 84.255859 55.353516 L 83.707031 57.751953 L 74.457031 55.703125 L 74.005859 55.603516 L 76.15625 45.802734 L 77.576172 46.123047 L 78.306641 43.302734 z M 97.65625 50.927734 L 99.005859 51.876953 L 102.05664 54.078125 L 99.556641 57.527344 L 98.855469 58.478516 L 94.505859 55.277344 L 97.65625 50.927734 z M 109.30664 51.478516 L 109.50586 52.078125 L 110.85547 56.078125 L 108.05664 57.027344 L 106.25586 57.626953 L 104.65625 53.027344 L 109.30664 51.478516 z M 63.105469 53.802734 L 63.457031 54.552734 L 65.355469 58.751953 L 64.164062 59.302734 L 64.505859 61.453125 L 64.207031 61.501953 L 59.15625 62.302734 L 58.605469 58.902344 L 58.306641 56.953125 L 58.605469 56.90625 L 58.207031 56.001953 L 63.105469 53.802734 z M 117.95703 56.001953 L 118.00586 56.302734 L 118.80664 61.353516 L 115.40625 61.902344 L 113.45703 62.203125 L 112.60547 56.853516 L 117.95703 56.001953 z "
         transform="matrix(0.26458333,0,0,0.26458333,-4.4568755,72.395721)"
         id="rect6700"
         inkscape:export-filename="C:\Users\Rob\Minetest\minetest-5.0.1-win64\textures\Kenney\default\default_leaves.png"
         inkscape:export-xdpi="96.000015"
         inkscape:export-ydpi="96.000015" />
      <path
         style="fill:#2f740e;fill-opacity:1;stroke:none;stroke-width:0.99999994"
         d="M 80.605469 0.001953125 L 80.90625 2.5019531 L 80.957031 2.703125 L 86.355469 2.0527344 L 86.105469 0.001953125 L 80.605469 0.001953125 z M 104.85547 0.001953125 L 104.69531 1.6074219 L 111.25586 0.052734375 L 111.25586 0.001953125 L 104.85547 0.001953125 z M 63.556641 1.8027344 L 61.605469 2.1035156 L 58.207031 2.6523438 L 59.005859 7.703125 L 59.056641 8.0019531 L 61.205078 7.6601562 L 60.255859 5.6035156 L 59.505859 3.9023438 L 63.603516 2.0996094 L 63.556641 1.8027344 z M 116.60547 3.0019531 L 114.90625 3.7519531 L 111.65625 5.2519531 L 111.90039 5.7910156 L 114.80664 6.1269531 L 114.4375 9.9648438 L 118.80664 8.0019531 L 116.60547 3.0019531 z M 93.335938 8.8027344 L 92.056641 12.052734 L 91.806641 12.751953 L 90.365234 12.201172 L 89.144531 16.863281 L 90.355469 15.853516 L 91.15625 16.853516 L 93.070312 19.199219 L 93.105469 19.203125 L 93.101562 19.240234 L 93.142578 19.291016 L 96.806641 20.251953 L 98.707031 20.703125 L 99.548828 17.451172 L 98.40625 13.853516 L 100.66602 13.134766 L 101.25586 10.853516 L 93.335938 8.8027344 z M 64.90625 17.501953 L 64.806641 17.953125 L 62.755859 27.203125 L 65.15625 27.753906 L 67.355469 19.251953 L 70.738281 20.128906 L 70.957031 19.828125 L 71.759766 20.392578 L 74.386719 21.072266 L 74.707031 19.652344 L 64.90625 17.501953 z M 96.457031 30.652344 L 96.40625 30.853516 L 96.171875 33.283203 L 96.171875 33.285156 L 97.080078 36.173828 L 99.306641 36.402344 L 99.703125 36.441406 L 97.957031 34.302734 L 96.957031 33.103516 L 99.554688 30.96875 L 96.457031 30.652344 z M 101.31055 36.564453 L 101.26758 36.599609 L 101.30664 36.603516 L 101.31055 36.564453 z M 115.85547 38.152344 L 115.80664 38.402344 L 114.75586 47.703125 L 118.50586 48.152344 L 120.50586 48.353516 L 120.50586 39.902344 L 117.80664 40.203125 L 117.58984 38.357422 L 115.85547 38.152344 z M 59.140625 38.998047 L 59.207031 39.552734 L 59.005859 39.603516 L 56.505859 39.902344 L 56.505859 48.402344 L 58.306641 48.603516 L 60.306641 48.802734 L 61.40625 39.251953 L 59.140625 38.998047 z M 87.40625 40.453125 L 86.207031 41.453125 L 83.207031 43.902344 L 83.869141 44.712891 L 88.207031 45.853516 L 87.869141 47.140625 L 90.855469 44.652344 L 87.40625 40.453125 z M 76.255859 42.751953 L 74.40625 43.353516 L 72.746094 43.876953 L 75.457031 46.376953 L 70.839844 51.421875 L 71.005859 51.953125 L 71.207031 52.501953 L 74.947266 51.314453 L 76.15625 45.802734 L 77.306641 46.0625 L 76.255859 42.751953 z M 96.505859 46.453125 L 95.556641 47.453125 L 92.755859 50.402344 L 95.65625 53.152344 L 95.886719 53.371094 L 97.65625 50.927734 L 98.923828 51.818359 L 100.45703 50.203125 L 96.505859 46.453125 z M 86.646484 51.802734 L 85.755859 55.203125 L 85.605469 55.703125 L 84.255859 55.353516 L 83.953125 56.675781 L 86.605469 57.652344 L 88.355469 58.302734 L 90.306641 53.203125 L 86.646484 51.802734 z M 109.46875 56.548828 L 108.05664 57.027344 L 106.25586 57.626953 L 106.13477 57.279297 L 101.90625 58.251953 L 102.26758 59.853516 L 105.30664 60.203125 L 105.10547 62.203125 L 104.90625 64.001953 L 111.25586 64.001953 L 109.46875 56.548828 z M 85.707031 60.652344 L 83.707031 60.902344 L 80.306641 61.302734 L 80.605469 64.001953 L 86.105469 64.001953 L 85.707031 60.652344 z "
         id="path956"
         transform="matrix(0.26458333,0,0,0.26458333,-4.4568755,72.395721)"
         inkscape:export-filename="C:\Users\Rob\Minetest\minetest-5.0.1-win64\textures\Kenney\default\default_leaves.png"
         inkscape:export-xdpi="96.000015"
         inkscape:export-ydpi="96.000015" />
      <path
         style="fill:#193e08;fill-opacity:1;stroke:none;stroke-width:0.99999994"
         d="M 80.957031 7.7539062 L 80.255859 8.703125 L 77.755859 12.152344 L 77.974609 12.310547 L 80.306641 9.8535156 L 81.355469 10.853516 L 83.740234 13.115234 L 85.306641 10.953125 L 80.957031 7.7539062 z M 73.556641 8.6035156 L 71.755859 9.203125 L 68.957031 10.152344 L 70.306641 14.152344 L 70.505859 14.753906 L 75.15625 13.203125 L 73.556641 8.6035156 z M 110.70703 12.953125 L 109.75586 13.953125 L 107.4082 16.517578 L 108.15625 18.902344 L 104.55469 20.037109 L 105.71094 21.103516 L 106.70703 20.052734 L 110.65625 23.802734 L 109.71289 24.794922 L 110.15625 25.203125 L 111.25586 26.203125 L 116.03906 21.005859 L 116.35742 18.242188 L 114.75586 18.603516 L 114.19531 16.164062 L 110.70703 12.953125 z M 89.505859 25.503906 L 87.65625 26.103516 L 82.056641 27.902344 L 84.207031 34.753906 L 84.205078 34.753906 L 84.40625 35.302734 L 88.216797 34.101562 L 87.957031 33.277344 L 91.595703 32.128906 L 89.505859 25.503906 z M 72.15625 32.152344 L 70.505859 32.902344 L 67.207031 34.353516 L 69.056641 38.552734 L 69.40625 39.302734 L 74.40625 37.052734 L 72.15625 32.152344 z M 107.81836 45.5625 L 107.86328 45.705078 L 108.85547 46.402344 L 109.24023 45.875 L 107.81836 45.5625 z M 65.556641 54.703125 L 65.505859 54.902344 L 65.173828 58.351562 L 65.355469 58.751953 L 65.125 58.857422 L 65.005859 60.103516 L 68.457031 60.501953 L 70.457031 60.703125 L 71.005859 55.251953 L 65.556641 54.703125 z "
         transform="matrix(0.26458333,0,0,0.26458333,-4.4568755,72.395721)"
         id="path958"
         inkscape:export-filename="C:\Users\Rob\Minetest\minetest-5.0.1-win64\textures\Kenney\default\default_leaves.png"
         inkscape:export-xdpi="96.000015"
         inkscape:export-ydpi="96.000015" />
      <rect
         inkscape:export-ydpi="89.999947"
         inkscape:export-xdpi="89.999947"
         inkscape:export-filename="C:\Users\Rob\Minetest\minetest-5.0.1-win64\textures\Kenney\default\default_leaves.png"
         y="-27.427031"
         x="54.645668"
         height="16.933332"
         width="16.933332"
         id="rect27048"
         style="opacity:1;fill:#24590b;fill-opacity:1;fill-rule:nonzero;stroke:none;stroke-width:0.26499996;stroke-linecap:round;stroke-linejoin:round;stroke-miterlimit:4;stroke-dasharray:none;stroke-dashoffset:0;stroke-opacity:1;paint-order:normal"
         transform="rotate(90)" />
      <path
         inkscape:export-ydpi="89.999947"
         inkscape:export-xdpi="89.999947"
         inkscape:export-filename="C:\Users\Rob\Minetest\minetest-5.0.1-win64\textures\Kenney\default\default_leaves.png"
         inkscape:connector-curvature="0"
         style="fill:#8eabad;stroke:none;stroke-width:0.26458332"
         d="m 25.191291,65.758174 -0.846666,1.164167 -1.164167,-0.833438 0.833437,-1.177396 1.177396,0.846667 m -0.105833,-9.723437 1.309687,-0.595313 0.582084,1.322917 -1.296459,0.582083 -0.595312,-1.309687 m -7.805209,2.659062 -1.164166,-0.833437 0.846666,-1.164167 1.150938,0.846667 -0.833438,1.150937 m -2.275416,-1.772708 0.423333,1.217083 -1.230313,0.410104 -0.410104,-1.217083 1.217084,-0.410104 m 5.08,11.059583 0.992187,-1.045104 1.045105,0.992187 -0.992188,1.045104 -1.045104,-0.992187 m -5.701771,0.555625 -0.621771,-1.957917 1.957917,-0.621771 0.62177,1.957917 -1.957916,0.621771"
         id="path27050" />
      <path
         inkscape:export-ydpi="89.999947"
         inkscape:export-xdpi="89.999947"
         inkscape:export-filename="C:\Users\Rob\Minetest\minetest-5.0.1-win64\textures\Kenney\default\default_leaves.png"
         inkscape:connector-curvature="0"
         style="fill:#819a9c;stroke:none;stroke-width:0.26458332"
         d="m 27.42702,64.885049 v 2.553229 l -1.521354,-0.171979 0.291042,-2.526771 1.230312,0.145521 m -2.447396,6.693958 h -2.129895 l -0.343959,-1.521354 1.997604,-0.463021 0.47625,1.984375 m -6.65427,0 h -1.455209 l -0.07937,-0.714375 1.42875,-0.171979 0.105834,0.886354 m -7.831667,-4.1275 v -2.566458 l 1.296458,0.145521 -0.291042,2.526771 -1.005416,-0.105834 m 6.376453,-12.805833 h 1.455209 l 0.06615,0.542396 -1.428751,0.171979 -0.0926,-0.714375 m 5.979584,0 h 2.129887 v 0.01323 l -2.010833,0.47625 -0.119062,-0.489479 m 3.81,5.106458 -1.680105,1.825625 -1.825624,-1.680104 1.680104,-1.825625 1.825625,1.680104 m -4.325938,-2.235729 -0.674687,2.606146 -2.619375,-0.674687 0.687916,-2.606146 2.606146,0.674687 m -11.390313,-2.169583 1.415521,-0.224896 0.224896,1.415521 -1.415521,0.224896 -0.224896,-1.415521 m 8.638647,11.1125 -1.11125,0.926041 -0.912813,-1.124479 1.11125,-0.912812 0.912813,1.11125 m -0.661459,3.611562 -1.362604,-0.502708 0.529167,-1.362604 1.349375,0.515937 -0.515938,1.349375 m -1.045104,-6.085416 -0.621771,-1.957917 1.971146,-0.635 0.621771,1.971146 -1.971146,0.621771 m 3.042708,0.198437 0.145521,-1.42875 1.42875,0.145521 -0.145521,1.42875 -1.42875,-0.145521 m -8.770937,-2.341562 0.568854,-2.566459 2.592916,0.568855 -0.582083,2.579687 -2.579687,-0.582083 m 3.082395,2.606146 -1.322916,0.595312 -0.582084,-1.309687 1.309688,-0.582084 0.595312,1.296459 m -0.899583,4.815416 -0.145521,1.441979 -1.441979,-0.15875 0.145521,-1.42875 1.441979,0.145521"
         id="path27052" />
      <path
         inkscape:export-ydpi="89.999947"
         inkscape:export-xdpi="89.999947"
         inkscape:export-filename="C:\Users\Rob\Minetest\minetest-5.0.1-win64\textures\Kenney\default\default_leaves.png"
         inkscape:connector-curvature="0"
         style="fill:#2f740e;fill-opacity:1;stroke:none;stroke-width:0.26458332"
         d="m 17.690354,70.758799 0.529166,-0.06615 0.105834,0.886354 h -1.455209 l -0.07937,-0.714375 0.899584,-0.105833 m 8.493125,-5.953125 0.01323,-0.06615 1.230312,0.145521 v 2.553229 l -0.529167,-0.05292 -0.992187,-0.119062 0.277812,-2.460625 m -2.182812,4.908021 0.502708,-0.119063 0.47625,1.984375 h -2.129895 l -0.343959,-1.521354 1.494896,-0.343958 m 1.944687,-14.075833 0.449792,-0.198438 0.582083,1.322917 -1.296458,0.582083 -0.0926,-0.198437 -0.502708,-1.11125 0.859896,-0.396875 m -3.095625,-0.992188 h 2.12989 v 0.01323 l -2.010833,0.47625 -0.02646,-0.119062 -0.0926,-0.370417 m -5.979584,0 h 1.455207 l 0.06615,0.542396 -1.428751,0.171979 -0.01323,-0.05292 -0.07938,-0.661458 m 2.817813,2.328333 0.03969,-0.132291 2.606146,0.674687 -0.674687,2.606146 -0.502709,-0.119062 -2.116666,-0.555625 0.648229,-2.473855 m -8.532813,-0.291041 -0.211667,-1.336146 0.899584,-0.145521 0.515937,-0.07937 0.224896,1.415521 -1.415521,0.224896 -0.01323,-0.07937 m 1.534584,2.711979 0.02646,-0.119063 2.592916,0.568855 -0.582083,2.579687 -0.502708,-0.105833 -2.076979,-0.47625 0.542395,-2.447396 m 8.135938,7.805208 0.251354,-0.264583 1.045105,0.992187 -0.992188,1.045104 -0.277812,-0.264583 -0.767292,-0.727604 0.740833,-0.780521 m -2.473854,-1.5875 0.3175,-0.264583 0.912813,1.11125 -1.11125,0.926041 -0.211667,-0.264583 -0.701146,-0.859896 0.79375,-0.648229 m -0.330729,2.778125 0.06615,-0.185208 1.349375,0.515937 -0.515938,1.349375 -0.463021,-0.171979 -0.899583,-0.330729 0.463021,-1.177396 m 3.029479,-5.582708 0.01323,-0.05292 1.42875,0.145521 -0.145521,1.42875 -0.529166,-0.05292 -0.899584,-0.0926 0.132292,-1.375833 m -10.556875,4.643437 v -2.566458 l 1.296458,0.145521 -0.291042,2.526771 -0.529166,-0.05292 -0.47625,-0.05292 m 4.736041,-1.336146 0.48948,-0.15875 0.62177,1.957917 -1.957916,0.621771 -0.05292,-0.145521 -0.568854,-1.812396 1.468437,-0.463021"
         id="path27054" />
      <path
         inkscape:export-ydpi="89.999947"
         inkscape:export-xdpi="89.999947"
         inkscape:export-filename="C:\Users\Rob\Minetest\minetest-5.0.1-win64\textures\Kenney\default\default_leaves.png"
         inkscape:connector-curvature="0"
         style="fill:#193e08;fill-opacity:1;stroke:none;stroke-width:0.26458332"
         d="m 24.582749,58.336612 0.251355,-0.264584 1.825625,1.680104 -1.680105,1.825625 -0.291041,-0.264583 -1.534583,-1.415521 1.428749,-1.561041 m -0.754062,6.826249 0.185208,-0.251354 1.177396,0.846667 -0.846666,1.164167 -0.357188,-0.251355 -0.806979,-0.582083 0.648229,-0.926042 m -7.051146,-8.215312 0.185208,-0.251354 1.150938,0.846667 -0.833438,1.150937 -0.357187,-0.251354 -0.806979,-0.582083 0.661458,-0.912813 m -2.632604,1.441979 -0.357188,-1.058333 0.740834,-0.251354 0.47625,-0.15875 0.423333,1.217083 -1.230313,0.410104 -0.05292,-0.15875 m 3.677712,5.450417 -0.568854,-1.812396 1.481667,-0.47625 0.489479,-0.15875 0.621771,1.971146 -1.971146,0.621771 -0.05292,-0.145521 m -3.624792,-0.489479 0.436563,-0.198438 0.595312,1.296459 -1.322916,0.595312 -0.0926,-0.198438 -0.48948,-1.111249 0.873125,-0.383646 m -1.322916,5.820833 0.01323,-0.05292 1.441979,0.145521 -0.145521,1.441979 -0.529166,-0.05292 -0.912813,-0.105834 0.132292,-1.375833"
         id="path27056" />
      <path
         inkscape:export-ydpi="89.999947"
         inkscape:export-xdpi="89.999947"
         inkscape:export-filename="C:\Users\Rob\Minetest\minetest-5.0.1-win64\textures\Kenney\default\default_leaves.png"
         sodipodi:nodetypes="cccccccccccccccccccccccccccccccccccccccccccccccccccccccccccccccccccccccccccccccccccccccccccccccccccc"
         id="path27058"
         d="m 20.230372,55.465865 -0.529166,0.06615 -0.105834,-0.886354 h 1.455209 l 0.07937,0.714375 -0.899584,0.105833 m -8.493125,5.953125 -0.01323,0.06615 -1.230312,-0.145521 v -2.553229 l 0.529167,0.05292 0.992187,0.119062 -0.277812,2.460625 m 2.182812,-4.908021 -0.502708,0.119063 -0.47625,-1.984375 h 2.129895 l 0.343959,1.521354 -1.494896,0.343958 m -1.944687,14.075833 -0.449792,0.198438 -0.582083,-1.322917 1.296458,-0.582083 0.0926,0.198437 0.502708,1.11125 -0.859896,0.396875 m 3.095625,0.992188 h -2.12989 v -0.01323 l 2.010833,-0.47625 0.02646,0.119062 0.0926,0.370417 m 5.979584,0 h -1.455207 l -0.06615,-0.542396 1.428751,-0.171979 0.01323,0.05292 0.07938,0.661458 m -2.817813,-2.328333 -0.03969,0.132291 -2.606146,-0.674687 0.674687,-2.606146 0.502709,0.119062 2.116666,0.555625 -0.648229,2.473855 m 8.532813,0.291041 0.211667,1.336146 -0.899584,0.145521 -0.515937,0.07937 -0.224896,-1.415521 1.415521,-0.224896 0.01323,0.07937 m -1.534584,-2.711979 -0.02646,0.119063 -2.592916,-0.568855 0.582082,-2.579687 0.502708,0.105833 2.076979,0.47625 -0.542395,2.447396 m -8.135937,-7.805208 -0.251354,0.264583 -1.045105,-0.992187 0.992188,-1.045104 0.277812,0.264583 0.767291,0.727604 -0.740833,0.780521 m 2.473854,1.5875 -0.3175,0.264583 -0.912813,-1.11125 1.11125,-0.926041 0.211667,0.264583 0.701146,0.859896 -0.79375,0.648229 m 0.330729,-2.778125 -0.06615,0.185208 -1.349375,-0.515937 0.515938,-1.349375 0.463021,0.171979 0.899583,0.330729 -0.463021,1.177396 m -3.029479,5.582708 -0.01323,0.05292 -1.42875,-0.145521 0.145521,-1.42875 0.529166,0.05292 0.899584,0.0926 -0.132292,1.375833 m 10.556875,-4.643437 v 2.566458 l -1.296458,-0.145521 0.291042,-2.526771 0.529166,0.05292 0.47625,0.05292 m -4.736041,1.336146 -0.48948,0.15875 -0.62177,-1.957918 1.957916,-0.621771 0.05292,0.145521 0.568854,1.812396 -1.468437,0.463021"
         style="fill:#ffffff;fill-opacity:1;stroke:none;stroke-width:0.26458332"
         inkscape:connector-curvature="0" />
      <path
         inkscape:export-ydpi="89.999947"
         inkscape:export-xdpi="89.999947"
         inkscape:export-filename="C:\Users\Rob\Minetest\minetest-5.0.1-win64\textures\Kenney\default\default_leaves.png"
         id="path27060"
         d="m 14.078802,68.476757 -0.251355,0.264584 -1.825625,-1.680104 1.680105,-1.825625 0.291041,0.264583 1.534583,1.415521 -1.428749,1.561041 m 0.754062,-6.826249 -0.185208,0.251354 -1.177396,-0.846667 0.846666,-1.164167 0.357188,0.251355 0.806979,0.582083 -0.648229,0.926042 m 7.051146,8.215312 -0.185208,0.251354 -1.150938,-0.846667 0.833438,-1.150937 0.357187,0.251354 0.806979,0.582083 -0.661458,0.912813 m 2.632604,-1.441979 0.357188,1.058333 -0.740834,0.251354 -0.47625,0.15875 -0.423333,-1.217083 1.230313,-0.410104 0.05292,0.15875 m -3.677712,-5.450417 0.568854,1.812396 -1.481667,0.47625 -0.489479,0.15875 -0.621771,-1.971146 1.971146,-0.621771 0.05292,0.145521 m 3.624792,0.489479 -0.436563,0.198438 -0.595312,-1.296459 1.322916,-0.595312 0.0926,0.198438 0.48948,1.111249 -0.873125,0.383646 m 1.322916,-5.820833 -0.01323,0.05292 -1.441979,-0.145521 0.145521,-1.441979 0.529166,0.05292 0.912813,0.105834 -0.132292,1.375833"
         style="fill:#ffffff;fill-opacity:1;stroke:none;stroke-width:0.26458332"
         inkscape:connector-curvature="0" />
      <path
         inkscape:export-ydpi="89.999947"
         inkscape:export-xdpi="89.999947"
         inkscape:export-filename="C:\Users\Rob\Minetest\minetest-5.0.1-win64\textures\Kenney\default\default_leaves.png"
         sodipodi:nodetypes="ccccccccccccccccccccccccccccccccccccccccccccccccccccccccccccccccccccccccccccccccccccccccccccc"
         inkscape:connector-curvature="0"
         style="fill:#ffffff;fill-opacity:1;stroke:none;stroke-width:0.26458332"
         d="m 26.60683,64.382341 -0.06615,-0.529166 0.886354,-0.105834 v 1.455209 l -0.714375,0.07937 -0.105833,-0.899584 m -5.953125,-8.493125 -0.06615,-0.01323 0.145521,-1.230312 h 2.553229 l -0.05292,0.529167 -0.119062,0.992187 -2.460625,-0.277812 m 4.908021,2.182812 -0.119063,-0.502708 1.984375,-0.47625 v 2.129895 l -1.521354,0.343959 -0.343958,-1.494896 m -14.075833,-1.944687 -0.198438,-0.449792 1.322917,-0.582083 0.582083,1.296458 -0.198437,0.0926 -1.11125,0.502708 -0.396875,-0.859896 m -0.992188,3.095625 v -2.12989 h 0.01323 l 0.47625,2.010833 -0.119062,0.02646 -0.370417,0.0926 m 0,5.979584 v -1.455207 l 0.542396,-0.06615 0.171979,1.428751 -0.05292,0.01323 -0.661458,0.07938 m 2.328333,-2.817813 -0.132291,-0.03969 0.674687,-2.606146 2.606146,0.674687 -0.119062,0.502709 -0.555625,2.116666 -2.473855,-0.648229 m -0.291041,8.532813 -1.336146,0.211667 -0.145521,-0.899584 -0.07937,-0.515937 1.415521,-0.224896 0.224896,1.415521 -0.07937,0.01323 m 2.711979,-1.534584 -0.119063,-0.02646 0.568855,-2.592916 2.579687,0.582082 -0.105833,0.502708 -0.47625,2.076979 -2.447396,-0.542395 m 7.805208,-8.135937 -0.264583,-0.251354 0.992187,-1.045105 1.045104,0.992188 -0.264583,0.277812 -0.727604,0.767291 -0.780521,-0.740833 m -1.5875,2.473854 -0.264583,-0.3175 1.11125,-0.912813 0.926041,1.11125 -0.264583,0.211667 -0.859896,0.701146 -0.648229,-0.79375 m -2.804583,-2.698754 -0.05292,-0.01323 0.145521,-1.42875 1.42875,0.145521 -0.05292,0.529166 -0.0926,0.899584 -1.375833,-0.132292 m 4.643437,10.556875 h -2.566458 l 0.145521,-1.296458 2.526771,0.291042 -0.05292,0.529166 -0.05292,0.47625 m -1.336146,-4.736041 -0.15875,-0.48948 1.957918,-0.62177 0.621771,1.957916 -0.145521,0.05292 -1.812396,0.568854 -0.463021,-1.468437"
         id="path27062" />
    </g>
    <g
       id="g17426"
       transform="translate(5.2296174,0.23416197)">
      <rect
         y="75.172813"
         x="-4.326786"
         height="3.8252699"
         width="5.4770875"
         id="rect17417"
         style="opacity:1;fill:#2f740e;fill-opacity:1;fill-rule:nonzero;stroke:none;stroke-width:0.26499999;stroke-linecap:round;stroke-linejoin:round;stroke-miterlimit:4;stroke-dasharray:none;stroke-dashoffset:0;stroke-opacity:1;paint-order:normal" />
      <rect
         style="opacity:1;fill:#24590b;fill-opacity:1;fill-rule:nonzero;stroke:none;stroke-width:0.26499999;stroke-linecap:round;stroke-linejoin:round;stroke-miterlimit:4;stroke-dasharray:none;stroke-dashoffset:0;stroke-opacity:1;paint-order:normal"
         id="rect17419"
         width="5.4770875"
         height="3.8252699"
         x="-4.326786"
         y="78.998085" />
      <rect
         y="82.823357"
         x="-4.326786"
         height="3.8252699"
         width="5.4770875"
         id="rect17421"
         style="opacity:1;fill:#193e08;fill-opacity:1;fill-rule:nonzero;stroke:none;stroke-width:0.26499999;stroke-linecap:round;stroke-linejoin:round;stroke-miterlimit:4;stroke-dasharray:none;stroke-dashoffset:0;stroke-opacity:1;paint-order:normal" />
      <rect
         style="opacity:1;fill:#2b680c;fill-opacity:1;fill-rule:nonzero;stroke:none;stroke-width:0.26499999;stroke-linecap:round;stroke-linejoin:round;stroke-miterlimit:4;stroke-dasharray:none;stroke-dashoffset:0;stroke-opacity:1;paint-order:normal"
         id="rect18175"
         width="5.4770875"
         height="3.8252699"
         x="-9.6864929"
         y="76.942039" />
      <rect
         y="80.767311"
         x="-9.6864929"
         height="3.8252699"
         width="5.4770875"
         id="rect18177"
         style="opacity:1;fill:#204c08;fill-opacity:1;fill-rule:nonzero;stroke:none;stroke-width:0.26499999;stroke-linecap:round;stroke-linejoin:round;stroke-miterlimit:4;stroke-dasharray:none;stroke-dashoffset:0;stroke-opacity:1;paint-order:normal" />
    </g>
    <g
       id="g18876"
       inkscape:export-filename="C:\Users\Rob\Minetest\minetest-5.0.1-win64\textures\Kenney\default\default_leaves_simple.png"
       inkscape:export-xdpi="96"
       inkscape:export-ydpi="96">
      <rect
         y="-46.992565"
         x="72.500565"
         height="16.933332"
         width="16.933332"
         id="rect18159"
         style="opacity:1;fill:#24590b;fill-opacity:1;fill-rule:nonzero;stroke:none;stroke-width:0.26499996;stroke-linecap:round;stroke-linejoin:round;stroke-miterlimit:4;stroke-dasharray:none;stroke-dashoffset:0;stroke-opacity:1;paint-order:normal"
         transform="rotate(90)" />
      <path
         inkscape:connector-curvature="0"
         style="fill:#8eabad;stroke:none;stroke-width:0.26458332"
         d="m 44.756825,83.613069 -0.846666,1.164167 -1.164167,-0.833438 0.833437,-1.177396 1.177396,0.846667 m -0.105833,-9.723437 1.309687,-0.595313 0.582084,1.322917 -1.296459,0.582083 -0.595312,-1.309687 m -7.805209,2.659062 -1.164166,-0.833437 0.846666,-1.164167 1.150938,0.846667 -0.833438,1.150937 m -2.275416,-1.772708 0.423333,1.217083 -1.230313,0.410104 -0.410104,-1.217083 1.217084,-0.410104 m 5.08,11.059583 0.992187,-1.045104 1.045105,0.992187 -0.992188,1.045104 -1.045104,-0.992187 m -5.701771,0.555625 -0.621771,-1.957917 1.957917,-0.621771 0.62177,1.957917 -1.957916,0.621771"
         id="path18161" />
      <path
         inkscape:connector-curvature="0"
         style="fill:#819a9c;stroke:none;stroke-width:0.26458332"
         d="m 46.992554,82.739944 v 2.553229 l -1.521354,-0.171979 0.291042,-2.526771 1.230312,0.145521 m -2.447396,6.693958 h -2.129895 l -0.343959,-1.521354 1.997604,-0.463021 0.47625,1.984375 m -6.65427,0 h -1.455209 l -0.07937,-0.714375 1.42875,-0.171979 0.105834,0.886354 m -7.831667,-4.1275 v -2.566458 l 1.296458,0.145521 -0.291042,2.526771 -1.005416,-0.105834 m 6.376453,-12.805833 h 1.455209 l 0.06615,0.542396 -1.428751,0.171979 -0.0926,-0.714375 m 5.979584,0 h 2.129887 v 0.01323 l -2.010833,0.47625 -0.119062,-0.489479 m 3.81,5.106458 -1.680105,1.825625 -1.825624,-1.680104 1.680104,-1.825625 1.825625,1.680104 m -4.325938,-2.235729 -0.674687,2.606146 -2.619375,-0.674687 0.687916,-2.606146 2.606146,0.674687 m -11.390313,-2.169583 1.415521,-0.224896 0.224896,1.415521 -1.415521,0.224896 -0.224896,-1.415521 m 8.638647,11.1125 -1.11125,0.926041 -0.912813,-1.124479 1.11125,-0.912812 0.912813,1.11125 m -0.661459,3.611562 -1.362604,-0.502708 0.529167,-1.362604 1.349375,0.515937 -0.515938,1.349375 m -1.045104,-6.085416 -0.621771,-1.957917 1.971146,-0.635 0.621771,1.971146 -1.971146,0.621771 m 3.042708,0.198437 0.145521,-1.42875 1.42875,0.145521 -0.145521,1.42875 -1.42875,-0.145521 m -8.770937,-2.341562 0.568854,-2.566459 2.592916,0.568855 -0.582083,2.579687 -2.579687,-0.582083 m 3.082395,2.606146 -1.322916,0.595312 -0.582084,-1.309687 1.309688,-0.582084 0.595312,1.296459 m -0.899583,4.815416 -0.145521,1.441979 -1.441979,-0.15875 0.145521,-1.42875 1.441979,0.145521"
         id="path18163" />
      <path
         inkscape:connector-curvature="0"
         style="fill:#2f740e;fill-opacity:1;stroke:none;stroke-width:0.26458332"
         d="m 37.255888,88.613694 0.529166,-0.06615 0.105834,0.886354 h -1.455209 l -0.07937,-0.714375 0.899584,-0.105833 m 8.493125,-5.953125 0.01323,-0.06615 1.230312,0.145521 v 2.553229 l -0.529167,-0.05292 -0.992187,-0.119062 0.277812,-2.460625 m -2.182812,4.908021 0.502708,-0.119063 0.47625,1.984375 h -2.129895 l -0.343959,-1.521354 1.494896,-0.343958 m 1.944687,-14.075833 0.449792,-0.198438 0.582083,1.322917 -1.296458,0.582083 -0.0926,-0.198437 -0.502708,-1.11125 0.859896,-0.396875 m -3.095625,-0.992188 h 2.12989 v 0.01323 l -2.010833,0.47625 -0.02646,-0.119062 -0.0926,-0.370417 m -5.979584,0 h 1.455207 l 0.06615,0.542396 -1.428751,0.171979 -0.01323,-0.05292 -0.07938,-0.661458 m 2.817813,2.328333 0.03969,-0.132291 2.606146,0.674687 -0.674687,2.606146 -0.502709,-0.119062 -2.116666,-0.555625 0.648229,-2.473855 m -8.532813,-0.291041 -0.211667,-1.336146 0.899584,-0.145521 0.515937,-0.07937 0.224896,1.415521 -1.415521,0.224896 -0.01323,-0.07937 m 1.534584,2.711979 0.02646,-0.119063 2.592916,0.568855 -0.582083,2.579687 -0.502708,-0.105833 -2.076979,-0.47625 0.542395,-2.447396 m 8.135938,7.805208 0.251354,-0.264583 1.045105,0.992187 -0.992188,1.045104 -0.277812,-0.264583 -0.767292,-0.727604 0.740833,-0.780521 m -2.473854,-1.5875 0.3175,-0.264583 0.912813,1.11125 -1.11125,0.926041 -0.211667,-0.264583 -0.701146,-0.859896 0.79375,-0.648229 m -0.330729,2.778125 0.06615,-0.185208 1.349375,0.515937 -0.515938,1.349375 -0.463021,-0.171979 -0.899583,-0.330729 0.463021,-1.177396 m 3.029479,-5.582708 0.01323,-0.05292 1.42875,0.145521 -0.145521,1.42875 -0.529166,-0.05292 -0.899584,-0.0926 0.132292,-1.375833 m -10.556875,4.643437 v -2.566458 l 1.296458,0.145521 -0.291042,2.526771 -0.529166,-0.05292 -0.47625,-0.05292 m 4.736041,-1.336146 0.48948,-0.15875 0.62177,1.957917 -1.957916,0.621771 -0.05292,-0.145521 -0.568854,-1.812396 1.468437,-0.463021"
         id="path18165" />
      <path
         inkscape:connector-curvature="0"
         style="fill:#193e08;fill-opacity:1;stroke:none;stroke-width:0.26458332"
         d="m 44.148283,76.191507 0.251355,-0.264584 1.825625,1.680104 -1.680105,1.825625 -0.291041,-0.264583 -1.534583,-1.415521 1.428749,-1.561041 m -0.754062,6.826249 0.185208,-0.251354 1.177396,0.846667 -0.846666,1.164167 -0.357188,-0.251355 -0.806979,-0.582083 0.648229,-0.926042 m -7.051146,-8.215312 0.185208,-0.251354 1.150938,0.846667 -0.833438,1.150937 -0.357187,-0.251354 -0.806979,-0.582083 0.661458,-0.912813 m -2.632604,1.441979 -0.357188,-1.058333 0.740834,-0.251354 0.47625,-0.15875 0.423333,1.217083 -1.230313,0.410104 -0.05292,-0.15875 m 3.677712,5.450417 -0.568854,-1.812396 1.481667,-0.47625 0.489479,-0.15875 0.621771,1.971146 -1.971146,0.621771 -0.05292,-0.145521 m -3.624792,-0.489479 0.436563,-0.198438 0.595312,1.296459 -1.322916,0.595312 -0.0926,-0.198438 -0.48948,-1.111249 0.873125,-0.383646 m -1.322916,5.820833 0.01323,-0.05292 1.441979,0.145521 -0.145521,1.441979 -0.529166,-0.05292 -0.912813,-0.105834 0.132292,-1.375833"
         id="path18167" />
      <path
         id="path18171"
         d="m 33.644336,86.331652 -0.251355,0.264584 -1.825625,-1.680104 1.680105,-1.825625 0.291041,0.264583 1.534583,1.415521 -1.428749,1.561041 m 0.754062,-6.826249 -0.185208,0.251354 -1.177396,-0.846667 0.846666,-1.164167 0.357188,0.251355 0.806979,0.582083 -0.648229,0.926042 m 7.051146,8.215312 -0.185208,0.251354 -1.150938,-0.846667 0.833438,-1.150937 0.357187,0.251354 0.806979,0.582083 -0.661458,0.912813 m 2.632604,-1.441979 0.357188,1.058333 -0.740834,0.251354 -0.47625,0.15875 -0.423333,-1.217083 1.230313,-0.410104 0.05292,0.15875 m -3.677712,-5.450417 0.568854,1.812396 -1.481667,0.47625 -0.489479,0.15875 -0.621771,-1.971146 1.971146,-0.621771 0.05292,0.145521 m 3.624792,0.489479 -0.436563,0.198438 -0.595312,-1.296459 1.322916,-0.595312 0.0926,0.198438 0.48948,1.111249 -0.873125,0.383646 m 1.322916,-5.820833 -0.01323,0.05292 -1.441979,-0.145521 0.145521,-1.441979 0.529166,0.05292 0.912813,0.105834 -0.132292,1.375833"
         style="fill:#2b680c;fill-opacity:1;stroke:none;stroke-width:0.26458332"
         inkscape:connector-curvature="0" />
      <path
         inkscape:connector-curvature="0"
         style="fill:#204c08;fill-opacity:1;stroke:none;stroke-width:0.26458332"
         d="m 46.172364,82.237236 -0.06615,-0.529166 0.886354,-0.105834 v 1.455209 l -0.714375,0.07937 -0.105833,-0.899584 m -5.953125,-8.493125 -0.06615,-0.01323 0.145521,-1.230312 h 2.553229 l -0.05292,0.529167 -0.119062,0.992187 -2.460625,-0.277812 m 4.908021,2.182812 -0.119063,-0.502708 1.984375,-0.47625 v 2.129895 l -1.521354,0.343959 -0.343958,-1.494896 m -14.075833,-1.944687 -0.198438,-0.449792 1.322917,-0.582083 0.582083,1.296458 -0.198437,0.0926 -1.11125,0.502708 -0.396875,-0.859896 m -0.992188,3.095625 v -2.12989 h 0.01323 l 0.47625,2.010833 -0.119062,0.02646 -0.370417,0.0926 m 0,5.979584 v -1.455207 l 0.542396,-0.06615 0.171979,1.428751 -0.05292,0.01323 -0.661458,0.07938 m 2.328333,-2.817813 -0.132291,-0.03969 0.674687,-2.606146 2.606146,0.674687 -0.119062,0.502709 -0.555625,2.116666 -2.473855,-0.648229 m -0.291041,8.532813 -1.336146,0.211667 -0.145521,-0.899584 -0.07937,-0.515937 1.415521,-0.224896 0.224896,1.415521 -0.07937,0.01323 m 2.711979,-1.534584 -0.119063,-0.02646 0.568855,-2.592916 2.579687,0.582082 -0.105833,0.502708 -0.47625,2.076979 -2.447396,-0.542395 m 7.805208,-8.135937 -0.264583,-0.251354 0.992187,-1.045105 1.045104,0.992188 -0.264583,0.277812 -0.727604,0.767291 -0.780521,-0.740833 m -1.5875,2.473854 -0.264583,-0.3175 1.11125,-0.912813 0.926041,1.11125 -0.264583,0.211667 -0.859896,0.701146 -0.648229,-0.79375 m 2.778125,0.330729 -0.185208,-0.06615 0.515937,-1.349375 1.349375,0.515938 -0.171979,0.463021 -0.330729,0.899583 -1.177396,-0.463021 m -5.582708,-3.029479 -0.05292,-0.01323 0.145521,-1.42875 1.42875,0.145521 -0.05292,0.529166 -0.0926,0.899584 -1.375833,-0.132292 m 4.643437,10.556875 h -2.566458 l 0.145521,-1.296458 2.526771,0.291042 -0.05292,0.529166 -0.05292,0.47625 m -1.336146,-4.736041 -0.15875,-0.48948 1.957918,-0.62177 0.621771,1.957916 -0.145521,0.05292 -1.812396,0.568854 -0.463021,-1.468437"
         id="path18173" />
    </g>
    <g
       id="g18867"
       inkscape:export-filename="C:\Users\Rob\Minetest\minetest-5.0.1-win64\textures\Kenney\default\default_sapling.png"
       inkscape:export-xdpi="96"
       inkscape:export-ydpi="96">
      <rect
         y="72.573135"
         x="50.318806"
         height="16.933332"
         width="16.933334"
         id="rect18719"
         style="opacity:1;fill:none;fill-opacity:1;fill-rule:nonzero;stroke:none;stroke-width:0.52916664;stroke-linecap:butt;stroke-linejoin:round;stroke-miterlimit:4;stroke-dasharray:none;stroke-dashoffset:0;stroke-opacity:1;paint-order:normal"
         inkscape:export-filename="C:\Users\Rob\Minetest\minetest-5.0.1-win64\textures\Kenney\default\default_sapling.png"
         inkscape:export-xdpi="96"
         inkscape:export-ydpi="96" />
      <g
         transform="translate(2.1594937,0.02601799)"
         id="g18792"
         inkscape:export-filename="C:\Users\Rob\Minetest\minetest-5.0.1-win64\textures\Kenney\default\default_sapling.png"
         inkscape:export-xdpi="96"
         inkscape:export-ydpi="96">
        <g
           id="g18613"
           transform="matrix(0.51418509,0.12949659,-0.12949659,0.51418509,51.32822,43.793157)"
           style="stroke-width:1.88593435">
          <g
             transform="rotate(9.2459173,21.297674,64.248909)"
             id="g18609"
             style="stroke-width:1.88593435">
            <path
               sodipodi:nodetypes="cccccc"
               inkscape:connector-curvature="0"
               style="fill:#559420;fill-opacity:1;stroke:none;stroke-width:0.49898675"
               d="m 20.506206,62.988672 -2.034917,1.590343 -1.750414,-2.205357 2.211679,-1.733577 1.733577,2.211681 -0.159924,0.136914"
               id="path18603" />
            <path
               id="path18605"
               d="m 20.506206,62.988672 -2.034917,1.590343 -1.452758,-2.221893 1.88095,-1.187874 1.76665,1.682514 -0.159924,0.136914"
               style="fill:#477b1b;fill-opacity:1;stroke:none;stroke-width:0.49898675"
               inkscape:connector-curvature="0"
               sodipodi:nodetypes="cccccc" />
            <path
               sodipodi:nodetypes="ccccc"
               inkscape:connector-curvature="0"
               style="fill:#396216;fill-opacity:1;stroke:none;stroke-width:0.49898675"
               d="m 20.506206,62.988672 -2.034917,1.590343 0.339743,-0.865495 1.855099,-0.861758 -0.159924,0.136914"
               id="path18607" />
          </g>
          <path
             style="opacity:1;fill:#396216;fill-opacity:1;fill-rule:nonzero;stroke:none;stroke-width:0.49977249;stroke-linecap:round;stroke-linejoin:round;stroke-miterlimit:4;stroke-dasharray:none;stroke-dashoffset:0;stroke-opacity:1;paint-order:normal"
             d="m 17.517559,61.739415 3.319487,0.826827 0.958214,0.723284 v 0.336117 l -1.279871,-0.880461 -2.743613,-0.851197 z"
             id="path18611"
             inkscape:connector-curvature="0"
             sodipodi:nodetypes="ccccccc" />
        </g>
        <g
           style="stroke-width:2.0733099"
           transform="matrix(-0.46771559,0.11779333,0.11779333,0.46771559,56.79047,44.793355)"
           id="g18649">
          <g
             style="stroke-width:2.0733099"
             id="g18645"
             transform="rotate(9.2459173,21.297674,64.248909)">
            <path
               id="path18639"
               d="m 20.506206,62.988672 -2.034917,1.590343 -1.750414,-2.205357 2.211679,-1.733577 1.733577,2.211681 -0.159924,0.136914"
               style="fill:#559420;fill-opacity:1;stroke:none;stroke-width:0.54856318"
               inkscape:connector-curvature="0"
               sodipodi:nodetypes="cccccc" />
            <path
               sodipodi:nodetypes="cccccc"
               inkscape:connector-curvature="0"
               style="fill:#477b1b;fill-opacity:1;stroke:none;stroke-width:0.54856318"
               d="m 20.506206,62.988672 -2.034917,1.590343 -1.452758,-2.221893 1.88095,-1.187874 1.76665,1.682514 -0.159924,0.136914"
               id="path18641" />
            <path
               id="path18643"
               d="m 20.506206,62.988672 -2.034917,1.590343 0.339743,-0.865495 1.855099,-0.861758 -0.159924,0.136914"
               style="fill:#396216;fill-opacity:1;stroke:none;stroke-width:0.54856318"
               inkscape:connector-curvature="0"
               sodipodi:nodetypes="ccccc" />
          </g>
          <path
             sodipodi:nodetypes="ccccccc"
             inkscape:connector-curvature="0"
             id="path18647"
             d="m 17.517559,61.739415 3.319487,0.826827 0.958214,0.723284 v 0.336117 l -1.279871,-0.880461 -2.743613,-0.851197 z"
             style="opacity:1;fill:#396216;fill-opacity:1;fill-rule:nonzero;stroke:none;stroke-width:0.54942697;stroke-linecap:round;stroke-linejoin:round;stroke-miterlimit:4;stroke-dasharray:none;stroke-dashoffset:0;stroke-opacity:1;paint-order:normal" />
        </g>
        <g
           style="stroke-width:2.30202579"
           transform="matrix(-0.381774,0.20724859,0.20724859,0.381774,48.905582,46.12272)"
           id="g18625">
          <g
             style="stroke-width:2.30202579"
             id="g18621"
             transform="rotate(9.2459173,21.297674,64.248909)">
            <path
               id="path18615"
               d="m 20.506206,62.988672 -2.034917,1.590343 -1.750414,-2.205357 2.211679,-1.733577 1.733577,2.211681 -0.159924,0.136914"
               style="fill:#559420;fill-opacity:1;stroke:none;stroke-width:0.60907763"
               inkscape:connector-curvature="0"
               sodipodi:nodetypes="cccccc" />
            <path
               sodipodi:nodetypes="cccccc"
               inkscape:connector-curvature="0"
               style="fill:#477b1b;fill-opacity:1;stroke:none;stroke-width:0.60907763"
               d="m 20.506206,62.988672 -2.034917,1.590343 -1.452758,-2.221893 1.88095,-1.187874 1.76665,1.682514 -0.159924,0.136914"
               id="path18617" />
            <path
               id="path18619"
               d="m 20.506206,62.988672 -2.034917,1.590343 0.339743,-0.865495 1.855099,-0.861758 -0.159924,0.136914"
               style="fill:#396216;fill-opacity:1;stroke:none;stroke-width:0.60907763"
               inkscape:connector-curvature="0"
               sodipodi:nodetypes="ccccc" />
          </g>
          <path
             sodipodi:nodetypes="ccccccc"
             inkscape:connector-curvature="0"
             id="path18623"
             d="m 17.517559,61.739415 3.319487,0.826827 0.958214,0.723284 v 0.336117 l -1.279871,-0.880461 -2.743613,-0.851197 z"
             style="opacity:1;fill:#396216;fill-opacity:1;fill-rule:nonzero;stroke:none;stroke-width:0.61003667;stroke-linecap:round;stroke-linejoin:round;stroke-miterlimit:4;stroke-dasharray:none;stroke-dashoffset:0;stroke-opacity:1;paint-order:normal" />
        </g>
        <g
           style="stroke-width:2.30202579"
           transform="matrix(0.28623653,0.32675987,-0.32675987,0.28623653,74.403739,52.321927)"
           id="g18673">
          <g
             style="stroke-width:2.30202579"
             id="g18669"
             transform="rotate(9.2459173,21.297674,64.248909)">
            <path
               id="path18663"
               d="m 20.506206,62.988672 -2.034917,1.590343 -1.750414,-2.205357 2.211679,-1.733577 1.733577,2.211681 -0.159924,0.136914"
               style="fill:#559420;fill-opacity:1;stroke:none;stroke-width:0.60907763"
               inkscape:connector-curvature="0"
               sodipodi:nodetypes="cccccc" />
            <path
               sodipodi:nodetypes="cccccc"
               inkscape:connector-curvature="0"
               style="fill:#477b1b;fill-opacity:1;stroke:none;stroke-width:0.60907763"
               d="m 20.506206,62.988672 -2.034917,1.590343 -1.452758,-2.221893 1.88095,-1.187874 1.76665,1.682514 -0.159924,0.136914"
               id="path18665" />
            <path
               id="path18667"
               d="m 20.506206,62.988672 -2.034917,1.590343 0.339743,-0.865495 1.855099,-0.861758 -0.159924,0.136914"
               style="fill:#396216;fill-opacity:1;stroke:none;stroke-width:0.60907763"
               inkscape:connector-curvature="0"
               sodipodi:nodetypes="ccccc" />
          </g>
          <path
             sodipodi:nodetypes="ccccccc"
             inkscape:connector-curvature="0"
             id="path18671"
             d="m 17.517559,61.739415 3.319487,0.826827 0.958214,0.723284 v 0.336117 l -1.279871,-0.880461 -2.743613,-0.851197 z"
             style="opacity:1;fill:#396216;fill-opacity:1;fill-rule:nonzero;stroke:none;stroke-width:0.61003667;stroke-linecap:round;stroke-linejoin:round;stroke-miterlimit:4;stroke-dasharray:none;stroke-dashoffset:0;stroke-opacity:1;paint-order:normal" />
        </g>
        <g
           id="g18697"
           transform="matrix(-0.47434245,-0.08736349,-0.08736349,0.47434245,74.748118,51.028091)"
           style="stroke-width:2.0733099"
           inkscape:transform-center-x="0.46144006"
           inkscape:transform-center-y="-0.41869991">
          <g
             transform="rotate(9.2459173,21.297674,64.248909)"
             id="g18693"
             style="stroke-width:2.0733099">
            <path
               sodipodi:nodetypes="cccccc"
               inkscape:connector-curvature="0"
               style="fill:#559420;fill-opacity:1;stroke:none;stroke-width:0.54856318"
               d="m 20.506206,62.988672 -2.034917,1.590343 -1.750414,-2.205357 2.211679,-1.733577 1.733577,2.211681 -0.159924,0.136914"
               id="path18687" />
            <path
               id="path18689"
               d="m 20.506206,62.988672 -2.034917,1.590343 -1.452758,-2.221893 1.88095,-1.187874 1.76665,1.682514 -0.159924,0.136914"
               style="fill:#477b1b;fill-opacity:1;stroke:none;stroke-width:0.54856318"
               inkscape:connector-curvature="0"
               sodipodi:nodetypes="cccccc" />
            <path
               sodipodi:nodetypes="ccccc"
               inkscape:connector-curvature="0"
               style="fill:#396216;fill-opacity:1;stroke:none;stroke-width:0.54856318"
               d="m 20.506206,62.988672 -2.034917,1.590343 0.339743,-0.865495 1.855099,-0.861758 -0.159924,0.136914"
               id="path18691" />
          </g>
          <path
             style="opacity:1;fill:#396216;fill-opacity:1;fill-rule:nonzero;stroke:none;stroke-width:0.54942697;stroke-linecap:round;stroke-linejoin:round;stroke-miterlimit:4;stroke-dasharray:none;stroke-dashoffset:0;stroke-opacity:1;paint-order:normal"
             d="m 17.517559,61.739415 3.319487,0.826827 0.958214,0.723284 v 0.336117 l -1.279871,-0.880461 -2.743613,-0.851197 z"
             id="path18695"
             inkscape:connector-curvature="0"
             sodipodi:nodetypes="ccccccc" />
        </g>
        <g
           style="stroke-width:1.66059339"
           transform="matrix(-0.57900897,0.16548919,0.16548919,0.57900897,57.366035,40.535111)"
           id="g18601">
          <g
             style="stroke-width:1.66059339"
             id="g18597"
             transform="rotate(9.2459173,21.297674,64.248909)">
            <path
               id="path18591"
               d="m 20.506206,62.988672 -2.034917,1.590343 -1.750414,-2.205357 2.211679,-1.733577 1.733577,2.211681 -0.159924,0.136914"
               style="fill:#559420;fill-opacity:1;stroke:none;stroke-width:0.43936527"
               inkscape:connector-curvature="0"
               sodipodi:nodetypes="cccccc" />
            <path
               sodipodi:nodetypes="cccccc"
               inkscape:connector-curvature="0"
               style="fill:#477b1b;fill-opacity:1;stroke:none;stroke-width:0.43936527"
               d="m 20.506206,62.988672 -2.034917,1.590343 -1.452758,-2.221893 1.88095,-1.187874 1.76665,1.682514 -0.159924,0.136914"
               id="path18593" />
            <path
               id="path18595"
               d="m 20.506206,62.988672 -2.034917,1.590343 0.339743,-0.865495 1.855099,-0.861758 -0.159924,0.136914"
               style="fill:#396216;fill-opacity:1;stroke:none;stroke-width:0.43936527"
               inkscape:connector-curvature="0"
               sodipodi:nodetypes="ccccc" />
          </g>
          <path
             sodipodi:nodetypes="ccccccc"
             inkscape:connector-curvature="0"
             id="path18599"
             d="m 17.517559,61.739415 3.319487,0.826827 0.958214,0.723284 v 0.336117 l -1.279871,-0.880461 -2.743613,-0.851197 z"
             style="opacity:1;fill:#396216;fill-opacity:1;fill-rule:nonzero;stroke:none;stroke-width:0.44005716;stroke-linecap:round;stroke-linejoin:round;stroke-miterlimit:4;stroke-dasharray:none;stroke-dashoffset:0;stroke-opacity:1;paint-order:normal" />
        </g>
        <g
           id="g7250"
           transform="matrix(0.87374076,-0.10011109,0.10011109,0.87374076,30.395896,30.327903)"
           style="stroke-width:1.13706481">
          <g
             transform="rotate(9.2459173,21.297674,64.248909)"
             id="g7227"
             style="stroke-width:1.13706481">
            <path
               sodipodi:nodetypes="cccccc"
               inkscape:connector-curvature="0"
               style="fill:#559420;fill-opacity:1;stroke:none;stroke-width:0.30084836"
               d="m 20.506206,62.988672 -2.034917,1.590343 -1.750414,-2.205357 2.211679,-1.733577 1.733577,2.211681 -0.159924,0.136914"
               id="path7217" />
            <path
               id="path7223"
               d="m 20.506206,62.988672 -2.034917,1.590343 -1.452758,-2.221893 1.88095,-1.187874 1.76665,1.682514 -0.159924,0.136914"
               style="fill:#477b1b;fill-opacity:1;stroke:none;stroke-width:0.30084836"
               inkscape:connector-curvature="0"
               sodipodi:nodetypes="cccccc" />
            <path
               sodipodi:nodetypes="ccccc"
               inkscape:connector-curvature="0"
               style="fill:#396216;fill-opacity:1;stroke:none;stroke-width:0.30084836"
               d="m 20.506206,62.988672 -2.034917,1.590343 0.339743,-0.865495 1.855099,-0.861758 -0.159924,0.136914"
               id="path7243" />
          </g>
          <path
             style="opacity:1;fill:#396216;fill-opacity:1;fill-rule:nonzero;stroke:none;stroke-width:0.3013221;stroke-linecap:round;stroke-linejoin:round;stroke-miterlimit:4;stroke-dasharray:none;stroke-dashoffset:0;stroke-opacity:1;paint-order:normal"
             d="m 17.517559,61.739415 3.319487,0.826827 0.958214,0.723284 v 0.336117 l -1.279871,-0.880461 -2.743613,-0.851197 z"
             id="rect6237-8"
             inkscape:connector-curvature="0"
             sodipodi:nodetypes="ccccccc" />
        </g>
        <g
           id="g18685"
           transform="matrix(-0.6008173,-0.04070177,-0.04070177,0.6008173,73.424853,45.360733)"
           style="stroke-width:1.66059339">
          <g
             transform="rotate(9.2459173,21.297674,64.248909)"
             id="g18681"
             style="stroke-width:1.66059339">
            <path
               sodipodi:nodetypes="cccccc"
               inkscape:connector-curvature="0"
               style="fill:#559420;fill-opacity:1;stroke:none;stroke-width:0.43936527"
               d="m 20.506206,62.988672 -2.034917,1.590343 -1.750414,-2.205357 2.211679,-1.733577 1.733577,2.211681 -0.159924,0.136914"
               id="path18675" />
            <path
               id="path18677"
               d="m 20.506206,62.988672 -2.034917,1.590343 -1.452758,-2.221893 1.88095,-1.187874 1.76665,1.682514 -0.159924,0.136914"
               style="fill:#477b1b;fill-opacity:1;stroke:none;stroke-width:0.43936527"
               inkscape:connector-curvature="0"
               sodipodi:nodetypes="cccccc" />
            <path
               sodipodi:nodetypes="ccccc"
               inkscape:connector-curvature="0"
               style="fill:#396216;fill-opacity:1;stroke:none;stroke-width:0.43936527"
               d="m 20.506206,62.988672 -2.034917,1.590343 0.339743,-0.865495 1.855099,-0.861758 -0.159924,0.136914"
               id="path18679" />
          </g>
          <path
             style="opacity:1;fill:#396216;fill-opacity:1;fill-rule:nonzero;stroke:none;stroke-width:0.44005716;stroke-linecap:round;stroke-linejoin:round;stroke-miterlimit:4;stroke-dasharray:none;stroke-dashoffset:0;stroke-opacity:1;paint-order:normal"
             d="m 17.517559,61.739415 3.319487,0.826827 0.958214,0.723284 v 0.336117 l -1.279871,-0.880461 -2.743613,-0.851197 z"
             id="path18683"
             inkscape:connector-curvature="0"
             sodipodi:nodetypes="ccccccc" />
        </g>
        <path
           style="fill:#91673f;fill-opacity:1;stroke:none;stroke-width:0.26458332"
           d="m 53.412997,74.083418 0.429948,3.485573 0.615466,3.083017 1.348756,3.706749 -0.143145,5.085996 1.828829,-0.02636 -0.384471,-5.23999 1.244367,-2.405536 0.199472,-1.834515 1.861386,-2.860808 -0.728639,0.494544 -1.631942,2.200383 -0.547253,1.922362 -0.977202,1.324986 -1.223179,-2.44533 -0.807188,-3.015837 -0.643372,-2.746602 z"
           id="path18247"
           inkscape:connector-curvature="0" />
        <g
           id="g18637"
           transform="matrix(0.381774,0.20724859,-0.20724859,0.381774,58.424495,45.784486)"
           style="stroke-width:2.30202579">
          <g
             transform="rotate(9.2459173,21.297674,64.248909)"
             id="g18633"
             style="stroke-width:2.30202579">
            <path
               sodipodi:nodetypes="cccccc"
               inkscape:connector-curvature="0"
               style="fill:#559420;fill-opacity:1;stroke:none;stroke-width:0.60907763"
               d="m 20.506206,62.988672 -2.034917,1.590343 -1.750414,-2.205357 2.211679,-1.733577 1.733577,2.211681 -0.159924,0.136914"
               id="path18627" />
            <path
               id="path18629"
               d="m 20.506206,62.988672 -2.034917,1.590343 -1.452758,-2.221893 1.88095,-1.187874 1.76665,1.682514 -0.159924,0.136914"
               style="fill:#477b1b;fill-opacity:1;stroke:none;stroke-width:0.60907763"
               inkscape:connector-curvature="0"
               sodipodi:nodetypes="cccccc" />
            <path
               sodipodi:nodetypes="ccccc"
               inkscape:connector-curvature="0"
               style="fill:#396216;fill-opacity:1;stroke:none;stroke-width:0.60907763"
               d="m 20.506206,62.988672 -2.034917,1.590343 0.339743,-0.865495 1.855099,-0.861758 -0.159924,0.136914"
               id="path18631" />
          </g>
          <path
             style="opacity:1;fill:#396216;fill-opacity:1;fill-rule:nonzero;stroke:none;stroke-width:0.61003667;stroke-linecap:round;stroke-linejoin:round;stroke-miterlimit:4;stroke-dasharray:none;stroke-dashoffset:0;stroke-opacity:1;paint-order:normal"
             d="m 17.517559,61.739415 3.319487,0.826827 0.958214,0.723284 v 0.336117 l -1.279871,-0.880461 -2.743613,-0.851197 z"
             id="path18635"
             inkscape:connector-curvature="0"
             sodipodi:nodetypes="ccccccc" />
        </g>
        <g
           id="g18661"
           transform="matrix(-0.43281115,0.03711971,0.03711971,0.43281115,67.211452,49.056157)"
           style="stroke-width:2.30202579"
           inkscape:transform-center-x="0.26017997"
           inkscape:transform-center-y="-0.31221596">
          <g
             transform="rotate(9.2459173,21.297674,64.248909)"
             id="g18657"
             style="stroke-width:2.30202579">
            <path
               sodipodi:nodetypes="cccccc"
               inkscape:connector-curvature="0"
               style="fill:#559420;fill-opacity:1;stroke:none;stroke-width:0.60907763"
               d="m 20.506206,62.988672 -2.034917,1.590343 -1.750414,-2.205357 2.211679,-1.733577 1.733577,2.211681 -0.159924,0.136914"
               id="path18651" />
            <path
               id="path18653"
               d="m 20.506206,62.988672 -2.034917,1.590343 -1.452758,-2.221893 1.88095,-1.187874 1.76665,1.682514 -0.159924,0.136914"
               style="fill:#477b1b;fill-opacity:1;stroke:none;stroke-width:0.60907763"
               inkscape:connector-curvature="0"
               sodipodi:nodetypes="cccccc" />
            <path
               sodipodi:nodetypes="ccccc"
               inkscape:connector-curvature="0"
               style="fill:#396216;fill-opacity:1;stroke:none;stroke-width:0.60907763"
               d="m 20.506206,62.988672 -2.034917,1.590343 0.339743,-0.865495 1.855099,-0.861758 -0.159924,0.136914"
               id="path18655" />
          </g>
          <path
             style="opacity:1;fill:#396216;fill-opacity:1;fill-rule:nonzero;stroke:none;stroke-width:0.61003667;stroke-linecap:round;stroke-linejoin:round;stroke-miterlimit:4;stroke-dasharray:none;stroke-dashoffset:0;stroke-opacity:1;paint-order:normal"
             d="m 17.517559,61.739415 3.319487,0.826827 0.958214,0.723284 v 0.336117 l -1.279871,-0.880461 -2.743613,-0.851197 z"
             id="path18659"
             inkscape:connector-curvature="0"
             sodipodi:nodetypes="ccccccc" />
        </g>
        <g
           id="g18703"
           transform="rotate(-10.076867,54.854704,88.998313)"
           inkscape:transform-center-x="-0.25363793"
           inkscape:transform-center-y="-2.5736141">
          <path
             sodipodi:nodetypes="ccccc"
             id="path6293"
             d="m 55.968557,87.687756 0.29997,1.037801 -0.68877,0.850183 v 0 l 0.3888,-1.887984"
             style="fill:#7b5632;fill-opacity:1;stroke:none;stroke-width:0.26458332"
             inkscape:connector-curvature="0" />
          <path
             inkscape:transform-center-y="-0.66768345"
             inkscape:transform-center-x="-0.24286671"
             sodipodi:nodetypes="cccc"
             id="path6301"
             d="m 56.244543,86.333327 0.21925,0.745804 -0.495507,0.615881 c 0,0 0.180184,-0.942321 0.276257,-1.361685"
             style="fill:#7b5632;fill-opacity:1;stroke:none;stroke-width:0.26458332"
             inkscape:connector-curvature="0" />
          <path
             inkscape:transform-center-y="-0.4564027"
             inkscape:transform-center-x="-0.17796391"
             inkscape:connector-curvature="0"
             style="fill:#7b5632;fill-opacity:1;stroke:none;stroke-width:0.26458332"
             d="m 56.440578,85.394904 0.15035,0.524727 -0.34902,0.428776 v 0 l 0.19866,-0.953503"
             id="path6307"
             sodipodi:nodetypes="ccccc" />
          <path
             sodipodi:nodetypes="cccc"
             id="path6309"
             d="m 56.606633,84.594542 0.143581,0.50367 -0.316196,0.329501 v 0"
             style="fill:#7b5632;fill-opacity:1;stroke:none;stroke-width:0.26458332"
             inkscape:connector-curvature="0"
             inkscape:transform-center-x="-0.17796391"
             inkscape:transform-center-y="-0.4564027" />
        </g>
        <g
           inkscape:transform-center-y="-2.5680034"
           inkscape:transform-center-x="0.28326498"
           transform="matrix(-0.99171621,-0.12844825,-0.12844825,0.99171621,124.1197,7.7264954)"
           id="g18713">
          <path
             inkscape:connector-curvature="0"
             style="fill:#7b5632;fill-opacity:1;stroke:none;stroke-width:0.26458332"
             d="m 55.968557,87.687756 0.29997,1.037801 -0.68877,0.850183 v 0 l 0.3888,-1.887984"
             id="path18705"
             sodipodi:nodetypes="ccccc" />
          <path
             inkscape:connector-curvature="0"
             style="fill:#7b5632;fill-opacity:1;stroke:none;stroke-width:0.26458332"
             d="m 56.244543,86.333327 0.21925,0.745804 -0.495507,0.615881 c 0,0 0.180184,-0.942321 0.276257,-1.361685"
             id="path18707"
             sodipodi:nodetypes="cccc"
             inkscape:transform-center-x="-0.24286671"
             inkscape:transform-center-y="-0.66768345" />
          <path
             sodipodi:nodetypes="ccccc"
             id="path18709"
             d="m 56.440578,85.394904 0.15035,0.524727 -0.34902,0.428776 v 0 l 0.19866,-0.953503"
             style="fill:#7b5632;fill-opacity:1;stroke:none;stroke-width:0.26458332"
             inkscape:connector-curvature="0"
             inkscape:transform-center-x="-0.17796391"
             inkscape:transform-center-y="-0.4564027" />
          <path
             inkscape:transform-center-y="-0.4564027"
             inkscape:transform-center-x="-0.17796391"
             inkscape:connector-curvature="0"
             style="fill:#7b5632;fill-opacity:1;stroke:none;stroke-width:0.26458332"
             d="m 56.635629,84.42438 0.119641,0.56318 -0.321252,0.440153 v 0"
             id="path18711"
             sodipodi:nodetypes="cccc" />
        </g>
      </g>
    </g>
  </g>
</svg>
