<?xml version="1.0" encoding="UTF-8" standalone="no"?>
<svg
   xmlns:dc="http://purl.org/dc/elements/1.1/"
   xmlns:cc="http://creativecommons.org/ns#"
   xmlns:rdf="http://www.w3.org/1999/02/22-rdf-syntax-ns#"
   xmlns:svg="http://www.w3.org/2000/svg"
   xmlns="http://www.w3.org/2000/svg"
   xmlns:sodipodi="http://sodipodi.sourceforge.net/DTD/sodipodi-0.dtd"
   xmlns:inkscape="http://www.inkscape.org/namespaces/inkscape"
   width="62.982662mm"
   height="40.27652mm"
   viewBox="0 0 62.982662 40.27652"
   version="1.1"
   id="svg952"
   inkscape:version="1.0.1 (3bc2e813f5, 2020-09-07)"
   sodipodi:docname="glass_all.svg">
  <defs
     id="defs946" />
  <sodipodi:namedview
     id="base"
     pagecolor="#ffffff"
     bordercolor="#666666"
     borderopacity="1.0"
     inkscape:pageopacity="0.0"
     inkscape:pageshadow="2"
     inkscape:zoom="12.173437"
     inkscape:cx="211.55841"
     inkscape:cy="-8.9451451"
     inkscape:document-units="mm"
     inkscape:current-layer="g1202"
     showgrid="false"
     inkscape:window-width="3000"
     inkscape:window-height="1890"
     inkscape:window-x="-12"
     inkscape:window-y="-12"
     inkscape:window-maximized="1"
     inkscape:snap-bbox="true"
     inkscape:snap-bbox-edge-midpoints="false"
     inkscape:bbox-nodes="true"
     inkscape:snap-global="true"
     showguides="true"
     inkscape:guide-bbox="true"
     inkscape:document-rotation="0"
     inkscape:snap-grids="false">
    <sodipodi:guide
       position="-1.1063294e-07,23.343191"
       orientation="0,1"
       id="guide2047"
       inkscape:locked="false" />
    <sodipodi:guide
       position="48.825421,0.0010698754"
       orientation="0,1"
       id="guide2049"
       inkscape:locked="false" />
    <sodipodi:guide
       position="14.475164,23.343192"
       orientation="0,-1"
       id="guide984" />
  </sodipodi:namedview>
  <metadata
     id="metadata949">
    <rdf:RDF>
      <cc:Work
         rdf:about="">
        <dc:format>image/svg+xml</dc:format>
        <dc:type
           rdf:resource="http://purl.org/dc/dcmitype/StillImage" />
        <dc:title></dc:title>
      </cc:Work>
    </rdf:RDF>
  </metadata>
  <g
     inkscape:label="Layer 1"
     inkscape:groupmode="layer"
     id="layer1"
     transform="translate(-4.0523958,-3.2030821)">
    <g
       id="g1753"
       inkscape:export-filename="C:\Users\Rob\Minetest\minetest-5.0.1-win64\textures\Kenney\stairs\stairs_glass_split.png"
       inkscape:export-xdpi="96.000092"
       inkscape:export-ydpi="96.000092">
      <rect
         style="opacity:1;fill:none;fill-opacity:1;fill-rule:nonzero;stroke:none;stroke-width:0.26499996;stroke-linecap:round;stroke-linejoin:bevel;stroke-miterlimit:4;stroke-dasharray:none;stroke-dashoffset:0;stroke-opacity:1;paint-order:normal"
         id="rect1588"
         width="16.933334"
         height="16.933332"
         x="27.004007"
         y="3.2030821" />
      <path
         sodipodi:nodetypes="cccc"
         id="path1592"
         d="m 42.103196,18.548912 0.0529,1.587499 H 28.979847 l -0.0529,-1.587499"
         style="fill:#b47b41;stroke:none;stroke-width:0.26458332"
         inkscape:connector-curvature="0"
         inkscape:export-filename="C:\Users\Rob\Minetest\minetest-5.0.1-win64\textures\Kenney\default\default_glass.png"
         inkscape:export-xdpi="96.000092"
         inkscape:export-ydpi="96.000092" />
      <path
         sodipodi:nodetypes="cccc"
         id="path1594"
         d="m 27.004007,5.8489122 1.5875,-0.0529 V 18.972261 l -1.5875,0.05292"
         style="fill:#b47b41;stroke:none;stroke-width:0.26458332"
         inkscape:connector-curvature="0"
         inkscape:export-filename="C:\Users\Rob\Minetest\minetest-5.0.1-win64\textures\Kenney\default\default_glass.png"
         inkscape:export-xdpi="96.000092"
         inkscape:export-ydpi="96.000092" />
      <path
         inkscape:connector-curvature="0"
         style="fill:#ffffff;fill-opacity:0;stroke:none;stroke-width:0.26458332"
         d="m 35.655886,4.7905822 h 0.74083 3.10885 1.25677 0.52917 v 1.05833 h 1.07156 v 0.52917 10.5833298 0.529167 h -1.07156 v 0.529166 0.529167 h -0.52917 -0.58208 -0.76729 -0.89958 -1.65365 -0.55563 -1.17739 -3.280829 -1.66688 -0.52917 v -0.529167 -0.529166 h -1.05833 v -0.529167 -4.08781 -1.164169 -5.3313508 -0.52917 h 1.05833 v -1.05833 h 0.52917 0.97896 1.21708 3.280839 m -1.07157,2.02406 1.13771,0.11906 0.13229,-1.13771 -1.13771,-0.11906 -0.13229,1.13771 m 6.23094,6.0721898 -1.03187,-0.0794 -0.0926,1.03187 1.03187,0.0794 0.0926,-1.03187 m -4.64344,3.862913 h -0.635 v 0.635 h 0.635 v -0.635 m 3.25438,-1.680105 0.26458,1.574272 1.56104,-0.264583 -0.26458,-1.574267 -1.56104,0.264578 m -1.08479,1.613959 0.22489,-1.375834 -1.37583,-0.211666 -0.2249,1.375833 1.37584,0.211667 M 30.681717,7.0263122 h -0.76729 v 0.76729 h 0.76729 v -0.76729 m 0.85989,2.46063 2.116669,-0.224899 -0.22489,-2.116671 -2.116669,0.2249 0.22489,2.11667 m -0.38364,1.0980198 -0.11906,-1.3361498 -1.36261,0.11906 0.11906,1.3493798 1.36261,-0.13229"
         id="path1596"
         inkscape:export-filename="C:\Users\Rob\Minetest\minetest-5.0.1-win64\textures\Kenney\default\default_glass.png"
         inkscape:export-xdpi="96.000092"
         inkscape:export-ydpi="96.000092" />
      <path
         inkscape:connector-curvature="0"
         style="fill:#b47b41;stroke:none;stroke-width:0.26458332"
         d="m 29.041297,4.7905822 -0.0529,-1.5875 h 13.176249 l 0.0529,1.5875"
         id="path1600"
         sodipodi:nodetypes="cccc"
         inkscape:export-filename="C:\Users\Rob\Minetest\minetest-5.0.1-win64\textures\Kenney\default\default_glass.png"
         inkscape:export-xdpi="96.000092"
         inkscape:export-ydpi="96.000092" />
      <path
         inkscape:connector-curvature="0"
         style="fill:#b47b41;stroke:none;stroke-width:0.26458332"
         d="m 42.349836,4.8435022 1.5875,1.00541 V 19.025161 l -1.5875,0.05292"
         id="path1602"
         sodipodi:nodetypes="cccc"
         inkscape:export-filename="C:\Users\Rob\Minetest\minetest-5.0.1-win64\textures\Kenney\default\default_glass.png"
         inkscape:export-xdpi="96.000092"
         inkscape:export-ydpi="96.000092" />
      <path
         inkscape:connector-curvature="0"
         style="fill:#c48647;stroke:none;stroke-width:0.26458332"
         d="m 39.412966,18.548912 0.0132,0.568853 0.0265,1.018646 h -3.10886 l -0.0397,-1.587499 h 0.55563 l -0.0397,1.071562 1.65364,0.06615 0.0397,-1.137708 h 0.89959 m -7.037919,-13.7583338 0.0265,-0.8599 3.280829,0.11906 -0.0265,0.74084 h -3.280829 m 4.021659,0 -0.0529,-1.5875 h 3.10886 l 0.0529,1.5875 h -3.10886 m -5.291669,-1.5875 0.0529,1.5875 h -0.97896 v -1.5875 h 0.92605 m 11.258019,3.175 h 1.16416 l -0.21166,10.5833298 h -0.9525 V 6.3780822 m -2.18282,12.1708298 h 0.58209 v 1.349374 l -0.60854,-0.01323 0.0132,-0.727604 0.0132,-0.608542 m -5.05355,0 -0.0529,1.27 -3.280829,-0.132291 0.0529,-1.137709 h 3.280829 M 28.101937,6.3780822 h 0.48948 v 5.3313508 h -0.34396 l -0.14552,-5.3313508 m 0.48948,6.4955198 v 4.08781 h -0.67468 l -0.11907,-4.061349 0.79375,-0.0265"
         id="path1604"
         inkscape:export-filename="C:\Users\Rob\Minetest\minetest-5.0.1-win64\textures\Kenney\default\default_glass.png"
         inkscape:export-xdpi="96.000092"
         inkscape:export-ydpi="96.000092" />
      <path
         inkscape:connector-curvature="0"
         style="fill:#b8bacc;fill-opacity:1;stroke:none;stroke-width:0.26458332"
         d="m 43.937336,3.2030822 v 2.64583 h -1.57427 -1.07156 v -1.32292 -1.32291 h 2.64583 m -16.933329,2.64583 v -2.64583 h 2.64583 v 1.32291 1.32292 h -1.05833 -1.5875"
         id="path1606"
         sodipodi:nodetypes="cccccccccccccc"
         inkscape:export-filename="C:\Users\Rob\Minetest\minetest-5.0.1-win64\textures\Kenney\default\default_glass.png"
         inkscape:export-xdpi="96.000092"
         inkscape:export-ydpi="96.000092" />
      <path
         inkscape:connector-curvature="0"
         style="fill:#ced1e5;fill-opacity:1;stroke:none;stroke-width:0.26458332"
         d="m 41.291506,3.2030822 h 2.64583 v 0.52916 h -2.64583 v -0.52916 m -14.287499,0.52916 v -0.52916 h 2.64583 v 0.52916 h -2.64583"
         id="path1608"
         sodipodi:nodetypes="cccccccccc"
         inkscape:export-filename="C:\Users\Rob\Minetest\minetest-5.0.1-win64\textures\Kenney\default\default_glass.png"
         inkscape:export-xdpi="96.000092"
         inkscape:export-ydpi="96.000092" />
      <path
         inkscape:connector-curvature="0"
         style="fill:#cb8b49;stroke:none;stroke-width:0.26458332"
         d="m 36.859736,18.548912 h 1.65365 l -0.0397,1.137708 -1.65365,-0.06615 0.0397,-1.071563"
         id="path1614"
         inkscape:export-filename="C:\Users\Rob\Minetest\minetest-5.0.1-win64\textures\Kenney\default\default_glass.png"
         inkscape:export-xdpi="96.000092"
         inkscape:export-ydpi="96.000092" />
      <path
         sodipodi:nodetypes="cccccccccccccc"
         id="path1616"
         d="m 43.937336,20.136411 v -2.645834 h -1.57427 -1.07156 v 1.322918 1.322916 h 2.64583 M 27.004007,17.490577 v 2.645834 h 2.64583 v -1.322916 -1.322918 h -1.05833 -1.5875"
         style="fill:#b8bacc;fill-opacity:1;stroke:none;stroke-width:0.26458332"
         inkscape:connector-curvature="0"
         inkscape:export-filename="C:\Users\Rob\Minetest\minetest-5.0.1-win64\textures\Kenney\default\default_glass.png"
         inkscape:export-xdpi="96.000092"
         inkscape:export-ydpi="96.000092" />
      <path
         sodipodi:nodetypes="cccccccccc"
         id="path1618"
         d="m 41.291506,18.019744 h 2.64583 v -0.529167 h -2.64583 v 0.529167 M 27.004007,17.490577 v 0.529167 h 2.64583 v -0.529167 h -2.64583"
         style="fill:#ced1e5;fill-opacity:1;stroke:none;stroke-width:0.26458332"
         inkscape:connector-curvature="0"
         inkscape:export-filename="C:\Users\Rob\Minetest\minetest-5.0.1-win64\textures\Kenney\default\default_glass.png"
         inkscape:export-xdpi="96.000092"
         inkscape:export-ydpi="96.000092" />
      <path
         inkscape:export-ydpi="96.000092"
         inkscape:export-xdpi="96.000092"
         inkscape:export-filename="C:\Users\Rob\Minetest\minetest-5.0.1-win64\textures\Kenney\default\default_glass.png"
         id="path1092-5-7"
         d="m 35.655888,4.790582 h 0.740829 3.10885 1.25677 0.52917 v 1.05833 h 1.07156 v 0.52917 10.58333 0.529167 h -1.07156 v 0.529166 0.529167 h -0.52917 -0.58208 -0.76729 -0.89958 -1.65365 -0.55563 -1.17739 -3.28083 -1.66688 -0.52917 v -0.529167 -0.529166 h -1.05833 v -0.529167 -4.08781 -1.164169 -5.331351 -0.52917 h 1.05833 v -1.05833 h 0.52917 0.97896 1.21708 3.280841 m -1.071571,2.02406 1.13771,0.11906 0.13229,-1.13771 -1.13771,-0.11906 -0.13229,1.13771 m 6.23094,6.07219 -1.03187,-0.0794 -0.0926,1.03187 1.03187,0.0794 0.0926,-1.03187 m -4.64344,3.862913 h -0.635 v 0.635 h 0.635 v -0.635 m 3.25438,-1.680105 0.26458,1.574272 1.56104,-0.264583 -0.26458,-1.574267 -1.56104,0.264578 m -1.08479,1.613959 0.22489,-1.375834 -1.37583,-0.211666 -0.2249,1.375833 1.37584,0.211667 m -7.65969,-9.657287 h -0.76729 v 0.76729 h 0.76729 v -0.76729 m 0.85989,2.4606302 2.11667,-0.2249 -0.22489,-2.1166702 -2.11667,0.2249 0.22489,2.1166702 m -0.38364,1.0980198 -0.11906,-1.3361498 -1.36261,0.11906 0.11906,1.3493798 1.36261,-0.13229"
         style="fill:#ffffff;fill-opacity:0;stroke:none;stroke-width:0.26458332"
         inkscape:connector-curvature="0" />
      <path
         sodipodi:nodetypes="ccccccccccccccc"
         inkscape:export-ydpi="96.000092"
         inkscape:export-xdpi="96.000092"
         inkscape:export-filename="C:\Users\Rob\Minetest\minetest-5.0.1-win64\textures\Kenney\default\default_glass.png"
         id="path1094-3-7"
         d="m 31.157967,10.055785 -1.36261,0.13229 -0.11906,-1.3493695 1.36261,-0.11906 0.11906,1.3361395 m 3.42635,-3.7703097 0.13229,-1.13771 1.13771,0.11906 -0.13229,1.13771 -1.13771,-0.11906 m 6.23094,6.6013567 -0.0926,1.03187 -1.03187,-0.0794 0.0926,-1.03187 1.03187,0.0794"
         style="fill:#ffffff;fill-opacity:0.4;stroke:none;stroke-width:0.26458332"
         inkscape:connector-curvature="0" />
      <path
         sodipodi:nodetypes="ccccccccccccccccccccccccc"
         inkscape:export-ydpi="96.000092"
         inkscape:export-xdpi="96.000092"
         inkscape:export-filename="C:\Users\Rob\Minetest\minetest-5.0.1-win64\textures\Kenney\default\default_glass.png"
         id="path1108-7-3"
         d="m 38.341407,16.683599 -1.37584,-0.211667 0.2249,-1.375833 1.37583,0.211666 -0.22489,1.375834 m 1.08479,-1.613959 1.56104,-0.264578 0.26458,1.574267 -1.56104,0.264583 -0.26458,-1.574272 m -3.25438,1.680105 v 0.635 h -0.635 v -0.635 h 0.635 m -5.4901,-10.2525997 v 0.76729 h -0.76729 v -0.76729 h 0.76729 m 0.85989,2.4606202 -0.22489,-2.1166702 2.11667,-0.22489 0.22489,2.1166702 -2.11667,0.22489"
         style="fill:#ffffff;fill-opacity:0.4;stroke:none;stroke-width:0.26458332"
         inkscape:connector-curvature="0" />
    </g>
    <g
       id="g2366"
       inkscape:export-filename="C:\Users\Rob\Minetest\minetest-5.0.1-win64\textures\Kenney\stairs\stairs_obsidian_glass_split.png"
       inkscape:export-xdpi="96.000092"
       inkscape:export-ydpi="96.000092">
      <rect
         style="opacity:1;fill:none;fill-opacity:0.17647059;fill-rule:nonzero;stroke:none;stroke-width:0.26499999;stroke-linecap:round;stroke-linejoin:bevel;stroke-miterlimit:4;stroke-dasharray:none;stroke-dashoffset:0;stroke-opacity:1;paint-order:normal"
         id="rect2175"
         width="16.933329"
         height="16.933329"
         x="26.864309"
         y="26.423319" />
      <rect
         y="26.423319"
         x="26.864309"
         height="16.933332"
         width="16.933334"
         id="rect2177"
         style="opacity:1;fill:none;fill-opacity:1;fill-rule:nonzero;stroke:none;stroke-width:0.26499996;stroke-linecap:round;stroke-linejoin:bevel;stroke-miterlimit:4;stroke-dasharray:none;stroke-dashoffset:0;stroke-opacity:1;paint-order:normal" />
      <path
         inkscape:export-ydpi="96.000092"
         inkscape:export-xdpi="96.000092"
         inkscape:export-filename="C:\Users\Rob\Minetest\minetest-5.0.1-win64\textures\Kenney\default\default_glass.png"
         inkscape:connector-curvature="0"
         style="fill:#371640;fill-opacity:1;stroke:none;stroke-width:0.26458332"
         d="m 41.963499,41.769149 0.0529,1.587499 H 28.84015 l -0.0529,-1.587499"
         id="path2181"
         sodipodi:nodetypes="cccc" />
      <path
         inkscape:export-ydpi="96.000092"
         inkscape:export-xdpi="96.000092"
         inkscape:export-filename="C:\Users\Rob\Minetest\minetest-5.0.1-win64\textures\Kenney\default\default_glass.png"
         inkscape:connector-curvature="0"
         style="fill:#371640;fill-opacity:1;stroke:none;stroke-width:0.26458332"
         d="m 26.86431,29.069149 1.5875,-0.0529 v 13.176249 l -1.5875,0.05292"
         id="path2183"
         sodipodi:nodetypes="cccc" />
      <path
         inkscape:export-ydpi="96.000092"
         inkscape:export-xdpi="96.000092"
         inkscape:export-filename="C:\Users\Rob\Minetest\minetest-5.0.1-win64\textures\Kenney\default\default_glass.png"
         id="path2185"
         d="m 35.516189,28.010819 h 0.74083 3.10885 1.25677 0.52917 v 1.05833 h 1.07156 v 0.52917 10.58333 0.529167 h -1.07156 v 0.529166 0.529167 h -0.52917 -0.58208 -0.76729 -0.89958 -1.65365 -0.55563 -1.17739 -3.280829 -1.66688 -0.52917 v -0.529167 -0.529166 h -1.05833 v -0.529167 -4.08781 -1.164169 -5.331351 -0.52917 h 1.05833 v -1.05833 h 0.52917 0.97896 1.217079 3.28084 m -1.07157,2.02406 1.13771,0.11906 0.13229,-1.13771 -1.13771,-0.11906 -0.13229,1.13771 m 6.23094,6.07219 -1.03187,-0.0794 -0.0926,1.03187 1.03187,0.0794 0.0926,-1.03187 m -4.64344,3.862913 h -0.635 v 0.635 h 0.635 v -0.635 m 3.25438,-1.680105 0.26458,1.574272 1.56104,-0.264583 -0.26458,-1.574267 -1.56104,0.264578 m -1.08479,1.613959 0.22489,-1.375834 -1.37583,-0.211666 -0.2249,1.375833 1.37584,0.211667 M 30.54202,30.246549 h -0.76729 v 0.76729 h 0.76729 v -0.76729 m 0.85989,2.46063 2.116669,-0.224899 -0.22489,-2.116671 -2.116669,0.2249 0.22489,2.11667 m -0.38364,1.09802 -0.11906,-1.33615 -1.36261,0.11906 0.11906,1.34938 1.36261,-0.13229"
         style="fill:#ffffff;fill-opacity:0;stroke:none;stroke-width:0.26458332"
         inkscape:connector-curvature="0" />
      <path
         inkscape:export-ydpi="96.000092"
         inkscape:export-xdpi="96.000092"
         inkscape:export-filename="C:\Users\Rob\Minetest\minetest-5.0.1-win64\textures\Kenney\default\default_glass.png"
         sodipodi:nodetypes="cccc"
         id="path2189"
         d="m 28.9016,28.010819 -0.0529,-1.5875 h 13.176249 l 0.0529,1.5875"
         style="fill:#371640;fill-opacity:1;stroke:none;stroke-width:0.26458332"
         inkscape:connector-curvature="0" />
      <path
         inkscape:export-ydpi="96.000092"
         inkscape:export-xdpi="96.000092"
         inkscape:export-filename="C:\Users\Rob\Minetest\minetest-5.0.1-win64\textures\Kenney\default\default_glass.png"
         sodipodi:nodetypes="cccc"
         id="path2191"
         d="m 42.210139,28.063739 1.5875,1.00541 v 13.176249 l -1.5875,0.05292"
         style="fill:#371640;fill-opacity:1;stroke:none;stroke-width:0.26458332"
         inkscape:connector-curvature="0" />
      <path
         style="opacity:1;fill:#582366;fill-opacity:1;fill-rule:nonzero;stroke:none;stroke-width:0.26458335;stroke-linecap:round;stroke-linejoin:bevel;stroke-miterlimit:4;stroke-dasharray:none;stroke-dashoffset:0;stroke-opacity:1;paint-order:normal"
         d="m 43.797737,29.308447 -1.578715,1.578197 h 10e-4 l -0.0098,0.0098 v 0.600995 l 0.610815,-0.610814 0.976685,-0.977201 z m 0,0.999937 -0.578259,0.57826 h -5.17e-4 l -1.008724,1.00924 v 0.57826 h 0.02325 l 1.564246,-1.56373 z"
         id="path2193"
         inkscape:connector-curvature="0" />
      <path
         inkscape:export-ydpi="96.000092"
         inkscape:export-xdpi="96.000092"
         inkscape:export-filename="C:\Users\Rob\Minetest\minetest-5.0.1-win64\textures\Kenney\default\default_glass.png"
         sodipodi:nodetypes="cccccccccccccc"
         id="path2195"
         d="m 43.797639,26.423319 v 2.64583 h -1.57427 -1.07156 v -1.32292 -1.32291 h 2.64583 m -16.933329,2.64583 v -2.64583 h 2.64583 v 1.32291 1.32292 h -1.05833 -1.5875"
         style="fill:#b8bacc;fill-opacity:1;stroke:none;stroke-width:0.26458332"
         inkscape:connector-curvature="0" />
      <path
         inkscape:export-ydpi="96.000092"
         inkscape:export-xdpi="96.000092"
         inkscape:export-filename="C:\Users\Rob\Minetest\minetest-5.0.1-win64\textures\Kenney\default\default_glass.png"
         sodipodi:nodetypes="cccccccccc"
         id="path2197"
         d="m 41.151809,26.423319 h 2.64583 v 0.52916 h -2.64583 v -0.52916 m -14.287499,0.52916 v -0.52916 h 2.64583 v 0.52916 h -2.64583"
         style="fill:#ced1e5;fill-opacity:1;stroke:none;stroke-width:0.26458332"
         inkscape:connector-curvature="0" />
      <path
         inkscape:export-ydpi="96.000092"
         inkscape:export-xdpi="96.000092"
         inkscape:export-filename="C:\Users\Rob\Minetest\minetest-5.0.1-win64\textures\Kenney\default\default_glass.png"
         inkscape:connector-curvature="0"
         style="fill:#b8bacc;fill-opacity:1;stroke:none;stroke-width:0.26458332"
         d="m 43.797639,43.356648 v -2.645834 h -1.57427 -1.07156 v 1.322918 1.322916 h 2.64583 M 26.86431,40.710814 v 2.645834 h 2.64583 v -1.322916 -1.322918 h -1.05833 -1.5875"
         id="path2203"
         sodipodi:nodetypes="cccccccccccccc" />
      <path
         inkscape:export-ydpi="96.000092"
         inkscape:export-xdpi="96.000092"
         inkscape:export-filename="C:\Users\Rob\Minetest\minetest-5.0.1-win64\textures\Kenney\default\default_glass.png"
         inkscape:connector-curvature="0"
         style="fill:#ced1e5;fill-opacity:1;stroke:none;stroke-width:0.26458332"
         d="m 41.151809,41.239981 h 2.64583 v -0.529167 h -2.64583 v 0.529167 M 26.86431,40.710814 v 0.529167 h 2.64583 v -0.529167 h -2.64583"
         id="path2205"
         sodipodi:nodetypes="cccccccccc" />
      <path
         inkscape:connector-curvature="0"
         style="opacity:1;fill:#582366;fill-opacity:1;fill-rule:nonzero;stroke:none;stroke-width:0.26458335;stroke-linecap:round;stroke-linejoin:bevel;stroke-miterlimit:4;stroke-dasharray:none;stroke-dashoffset:0;stroke-opacity:1;paint-order:normal"
         d="m 31.598482,26.423234 -1.588017,1.5875 h 0.602031 l 1.586983,-1.5875 z m 0.999422,0 -1.5875,1.5875 h 0.601514 l 1.588017,-1.5875 z"
         id="path2223" />
      <path
         inkscape:connector-curvature="0"
         style="opacity:1;fill:#582366;fill-opacity:1;fill-rule:nonzero;stroke:none;stroke-width:0.26458335;stroke-linecap:round;stroke-linejoin:bevel;stroke-miterlimit:4;stroke-dasharray:none;stroke-dashoffset:0;stroke-opacity:1;paint-order:normal"
         d="m 32.839791,41.769152 -1.588015,1.5875 h 0.602029 l 1.586983,-1.5875 z m 0.999422,0 -1.5875,1.5875 h 0.601514 l 1.588017,-1.5875 z"
         id="path2227" />
      <path
         inkscape:connector-curvature="0"
         style="fill:#cfc2d3;fill-opacity:1;stroke:none;stroke-width:0.26458332"
         d="m 31.018269,33.276022 -1.36261,0.13229 -0.11906,-1.34937 1.36261,-0.11906 0.11906,1.33614 m 3.42635,-3.77031 0.13229,-1.13771 1.13771,0.11906 -0.13229,1.13771 -1.13771,-0.11906 m 6.23094,6.601357 -0.0926,1.03187 -1.03187,-0.0794 0.0926,-1.03187 1.03187,0.0794"
         id="path1094-3-7-9"
         inkscape:export-filename="C:\Users\Rob\Minetest\minetest-5.0.1-win64\textures\Kenney\default\default_glass.png"
         inkscape:export-xdpi="96.000092"
         inkscape:export-ydpi="96.000092"
         sodipodi:nodetypes="ccccccccccccccc" />
      <path
         inkscape:connector-curvature="0"
         style="fill:#cfc2d3;fill-opacity:1;stroke:none;stroke-width:0.26458332"
         d="m 38.201709,39.903836 -1.37584,-0.211667 0.2249,-1.375833 1.37583,0.211666 -0.22489,1.375834 m 1.08479,-1.613959 1.56104,-0.264578 0.26458,1.574267 -1.56104,0.264583 -0.26458,-1.574272 m -3.25438,1.680105 v 0.635 h -0.635 v -0.635 h 0.635 m -5.4901,-10.2526 v 0.76729 h -0.76729 v -0.76729 h 0.76729 m 0.85989,2.46062 -0.22489,-2.11667 2.11667,-0.22489 0.22489,2.11667 -2.11667,0.22489"
         id="path1108-7-3-0"
         inkscape:export-filename="C:\Users\Rob\Minetest\minetest-5.0.1-win64\textures\Kenney\default\default_glass.png"
         inkscape:export-xdpi="96.000092"
         inkscape:export-ydpi="96.000092"
         sodipodi:nodetypes="ccccccccccccccccccccccccc" />
    </g>
    <g
       id="g1025"
       inkscape:export-filename="C:\Users\sirro\Minetest\minetest-5.4.0-win64\games\space_crash\mods\sc_env\textures\sc_env_glass.png"
       inkscape:export-xdpi="96.000092"
       inkscape:export-ydpi="96.000092">
      <rect
         style="opacity:1;fill:none;fill-opacity:0.4;stroke:#ffffff;stroke-width:0.520902;stroke-linejoin:miter;stroke-miterlimit:4;stroke-dasharray:none;stroke-opacity:1"
         id="rect986"
         width="16.412432"
         height="16.412432"
         x="4.1331663"
         y="3.3273215"
         inkscape:export-filename="C:\Users\sirro\Minetest\minetest-5.4.0-win64\games\space_crash\mods\sc_env\textures\sc_env_glass.png"
         inkscape:export-xdpi="96.000092"
         inkscape:export-ydpi="96.000092" />
      <path
         inkscape:connector-curvature="0"
         style="fill:#ffffff;fill-opacity:0.40000001;stroke:none;stroke-width:0.264583"
         d="m 6.5274637,9.0780526 -1.36261,0.13229 -0.11906,-1.34937 1.36261,-0.11906 0.11906,1.33614 m 3.4263498,-3.77031 0.1322895,-1.13771 1.13771,0.11906 -0.13229,1.13771 -1.1377095,-0.11906 m 9.4059395,9.2471904 -0.0926,1.03187 -1.03187,-0.0794 0.0926,-1.03187 1.03187,0.0794"
         id="path1094-3-7-9-8"
         inkscape:export-filename="C:\Users\sirro\Minetest\minetest-5.4.0-win64\games\space_crash\mods\sc_env\textures\sc_env_glass.png"
         inkscape:export-xdpi="96.000092"
         inkscape:export-ydpi="96.000092"
         sodipodi:nodetypes="ccccccccccccccc" />
      <path
         inkscape:connector-curvature="0"
         style="fill:#ffffff;fill-opacity:1;stroke:none;stroke-width:0.264583"
         d="m 16.885903,18.3517 -1.37584,-0.211667 0.2249,-1.375833 1.37583,0.211666 -0.22489,1.375834 m 1.08479,-1.613959 1.56104,-0.264578 0.26458,1.574267 -1.56104,0.264583 -0.26458,-1.574272 m -3.25438,1.680105 v 0.635 h -0.635 v -0.635 h 0.635 M 6.0512137,5.5194126 v 0.76729 h -0.76729 v -0.76729 h 0.76729 m 0.85989,2.46062 -0.22489,-2.11667 2.1166698,-0.22489 0.22489,2.11667 -2.1166698,0.22489"
         id="path1108-7-3-0-4"
         inkscape:export-filename="C:\Users\sirro\Minetest\minetest-5.4.0-win64\games\space_crash\mods\sc_env\textures\sc_env_glass.png"
         inkscape:export-xdpi="96.000092"
         inkscape:export-ydpi="96.000092"
         sodipodi:nodetypes="ccccccccccccccccccccccccc" />
    </g>
    <text
       xml:space="preserve"
       style="font-style:normal;font-weight:normal;font-size:10.5833px;line-height:1.25;font-family:sans-serif;fill:#000000;fill-opacity:1;stroke:none;stroke-width:0.264583"
       x="8.3558235"
       y="1.5077927"
       id="text1029"><tspan
         sodipodi:role="line"
         id="tspan1027"
         x="8.3558235"
         y="1.5077927"
         style="font-size:2.82222px;stroke-width:0.264583">Glass</tspan></text>
    <rect
       style="fill:none;fill-opacity:1;fill-rule:nonzero;stroke:none;stroke-width:0.265;stroke-linecap:round;stroke-linejoin:bevel;stroke-miterlimit:4;stroke-dasharray:none;stroke-dashoffset:0;stroke-opacity:1;paint-order:normal"
       id="rect1031"
       width="16.933334"
       height="16.933332"
       x="48.085846"
       y="3.2030821"
       inkscape:export-filename="C:\Users\sirro\Minetest\minetest-5.4.0-win64\games\space_crash\mods\sc_env\textures\sc_env_glass_framed.png"
       inkscape:export-xdpi="96"
       inkscape:export-ydpi="96" />
    <g
       transform="translate(68.01124,-83.866249)"
       id="g21410"
       inkscape:export-filename="C:\Users\sirro\Minetest\minetest-5.4.0-win64\games\space_crash\mods\sc_env\textures\sc_env_glass_framed.png"
       inkscape:export-xdpi="96"
       inkscape:export-ydpi="96">
      <rect
         y="2.9920609"
         x="88.655746"
         height="1.5875"
         width="13.161402"
         id="rect21336"
         style="opacity:1;fill:#b8bacc;fill-opacity:1;fill-rule:nonzero;stroke:none;stroke-width:0.529167;stroke-linecap:butt;stroke-linejoin:round;stroke-miterlimit:4;stroke-dasharray:none;stroke-dashoffset:0;stroke-opacity:1;paint-order:normal"
         transform="rotate(90)" />
      <rect
         transform="rotate(90)"
         style="opacity:1;fill:#b8bacc;fill-opacity:1;fill-rule:nonzero;stroke:none;stroke-width:0.529167;stroke-linecap:butt;stroke-linejoin:round;stroke-miterlimit:4;stroke-dasharray:none;stroke-dashoffset:0;stroke-opacity:1;paint-order:normal"
         id="rect21338"
         width="13.161402"
         height="1.5875"
         x="88.655746"
         y="18.337894" />
      <path
         id="path21342"
         d="m -11.273519,88.65576 h 0.740833 3.1088542 1.256771 0.529167 v 1.05833 h 1.071562 v 0.52917 10.58333 0.52917 h -1.071562 v 0.52917 0.52916 h -0.529167 -0.582083 -0.767292 -0.899583 -1.6536462 -0.555625 -1.177396 -3.280833 -1.666875 -0.529167 v -0.52916 -0.52917 h -1.058333 v -0.52917 -4.08781 -1.16416 -5.33136 -0.52917 h 1.058333 v -1.05833 h 0.529167 0.978958 1.217083 3.280834 m -1.071563,2.02406 1.137709,0.11907 0.132291,-1.13771 -1.137708,-0.11906 -0.132292,1.1377 m 6.2309382,6.07219 -1.031875,-0.0794 -0.0926,1.03188 1.031875,0.0794 0.0926,-1.03188 m -4.6434382,3.86292 h -0.635 v 0.635 h 0.635 v -0.635 m 3.2543752,-1.68011 0.264584,1.57427 1.561041,-0.26458 -0.264583,-1.57427 -1.561042,0.26458 m -1.084791,1.61396 0.224896,-1.37583 -1.375834,-0.21167 -0.224896,1.37584 1.375834,0.21166 M -16.247686,90.8915 h -0.767292 v 0.76729 h 0.767292 V 90.8915 m 0.859896,2.46062 2.116667,-0.2249 -0.224896,-2.11666 -2.116667,0.22489 0.224896,2.11667 m -0.383646,1.09802 -0.119062,-1.33614 -1.362605,0.11906 0.119063,1.34937 1.362604,-0.13229"
         style="fill:#ffffff;fill-opacity:0;stroke:none;stroke-width:0.264583"
         inkscape:connector-curvature="0" />
      <g
         style="stroke-width:1.40835"
         transform="matrix(1,0,0,0.50417541,16.579121,26.657483)"
         id="g21348">
        <path
           id="path21344"
           d="m -35.44365,121.88872 h 0.52917 v 7.74332 h -0.52917 v -4.18133 -3.56199"
           style="fill:#b7bdd7;fill-opacity:1;stroke:none;stroke-width:0.372625"
           inkscape:connector-curvature="0"
           sodipodi:nodetypes="cccccc" />
        <path
           sodipodi:nodetypes="cccccc"
           inkscape:connector-curvature="0"
           style="fill:#b7bdd7;fill-opacity:1;stroke:none;stroke-width:0.372625"
           d="m -21.156146,121.88872 h 0.529169 v 7.74332 h -0.529169 v -4.18133 -3.56199"
           id="path21346" />
      </g>
      <rect
         y="87.068253"
         x="-18.019432"
         height="1.5875"
         width="13.161402"
         id="rect21352"
         style="opacity:1;fill:#b8bacc;fill-opacity:1;fill-rule:nonzero;stroke:none;stroke-width:0.529167;stroke-linecap:butt;stroke-linejoin:round;stroke-miterlimit:4;stroke-dasharray:none;stroke-dashoffset:0;stroke-opacity:1;paint-order:normal" />
      <path
         id="path21360"
         d="m -18.337894,88.65575 v -0.52917 h 14.0929533 v 0.52917 h -7.1345643 -6.958389"
         style="fill:#a8aaba;fill-opacity:1;stroke:none;stroke-width:0.264583"
         inkscape:connector-curvature="0"
         sodipodi:nodetypes="cccccc" />
      <path
         sodipodi:nodetypes="cccccccccccccccccccccc"
         id="path21370"
         d="m -5.63793,87.06851 2.6458692,-2.5e-4 v 0.52917 l -2.6458692,2.5e-4 v -0.52917 m 2.6458692,14.28725 v 0.52917 H -5.65493 v -0.52917 h 1.0885982 1.574271 m -16.9333332,0.52917 v -0.52917 h 1.5875 1.058333 v 0.52917 h -2.645833 m 0,-14.2875 v -0.52917 h 2.645833 v 0.52917 h -2.645833"
         style="fill:#ced1e5;fill-opacity:1;stroke:none;stroke-width:0.264583"
         inkscape:connector-curvature="0" />
      <rect
         style="opacity:1;fill:#b8bacc;fill-opacity:1;fill-rule:nonzero;stroke:none;stroke-width:0.529167;stroke-linecap:butt;stroke-linejoin:round;stroke-miterlimit:4;stroke-dasharray:none;stroke-dashoffset:0;stroke-opacity:1;paint-order:normal"
         id="rect21372"
         width="13.161402"
         height="1.5875"
         x="-17.894436"
         y="102.41288" />
      <path
         id="path21374"
         d="m -18.502507,102.94288 v -0.52917 h 14.0929538 v 0.52917 h -7.1345638 -6.95839"
         style="fill:#cfd4ea;fill-opacity:1;stroke:none;stroke-width:0.264583"
         inkscape:connector-curvature="0"
         sodipodi:nodetypes="cccccc" />
      <path
         id="path21376"
         d="m -2.9920608,87.59743 v 2.11666 h -1.574271 -1.071562 v -1.05833 -1.05833 h 2.645833 m 0,14.2875 v 2.11666 h -2.645833 v -1.5875 -0.52916 h 2.645833 m -14.2875002,2.11666 h -2.645833 v -2.11666 h 2.645833 v 0.52916 1.5875 m -2.645833,-14.2875 v -2.11666 h 2.645833 v 1.05833 1.05833 h -1.058333 -1.5875"
         style="fill:#b8bacc;fill-opacity:1;stroke:none;stroke-width:0.264583"
         inkscape:connector-curvature="0" />
      <path
         inkscape:connector-curvature="0"
         style="fill:#a8aaba;fill-opacity:1;stroke:none;stroke-width:0.264583"
         d="m -5.6378938,104.00159 h 2.645833 v -0.52917 h -2.645833 v 0.52917 m 2.645833,-14.2875 v -0.52917 h -2.645833 v 0.52917 h 1.071562 1.574271 M -19.925394,89.18492 v 0.52917 h 1.5875 1.058333 v -0.52917 h -2.645833 m 0,14.2875 v 0.52917 h 2.645833 v -0.52917 h -2.645833"
         id="path21378" />
      <path
         style="fill:#a8aaba;fill-opacity:1;stroke:none;stroke-width:0.264583"
         inkscape:connector-curvature="0"
         id="path21380"
         d="m -3.9003266,88.00934 c 0.09854,0.1 0.147817,0.22342 0.147817,0.3704 0,0.147 -0.04927,0.27341 -0.147817,0.37925 -0.09855,0.0999 -0.2231757,0.14992 -0.3738917,0.14992 -0.14492,0 -0.266652,-0.05 -0.3651957,-0.14992 l -0.02609,-0.0265 c -0.08695,-0.1 -0.130426,-0.21755 -0.130426,-0.35278 0,-0.14699 0.05217,-0.27046 0.156512,-0.37041 0.09855,-0.10584 0.2202767,-0.15875 0.3651967,-0.15875 0.139121,0 0.2550567,0.0441 0.3478047,0.13229 l 0.02609,0.0265"
         inkscape:export-filename="C:\Users\Rob\Minetest\minetest-5.0.1-win64\textures\Kenney\default_steel_block.png"
         inkscape:export-xdpi="64.901405"
         inkscape:export-ydpi="64.901405"
         sodipodi:nodetypes="cscsccscscc" />
      <path
         style="fill:#a8aaba;fill-opacity:1;stroke:none;stroke-width:0.264583"
         inkscape:connector-curvature="0"
         id="path21382"
         d="m -18.302326,102.29693 c 0.09854,0.1 0.147817,0.22342 0.147817,0.3704 0,0.147 -0.04927,0.27341 -0.147817,0.37925 -0.09855,0.0999 -0.223176,0.14992 -0.373892,0.14992 -0.14492,0 -0.266652,-0.05 -0.365196,-0.14992 l -0.02609,-0.0265 c -0.08695,-0.1 -0.130426,-0.21755 -0.130426,-0.35278 0,-0.14699 0.05217,-0.27046 0.156512,-0.37041 0.09855,-0.10584 0.220277,-0.15875 0.365197,-0.15875 0.139121,0 0.255057,0.0441 0.347805,0.13229 l 0.02609,0.0265"
         inkscape:export-filename="C:\Users\Rob\Minetest\minetest-5.0.1-win64\textures\Kenney\default_steel_block.png"
         inkscape:export-xdpi="64.901405"
         inkscape:export-ydpi="64.901405"
         sodipodi:nodetypes="cscsccscscc" />
      <path
         sodipodi:nodetypes="cscsccscscc"
         inkscape:export-ydpi="64.901405"
         inkscape:export-xdpi="64.901405"
         inkscape:export-filename="C:\Users\Rob\Minetest\minetest-5.0.1-win64\textures\Kenney\default_steel_block.png"
         d="m -3.9003266,102.29693 c 0.09854,0.1 0.147817,0.22342 0.147817,0.3704 0,0.147 -0.04927,0.27341 -0.147817,0.37925 -0.09855,0.0999 -0.2231757,0.14992 -0.3738917,0.14992 -0.14492,0 -0.266652,-0.05 -0.3651957,-0.14992 l -0.02609,-0.0265 c -0.08695,-0.1 -0.130426,-0.21755 -0.130426,-0.35278 0,-0.14699 0.05217,-0.27046 0.156512,-0.37041 0.09855,-0.10584 0.2202767,-0.15875 0.3651967,-0.15875 0.139121,0 0.2550567,0.0441 0.3478047,0.13229 l 0.02609,0.0265"
         id="path21384"
         inkscape:connector-curvature="0"
         style="fill:#a8aaba;fill-opacity:1;stroke:none;stroke-width:0.264583" />
      <path
         sodipodi:nodetypes="cccccccccccc"
         inkscape:connector-curvature="0"
         style="fill:#ced1e5;fill-opacity:1;stroke:none;stroke-width:0.264583"
         d="m -19.396224,103.47242 -0.52917,0.52917 v -2.64583 h 0.52917 v 1.07156 1.0451 m -0.52917,-16.40416 h 0.52917 v 1.5875 l 0.01414,0.52809 -0.54331,0.53024 v -2.64583"
         id="path21386" />
      <path
         sodipodi:nodetypes="cscsccscscc"
         inkscape:export-ydpi="64.901405"
         inkscape:export-xdpi="64.901405"
         inkscape:export-filename="C:\Users\Rob\Minetest\minetest-5.0.1-win64\textures\Kenney\default_steel_block.png"
         d="m -18.302326,88.00934 c 0.09854,0.1 0.147817,0.22342 0.147817,0.3704 0,0.147 -0.04927,0.27341 -0.147817,0.37925 -0.09855,0.0999 -0.223176,0.14992 -0.373892,0.14992 -0.14492,0 -0.266652,-0.05 -0.365196,-0.14992 l -0.02609,-0.0265 c -0.08695,-0.1 -0.130426,-0.21755 -0.130426,-0.35278 0,-0.14699 0.05217,-0.27046 0.156512,-0.37041 0.09855,-0.10584 0.220277,-0.15875 0.365197,-0.15875 0.139121,0 0.255057,0.0441 0.347805,0.13229 l 0.02609,0.0265"
         id="path21388"
         inkscape:connector-curvature="0"
         style="fill:#a8aaba;fill-opacity:1;stroke:none;stroke-width:0.264583" />
      <path
         id="path21390"
         d="m -3.5212308,103.47242 0.52917,0.52917 v -2.64583 h -0.52917 v 1.07156 1.0451 m 0.52917,-16.40416 h -0.52917 v 1.5875 l -0.01414,0.52809 0.54331,0.53024 v -2.64583"
         style="fill:#ced1e5;fill-opacity:1;stroke:none;stroke-width:0.264583"
         inkscape:connector-curvature="0"
         sodipodi:nodetypes="cccccccccccc" />
      <path
         id="path21392"
         d="m -17.279561,104.00159 h -0.52917 v -2.11666 l 0.52917,-0.52917 v 1.60073 1.0451 m -0.52917,-16.40416 0.52917,-0.52917 v 2.11667 l 0.01414,0.52809 h -0.52917 l -0.01414,-2.11559"
         style="fill:#a8aaba;fill-opacity:1;stroke:none;stroke-width:0.264583"
         inkscape:connector-curvature="0"
         sodipodi:nodetypes="cccccccccccc" />
      <path
         sodipodi:nodetypes="cccccccccccc"
         inkscape:connector-curvature="0"
         style="fill:#a8aaba;fill-opacity:1;stroke:none;stroke-width:0.264583"
         d="m -5.1228638,104.00266 h -0.52917 l -0.0029,-2.6469 0.5320662,0.53024 v 1.07156 1.0451 m 0,-16.40416 v 1.5875 l 0.01414,0.52809 h -0.52917 l -3.24e-5,-2.64558 z"
         id="path21394" />
      <path
         id="path21400"
         d="m -18.862001,89.43789 h 0.52917 v 11.91475 h -0.52917 v -6.03183 -5.88292"
         style="fill:#a8aaba;fill-opacity:1;stroke:none;stroke-width:0.264583"
         inkscape:connector-curvature="0"
         sodipodi:nodetypes="cccccc" />
      <path
         sodipodi:nodetypes="cccccc"
         inkscape:connector-curvature="0"
         style="fill:#a8aaba;fill-opacity:1;stroke:none;stroke-width:0.264583"
         d="m -4.5744968,89.55482 h 0.5291697 v 11.79782 H -4.5744968 V 95.38 89.55482"
         id="path21402" />
    </g>
    <g
       transform="translate(68.011239,-102.91733)"
       id="g1202"
       inkscape:export-filename="C:\Users\sirro\Minetest\minetest-5.4.0-win64\games\space_crash\mods\sc_env\textures\sc_env_glass_framed.png"
       inkscape:export-xdpi="96"
       inkscape:export-ydpi="96" />
  </g>
</svg>
