<?xml version="1.0" encoding="UTF-8" standalone="no"?>
<!-- Created with Inkscape (http://www.inkscape.org/) -->

<svg
   xmlns:dc="http://purl.org/dc/elements/1.1/"
   xmlns:cc="http://creativecommons.org/ns#"
   xmlns:rdf="http://www.w3.org/1999/02/22-rdf-syntax-ns#"
   xmlns:svg="http://www.w3.org/2000/svg"
   xmlns="http://www.w3.org/2000/svg"
   xmlns:sodipodi="http://sodipodi.sourceforge.net/DTD/sodipodi-0.dtd"
   xmlns:inkscape="http://www.inkscape.org/namespaces/inkscape"
   width="102.69195mm"
   height="19.206097mm"
   viewBox="0 0 102.69195 19.206097"
   version="1.1"
   id="svg2395"
   inkscape:version="0.92.4 (5da689c313, 2019-01-14)"
   sodipodi:docname="Metal_Blocks.svg">
  <defs
     id="defs2389" />
  <sodipodi:namedview
     id="base"
     pagecolor="#ffffff"
     bordercolor="#666666"
     borderopacity="1.0"
     inkscape:pageopacity="0.0"
     inkscape:pageshadow="2"
     inkscape:zoom="4.6780348"
     inkscape:cx="144.9817"
     inkscape:cy="-13.764824"
     inkscape:document-units="mm"
     inkscape:current-layer="layer1"
     showgrid="false"
     inkscape:window-width="2160"
     inkscape:window-height="1346"
     inkscape:window-x="-11"
     inkscape:window-y="-11"
     inkscape:window-maximized="1" />
  <metadata
     id="metadata2392">
    <rdf:RDF>
      <cc:Work
         rdf:about="">
        <dc:format>image/svg+xml</dc:format>
        <dc:type
           rdf:resource="http://purl.org/dc/dcmitype/StillImage" />
        <dc:title />
      </cc:Work>
    </rdf:RDF>
  </metadata>
  <g
     inkscape:label="Layer 1"
     inkscape:groupmode="layer"
     id="layer1"
     transform="translate(-6.0330486,-5.196464)">
    <path
       style="fill:#b4c6c7;stroke:none;stroke-width:0.26458332"
       inkscape:connector-curvature="0"
       id="path820-7"
       d="m 21.753626,6.967778 -0.02646,0.02684 q -0.211667,0.214688 -0.211667,0.536726 0,0.335452 0.238125,0.57698 0.224896,0.228107 0.555625,0.228107 0.3175,0 0.529167,-0.187854 l 0.03969,-0.04025 q 0.224896,-0.241527 0.224896,-0.576979 0,-0.335455 -0.224896,-0.563563 -0.224895,-0.241527 -0.568854,-0.241527 -0.330729,0 -0.555625,0.241527 M 21.06571,6.189532 h 2.69875 v 4.750025 L 11.911129,22.962216 H 7.0957086 V 20.359095 L 21.06571,6.189525 m -4.815421,0 h 2.87073 L 7.0957086,18.386626 v -2.91174 L 16.250289,6.189525 M 8.5509186,20.681132 q -0.3175,0 -0.52917,0.214688 l -0.0265,0.02684 q -0.23812,0.228111 -0.23812,0.563563 0,0.335454 0.23812,0.576982 0.2249,0.228108 0.55563,0.228108 0.34396,0 0.56885,-0.228108 l 0.0397,-0.04026 q 0.18521,-0.228108 0.18521,-0.536725 0,-0.335452 -0.2249,-0.563563 -0.22489,-0.241525 -0.56885,-0.241525"
       inkscape:export-filename="C:\Users\Rob\Minetest\minetest-5.0.1-win64\textures\Kenney\default_gold_block.png"
       inkscape:export-xdpi="64.901405"
       inkscape:export-ydpi="64.901405" />
    <path
       sodipodi:nodetypes="ccccc"
       style="fill:#ffc400;fill-opacity:1;stroke:none;stroke-width:0.26458332"
       inkscape:connector-curvature="0"
       id="path822-9"
       d="M 6.0330486,5.733193 H 24.289314 V 23.981881 H 6.0330486 V 5.733193"
       inkscape:export-filename="C:\Users\Rob\Minetest\minetest-5.0.1-win64\textures\Kenney\default_gold_block.png"
       inkscape:export-xdpi="64.901405"
       inkscape:export-ydpi="64.901405" />
    <path
       d="m 22.878105,20.922657 q 0.224896,0.228111 0.224896,0.563563 0,0.335454 -0.224896,0.576982 -0.224895,0.228108 -0.568854,0.228108 -0.330729,0 -0.555625,-0.228108 l -0.03969,-0.04026 q -0.198438,-0.228108 -0.198438,-0.536725 0,-0.335452 0.238125,-0.563563 0.224896,-0.241525 0.555625,-0.241525 0.3175,0 0.529167,0.201271 l 0.03969,0.04025 M 21.753626,6.967778 q 0.224896,-0.241527 0.555625,-0.241527 0.343959,0 0.568854,0.241527 0.224896,0.228108 0.224896,0.563563 0,0.335452 -0.224896,0.576979 l -0.03969,0.04025 q -0.211667,0.187854 -0.529167,0.187854 -0.330729,0 -0.555625,-0.228107 -0.238125,-0.241528 -0.238125,-0.57698 0,-0.322038 0.211667,-0.536726 l 0.02646,-0.02684 M 9.1462286,6.994611 q 0.19844,0.214688 0.19844,0.536726 0,0.335452 -0.2249,0.576979 -0.22489,0.228108 -0.56885,0.228108 -0.3175,0 -0.52917,-0.201271 l -0.0265,-0.02684 q -0.23812,-0.241527 -0.23812,-0.576979 0,-0.335455 0.23812,-0.563563 0.2249,-0.241527 0.55563,-0.241527 0.34396,0 0.56885,0.241527 l 0.0265,0.02684 m -0.59531,13.686517 q 0.34396,0 0.56885,0.241525 0.2249,0.228111 0.2249,0.563563 0,0.308617 -0.18521,0.536725 l -0.0397,0.04026 q -0.22489,0.228108 -0.56885,0.228108 -0.33073,0 -0.55563,-0.228108 -0.23812,-0.241528 -0.23812,-0.576982 0,-0.335452 0.23812,-0.563563 l 0.0265,-0.02684 q 0.21167,-0.214688 0.52917,-0.214688"
       id="path2224"
       inkscape:connector-curvature="0"
       style="fill:#fffbec;fill-opacity:1;stroke:none;stroke-width:0.26458332"
       inkscape:export-filename="C:\Users\Rob\Minetest\minetest-5.0.1-win64\textures\Kenney\default_gold_block.png"
       inkscape:export-xdpi="64.901405"
       inkscape:export-ydpi="64.901405" />
    <path
       style="fill:#f0b900;fill-opacity:1;stroke:none;stroke-width:0.26458332"
       inkscape:connector-curvature="0"
       id="path824-7"
       d="m 22.878105,20.922657 q 0.224896,0.228111 0.224896,0.563563 0,0.335454 -0.224896,0.576982 -0.224895,0.228108 -0.568854,0.228108 -0.330729,0 -0.555625,-0.228108 l -0.03969,-0.04026 q -0.198438,-0.228108 -0.198438,-0.536725 0,-0.335452 0.238125,-0.563563 0.224896,-0.241525 0.555625,-0.241525 0.3175,0 0.529167,0.201271 l 0.03969,0.04025 M 21.753626,6.967778 q 0.224896,-0.241527 0.555625,-0.241527 0.343959,0 0.568854,0.241527 0.224896,0.228108 0.224896,0.563563 0,0.335452 -0.224896,0.576979 l -0.03969,0.04025 q -0.211667,0.187854 -0.529167,0.187854 -0.330729,0 -0.555625,-0.228107 -0.238125,-0.241528 -0.238125,-0.57698 0,-0.322038 0.211667,-0.536726 l 0.02646,-0.02684 M 9.1462286,6.994611 q 0.19844,0.214688 0.19844,0.536726 0,0.335452 -0.2249,0.576979 -0.22489,0.228108 -0.56885,0.228108 -0.3175,0 -0.52917,-0.201271 l -0.0265,-0.02684 q -0.23812,-0.241527 -0.23812,-0.576979 0,-0.335455 0.23812,-0.563563 0.2249,-0.241527 0.55563,-0.241527 0.34396,0 0.56885,0.241527 l 0.0265,0.02684 m -0.59531,13.686517 q 0.34396,0 0.56885,0.241525 0.2249,0.228111 0.2249,0.563563 0,0.308617 -0.18521,0.536725 l -0.0397,0.04026 q -0.22489,0.228108 -0.56885,0.228108 -0.33073,0 -0.55563,-0.228108 -0.23812,-0.241528 -0.23812,-0.576982 0,-0.335452 0.23812,-0.563563 l 0.0265,-0.02684 q 0.21167,-0.214688 0.52917,-0.214688"
       inkscape:export-filename="C:\Users\Rob\Minetest\minetest-5.0.1-win64\textures\Kenney\default_gold_block.png"
       inkscape:export-xdpi="64.901405"
       inkscape:export-ydpi="64.901405" />
    <path
       style="fill:#ffd03b;fill-opacity:1;stroke:none;stroke-width:0.26458332"
       inkscape:connector-curvature="0"
       id="path826-5"
       d="M 6.0330486,5.733193 V 5.196464 H 24.81848 V 23.981881 H 24.289314 V 5.733193 H 6.0330486"
       inkscape:export-filename="C:\Users\Rob\Minetest\minetest-5.0.1-win64\textures\Kenney\default_gold_block.png"
       inkscape:export-xdpi="64.901405"
       inkscape:export-ydpi="64.901405" />
    <path
       d="m 24.81848,23.445155 v 0.536726 H 6.0330486 V 5.196464 h 0.52917 V 23.445155 H 24.81848"
       id="path1743"
       inkscape:connector-curvature="0"
       style="fill:#ffd03b;fill-opacity:1;stroke:none;stroke-width:0.26458332"
       inkscape:export-filename="C:\Users\Rob\Minetest\minetest-5.0.1-win64\textures\Kenney\default_gold_block.png"
       inkscape:export-xdpi="64.901405"
       inkscape:export-ydpi="64.901405" />
    <path
       style="fill:#ffffff;fill-opacity:1;stroke:none;stroke-width:0.26458332"
       inkscape:connector-curvature="0"
       id="path2203"
       d="m 22.838418,8.148574 0.03969,-0.04025 q 0.224896,-0.241528 0.224896,-0.57698 0,-0.335454 -0.224896,-0.563562 -0.224895,-0.241528 -0.568854,-0.241528 -0.330729,0 -0.555625,0.241528 l -0.02646,0.02684 q -0.211667,0.214688 -0.211667,0.536726 0,0.335452 0.238125,0.576979 0.224896,0.228108 0.555625,0.228108 0.3175,0 0.529167,-0.187854 m -6.58813,-1.959049 h 2.87073 L 7.0957086,18.386626 v -2.91174 L 16.250289,6.189525 M 9.1197686,20.922657 q -0.22489,-0.241525 -0.56885,-0.241525 -0.3175,0 -0.52917,0.214688 l -0.0265,0.02684 q -0.23812,0.228111 -0.23812,0.563563 0,0.335454 0.23812,0.576982 0.2249,0.228108 0.55563,0.228108 0.34396,0 0.56885,-0.228108 l 0.0397,-0.04026 q 0.18521,-0.228108 0.18521,-0.536725 0,-0.335452 -0.2249,-0.563563 m -2.02406,2.039559 V 20.359095 L 21.06568,6.189525 h 2.69875 V 10.93955 L 11.911129,22.962216 H 7.0957086"
       inkscape:export-filename="C:\Users\Rob\Minetest\minetest-5.0.1-win64\textures\Kenney\default_gold_block.png"
       inkscape:export-xdpi="64.901405"
       inkscape:export-ydpi="64.901405" />
    <path
       d="m 22.838418,8.148574 0.03969,-0.04025 q 0.224896,-0.241528 0.224896,-0.57698 0,-0.335454 -0.224896,-0.563562 -0.224895,-0.241528 -0.568854,-0.241528 -0.330729,0 -0.555625,0.241528 l -0.02646,0.02684 q -0.211667,0.214688 -0.211667,0.536726 0,0.335452 0.238125,0.576979 0.224896,0.228108 0.555625,0.228108 0.3175,0 0.529167,-0.187854 m -6.58813,-1.959049 h 2.87073 L 7.0957086,18.386626 v -2.91174 L 16.250289,6.189525 M 9.1197686,20.922657 q -0.22489,-0.241525 -0.56885,-0.241525 -0.3175,0 -0.52917,0.214688 l -0.0265,0.02684 q -0.23812,0.228111 -0.23812,0.563563 0,0.335454 0.23812,0.576982 0.2249,0.228108 0.55563,0.228108 0.34396,0 0.56885,-0.228108 l 0.0397,-0.04026 q 0.18521,-0.228108 0.18521,-0.536725 0,-0.335452 -0.2249,-0.563563 m -2.02406,2.039559 V 20.359095 L 21.06568,6.189525 h 2.69875 V 10.93955 L 11.911129,22.962216 H 7.0957086"
       id="path2201"
       inkscape:connector-curvature="0"
       style="fill:#ffd03b;fill-opacity:1;stroke:none;stroke-width:0.26458332"
       inkscape:export-filename="C:\Users\Rob\Minetest\minetest-5.0.1-win64\textures\Kenney\default_gold_block.png"
       inkscape:export-xdpi="64.901405"
       inkscape:export-ydpi="64.901405" />
    <path
       inkscape:export-ydpi="64.901405"
       inkscape:export-xdpi="64.901405"
       inkscape:export-filename="C:\Users\Rob\Minetest\minetest-5.0.1-win64\textures\Kenney\default_steel_block.png"
       d="m 42.847136,7.070926 -0.02646,0.02684 q -0.211666,0.214688 -0.211666,0.536726 0,0.335452 0.238125,0.576979 0.224895,0.2281083 0.555625,0.2281083 0.3175,0 0.529166,-0.1878543 l 0.03969,-0.04025 q 0.224896,-0.241527 0.224896,-0.576979 0,-0.335455 -0.224896,-0.563563 -0.224896,-0.241528 -0.568854,-0.241528 -0.33073,0 -0.555625,0.241528 M 42.159219,6.29268 h 2.69875 v 4.750025 L 33.004636,23.065364 h -4.815417 v -2.603122 l 13.97,-14.169569 m -4.815417,0 h 2.870729 L 28.189219,18.489774 v -2.91174 L 37.343802,6.292673 M 29.644427,20.78428 q -0.3175,0 -0.529166,0.214688 l -0.02646,0.02684 q -0.238125,0.22811 -0.238125,0.563562 0,0.335455 0.238125,0.576983 0.224896,0.228107 0.555625,0.228107 0.343959,0 0.568854,-0.228107 l 0.03969,-0.04026 q 0.185208,-0.228108 0.185208,-0.536726 0,-0.335452 -0.224896,-0.563562 -0.224895,-0.241525 -0.568854,-0.241525"
       id="path2226"
       inkscape:connector-curvature="0"
       style="fill:#b4c6c7;stroke:none;stroke-width:0.26458332" />
    <path
       inkscape:export-ydpi="64.901405"
       inkscape:export-xdpi="64.901405"
       inkscape:export-filename="C:\Users\Rob\Minetest\minetest-5.0.1-win64\textures\Kenney\default_steel_block.png"
       d="M 27.126546,5.836341 H 45.382823 V 24.085028 H 27.126546 V 5.836341"
       id="path2228"
       inkscape:connector-curvature="0"
       style="fill:#c7cce0;fill-opacity:1;stroke:none;stroke-width:0.26458332"
       sodipodi:nodetypes="ccccc" />
    <path
       inkscape:export-ydpi="64.901405"
       inkscape:export-xdpi="64.901405"
       inkscape:export-filename="C:\Users\Rob\Minetest\minetest-5.0.1-win64\textures\Kenney\default_steel_block.png"
       style="fill:#fffbec;fill-opacity:1;stroke:none;stroke-width:0.26458332"
       inkscape:connector-curvature="0"
       id="path2230"
       d="m 43.971615,21.025805 q 0.224896,0.22811 0.224896,0.563562 0,0.335455 -0.224896,0.576983 -0.224896,0.228107 -0.568854,0.228107 -0.33073,0 -0.555625,-0.228107 l -0.03969,-0.04026 q -0.198437,-0.228108 -0.198437,-0.536726 0,-0.335452 0.238125,-0.563562 0.224895,-0.241525 0.555625,-0.241525 0.3175,0 0.529166,0.201271 l 0.03969,0.04025 M 42.847136,7.070926 q 0.224895,-0.241527 0.555625,-0.241527 0.343958,0 0.568854,0.241527 0.224896,0.228108 0.224896,0.563563 0,0.335452 -0.224896,0.576979 l -0.03969,0.04025 q -0.211666,0.1878543 -0.529166,0.1878543 -0.33073,0 -0.555625,-0.2281083 -0.238125,-0.241527 -0.238125,-0.576979 0,-0.322038 0.211666,-0.536726 l 0.02646,-0.02684 m -12.607396,0.02684 q 0.198437,0.214688 0.198437,0.536726 0,0.335452 -0.224896,0.576979 -0.224895,0.2281083 -0.568854,0.2281083 -0.3175,0 -0.529166,-0.2012713 L 29.0888,8.211461 q -0.238125,-0.241527 -0.238125,-0.576979 0,-0.335455 0.238125,-0.563563 0.224896,-0.241528 0.555625,-0.241528 0.343959,0 0.568854,0.241528 l 0.02646,0.02684 m -0.595312,13.686517 q 0.343959,0 0.568854,0.241525 0.224896,0.22811 0.224896,0.563562 0,0.308618 -0.185208,0.536726 l -0.03969,0.04026 q -0.224895,0.228107 -0.568854,0.228107 -0.330729,0 -0.555625,-0.228107 -0.238125,-0.241528 -0.238125,-0.576983 0,-0.335452 0.238125,-0.563562 l 0.02646,-0.02684 q 0.211666,-0.214688 0.529166,-0.214688" />
    <path
       inkscape:export-ydpi="64.901405"
       inkscape:export-xdpi="64.901405"
       inkscape:export-filename="C:\Users\Rob\Minetest\minetest-5.0.1-win64\textures\Kenney\default_steel_block.png"
       d="m 43.971615,21.025805 q 0.224896,0.22811 0.224896,0.563562 0,0.335455 -0.224896,0.576983 -0.224896,0.228107 -0.568854,0.228107 -0.33073,0 -0.555625,-0.228107 l -0.03969,-0.04026 q -0.198437,-0.228108 -0.198437,-0.536726 0,-0.335452 0.238125,-0.563562 0.224895,-0.241525 0.555625,-0.241525 0.3175,0 0.529166,0.201271 l 0.03969,0.04025 M 42.847136,7.070926 q 0.224895,-0.241527 0.555625,-0.241527 0.343958,0 0.568854,0.241527 0.224896,0.228108 0.224896,0.563563 0,0.335452 -0.224896,0.576979 l -0.03969,0.04025 q -0.211666,0.1878543 -0.529166,0.1878543 -0.33073,0 -0.555625,-0.2281083 -0.238125,-0.241527 -0.238125,-0.576979 0,-0.322038 0.211666,-0.536726 l 0.02646,-0.02684 m -12.607396,0.02684 q 0.198437,0.214688 0.198437,0.536726 0,0.335452 -0.224896,0.576979 -0.224895,0.2281083 -0.568854,0.2281083 -0.3175,0 -0.529166,-0.2012713 L 29.0888,8.211461 q -0.238125,-0.241527 -0.238125,-0.576979 0,-0.335455 0.238125,-0.563563 0.224896,-0.241528 0.555625,-0.241528 0.343959,0 0.568854,0.241528 l 0.02646,0.02684 m -0.595312,13.686517 q 0.343959,0 0.568854,0.241525 0.224896,0.22811 0.224896,0.563562 0,0.308618 -0.185208,0.536726 l -0.03969,0.04026 q -0.224895,0.228107 -0.568854,0.228107 -0.330729,0 -0.555625,-0.228107 -0.238125,-0.241528 -0.238125,-0.576983 0,-0.335452 0.238125,-0.563562 l 0.02646,-0.02684 q 0.211666,-0.214688 0.529166,-0.214688"
       id="path2232"
       inkscape:connector-curvature="0"
       style="fill:#b7bdd7;fill-opacity:1;stroke:none;stroke-width:0.26458332" />
    <path
       inkscape:export-ydpi="64.901405"
       inkscape:export-xdpi="64.901405"
       inkscape:export-filename="C:\Users\Rob\Minetest\minetest-5.0.1-win64\textures\Kenney\default_steel_block.png"
       d="M 27.126546,5.836341 V 5.299612 H 45.91199 V 24.085028 H 45.382823 V 5.836341 H 27.126546"
       id="path2234"
       inkscape:connector-curvature="0"
       style="fill:#cfd4ea;fill-opacity:1;stroke:none;stroke-width:0.26458332" />
    <path
       inkscape:export-ydpi="64.901405"
       inkscape:export-xdpi="64.901405"
       inkscape:export-filename="C:\Users\Rob\Minetest\minetest-5.0.1-win64\textures\Kenney\default_steel_block.png"
       style="fill:#cfd4ea;fill-opacity:1;stroke:none;stroke-width:0.26458332"
       inkscape:connector-curvature="0"
       id="path2236"
       d="m 45.91199,23.548303 v 0.536725 H 27.126546 V 5.299612 h 0.529167 V 23.548303 H 45.91199" />
    <path
       inkscape:export-ydpi="64.901405"
       inkscape:export-xdpi="64.901405"
       inkscape:export-filename="C:\Users\Rob\Minetest\minetest-5.0.1-win64\textures\Kenney\default_steel_block.png"
       d="m 43.931927,8.251722 0.03969,-0.04025 q 0.224896,-0.241528 0.224896,-0.57698 0,-0.335454 -0.224896,-0.563562 -0.224896,-0.241528 -0.568854,-0.241528 -0.33073,0 -0.555625,0.241528 l -0.02646,0.02684 q -0.211666,0.214688 -0.211666,0.536726 0,0.335452 0.238125,0.576979 0.224895,0.228108 0.555625,0.228108 0.3175,0 0.529166,-0.187854 M 37.343802,6.29268 h 2.870729 L 28.189219,18.489774 v -2.91174 l 9.154583,-9.285361 m -7.130521,14.733132 q -0.224895,-0.241525 -0.568854,-0.241525 -0.3175,0 -0.529166,0.214688 l -0.02646,0.02684 q -0.238125,0.22811 -0.238125,0.563562 0,0.335455 0.238125,0.576983 0.224896,0.228107 0.555625,0.228107 0.343959,0 0.568854,-0.228107 l 0.03969,-0.04026 q 0.185208,-0.228108 0.185208,-0.536726 0,-0.335452 -0.224896,-0.563562 m -2.024063,2.039559 v -2.603122 l 13.97,-14.169569 h 2.69875 v 4.750025 L 33.004636,23.065364 h -4.815417"
       id="path2238"
       inkscape:connector-curvature="0"
       style="fill:#ffffff;fill-opacity:1;stroke:none;stroke-width:0.26458332" />
    <path
       inkscape:export-ydpi="64.901405"
       inkscape:export-xdpi="64.901405"
       inkscape:export-filename="C:\Users\Rob\Minetest\minetest-5.0.1-win64\textures\Kenney\default_steel_block.png"
       style="fill:#cfd4ea;fill-opacity:1;stroke:none;stroke-width:0.26458332"
       inkscape:connector-curvature="0"
       id="path2240"
       d="m 43.931927,8.251722 0.03969,-0.04025 q 0.224896,-0.241528 0.224896,-0.57698 0,-0.335454 -0.224896,-0.563562 -0.224896,-0.241528 -0.568854,-0.241528 -0.33073,0 -0.555625,0.241528 l -0.02646,0.02684 q -0.211666,0.214688 -0.211666,0.536726 0,0.335452 0.238125,0.576979 0.224895,0.228108 0.555625,0.228108 0.3175,0 0.529166,-0.187854 M 37.343802,6.29268 h 2.870729 L 28.189219,18.489774 v -2.91174 l 9.154583,-9.285361 m -7.130521,14.733132 q -0.224895,-0.241525 -0.568854,-0.241525 -0.3175,0 -0.529166,0.214688 l -0.02646,0.02684 q -0.238125,0.22811 -0.238125,0.563562 0,0.335455 0.238125,0.576983 0.224896,0.228107 0.555625,0.228107 0.343959,0 0.568854,-0.228107 l 0.03969,-0.04026 q 0.185208,-0.228108 0.185208,-0.536726 0,-0.335452 -0.224896,-0.563562 m -2.024063,2.039559 v -2.603122 l 13.97,-14.169569 h 2.69875 v 4.750025 L 33.004636,23.065364 h -4.815417" />
    <path
       style="fill:#b4c6c7;stroke:none;stroke-width:0.26458332"
       inkscape:connector-curvature="0"
       id="path2271"
       d="m 64.581969,7.362669 -0.02646,0.02684 q -0.211666,0.214688 -0.211666,0.536726 0,0.335452 0.238125,0.5769792 0.224895,0.2281079 0.555625,0.2281079 0.3175,0 0.529166,-0.1878542 l 0.03969,-0.040254 q 0.224896,-0.2415279 0.224896,-0.5769799 0,-0.335454 -0.224896,-0.563562 -0.224896,-0.241528 -0.568854,-0.241528 -0.33073,0 -0.555625,0.241528 M 63.894052,6.584418 h 2.69875 v 4.750025 L 54.739469,23.357107 h -4.815417 v -2.603122 l 13.97,-14.16957 m -4.815417,0 h 2.870729 L 49.924052,18.781516 V 15.869777 L 59.078635,6.584415 M 51.37926,21.076023 q -0.3175,0 -0.529166,0.214688 l -0.02646,0.02684 q -0.238125,0.22811 -0.238125,0.563562 0,0.335455 0.238125,0.576982 0.224896,0.228108 0.555625,0.228108 0.343959,0 0.568854,-0.228108 l 0.03969,-0.04026 q 0.185208,-0.228108 0.185208,-0.536726 0,-0.335452 -0.224896,-0.563562 -0.224895,-0.241525 -0.568854,-0.241525"
       inkscape:export-filename="C:\Users\Rob\Minetest\minetest-5.0.1-win64\textures\Kenney\default_copper_block.png"
       inkscape:export-xdpi="64.901405"
       inkscape:export-ydpi="64.901405" />
    <path
       sodipodi:nodetypes="ccccc"
       style="fill:#d69e6a;fill-opacity:1;stroke:none;stroke-width:0.26458332"
       inkscape:connector-curvature="0"
       id="path2273"
       d="M 48.861379,6.128083 H 67.117656 V 24.376771 H 48.861379 V 6.128083"
       inkscape:export-filename="C:\Users\Rob\Minetest\minetest-5.0.1-win64\textures\Kenney\default_copper_block.png"
       inkscape:export-xdpi="64.901405"
       inkscape:export-ydpi="64.901405" />
    <path
       d="m 65.706448,21.317548 q 0.224896,0.22811 0.224896,0.563562 0,0.335455 -0.224896,0.576982 -0.224896,0.228108 -0.568854,0.228108 -0.33073,0 -0.555625,-0.228108 l -0.03969,-0.04026 q -0.198437,-0.228108 -0.198437,-0.536726 0,-0.335452 0.238125,-0.563562 0.224895,-0.241525 0.555625,-0.241525 0.3175,0 0.529166,0.201271 l 0.03969,0.04025 M 64.581969,7.362669 q 0.224895,-0.241528 0.555625,-0.241528 0.343958,0 0.568854,0.241528 0.224896,0.228108 0.224896,0.563562 0,0.335452 -0.224896,0.5769799 l -0.03969,0.040254 q -0.211666,0.1878542 -0.529166,0.1878542 -0.33073,0 -0.555625,-0.2281079 -0.238125,-0.2415272 -0.238125,-0.5769792 0,-0.322038 0.211666,-0.536726 l 0.02646,-0.02684 m -12.607395,0.02684 q 0.198437,0.214688 0.198437,0.536725 0,0.335452 -0.224896,0.5769799 -0.224895,0.2281079 -0.568854,0.2281079 -0.3175,0 -0.529166,-0.2012712 l -0.02646,-0.026837 Q 50.585509,8.261683 50.585509,7.926231 q 0,-0.335455 0.238125,-0.563562 0.224896,-0.241528 0.555625,-0.241528 0.343959,0 0.568854,0.241528 l 0.02646,0.02684 M 51.37926,21.076026 q 0.343959,0 0.568854,0.241525 0.224896,0.22811 0.224896,0.563562 0,0.308618 -0.185208,0.536726 l -0.03969,0.04026 q -0.224895,0.228108 -0.568854,0.228108 -0.330729,0 -0.555625,-0.228108 -0.238125,-0.241527 -0.238125,-0.576982 0,-0.335452 0.238125,-0.563562 l 0.02646,-0.02684 q 0.211666,-0.214688 0.529166,-0.214688"
       id="path2275"
       inkscape:connector-curvature="0"
       style="fill:#fffbec;fill-opacity:1;stroke:none;stroke-width:0.26458332"
       inkscape:export-filename="C:\Users\Rob\Minetest\minetest-5.0.1-win64\textures\Kenney\default_copper_block.png"
       inkscape:export-xdpi="64.901405"
       inkscape:export-ydpi="64.901405" />
    <path
       style="fill:#ca925d;fill-opacity:1;stroke:none;stroke-width:0.26458332"
       inkscape:connector-curvature="0"
       id="path2277"
       d="m 65.706448,21.317548 q 0.224896,0.22811 0.224896,0.563562 0,0.335455 -0.224896,0.576982 -0.224896,0.228108 -0.568854,0.228108 -0.33073,0 -0.555625,-0.228108 l -0.03969,-0.04026 q -0.198437,-0.228108 -0.198437,-0.536726 0,-0.335452 0.238125,-0.563562 0.224895,-0.241525 0.555625,-0.241525 0.3175,0 0.529166,0.201271 l 0.03969,0.04025 M 64.581969,7.362669 q 0.224895,-0.241528 0.555625,-0.241528 0.343958,0 0.568854,0.241528 0.224896,0.228108 0.224896,0.563562 0,0.335452 -0.224896,0.5769799 l -0.03969,0.040254 q -0.211666,0.1878542 -0.529166,0.1878542 -0.33073,0 -0.555625,-0.2281079 -0.238125,-0.2415272 -0.238125,-0.5769792 0,-0.322038 0.211666,-0.536726 l 0.02646,-0.02684 m -12.607395,0.02684 q 0.198437,0.214688 0.198437,0.536725 0,0.335452 -0.224896,0.5769799 -0.224895,0.2281079 -0.568854,0.2281079 -0.3175,0 -0.529166,-0.2012712 l -0.02646,-0.026837 Q 50.585509,8.261683 50.585509,7.926231 q 0,-0.335455 0.238125,-0.563562 0.224896,-0.241528 0.555625,-0.241528 0.343959,0 0.568854,0.241528 l 0.02646,0.02684 M 51.37926,21.076026 q 0.343959,0 0.568854,0.241525 0.224896,0.22811 0.224896,0.563562 0,0.308618 -0.185208,0.536726 l -0.03969,0.04026 q -0.224895,0.228108 -0.568854,0.228108 -0.330729,0 -0.555625,-0.228108 -0.238125,-0.241527 -0.238125,-0.576982 0,-0.335452 0.238125,-0.563562 l 0.02646,-0.02684 q 0.211666,-0.214688 0.529166,-0.214688"
       inkscape:export-filename="C:\Users\Rob\Minetest\minetest-5.0.1-win64\textures\Kenney\default_copper_block.png"
       inkscape:export-xdpi="64.901405"
       inkscape:export-ydpi="64.901405" />
    <path
       style="fill:#d6a77b;fill-opacity:1;stroke:none;stroke-width:0.26458332"
       inkscape:connector-curvature="0"
       id="path2279"
       d="M 48.861379,6.128083 V 5.591355 H 67.646823 V 24.376771 H 67.117656 V 6.128083 H 48.861379"
       inkscape:export-filename="C:\Users\Rob\Minetest\minetest-5.0.1-win64\textures\Kenney\default_copper_block.png"
       inkscape:export-xdpi="64.901405"
       inkscape:export-ydpi="64.901405" />
    <path
       d="m 67.646823,23.840045 v 0.536726 H 48.861379 V 5.591355 h 0.529167 v 18.24869 h 18.256277"
       id="path2281"
       inkscape:connector-curvature="0"
       style="fill:#d6a77b;fill-opacity:1;stroke:none;stroke-width:0.26458332"
       inkscape:export-filename="C:\Users\Rob\Minetest\minetest-5.0.1-win64\textures\Kenney\default_copper_block.png"
       inkscape:export-xdpi="64.901405"
       inkscape:export-ydpi="64.901405" />
    <path
       style="fill:#ffffff;fill-opacity:1;stroke:none;stroke-width:0.26458332"
       inkscape:connector-curvature="0"
       id="path2283"
       d="m 65.66676,8.5434646 0.03969,-0.040254 q 0.224896,-0.2415276 0.224896,-0.5769796 0,-0.335455 -0.224896,-0.563562 -0.224896,-0.241528 -0.568854,-0.241528 -0.33073,0 -0.555625,0.241528 l -0.02646,0.02684 q -0.211666,0.214688 -0.211666,0.536725 0,0.335452 0.238125,0.5769799 0.224895,0.2281079 0.555625,0.2281079 0.3175,0 0.529166,-0.1878542 M 59.078636,6.584419 h 2.870729 L 49.924052,18.781516 v -2.911739 l 9.154583,-9.285361 m -7.130521,14.733132 q -0.224895,-0.241525 -0.568854,-0.241525 -0.3175,0 -0.529166,0.214688 l -0.02646,0.02684 q -0.238125,0.22811 -0.238125,0.563562 0,0.335455 0.238125,0.576982 0.224896,0.228108 0.555625,0.228108 0.343959,0 0.568854,-0.228108 l 0.03969,-0.04026 q 0.185208,-0.228108 0.185208,-0.536726 0,-0.335452 -0.224896,-0.563562 m -2.024062,2.039559 v -2.603122 l 13.97,-14.16957 h 2.69875 V 11.33444 L 54.739469,23.357107 h -4.815417"
       inkscape:export-filename="C:\Users\Rob\Minetest\minetest-5.0.1-win64\textures\Kenney\default_copper_block.png"
       inkscape:export-xdpi="64.901405"
       inkscape:export-ydpi="64.901405" />
    <path
       d="m 65.66676,8.5434646 0.03969,-0.040254 q 0.224896,-0.2415276 0.224896,-0.5769796 0,-0.335455 -0.224896,-0.563562 -0.224896,-0.241528 -0.568854,-0.241528 -0.33073,0 -0.555625,0.241528 l -0.02646,0.02684 q -0.211666,0.214688 -0.211666,0.536725 0,0.335452 0.238125,0.5769799 0.224895,0.2281079 0.555625,0.2281079 0.3175,0 0.529166,-0.1878542 M 59.078636,6.584419 h 2.870729 L 49.924052,18.781516 v -2.911739 l 9.154583,-9.285361 m -7.130521,14.733132 q -0.224895,-0.241525 -0.568854,-0.241525 -0.3175,0 -0.529166,0.214688 l -0.02646,0.02684 q -0.238125,0.22811 -0.238125,0.563562 0,0.335455 0.238125,0.576982 0.224896,0.228108 0.555625,0.228108 0.343959,0 0.568854,-0.228108 l 0.03969,-0.04026 q 0.185208,-0.228108 0.185208,-0.536726 0,-0.335452 -0.224896,-0.563562 m -2.024062,2.039559 v -2.603122 l 13.97,-14.16957 h 2.69875 V 11.33444 L 54.739469,23.357107 h -4.815417"
       id="path2285"
       inkscape:connector-curvature="0"
       style="opacity:1;fill:#d6a77b;fill-opacity:1;stroke:none;stroke-width:0.26458332"
       inkscape:export-filename="C:\Users\Rob\Minetest\minetest-5.0.1-win64\textures\Kenney\default_copper_block.png"
       inkscape:export-xdpi="64.901405"
       inkscape:export-ydpi="64.901405" />
    <path
       inkscape:export-ydpi="64.901405"
       inkscape:export-xdpi="64.901405"
       inkscape:export-filename="C:\Users\Rob\Minetest\minetest-5.0.1-win64\textures\Kenney\default_bronze_block.png"
       d="M 84.92766,7.28531 84.9012,7.31215 q -0.211666,0.214688 -0.211666,0.536726 0,0.335452 0.238125,0.576979 0.224895,0.2281082 0.555625,0.2281082 0.3175,0 0.529166,-0.1878541 l 0.03969,-0.040254 q 0.224896,-0.241528 0.224896,-0.57698 0,-0.335454 -0.224896,-0.563562 -0.224896,-0.241528 -0.568854,-0.241528 -0.33073,0 -0.555625,0.241528 m -0.687918,-0.778253 h 2.69875 V 11.257085 L 75.08516,23.279748 h -4.815417 v -2.603122 l 13.97,-14.169569 m -4.815417,0 h 2.870729 L 70.269743,18.704158 v -2.91174 l 9.154583,-9.285361 m -7.699375,14.491607 q -0.3175,0 -0.529166,0.214688 l -0.02646,0.02684 q -0.238125,0.22811 -0.238125,0.563562 0,0.335455 0.238125,0.576982 0.224896,0.228108 0.555625,0.228108 0.343959,0 0.568854,-0.228108 l 0.03969,-0.04026 q 0.185208,-0.228108 0.185208,-0.536726 0,-0.335452 -0.224896,-0.563562 -0.224896,-0.241524 -0.568855,-0.241524"
       id="path2298"
       inkscape:connector-curvature="0"
       style="fill:#b4c6c7;stroke:none;stroke-width:0.26458332" />
    <path
       inkscape:export-ydpi="64.901405"
       inkscape:export-xdpi="64.901405"
       inkscape:export-filename="C:\Users\Rob\Minetest\minetest-5.0.1-win64\textures\Kenney\default_bronze_block.png"
       d="M 69.20707,6.050724 H 87.463347 V 24.299412 H 69.20707 V 6.050724"
       id="path2300"
       inkscape:connector-curvature="0"
       style="fill:#baaa8b;fill-opacity:1;stroke:none;stroke-width:0.26458332"
       sodipodi:nodetypes="ccccc" />
    <path
       inkscape:export-ydpi="64.901405"
       inkscape:export-xdpi="64.901405"
       inkscape:export-filename="C:\Users\Rob\Minetest\minetest-5.0.1-win64\textures\Kenney\default_bronze_block.png"
       style="fill:#fffbec;fill-opacity:1;stroke:none;stroke-width:0.26458332"
       inkscape:connector-curvature="0"
       id="path2302"
       d="m 86.052139,21.240189 q 0.224896,0.22811 0.224896,0.563562 0,0.335455 -0.224896,0.576982 -0.224896,0.228108 -0.568854,0.228108 -0.33073,0 -0.555625,-0.228108 l -0.03969,-0.04026 q -0.198437,-0.228108 -0.198437,-0.536726 0,-0.335452 0.238125,-0.563562 0.224895,-0.241525 0.555625,-0.241525 0.3175,0 0.529166,0.201271 l 0.03969,0.04025 M 84.92766,7.28531 q 0.224895,-0.241528 0.555625,-0.241528 0.343958,0 0.568854,0.241528 0.224896,0.228108 0.224896,0.563562 0,0.335452 -0.224896,0.57698 l -0.03969,0.040254 q -0.211666,0.1878541 -0.529166,0.1878541 -0.33073,0 -0.555625,-0.2281081 -0.238125,-0.241527 -0.238125,-0.576979 0,-0.322038 0.211666,-0.536726 l 0.02646,-0.02684 m -12.607396,0.02684 q 0.198437,0.214688 0.198437,0.536726 0,0.335452 -0.224896,0.576979 -0.224895,0.2281081 -0.568854,0.2281081 -0.3175,0 -0.529166,-0.2012712 l -0.02646,-0.026837 q -0.238125,-0.241528 -0.238125,-0.57698 0,-0.335454 0.238125,-0.563562 0.224896,-0.241528 0.555625,-0.241528 0.343959,0 0.568854,0.241528 l 0.02646,0.02684 M 71.724951,20.998667 q 0.343959,0 0.568854,0.241525 0.224896,0.22811 0.224896,0.563562 0,0.308618 -0.185208,0.536726 l -0.03969,0.04026 q -0.224895,0.228108 -0.568854,0.228108 -0.330729,0 -0.555625,-0.228108 -0.238125,-0.241527 -0.238125,-0.576982 0,-0.335452 0.238125,-0.563562 l 0.02646,-0.02684 q 0.211667,-0.214689 0.529167,-0.214689" />
    <path
       inkscape:export-ydpi="64.901405"
       inkscape:export-xdpi="64.901405"
       inkscape:export-filename="C:\Users\Rob\Minetest\minetest-5.0.1-win64\textures\Kenney\default_bronze_block.png"
       d="m 86.052139,21.240189 q 0.224896,0.22811 0.224896,0.563562 0,0.335455 -0.224896,0.576982 -0.224896,0.228108 -0.568854,0.228108 -0.33073,0 -0.555625,-0.228108 l -0.03969,-0.04026 q -0.198437,-0.228108 -0.198437,-0.536726 0,-0.335452 0.238125,-0.563562 0.224895,-0.241525 0.555625,-0.241525 0.3175,0 0.529166,0.201271 l 0.03969,0.04025 M 84.92766,7.28531 q 0.224895,-0.241528 0.555625,-0.241528 0.343958,0 0.568854,0.241528 0.224896,0.228108 0.224896,0.563562 0,0.335452 -0.224896,0.57698 l -0.03969,0.040254 q -0.211666,0.1878541 -0.529166,0.1878541 -0.33073,0 -0.555625,-0.2281081 -0.238125,-0.241527 -0.238125,-0.576979 0,-0.322038 0.211666,-0.536726 l 0.02646,-0.02684 m -12.607396,0.02684 q 0.198437,0.214688 0.198437,0.536726 0,0.335452 -0.224896,0.576979 -0.224895,0.2281081 -0.568854,0.2281081 -0.3175,0 -0.529166,-0.2012712 l -0.02646,-0.026837 q -0.238125,-0.241528 -0.238125,-0.57698 0,-0.335454 0.238125,-0.563562 0.224896,-0.241528 0.555625,-0.241528 0.343959,0 0.568854,0.241528 l 0.02646,0.02684 M 71.724951,20.998667 q 0.343959,0 0.568854,0.241525 0.224896,0.22811 0.224896,0.563562 0,0.308618 -0.185208,0.536726 l -0.03969,0.04026 q -0.224895,0.228108 -0.568854,0.228108 -0.330729,0 -0.555625,-0.228108 -0.238125,-0.241527 -0.238125,-0.576982 0,-0.335452 0.238125,-0.563562 l 0.02646,-0.02684 q 0.211667,-0.214689 0.529167,-0.214689"
       id="path2304"
       inkscape:connector-curvature="0"
       style="fill:#ae9e7e;fill-opacity:1;stroke:none;stroke-width:0.26458332" />
    <path
       inkscape:export-ydpi="64.901405"
       inkscape:export-xdpi="64.901405"
       inkscape:export-filename="C:\Users\Rob\Minetest\minetest-5.0.1-win64\textures\Kenney\default_bronze_block.png"
       d="M 69.20707,6.050724 V 5.513996 H 87.992514 V 24.299412 H 87.463347 V 6.050724 H 69.20707"
       id="path2306"
       inkscape:connector-curvature="0"
       style="fill:#c8b99c;fill-opacity:1;stroke:none;stroke-width:0.26458332" />
    <path
       inkscape:export-ydpi="64.901405"
       inkscape:export-xdpi="64.901405"
       inkscape:export-filename="C:\Users\Rob\Minetest\minetest-5.0.1-win64\textures\Kenney\default_bronze_block.png"
       style="fill:#c8b99c;fill-opacity:1;stroke:none;stroke-width:0.26458332"
       inkscape:connector-curvature="0"
       id="path2308"
       d="m 87.992514,23.762687 v 0.536725 H 69.20707 V 5.513996 h 0.529167 v 18.248691 h 18.256277" />
    <path
       inkscape:export-ydpi="64.901405"
       inkscape:export-xdpi="64.901405"
       inkscape:export-filename="C:\Users\Rob\Minetest\minetest-5.0.1-win64\textures\Kenney\default_bronze_block.png"
       d="m 86.012451,8.4661058 0.03969,-0.040254 q 0.224896,-0.241528 0.224896,-0.57698 0,-0.335454 -0.224896,-0.563562 -0.224896,-0.241528 -0.568854,-0.241528 -0.33073,0 -0.555625,0.241528 l -0.02646,0.02684 q -0.211666,0.214688 -0.211666,0.536726 0,0.335452 0.238125,0.576979 0.224895,0.228108 0.555625,0.228108 0.3175,0 0.529166,-0.1878541 M 79.424326,6.5070598 h 2.870729 L 70.269743,18.704158 v -2.91174 l 9.154583,-9.285361 m -7.130521,14.733132 q -0.224895,-0.241525 -0.568854,-0.241525 -0.3175,0 -0.529166,0.214688 l -0.02646,0.02684 q -0.238125,0.22811 -0.238125,0.563562 0,0.335455 0.238125,0.576982 0.224896,0.228108 0.555625,0.228108 0.343959,0 0.568854,-0.228108 l 0.03969,-0.04026 q 0.185208,-0.228108 0.185208,-0.536726 0,-0.335452 -0.224896,-0.563562 m -2.024062,2.039559 v -2.603122 l 13.97,-14.169569 h 2.69875 v 4.750026 L 75.08516,23.279748 h -4.815417"
       id="path2310"
       inkscape:connector-curvature="0"
       style="fill:#ffffff;fill-opacity:1;stroke:none;stroke-width:0.26458332" />
    <path
       inkscape:export-ydpi="64.901405"
       inkscape:export-xdpi="64.901405"
       inkscape:export-filename="C:\Users\Rob\Minetest\minetest-5.0.1-win64\textures\Kenney\default_bronze_block.png"
       style="fill:#c8b99c;fill-opacity:1;stroke:none;stroke-width:0.26458332"
       inkscape:connector-curvature="0"
       id="path2312"
       d="m 86.012451,8.4661058 0.03969,-0.040254 q 0.224896,-0.241528 0.224896,-0.57698 0,-0.335454 -0.224896,-0.563562 -0.224896,-0.241528 -0.568854,-0.241528 -0.33073,0 -0.555625,0.241528 l -0.02646,0.02684 q -0.211666,0.214688 -0.211666,0.536726 0,0.335452 0.238125,0.576979 0.224895,0.228108 0.555625,0.228108 0.3175,0 0.529166,-0.1878541 M 79.424326,6.5070598 h 2.870729 L 70.269743,18.704158 v -2.91174 l 9.154583,-9.285361 m -7.130521,14.733132 q -0.224895,-0.241525 -0.568854,-0.241525 -0.3175,0 -0.529166,0.214688 l -0.02646,0.02684 q -0.238125,0.22811 -0.238125,0.563562 0,0.335455 0.238125,0.576982 0.224896,0.228108 0.555625,0.228108 0.343959,0 0.568854,-0.228108 l 0.03969,-0.04026 q 0.185208,-0.228108 0.185208,-0.536726 0,-0.335452 -0.224896,-0.563562 m -2.024062,2.039559 v -2.603122 l 13.97,-14.169569 h 2.69875 v 4.750026 L 75.08516,23.279748 h -4.815417" />
    <path
       style="fill:#b4c6c7;stroke:none;stroke-width:0.26458332"
       inkscape:connector-curvature="0"
       id="path2325"
       d="m 105.66014,7.388458 -0.0265,0.02684 q -0.21166,0.214688 -0.21166,0.536726 0,0.335452 0.23812,0.5769792 0.2249,0.2281078 0.55563,0.2281078 0.3175,0 0.52916,-0.1878541 l 0.0397,-0.040254 q 0.2249,-0.2415279 0.2249,-0.5769799 0,-0.335454 -0.2249,-0.563562 -0.22489,-0.241528 -0.56885,-0.241528 -0.33073,0 -0.55563,0.241528 m -0.68792,-0.778254 h 2.69875 v 4.750025 L 95.817645,23.382896 H 91.002228 V 20.779774 L 104.97223,6.610204 m -4.81542,0 h 2.87073 L 91.002228,18.807305 v -2.911739 l 9.154582,-9.285362 m -7.699373,14.491608 q -0.3175,0 -0.529167,0.214688 l -0.02646,0.02684 q -0.238125,0.22811 -0.238125,0.563562 0,0.335455 0.238125,0.576982 0.224896,0.228108 0.555625,0.228108 0.343958,0 0.568854,-0.228108 l 0.03969,-0.04026 q 0.185209,-0.228108 0.185209,-0.536726 0,-0.335452 -0.224896,-0.563562 -0.224896,-0.241525 -0.568854,-0.241525"
       inkscape:export-filename="C:\Users\Rob\Minetest\minetest-5.0.1-win64\textures\Kenney\default_tin_block.png"
       inkscape:export-xdpi="64.901405"
       inkscape:export-ydpi="64.901405" />
    <path
       sodipodi:nodetypes="ccccc"
       style="fill:#acc0c1;fill-opacity:1;stroke:none;stroke-width:0.26458332"
       inkscape:connector-curvature="0"
       id="path2327"
       d="M 89.939556,6.153872 H 108.19583 V 24.40256 H 89.939556 V 6.153872"
       inkscape:export-filename="C:\Users\Rob\Minetest\minetest-5.0.1-win64\textures\Kenney\default_tin_block.png"
       inkscape:export-xdpi="64.901405"
       inkscape:export-ydpi="64.901405" />
    <path
       d="m 106.78462,21.343337 q 0.2249,0.22811 0.2249,0.563562 0,0.335455 -0.2249,0.576982 -0.22489,0.228108 -0.56885,0.228108 -0.33073,0 -0.55563,-0.228108 l -0.0397,-0.04026 q -0.19843,-0.228108 -0.19843,-0.536726 0,-0.335452 0.23812,-0.563562 0.2249,-0.241525 0.55563,-0.241525 0.3175,0 0.52916,0.201271 l 0.0397,0.04025 M 105.66014,7.388458 q 0.2249,-0.241528 0.55563,-0.241528 0.34396,0 0.56885,0.241528 0.2249,0.228108 0.2249,0.563562 0,0.335452 -0.2249,0.5769799 l -0.0397,0.040254 q -0.21166,0.1878541 -0.52916,0.1878541 -0.33073,0 -0.55563,-0.2281078 -0.23812,-0.2415272 -0.23812,-0.5769792 0,-0.322038 0.21167,-0.536726 l 0.0265,-0.02684 m -12.607399,0.02684 q 0.198438,0.214688 0.198438,0.536726 0,0.335452 -0.224896,0.5769792 -0.224896,0.2281078 -0.568854,0.2281078 -0.3175,0 -0.529167,-0.2012712 l -0.02646,-0.026837 Q 91.663687,8.287472 91.663687,7.95202 q 0,-0.335454 0.238125,-0.563562 0.224896,-0.241528 0.555625,-0.241528 0.343958,0 0.568854,0.241528 l 0.02646,0.02684 m -0.595314,13.686517 q 0.343958,0 0.568854,0.241525 0.224896,0.22811 0.224896,0.563562 0,0.308618 -0.185209,0.536726 l -0.03969,0.04026 q -0.224896,0.228108 -0.568854,0.228108 -0.330729,0 -0.555625,-0.228108 -0.238125,-0.241527 -0.238125,-0.576982 0,-0.335452 0.238125,-0.563562 l 0.02646,-0.02684 q 0.211667,-0.214688 0.529167,-0.214688"
       id="path2329"
       inkscape:connector-curvature="0"
       style="fill:#fffbec;fill-opacity:1;stroke:none;stroke-width:0.26458332"
       inkscape:export-filename="C:\Users\Rob\Minetest\minetest-5.0.1-win64\textures\Kenney\default_tin_block.png"
       inkscape:export-xdpi="64.901405"
       inkscape:export-ydpi="64.901405" />
    <path
       style="fill:#a1b1b1;fill-opacity:1;stroke:none;stroke-width:0.26458332"
       inkscape:connector-curvature="0"
       id="path2331"
       d="m 106.78462,21.343337 q 0.2249,0.22811 0.2249,0.563562 0,0.335455 -0.2249,0.576982 -0.22489,0.228108 -0.56885,0.228108 -0.33073,0 -0.55563,-0.228108 l -0.0397,-0.04026 q -0.19843,-0.228108 -0.19843,-0.536726 0,-0.335452 0.23812,-0.563562 0.2249,-0.241525 0.55563,-0.241525 0.3175,0 0.52916,0.201271 l 0.0397,0.04025 M 105.66014,7.388458 q 0.2249,-0.241528 0.55563,-0.241528 0.34396,0 0.56885,0.241528 0.2249,0.228108 0.2249,0.563562 0,0.335452 -0.2249,0.5769799 l -0.0397,0.040254 q -0.21166,0.1878541 -0.52916,0.1878541 -0.33073,0 -0.55563,-0.2281078 -0.23812,-0.2415272 -0.23812,-0.5769792 0,-0.322038 0.21167,-0.536726 l 0.0265,-0.02684 m -12.607399,0.02684 q 0.198438,0.214688 0.198438,0.536726 0,0.335452 -0.224896,0.5769792 -0.224896,0.2281078 -0.568854,0.2281078 -0.3175,0 -0.529167,-0.2012712 l -0.02646,-0.026837 Q 91.663687,8.287472 91.663687,7.95202 q 0,-0.335454 0.238125,-0.563562 0.224896,-0.241528 0.555625,-0.241528 0.343958,0 0.568854,0.241528 l 0.02646,0.02684 m -0.595314,13.686517 q 0.343958,0 0.568854,0.241525 0.224896,0.22811 0.224896,0.563562 0,0.308618 -0.185209,0.536726 l -0.03969,0.04026 q -0.224896,0.228108 -0.568854,0.228108 -0.330729,0 -0.555625,-0.228108 -0.238125,-0.241527 -0.238125,-0.576982 0,-0.335452 0.238125,-0.563562 l 0.02646,-0.02684 q 0.211667,-0.214688 0.529167,-0.214688"
       inkscape:export-filename="C:\Users\Rob\Minetest\minetest-5.0.1-win64\textures\Kenney\default_tin_block.png"
       inkscape:export-xdpi="64.901405"
       inkscape:export-ydpi="64.901405" />
    <path
       style="fill:#bccccd;fill-opacity:1;stroke:none;stroke-width:0.26458332"
       inkscape:connector-curvature="0"
       id="path2333"
       d="M 89.939556,6.153872 V 5.617144 H 108.725 V 24.40256 h -0.52917 V 6.153872 H 89.939556"
       inkscape:export-filename="C:\Users\Rob\Minetest\minetest-5.0.1-win64\textures\Kenney\default_tin_block.png"
       inkscape:export-xdpi="64.901405"
       inkscape:export-ydpi="64.901405" />
    <path
       d="M 108.725,23.865834 V 24.40256 H 89.939556 V 5.617144 h 0.529167 v 18.24869 H 108.725"
       id="path2335"
       inkscape:connector-curvature="0"
       style="fill:#bcccce;fill-opacity:0.60784314;stroke:none;stroke-width:0.26458332"
       inkscape:export-filename="C:\Users\Rob\Minetest\minetest-5.0.1-win64\textures\Kenney\default_tin_block.png"
       inkscape:export-xdpi="64.901405"
       inkscape:export-ydpi="64.901405" />
    <path
       style="fill:#ffffff;fill-opacity:1;stroke:none;stroke-width:0.26458332"
       inkscape:connector-curvature="0"
       id="path2337"
       d="m 106.74493,8.5692536 0.0397,-0.040254 q 0.2249,-0.2415276 0.2249,-0.5769796 0,-0.335455 -0.2249,-0.563563 -0.22489,-0.241527 -0.56885,-0.241527 -0.33073,0 -0.55563,0.241527 l -0.0265,0.02684 q -0.21166,0.214689 -0.21166,0.536726 0,0.335452 0.23812,0.5769799 0.2249,0.2281078 0.55563,0.2281078 0.3175,0 0.52916,-0.1878541 M 100.15681,6.610207 h 2.87073 L 91.002228,18.807305 v -2.911739 l 9.154582,-9.285362 m -7.130519,14.733133 q -0.224896,-0.241525 -0.568854,-0.241525 -0.3175,0 -0.529167,0.214688 l -0.02646,0.02684 q -0.238125,0.22811 -0.238125,0.563562 0,0.335455 0.238125,0.576982 0.224896,0.228108 0.555625,0.228108 0.343958,0 0.568854,-0.228108 l 0.03969,-0.04026 q 0.185209,-0.228108 0.185209,-0.536726 0,-0.335452 -0.224896,-0.563562 m -2.024063,2.039559 V 20.779774 L 104.97223,6.610204 h 2.69875 v 4.750025 L 95.817645,23.382896 h -4.815417"
       inkscape:export-filename="C:\Users\Rob\Minetest\minetest-5.0.1-win64\textures\Kenney\default_tin_block.png"
       inkscape:export-xdpi="64.901405"
       inkscape:export-ydpi="64.901405" />
    <path
       d="m 106.74493,8.5692536 0.0397,-0.040254 q 0.2249,-0.2415276 0.2249,-0.5769796 0,-0.335455 -0.2249,-0.563563 -0.22489,-0.241527 -0.56885,-0.241527 -0.33073,0 -0.55563,0.241527 l -0.0265,0.02684 q -0.21166,0.214689 -0.21166,0.536726 0,0.335452 0.23812,0.5769799 0.2249,0.2281078 0.55563,0.2281078 0.3175,0 0.52916,-0.1878541 M 100.15681,6.610207 h 2.87073 L 91.002228,18.807305 v -2.911739 l 9.154582,-9.285362 m -7.130519,14.733133 q -0.224896,-0.241525 -0.568854,-0.241525 -0.3175,0 -0.529167,0.214688 l -0.02646,0.02684 q -0.238125,0.22811 -0.238125,0.563562 0,0.335455 0.238125,0.576982 0.224896,0.228108 0.555625,0.228108 0.343958,0 0.568854,-0.228108 l 0.03969,-0.04026 q 0.185209,-0.228108 0.185209,-0.536726 0,-0.335452 -0.224896,-0.563562 m -2.024063,2.039559 V 20.779774 L 104.97223,6.610204 h 2.69875 v 4.750025 L 95.817645,23.382896 h -4.815417"
       id="path2339"
       inkscape:connector-curvature="0"
       style="fill:#b4c6c7;fill-opacity:1;stroke:none;stroke-width:0.26458332"
       inkscape:export-filename="C:\Users\Rob\Minetest\minetest-5.0.1-win64\textures\Kenney\default_tin_block.png"
       inkscape:export-xdpi="64.901405"
       inkscape:export-ydpi="64.901405" />
    <g
       id="g3486"
       transform="matrix(0.1425702,-0.01128979,0.00972683,0.16547916,-71.132467,-71.090131)"
       style="stroke-width:1.71857333">
      <g
         style="fill:#f0b900;fill-opacity:1;stroke-width:1.86464405"
         transform="matrix(0.84946245,0,0,1,-206.84053,21.831362)"
         id="g3470">
        <path
           style="opacity:1;fill:#f0b900;fill-opacity:1;fill-rule:nonzero;stroke:none;stroke-width:3.7292881;stroke-linecap:butt;stroke-linejoin:round;stroke-miterlimit:4;stroke-dasharray:none;stroke-dashoffset:0;stroke-opacity:1;paint-order:normal"
           d="m 860.91014,610.14763 50.10264,11.85585 -18.12784,35.86579 -57.44555,-14 z"
           id="path3468"
           inkscape:connector-curvature="0"
           sodipodi:nodetypes="ccccc" />
      </g>
      <g
         id="g3476"
         transform="matrix(0.84946245,0,0,1,-158.04269,21.831362)"
         style="stroke-width:1.86464405">
        <path
           sodipodi:nodetypes="cccccc"
           inkscape:connector-curvature="0"
           id="path3472"
           d="m 853.56723,622.00348 h 18.12784 18.12784 l 18.12783,35.86579 h -72.51135 z"
           style="opacity:1;fill:#ffc400;fill-opacity:1;fill-rule:nonzero;stroke:none;stroke-width:3.7292881;stroke-linecap:butt;stroke-linejoin:round;stroke-miterlimit:4;stroke-dasharray:none;stroke-dashoffset:0;stroke-opacity:1;paint-order:normal" />
        <path
           style="opacity:1;fill:#ffd54f;fill-opacity:1;fill-rule:nonzero;stroke:none;stroke-width:3.7292881;stroke-linecap:butt;stroke-linejoin:round;stroke-miterlimit:4;stroke-dasharray:none;stroke-dashoffset:0;stroke-opacity:1;paint-order:normal"
           d="m 853.56723,622.00348 h 18.12784 18.12784 l 10.34101,20.45963 -52.6916,-8.40089 z"
           id="path3474"
           inkscape:connector-curvature="0"
           sodipodi:nodetypes="cccccc" />
      </g>
      <path
         style="fill:#ffe07e;fill-opacity:1;fill-rule:evenodd;stroke:none;stroke-width:1.71857333px;stroke-linecap:butt;stroke-linejoin:miter;stroke-opacity:1"
         d="m 597.82846,643.83485 h -30.79784 l -42.56031,-11.85586 28.13602,-0.17863 z"
         id="path3478"
         inkscape:connector-curvature="0"
         sodipodi:nodetypes="ccccc" />
    </g>
    <g
       style="fill:#b7bdd7;fill-opacity:1;stroke-width:1.86464405"
       transform="matrix(0.12110803,-0.00959025,0.00972683,0.16547916,-79.369595,-64.802957)"
       id="g4173">
      <path
         style="opacity:1;fill:#b7bdd7;fill-opacity:1;fill-rule:nonzero;stroke:none;stroke-width:3.7292881;stroke-linecap:butt;stroke-linejoin:round;stroke-miterlimit:4;stroke-dasharray:none;stroke-dashoffset:0;stroke-opacity:1;paint-order:normal"
         d="m 860.91014,610.14763 50.10264,11.85585 -18.12784,35.86579 -57.44555,-14 z"
         id="path4171"
         inkscape:connector-curvature="0"
         sodipodi:nodetypes="ccccc" />
    </g>
    <g
       id="g4179"
       transform="matrix(0.12110803,-0.00959025,0.00972683,0.16547916,-72.412477,-65.353875)"
       style="stroke-width:1.86464405">
      <path
         sodipodi:nodetypes="cccccc"
         inkscape:connector-curvature="0"
         id="path4175"
         d="m 853.56723,622.00348 h 18.12784 18.12784 l 18.12783,35.86579 h -72.51135 z"
         style="opacity:1;fill:#c7cce0;fill-opacity:1;fill-rule:nonzero;stroke:none;stroke-width:3.7292881;stroke-linecap:butt;stroke-linejoin:round;stroke-miterlimit:4;stroke-dasharray:none;stroke-dashoffset:0;stroke-opacity:1;paint-order:normal" />
      <path
         style="opacity:1;fill:#cfd4ea;fill-opacity:1;fill-rule:nonzero;stroke:none;stroke-width:3.7292881;stroke-linecap:butt;stroke-linejoin:round;stroke-miterlimit:4;stroke-dasharray:none;stroke-dashoffset:0;stroke-opacity:1;paint-order:normal"
         d="m 853.56723,622.00348 h 18.12784 18.12784 l 10.34101,20.45963 -52.6916,-8.40089 z"
         id="path4177"
         inkscape:connector-curvature="0"
         sodipodi:nodetypes="cccccc" />
    </g>
    <path
       style="fill:#dbdff3;fill-opacity:1;fill-rule:evenodd;stroke:none;stroke-width:0.26458335px;stroke-linecap:butt;stroke-linejoin:miter;stroke-opacity:1"
       d="m 41.402346,29.041113 -4.390854,0.347702 -6.183152,-1.481401 4.009621,-0.34721 z"
       id="path4181"
       inkscape:connector-curvature="0"
       sodipodi:nodetypes="ccccc" />
    <g
       id="g4193"
       transform="matrix(0.12110803,-0.00959025,0.00972683,0.16547916,-56.915811,-64.576722)"
       style="fill:#ca925d;fill-opacity:1;stroke-width:1.86464405">
      <path
         sodipodi:nodetypes="ccccc"
         inkscape:connector-curvature="0"
         id="path4191"
         d="m 860.91014,610.14763 50.10264,11.85585 -18.12784,35.86579 -57.44555,-14 z"
         style="opacity:1;fill:#ca925d;fill-opacity:1;fill-rule:nonzero;stroke:none;stroke-width:3.7292881;stroke-linecap:butt;stroke-linejoin:round;stroke-miterlimit:4;stroke-dasharray:none;stroke-dashoffset:0;stroke-opacity:1;paint-order:normal" />
    </g>
    <g
       style="stroke-width:1.86464405;fill:#d69e6a;fill-opacity:1"
       transform="matrix(0.12110803,-0.00959025,0.00972683,0.16547916,-49.958693,-65.12764)"
       id="g4199">
      <path
         style="opacity:1;fill:#d69e6a;fill-opacity:1;fill-rule:nonzero;stroke:none;stroke-width:3.7292881;stroke-linecap:butt;stroke-linejoin:round;stroke-miterlimit:4;stroke-dasharray:none;stroke-dashoffset:0;stroke-opacity:1;paint-order:normal"
         d="m 853.56723,622.00348 h 18.12784 18.12784 l 18.12783,35.86579 h -72.51135 z"
         id="path4195"
         inkscape:connector-curvature="0"
         sodipodi:nodetypes="cccccc" />
      <path
         sodipodi:nodetypes="cccccc"
         inkscape:connector-curvature="0"
         id="path4197"
         d="m 853.56723,622.00348 h 18.12784 18.12784 l 10.34101,20.45963 -52.6916,-8.40089 z"
         style="opacity:1;fill:#d6a77b;fill-opacity:1;fill-rule:nonzero;stroke:none;stroke-width:3.7292881;stroke-linecap:butt;stroke-linejoin:round;stroke-miterlimit:4;stroke-dasharray:none;stroke-dashoffset:0;stroke-opacity:1;paint-order:normal" />
    </g>
    <path
       sodipodi:nodetypes="ccccc"
       inkscape:connector-curvature="0"
       id="path4201"
       d="m 63.85613,29.267348 -4.390854,0.347702 -6.183152,-1.481401 4.009621,-0.34721 z"
       style="fill:#d8b18c;fill-opacity:1;fill-rule:evenodd;stroke:none;stroke-width:0.26458335px;stroke-linecap:butt;stroke-linejoin:miter;stroke-opacity:1" />
  </g>
</svg>
