<?xml version="1.0" encoding="UTF-8" standalone="no"?>
<!-- Created with Inkscape (http://www.inkscape.org/) -->

<svg
   xmlns:dc="http://purl.org/dc/elements/1.1/"
   xmlns:cc="http://creativecommons.org/ns#"
   xmlns:rdf="http://www.w3.org/1999/02/22-rdf-syntax-ns#"
   xmlns:svg="http://www.w3.org/2000/svg"
   xmlns="http://www.w3.org/2000/svg"
   xmlns:sodipodi="http://sodipodi.sourceforge.net/DTD/sodipodi-0.dtd"
   xmlns:inkscape="http://www.inkscape.org/namespaces/inkscape"
   width="16.933334mm"
   height="16.933334mm"
   viewBox="0 0 16.933335 16.933334"
   version="1.1"
   id="svg2954"
   inkscape:version="0.92.4 (5da689c313, 2019-01-14)"
   sodipodi:docname="Paper.svg">
  <defs
     id="defs2948" />
  <sodipodi:namedview
     id="base"
     pagecolor="#ffffff"
     bordercolor="#666666"
     borderopacity="1.0"
     inkscape:pageopacity="0.0"
     inkscape:pageshadow="2"
     inkscape:zoom="6.0867187"
     inkscape:cx="76.430471"
     inkscape:cy="29.923454"
     inkscape:document-units="mm"
     inkscape:current-layer="layer1"
     showgrid="false"
     inkscape:window-width="2160"
     inkscape:window-height="1346"
     inkscape:window-x="-11"
     inkscape:window-y="-11"
     inkscape:window-maximized="1" />
  <metadata
     id="metadata2951">
    <rdf:RDF>
      <cc:Work
         rdf:about="">
        <dc:format>image/svg+xml</dc:format>
        <dc:type
           rdf:resource="http://purl.org/dc/dcmitype/StillImage" />
        <dc:title></dc:title>
      </cc:Work>
    </rdf:RDF>
  </metadata>
  <g
     inkscape:label="Layer 1"
     inkscape:groupmode="layer"
     id="layer1"
     transform="translate(-39.181164,-90.528458)">
    <rect
       style="opacity:1;fill:none;fill-opacity:1;fill-rule:nonzero;stroke:none;stroke-width:0.52916664;stroke-linecap:butt;stroke-linejoin:round;stroke-miterlimit:4;stroke-dasharray:none;stroke-dashoffset:0;stroke-opacity:1;paint-order:normal"
       id="rect3531"
       width="16.933334"
       height="16.933334"
       x="39.181164"
       y="90.528458"
       inkscape:export-xdpi="95.999992"
       inkscape:export-ydpi="95.999992" />
    <path
       inkscape:connector-curvature="0"
       style="fill:#f0e3c2;fill-opacity:1;stroke:none;stroke-width:0.26458332"
       d="m 52.949978,92.482796 -1.5875,13.979204 -9.855729,-1.41725 1.653646,-13.399417"
       id="path240"
       sodipodi:nodetypes="cccc"
       inkscape:export-xdpi="95.999992"
       inkscape:export-ydpi="95.999992" />
    <path
       style="fill:#e7d9b3;fill-opacity:1;stroke:none;stroke-width:0.26458332"
       d="m 43.264273,92.612372 -0.03768,0.319081 9.422394,0.678426 0.03025,-0.275799 z m -0.0719,0.609474 -0.03867,0.326632 9.415947,0.792168 0.03421,-0.316566 z m -0.08677,0.729259 -0.02926,0.249126 9.418427,0.827396 0.02728,-0.249628 z m -0.08131,0.686478 -0.0486,0.414202 9.428839,0.801731 0.04364,-0.397594 z m -0.09867,0.836961 -0.03074,0.257681 9.435288,0.805756 0.03371,-0.309518 z"
       id="path238"
       inkscape:connector-curvature="0"
       inkscape:export-xdpi="95.999992"
       inkscape:export-ydpi="95.999992" />
    <path
       style="fill:#e7d9b3;fill-opacity:1;stroke:none;stroke-width:0.26458332"
       d="m 42.81588,96.225443 -0.03695,0.317069 9.394704,0.680942 0.02956,-0.273786 z m -0.07241,0.615012 -0.03793,0.325624 9.388302,0.795188 0.03448,-0.315558 z m -0.08572,0.730769 -0.02956,0.24862 9.391258,0.830419 0.0271,-0.249629 z m -0.08079,0.685975 -0.04828,0.412692 9.401601,0.804751 0.04286,-0.39659 z m -0.09803,0.831926 -0.03054,0.261204 9.407514,0.809281 0.03399,-0.313547 z"
       id="path3513"
       inkscape:connector-curvature="0"
       inkscape:export-xdpi="95.999992"
       inkscape:export-ydpi="95.999992" />
    <path
       style="fill:#e7d9b3;fill-opacity:1;stroke:none;stroke-width:0.26458329"
       d="m 42.330243,99.825934 -0.0372,0.315556 9.493365,0.68346 0.02976,-0.27227 z m -0.07291,0.617526 -0.03869,0.32563 9.486917,0.7977 0.03422,-0.31556 z m -0.0868,0.73178 -0.02927,0.24862 9.488902,0.83293 0.02728,-0.24962 z m -0.08382,0.70711 -0.04861,0.4137 9.491879,0.88124 0.04315,-0.39658 z m -0.101679,0.8586 -0.03125,0.26624 9.480967,1.0423 0.03473,-0.31708 z"
       id="path3515"
       inkscape:connector-curvature="0"
       inkscape:export-xdpi="95.999992"
       inkscape:export-ydpi="95.999992" />
    <path
       style="fill:#e7d9b3;fill-opacity:1;stroke:none;stroke-width:0.26458329"
       d="m 41.844852,103.50091 -0.03782,0.31556 9.527647,0.98543 0.03036,-0.27933 z m -0.07764,0.65125 -0.03932,0.33166 9.512718,1.17869 0.03483,-0.31958 z"
       id="path3517"
       inkscape:connector-curvature="0"
       inkscape:export-xdpi="95.999992"
       inkscape:export-ydpi="95.999992" />
  </g>
</svg>
