<?xml version="1.0" encoding="UTF-8" standalone="no"?>
<!-- Created with Inkscape (http://www.inkscape.org/) -->

<svg
   xmlns:dc="http://purl.org/dc/elements/1.1/"
   xmlns:cc="http://creativecommons.org/ns#"
   xmlns:rdf="http://www.w3.org/1999/02/22-rdf-syntax-ns#"
   xmlns:svg="http://www.w3.org/2000/svg"
   xmlns="http://www.w3.org/2000/svg"
   xmlns:sodipodi="http://sodipodi.sourceforge.net/DTD/sodipodi-0.dtd"
   xmlns:inkscape="http://www.inkscape.org/namespaces/inkscape"
   width="9.0802288mm"
   height="15.875mm"
   viewBox="0 0 9.0802287 15.875"
   version="1.1"
   id="svg4406"
   inkscape:version="0.92.4 (5da689c313, 2019-01-14)"
   sodipodi:docname="Sapling_Aspen.svg">
  <defs
     id="defs4400" />
  <sodipodi:namedview
     id="base"
     pagecolor="#ffffff"
     bordercolor="#666666"
     borderopacity="1.0"
     inkscape:pageopacity="0.0"
     inkscape:pageshadow="2"
     inkscape:zoom="9.3560691"
     inkscape:cx="30.409517"
     inkscape:cy="26.900989"
     inkscape:document-units="mm"
     inkscape:current-layer="layer1"
     showgrid="false"
     inkscape:window-width="2160"
     inkscape:window-height="1346"
     inkscape:window-x="-11"
     inkscape:window-y="-11"
     inkscape:window-maximized="1" />
  <metadata
     id="metadata4403">
    <rdf:RDF>
      <cc:Work
         rdf:about="">
        <dc:format>image/svg+xml</dc:format>
        <dc:type
           rdf:resource="http://purl.org/dc/dcmitype/StillImage" />
        <dc:title />
      </cc:Work>
    </rdf:RDF>
  </metadata>
  <g
     inkscape:label="Layer 1"
     inkscape:groupmode="layer"
     id="layer1"
     transform="translate(-27.586875,-112.15769)">
    <g
       id="g5015"
       transform="matrix(0.37655994,0,0,0.34838657,17.227042,82.777397)"
       style="stroke-width:2.76091003"
       inkscape:export-filename="C:\Users\Rob\Minetest\minetest-5.0.1-win64\textures\Kenney\default\default_aspen_sapling.png"
       inkscape:export-xdpi="103.4996"
       inkscape:export-ydpi="103.4996">
      <g
         id="g4273"
         transform="matrix(0.09966072,0,0,0.09966072,1.5078529,40.55418)"
         style="fill:#27ae60;fill-opacity:1;stroke-width:7.32977581">
        <path
           style="fill:#27ae60;fill-opacity:1;stroke-width:7.32977581"
           d="m 366.12927,796.51366 c -6.55253,-1.10412 -13.05025,-4.57013 -18.33502,-9.78025 l -4.48831,-4.42491 -9.23122,-0.13262 c -8.32521,-0.11959 -9.89001,-0.46115 -15.94371,-3.4801 -10.3476,-5.16029 -17.35934,-14.02286 -19.30664,-24.40283 -0.53999,-2.87841 -1.27022,-3.5606 -5.36993,-5.01669 -6.80452,-2.41675 -12.22511,-6.68991 -16.31238,-12.8594 -6.42017,-9.69084 -8.25783,-19.1926 -5.6867,-29.40349 1.03967,-4.12892 0.9387,-4.62131 -1.5554,-7.58538 -1.46698,-1.74341 -3.87665,-5.46818 -5.35483,-8.27728 -2.42216,-4.60302 -2.68828,-6.14908 -2.6946,-15.65447 -0.007,-9.94237 0.18082,-10.91741 3.26945,-17.00739 l 3.27647,-6.46035 -2.27647,-4.49262 c -1.89914,-3.74794 -2.27347,-6.06727 -2.2584,-13.99261 0.0157,-8.27271 0.36668,-10.21054 2.71655,-15 1.48416,-3.025 3.66562,-6.68958 4.84767,-8.1435 2.11851,-2.60577 2.12423,-2.71864 0.40098,-7.90688 -1.30683,-3.93447 -1.60421,-7.05426 -1.17786,-12.3565 0.80278,-9.98358 3.12564,-15.80943 8.76269,-21.97726 l 4.85591,-5.31313 -0.57673,-8.40136 c -0.4797,-6.98793 -0.22324,-9.39846 1.52438,-14.32797 2.85778,-8.06095 6.5575,-13.09881 12.79989,-17.42945 l 5.25256,-3.64395 0.0379,-5.57186 c 0.0493,-7.23262 2.1574,-13.23598 6.80675,-19.38358 5.50662,-7.2811 11.04604,-11.07575 19.25559,-13.19058 l 7.11333,-1.83244 3.10827,-5.8317 c 5.82666,-10.93194 16.36438,-17.44189 29.754,-18.38131 7.9731,-0.5594 13.76875,1.10354 21.32414,6.11852 5.18877,3.44411 5.82863,3.62437 9.37241,2.64029 5.54423,-1.53959 16.25992,-1.30151 21.48024,0.47723 5.98624,2.03972 15.55336,9.84861 19.10583,15.5946 1.56492,2.53121 3.35542,7.28633 3.97887,10.56695 1.12207,5.90427 1.18121,5.98167 5.83287,7.6338 6.88894,2.44673 14.26671,9.5632 18.13423,17.49195 2.85068,5.84416 3.26448,7.71929 3.34875,15.17488 l 0.0962,8.50675 6.00062,6.00062 c 9.29381,9.29381 13.18969,22.55628 10.04587,34.19844 l -1.40759,5.21255 2.89952,2.77793 c 1.59474,1.52785 4.32235,5.66807 6.06134,9.20047 2.84408,5.77715 3.1623,7.33571 3.16667,15.50952 0.004,7.43071 -0.39486,9.84384 -2.18813,13.23949 -2.13802,4.04844 -2.14704,4.21137 -0.35984,6.5 3.61323,4.62702 5.96613,10.5739 6.92704,17.50793 1.20806,8.71754 0.14568,14.96852 -3.70296,21.78793 l -2.87978,5.1027 2.49313,4.90567 c 6.90802,13.59274 2.16656,33.4033 -10.22939,42.73992 -4.97245,3.74524 -5.00351,3.80396 -5.63654,10.65679 -1.59889,17.30865 -14.67419,31.5513 -30.98132,33.74728 -4.04156,0.54426 -4.82677,1.05993 -6.29173,4.13199 -4.36394,9.15129 -11.64511,15.01135 -22.89882,18.42956 -7.66071,2.32687 -13.54699,2.03951 -21.39869,-1.04467 l -4.57074,-1.7954 -4.9379,3.32296 c -8.37568,5.63642 -15.49619,7.0949 -25.9985,5.32521 z"
           id="path4277"
           inkscape:connector-curvature="0" />
        <path
           style="fill:#27ae60;fill-opacity:1;stroke-width:7.32977581"
           d="m 361.34351,794.87394 c -5.565,-2.01241 -12.14391,-6.42729 -15.01575,-10.07654 -2.07932,-2.64218 -2.53968,-2.75541 -11.32583,-2.78557 -8.24024,-0.0283 -9.8256,-0.35469 -15.81325,-3.25567 -4.44653,-2.15431 -8.33257,-5.05993 -11.71078,-8.75622 -4.73785,-5.18397 -5.72521,-7.24339 -8.7398,-18.22935 -0.19208,-0.69998 -1.14693,-1.50863 -2.12191,-1.79702 -12.94512,-3.82898 -22.59606,-14.74822 -25.40726,-28.74622 -0.94953,-4.72805 -0.86604,-6.84613 0.48577,-12.32404 l 1.63235,-6.61475 -2.98563,-3.40045 c -9.69589,-11.04301 -11.52628,-29.54113 -4.10449,-41.4803 l 3.01858,-4.85588 -2.44623,-5.25433 c -1.96781,-4.22672 -2.44814,-6.86572 -2.456,-13.4936 -0.0112,-9.45589 2.015,-15.97899 6.86589,-22.10373 l 3.09001,-3.90147 -1.60404,-4.70762 c -1.1459,-3.363 -1.48097,-7.04121 -1.17313,-12.87776 0.5279,-10.00891 3.66837,-17.53658 9.75673,-23.38683 l 4.20347,-4.03907 -1.18185,-6.00724 c -2.51167,-12.76657 3.76865,-27.30823 14.82124,-34.31758 4.29651,-2.72476 4.32964,-2.79053 4.6406,-9.21013 0.389,-8.03047 3.78179,-15.81258 9.68677,-22.21873 5.06669,-5.49671 10.34274,-8.45545 17.83888,-10.0038 5.22463,-1.07917 5.57105,-1.35248 8.22545,-6.48939 6.08738,-11.78055 15.69783,-18.0316 28.89678,-18.79567 9.33276,-0.54027 16.06121,1.29646 23.02532,6.28543 l 4.60189,3.29672 5.39811,-1.45831 c 6.94349,-1.8758 16.23027,-1.11977 22.51122,1.83262 7.06623,3.32152 16.68041,13.21625 18.7236,19.26997 0.91481,2.71048 1.66329,6.14287 1.66329,7.62755 0,3.15859 1.1538,4.25015 6.2154,5.88012 6.02955,1.94167 13.61858,9.56138 17.46809,17.53871 3.10284,6.42999 3.37474,7.73522 3.20779,15.39892 l -0.1824,8.37343 4.04233,3.12657 c 10.54199,8.15375 15.92909,24.94848 12.10094,37.72569 -1.10741,3.69621 -1.01537,3.97781 2.61268,7.99362 6.16352,6.82228 7.94445,11.9303 7.99308,22.92551 0.0321,7.26173 -0.40731,10.5182 -1.85353,13.73612 l -1.89561,4.21787 2.74376,3.95925 c 7.87839,11.36853 8.45369,28.55208 1.30309,38.92173 l -2.31229,3.35323 2.98422,6.02087 c 6.9244,13.97045 1.97077,32.39806 -11.45641,42.61815 -4.46417,3.3979 -4.47208,3.41508 -5.07175,11.02886 -0.74667,9.47999 -3.81612,15.90332 -10.65755,22.30268 -6.32617,5.91739 -12.11043,8.85071 -18.81794,9.54299 -5.26771,0.54367 -5.3467,0.6019 -7.90218,5.82512 -7.10208,14.51613 -26.32877,22.09091 -42.01351,16.55216 -5.88124,-2.07684 -6.03863,-2.08125 -8.53068,-0.2388 -6.59426,4.87535 -11.35401,6.49539 -19.97753,6.79961 -5.98541,0.21116 -9.83125,-0.18154 -13,-1.32743 z"
           id="path4275"
           inkscape:connector-curvature="0" />
      </g>
      <path
         style="fill:#e7dfd3;fill-opacity:1;stroke-width:0.73049068"
         d="m 37.19778,127.24616 c 0.04799,-0.43257 0.20557,-1.70979 0.350184,-2.83826 0.144613,-1.12848 0.426624,-4.13909 0.426624,-4.13909 0,0 0.157351,-2.1049 0.617061,-10.22329 0,0 0.278869,-3.10605 0.167347,-8.61745 -0.05409,-2.673235 -0.01937,-4.64672 -0.107032,-5.069915 -0.229023,-1.105678 -0.884253,-2.333374 -1.636265,-3.065857 -0.529741,-0.515982 -0.686906,-0.764989 -0.686906,-1.088302 0,-0.416947 0.0041,-0.419233 0.751922,-0.419233 0.675378,0 0.810511,0.05222 1.327467,0.51294 0.738399,0.658085 1.318437,1.306396 1.758315,1.96528 l 0.349695,0.523804 0.402619,-1.11143 c 0.437324,-1.20723 0.646438,-1.432076 1.202158,-1.292601 0.452017,0.113451 0.460137,0.325879 0.08956,2.342875 -0.214323,1.166547 -0.273568,4.20199 -0.273568,4.20199 l 0.14455,6.799769 c 0,0 0.217881,6.16238 0.296341,6.24083 0.03523,0.0352 0.631693,-0.18791 1.32548,-0.49586 0.693785,-0.30795 1.349587,-0.52607 1.457336,-0.48474 0.122248,0.0469 0.195908,0.26974 0.195908,0.59264 0,0.47072 -0.05352,0.54589 -0.59209,0.83159 -0.631867,0.3352 -1.416037,1.04015 -1.981017,1.78088 l -0.346451,0.45421 0.169161,2.82871 c 0.174813,2.92317 0.558724,6.67584 0.908455,8.87995 0.110289,0.69509 0.200528,1.35678 0.200528,1.47042 0,0.17865 -0.447657,0.20667 -3.302318,0.20667 h -3.302313 z"
         id="path2899"
         inkscape:connector-curvature="0"
         sodipodi:nodetypes="ssccccssscscscsccccsssccsssscs" />
      <path
         style="fill:#a18d7a;fill-opacity:1;fill-rule:evenodd;stroke:none;stroke-width:0.73049068px;stroke-linecap:butt;stroke-linejoin:miter;stroke-opacity:1"
         d="m 37.996557,119.9353 c -0.0021,0.0294 -0.02223,0.33329 -0.02223,0.33329 0,0 -0.148839,1.58748 -0.285769,2.88976 l 3.829741,-1.572 z"
         id="path2901"
         inkscape:connector-curvature="0" />
      <path
         style="fill:#a18d7a;fill-opacity:1;fill-rule:evenodd;stroke:none;stroke-width:0.73049068px;stroke-linecap:butt;stroke-linejoin:miter;stroke-opacity:1"
         d="m 42.234541,109.56279 -2.898531,0.73691 2.962608,0.66043 c -0.02053,-0.38407 -0.04244,-0.90559 -0.06408,-1.39734 z"
         id="path2903"
         inkscape:connector-curvature="0" />
      <path
         style="fill:#a18d7a;fill-opacity:1;fill-rule:evenodd;stroke:none;stroke-width:0.73049068px;stroke-linecap:butt;stroke-linejoin:miter;stroke-opacity:1"
         d="m 38.742764,100.32099 c 0.0039,0.29253 0.007,0.57516 0.01291,0.88986 l 1.858801,-0.41392 z"
         id="path2905"
         inkscape:connector-curvature="0" />
      <path
         sodipodi:nodetypes="cccccccc"
         inkscape:connector-curvature="0"
         style="fill:#229a55;stroke:none;stroke-width:0.73049068"
         d="m 37.044885,107.7246 -1.296458,2.24895 -1.296459,-2.24895 h 2.592917 m -3.717396,7.26281 0.873125,-1.36261 0.727604,1.44198 -1.600729,-0.0794"
         id="path72" />
      <path
         sodipodi:nodetypes="cccccccc"
         inkscape:connector-curvature="0"
         style="fill:#29bb67;stroke:none;stroke-width:0.73049068"
         d="m 36.343739,112.93691 -1.349375,-0.88635 1.455208,-0.72761 -0.105833,1.61396 m -5.08,-3.06917 -1.719792,-1.94467 2.55323,-0.51594 -0.833438,2.46061"
         id="path76" />
      <path
         sodipodi:nodetypes="cccccccccccccccccccccccccccc"
         inkscape:connector-curvature="0"
         style="fill:#24a159;stroke:none;stroke-width:0.73049068"
         d="m 36.118843,104.31151 -0.555625,1.61395 -1.42875,-1.61395 h 1.984375 m -5.278437,2.24895 -0.330729,-1.5875 1.534583,0.51594 -1.203854,1.07156 m 0.992187,6.46906 1.217084,-2.30188 1.389062,2.20924 -2.606146,0.0926 m 2.500313,-3.25437 -1.613959,-0.0926 0.886355,-1.34937 0.727604,1.44197 m -6.707188,-1.44197 1.627188,-0.15877 -0.687917,1.46842 -0.939271,-1.30967 m 9.458854,11.07282 -1.362604,-0.88638 1.455209,-0.7276 -0.0926,1.61398 m -1.494895,-2.28867 0.07937,-2.60612 2.20927,1.38906 -2.288645,1.21706"
         id="path78" />
      <path
         sodipodi:nodetypes="cccccccc"
         id="path4328"
         d="m 42.508531,109.81483 1.63482,1.33358 -1.63482,0.76986 v -2.10347 m 1.150937,-2.8178 h 2.592917 l -1.296459,2.24896 -1.296458,-2.24896"
         style="fill:#229a55;stroke:none;stroke-width:0.73049068"
         inkscape:connector-curvature="0" />
      <path
         sodipodi:nodetypes="cccc"
         id="path4330"
         d="m 48.197072,112.10347 -1.719791,-1.94468 2.553229,-0.51594 -0.833438,2.46062"
         style="fill:#29bb67;stroke:none;stroke-width:0.73049068"
         inkscape:connector-curvature="0" />
      <path
         sodipodi:nodetypes="ccccccccccccccccc"
         id="path4332"
         d="m 42.508531,115.26524 0.912812,-0.1852 -0.833437,2.46062 -0.07937,-0.0926 v -2.18282 m 5.265208,-6.46905 -0.330729,-1.5875 1.534583,0.51594 -1.203854,1.07156 m -3.042708,6.60135 0.0926,-2.60618 2.196041,1.38907 -2.288645,1.21711 m -0.17198,-4.82865 1.627188,-0.15878 -0.687917,1.46844 -0.300431,-1.45166"
         style="fill:#24a159;stroke:none;stroke-width:0.73049068"
         inkscape:connector-curvature="0" />
      <path
         sodipodi:nodetypes="cccccccccccccc"
         inkscape:connector-curvature="0"
         style="fill:#229a55;stroke:none;stroke-width:0.73049068"
         d="m 51.55614,95.151467 -1.296458,-2.248958 m -7.725833,-2.963323 h 2.592916 l -1.296458,2.248958 -1.296458,-2.248958 m 6.601354,10.226134 0.873125,-1.362603 0.727604,1.441983 -1.600729,-0.0794 m -1.719792,6.11187 -1.733021,-1.94469 2.553229,-0.51593 -0.820208,2.46062"
         id="path4334" />
      <path
         sodipodi:nodetypes="cccccccccccc"
         inkscape:connector-curvature="0"
         style="fill:#29bb67;stroke:none;stroke-width:0.73049068"
         d="m 47.997494,100.62837 -2.143125,1.46844 -0.198437,-2.592921 2.341562,1.124481 m -0.926041,-5.58271 -1.719792,-1.944687 2.553229,-0.515938 -0.833437,2.460625 m -3.069167,10.74206 -0.330729,-1.5875 1.534583,0.51596 -1.203854,1.07154"
         id="path4336" />
      <path
         sodipodi:nodetypes="cccccccccccccccccccccccc"
         inkscape:connector-curvature="0"
         style="fill:#24a159;stroke:none;stroke-width:0.73049068"
         d="m 45.796336,92.306236 -0.330729,-1.5875 1.534583,0.515937 -1.203854,1.071563 m 1.276114,5.333338 1.217084,-2.301875 1.389062,2.209244 -2.606146,0.09263 m -3.467039,0.700148 0.0926,-2.606171 2.196042,1.389062 -2.288646,1.217109 m -0.171975,-4.828644 1.627187,-0.158776 -0.687916,1.468437 -0.939271,-1.309687 m -0.02646,6.548439 1.5875,-0.330732 -0.515938,1.534582 -1.071562,-1.20385 m 6.270625,2.23573 0.714375,1.44198 -1.613959,-0.0926 0.899584,-1.34941"
         id="path4338" />
      <path
         sodipodi:nodetypes="ccccccccccccccccccccc"
         id="path4340"
         d="m 39.522967,92.810333 -1.033912,-1.221203 0.888391,-1.054213 0.145521,0.15875 v 2.116666 m -4.841875,-2.923635 1.852083,-1.825651 0.64823,2.513531 -2.500313,-0.68788 m 2.209271,4.603713 -0.833438,2.460625 -1.719791,-1.944687 2.553229,-0.515938 m -2.831042,-3.638021 -1.296458,2.248959 -0.728602,-2.059673 2.02506,-0.189286 m -3.717396,7.262812 0.873125,-1.362604 0.727605,1.441979 -1.60073,-0.07937"
         style="fill:#229a55;stroke:none;stroke-width:0.73049068"
         inkscape:connector-curvature="0" />
      <path
         sodipodi:nodetypes="cccccccc"
         id="path4342"
         d="m 35.051509,91.950437 1.441979,-0.740833 -0.105833,1.613958 -1.336146,-0.873125 m -1.693334,4.114271 -1.349375,-0.886354 1.455209,-0.727604 -0.105834,1.613958"
         style="fill:#29bb67;stroke:none;stroke-width:0.73049068"
         inkscape:connector-curvature="0" />
      <path
         sodipodi:nodetypes="ccccccccccccccccccccccccccccc"
         id="path4344"
         d="m 31.148905,104.37262 -0.291042,-0.33073 2.553229,-0.51593 -0.277812,0.84666 h -1.984375 m 6.720416,-16.113136 1.534583,0.515964 -1.203854,1.071536 -0.330729,-1.5875 m -3.770312,14.274286 -1.362604,-0.88638 1.455208,-0.7276 -0.0926,1.61398 m 3.241146,-2.592916 -1.349375,-0.89961 1.455208,-0.714375 -0.105833,1.613985 m -2.06375,3.373436 1.137708,-2.34159 1.455208,2.15638 -2.592916,0.18521 m -4.392084,-3.06919 0.714375,1.44198 -1.613958,-0.0926 0.899583,-1.34941 m 1.719792,0 0.07937,-2.606114 2.209271,1.389062 -2.288646,1.217052"
         style="fill:#24a159;stroke:none;stroke-width:0.73049068"
         inkscape:connector-curvature="0" />
      <path
         inkscape:connector-curvature="0"
         style="fill:#29bb67;stroke:none;stroke-width:0.73049068"
         d="m 48.901279,114.61082 -1.190606,-1.3463 1.767591,-0.35719 -0.576985,1.70349"
         id="path4370"
         sodipodi:nodetypes="cccc" />
    </g>
  </g>
</svg>
