<?xml version="1.0" encoding="UTF-8" standalone="no"?>
<!-- Created with Inkscape (http://www.inkscape.org/) -->

<svg
   xmlns:dc="http://purl.org/dc/elements/1.1/"
   xmlns:cc="http://creativecommons.org/ns#"
   xmlns:rdf="http://www.w3.org/1999/02/22-rdf-syntax-ns#"
   xmlns:svg="http://www.w3.org/2000/svg"
   xmlns="http://www.w3.org/2000/svg"
   xmlns:sodipodi="http://sodipodi.sourceforge.net/DTD/sodipodi-0.dtd"
   xmlns:inkscape="http://www.inkscape.org/namespaces/inkscape"
   width="76.382034mm"
   height="85.539375mm"
   viewBox="0 0 76.382034 85.539375"
   version="1.1"
   id="svg5507"
   inkscape:version="0.92.4 (5da689c313, 2019-01-14)"
   sodipodi:docname="wool_all.svg">
  <defs
     id="defs5501" />
  <sodipodi:namedview
     id="base"
     pagecolor="#ffffff"
     bordercolor="#666666"
     borderopacity="1.0"
     inkscape:pageopacity="0.0"
     inkscape:pageshadow="2"
     inkscape:zoom="2.1738281"
     inkscape:cx="149.26972"
     inkscape:cy="110.11065"
     inkscape:document-units="mm"
     inkscape:current-layer="layer1"
     showgrid="false"
     inkscape:window-width="2160"
     inkscape:window-height="1346"
     inkscape:window-x="-11"
     inkscape:window-y="-11"
     inkscape:window-maximized="1"
     showguides="true"
     inkscape:guide-bbox="true">
    <sodipodi:guide
       position="8.9999997e-06,68.606016"
       orientation="0,1"
       id="guide6072"
       inkscape:locked="false" />
    <sodipodi:guide
       position="8.9999997e-06,68.606026"
       orientation="1,0"
       id="guide6074"
       inkscape:locked="false" />
    <sodipodi:guide
       position="20.179832,68.606026"
       orientation="1,0"
       id="guide6532"
       inkscape:locked="false" />
    <sodipodi:guide
       position="39.974585,68.606026"
       orientation="1,0"
       id="guide6534"
       inkscape:locked="false" />
    <sodipodi:guide
       position="59.448679,68.606016"
       orientation="1,0"
       id="guide6536"
       inkscape:locked="false" />
    <sodipodi:guide
       position="3.025415e-06,45.049977"
       orientation="0,1"
       id="guide6538"
       inkscape:locked="false" />
    <sodipodi:guide
       position="8.9999997e-06,23.018898"
       orientation="0,1"
       id="guide6564"
       inkscape:locked="false" />
    <sodipodi:guide
       position="8.9999997e-06,-1.0786932e-06"
       orientation="0,1"
       id="guide6590"
       inkscape:locked="false" />
  </sodipodi:namedview>
  <metadata
     id="metadata5504">
    <rdf:RDF>
      <cc:Work
         rdf:about="">
        <dc:format>image/svg+xml</dc:format>
        <dc:type
           rdf:resource="http://purl.org/dc/dcmitype/StillImage" />
        <dc:title />
      </cc:Work>
    </rdf:RDF>
  </metadata>
  <g
     inkscape:label="Layer 1"
     inkscape:groupmode="layer"
     id="layer1"
     transform="translate(9e-6,-4.8211824)">
    <rect
       style="opacity:1;fill:#a3a3a3;fill-opacity:1;fill-rule:nonzero;stroke:none;stroke-width:0.26499999;stroke-linecap:round;stroke-linejoin:bevel;stroke-miterlimit:4;stroke-dasharray:none;stroke-dashoffset:0;stroke-opacity:1;paint-order:normal"
       id="rect6516"
       width="16.933346"
       height="16.933306"
       x="20.179825"
       y="4.8212304"
       inkscape:export-filename="C:\Users\Rob\Minetest\minetest-5.0.1-win64\textures\Kenney\wool\wool_grey.png"
       inkscape:export-xdpi="96"
       inkscape:export-ydpi="96" />
    <path
       inkscape:connector-curvature="0"
       style="fill:#fafafa;fill-opacity:1;stroke:none;stroke-width:0.26458332"
       d="m 6.257395,4.8212003 h 0.9128121 l 0.07937,1.045104 -0.8995831,0.07937 -0.0926,-1.124479 m 3.770312,0 h 0.899584 l -0.07937,1.230312 -0.8995839,-0.06615 0.07937,-1.164166 m 3.161771,0 h 0.912813 l 0.07937,1.09802 -0.899584,0.07937 -0.0926,-1.177395 m 3.743854,1.693333 v 0.912812 l -1.42875,-0.14552 0.07938,-0.899584 1.349375,0.132292 m 0,3.5454167 v 0.899592 l -1.296458,0.145521 -0.0926,-0.899584 1.389062,-0.14552 m 0,3.479271 v 0.912813 l -1.217083,-0.119063 0.07937,-0.899583 1.137708,0.105833 m 0,3.360209 v 0.912812 l -1.296458,0.07937 -0.05292,-0.899583 1.349375,-0.0926 m 0,3.227916 v 0.912813 l -1.336146,-0.171979 0.105834,-0.899584 1.230312,0.15875 m -2.831046,1.627189 h -0.912813 l -0.0926,-1.27 0.899583,-0.06615 0.105834,1.336146 m -3.175,0 h -0.899584 l 0.07937,-1.27 0.912813,0.05292 -0.0926,1.217083 m -3.7570837,0 H 6.257389 l -0.105833,-1.322916 0.8995831,-0.06615 0.119062,1.389063 m -3.3998951,0 H 2.870722 l 0.0926,-1.481667 0.899584,0.05292 -0.0926,1.42875 M -7e-6,21.04015 V 20.127337 L 1.203847,20.272858 1.098014,21.172442 -7e-6,21.04015 m 0,-3.227917 v -0.912812 l 1.098021,-0.07937 0.05292,0.912812 -1.150938,0.07937 m 0,-3.360208 V 13.539212 L 1.296454,13.658275 1.217084,14.557858 1e-6,14.452025 m 0,-3.492501 V 10.059941 L 1.045105,9.9408783 1.137705,10.840461 -3e-6,10.959524 m 0,-3.6909377 v -0.754062 l 1.084792,0.0926 -0.07937,0.912813 -0.9525,-0.07937 -0.03969,-0.17198 H -1e-6 m 2.870729,-2.447395 h 0.899584 l -0.06615,1.031875 -0.899584,-0.06615 0.06615,-0.965729"
       id="path1062"
       inkscape:export-filename="C:\Users\Rob\Minetest\minetest-5.0.1-win64\textures\Kenney\wool\wool_white.png"
       inkscape:export-xdpi="96"
       inkscape:export-ydpi="96" />
    <path
       inkscape:connector-curvature="0"
       style="fill:#efefef;fill-opacity:1;stroke:none;stroke-width:0.26458332"
       d="m 2.870728,4.8212003 -0.06615,0.965729 0.899584,0.06615 0.06615,-1.031875 h 2.487083 l 0.0926,1.124475 0.8995831,-0.07937 -0.07937,-1.045104 h 2.8574999 l -0.07937,1.164166 0.899584,0.06615 0.07937,-1.230312 h 2.262187 l 0.0926,1.177395 0.899584,-0.07937 -0.07937,-1.09802 h 2.831041 v 1.693324 l -1.349375,-0.132292 -0.07938,0.899584 1.42875,0.14552 v 0.15875 l -1.984375,0.47625 0.463021,1.9976047 1.521354,-0.3439587 v 0.3439587 l -1.389062,0.14552 0.0926,0.899584 1.296458,-0.145521 v 2.579688 l -1.137695,-0.105833 -0.07938,0.899583 1.217083,0.119063 v 0.529167 l -0.886354,0.105833 0.171979,1.42875 0.714375,-0.07937 v 0.463021 l -1.349375,0.0926 0.05292,0.899583 1.296458,-0.07937 v 2.315104 l -1.230312,-0.15875 -0.105834,0.899584 1.336146,0.171979 v 0.714369 h -2.831041 l -0.105834,-1.336146 -0.899583,0.06615 0.0926,1.27 h -2.262187 l 0.0926,-1.217083 -0.912813,-0.05292 -0.07937,1.27 H 7.1702081 l -0.119062,-1.389063 -0.8995831,0.06615 0.105833,1.322917 H 3.770313 l 0.0926,-1.42875 -0.899584,-0.05292 -0.0926,1.481667 H 0 V 21.040166 L 1.098021,21.172458 1.203854,20.272874 0,20.127353 V 17.812249 L 1.150938,17.732879 1.098018,16.820067 -3e-6,16.899447 V 16.436426 L 0.714372,16.343826 0.542393,14.915076 -3e-6,14.981226 V 14.452059 L 1.21708,14.557892 1.29645,13.658309 -8e-6,13.539246 V 10.959558 L 1.1377,10.840495 1.0451,9.9409123 -4e-6,10.059975 V 9.3985163 l 0.489479,-0.119062 -0.436562,-1.838854 0.9525,0.07938 0.07937,-0.912813 L -9e-6,6.5145673 V 4.8212343 H 2.87072 m 9.405938,3.082395 -1.164167,-0.846666 -0.846667,1.177396 1.177396,0.833437 0.833438,-1.164167 M 1.75947,6.7791503 2.354783,8.0888383 3.66447,7.4935253 3.082387,6.1970673 1.75947,6.7791503 M 2.897179,14.134568 2.050512,15.285505 3.214679,16.132172 4.048116,14.968005 2.897179,14.134568 M 2.870719,9.9144633 2.196032,12.520609 4.802178,13.208526 5.476865,10.58915 2.870719,9.9144633 M 2.473844,17.91811 1.058323,18.143005 1.283219,19.558526 2.69874,19.33363 2.473844,17.91811 m 11.853333,-6.799793 -1.045104,-0.992188 -0.992187,1.045105 1.045104,0.992187 0.992187,-1.045104 m -1.5875,2.659063 -0.926041,-1.111251 -1.11125,0.912814 0.912812,1.11125 1.124479,-0.912813 m -7.540624,3.161771 -0.568855,2.592917 2.5664591,0.568854 0.582083,-2.579687 -2.5796871,-0.582084 m 4.6037501,0.07938 -1.296459,0.595313 0.582084,1.309687 1.3096869,-0.582083 -0.5953119,-1.322917 m -1.084792,-4.616985 -1.9711461,0.621772 0.6350001,1.971146 1.957917,-0.621771 -0.621771,-1.971147 m 7.3421869,5.662084 -1.441979,-0.14552 -0.145521,1.441979 1.42875,0.145521 0.15875,-1.44198"
       id="path1064"
       inkscape:export-filename="C:\Users\Rob\Minetest\minetest-5.0.1-win64\textures\Kenney\wool\wool_white.png"
       inkscape:export-xdpi="96"
       inkscape:export-ydpi="96" />
    <path
       inkscape:connector-curvature="0"
       style="fill:#e5e5e5;fill-opacity:1;stroke:none;stroke-width:0.26458332"
       d="m 16.060207,18.063596 -0.15875,1.44198 -1.42875,-0.145521 0.145521,-1.441979 1.441979,0.14552 M 16.933332,7.5860953 v 2.129896 l -1.521354,0.3439587 -0.463021,-1.9976047 1.984375,-0.47625 m 0,7.3951057 v 1.455208 l -0.714375,0.07937 -0.171979,-1.42875 0.886354,-0.105833 M -1e-6,16.436404 v -1.455208 l 0.542396,-0.06615 0.171979,1.42875 -0.714375,0.0926 m 0,-7.0379177 v -2.129896 h 0.01323 l 0.03969,0.17198 0.436562,1.838854 L 2e-6,9.3984783 m 12.276667,-1.494896 -0.833438,1.164167 -1.177396,-0.833437 0.846667,-1.177396 1.164167,0.846666 M 1.759481,6.7791033 3.082398,6.1970203 3.664481,7.4934783 2.354794,8.0887913 1.759481,6.7791033 M 2.870731,9.9144163 5.476877,10.589103 4.80219,13.208479 2.196044,12.520562 2.870731,9.9144163 m 0.02646,4.2201047 1.150937,0.833437 -0.833437,1.164167 -1.164167,-0.846667 0.846667,-1.150937 m -0.423334,3.783542 0.224896,1.415521 -1.415521,0.224895 -0.224896,-1.415521 1.415521,-0.224895 m 2.725209,-0.978959 2.5796871,0.582084 -0.582083,2.579687 -2.5664591,-0.568854 0.568855,-2.592917 m 7.540624,-3.161771 -1.124479,0.912813 -0.912812,-1.11125 1.11125,-0.912814 0.926041,1.111251 m 1.5875,-2.659063 -0.992187,1.045104 -1.045104,-0.992187 0.992187,-1.045105 1.045104,0.992188 m -5.6091659,1.283229 0.621771,1.971147 -1.957917,0.621771 -0.6350001,-1.971146 1.9711461,-0.621772 m 1.084792,4.61698 0.5953119,1.322917 -1.3096869,0.582083 -0.582084,-1.309687 1.296459,-0.595313"
       id="path1066"
       inkscape:export-filename="C:\Users\Rob\Minetest\minetest-5.0.1-win64\textures\Kenney\wool\wool_white.png"
       inkscape:export-xdpi="96"
       inkscape:export-ydpi="96" />
    <path
       id="path6510"
       d="m 26.437229,4.8211967 h 0.912812 l 0.07937,1.045104 -0.899583,0.07937 -0.0926,-1.124479 m 3.770312,0 h 0.899584 l -0.07937,1.230312 -0.899584,-0.06615 0.07937,-1.164166 m 3.161771,0 h 0.912813 l 0.07937,1.09802 -0.899584,0.07937 -0.0926,-1.177395 m 3.743854,1.693333 v 0.912812 l -1.42875,-0.14552 0.07938,-0.899584 1.349375,0.132292 m 0,3.5454173 v 0.899592 l -1.296458,0.145521 -0.0926,-0.899584 1.389062,-0.14552 m 0,3.479271 v 0.912813 l -1.217083,-0.119063 0.07937,-0.899583 1.137708,0.105833 m 0,3.360209 v 0.912812 l -1.296458,0.07937 -0.05292,-0.899583 1.349375,-0.0926 m 0,3.227916 v 0.912813 l -1.336146,-0.171979 0.105834,-0.899584 1.230312,0.15875 m -2.831046,1.627189 h -0.912813 l -0.0926,-1.27 0.899583,-0.06615 0.105834,1.336146 m -3.175,0 h -0.899584 l 0.07937,-1.27 0.912813,0.05292 -0.0926,1.217083 m -3.757084,0 h -0.912815 l -0.105833,-1.322916 0.899583,-0.06615 0.119062,1.389063 m -3.399895,0 h -0.899584 l 0.0926,-1.481667 0.899584,0.05292 -0.0926,1.42875 m -3.770313,-0.714378 v -0.912813 l 1.203854,0.145521 -0.105833,0.899584 -1.098021,-0.132292 m 0,-3.227917 v -0.912812 l 1.098021,-0.07937 0.05292,0.912812 -1.150938,0.07937 m 0,-3.360208 v -0.912813 l 1.296458,0.119063 -0.07937,0.899583 -1.217083,-0.105833 m 0,-3.492501 v -0.899583 l 1.045104,-0.1190633 0.0926,0.8995833 -1.137708,0.119063 m 0,-3.6909383 v -0.754062 l 1.084792,0.0926 -0.07937,0.912813 -0.9525,-0.07937 -0.03969,-0.17198 h -0.01323 m 2.870729,-2.447395 h 0.899584 l -0.06615,1.031875 -0.899584,-0.06615 0.06615,-0.965729"
       style="fill:#a3a3a3;fill-opacity:1;stroke:none;stroke-width:0.26458332"
       inkscape:connector-curvature="0"
       inkscape:export-filename="C:\Users\Rob\Minetest\minetest-5.0.1-win64\textures\Kenney\wool\wool_grey.png"
       inkscape:export-xdpi="96"
       inkscape:export-ydpi="96" />
    <path
       id="path6512"
       d="m 23.050562,4.8211967 -0.06615,0.965729 0.899584,0.06615 0.06615,-1.031875 h 2.487083 l 0.0926,1.124475 0.899583,-0.07937 -0.07937,-1.045104 h 2.8575 l -0.07937,1.164166 0.899584,0.06615 0.07937,-1.230312 h 2.262187 l 0.0926,1.177395 0.899584,-0.07937 -0.07937,-1.09802 h 2.831041 v 1.693324 l -1.349375,-0.132292 -0.07938,0.899584 1.42875,0.14552 v 0.15875 l -1.984375,0.47625 0.463021,1.9976053 1.521354,-0.3439593 v 0.3439593 l -1.389062,0.14552 0.0926,0.899584 1.296458,-0.145521 v 2.579688 l -1.137695,-0.105833 -0.07938,0.899583 1.217083,0.119063 v 0.529167 l -0.886354,0.105833 0.171979,1.42875 0.714375,-0.07937 v 0.463021 l -1.349375,0.0926 0.05292,0.899583 1.296458,-0.07937 v 2.315104 l -1.230312,-0.15875 -0.105834,0.899584 1.336146,0.171979 v 0.714369 h -2.831041 l -0.105834,-1.336146 -0.899583,0.06615 0.0926,1.27 h -2.262187 l 0.0926,-1.217083 -0.912813,-0.05292 -0.07937,1.27 h -2.8575 l -0.119062,-1.389063 -0.899583,0.06615 0.105833,1.322917 h -2.487083 l 0.0926,-1.42875 -0.899584,-0.05292 -0.0926,1.481667 h -2.870729 v -0.714375 l 1.098021,0.132292 0.105833,-0.899584 -1.203854,-0.145521 v -2.315104 l 1.150938,-0.07937 -0.05292,-0.912812 -1.098021,0.07938 v -0.463021 l 0.714375,-0.0926 -0.171979,-1.42875 -0.542396,0.06615 v -0.529167 l 1.217083,0.105833 0.07937,-0.899583 -1.296458,-0.119063 v -2.579688 l 1.137708,-0.119063 -0.0926,-0.8995833 -1.045104,0.1190633 V 9.3985127 l 0.489479,-0.119062 -0.436562,-1.838854 0.9525,0.07938 0.07937,-0.912813 -1.084792,-0.0926 v -1.693333 h 2.870729 m 9.405938,3.082395 -1.164167,-0.846666 -0.846667,1.177396 1.177396,0.833437 0.833438,-1.164167 m -10.517188,-1.124479 0.595313,1.309688 1.309687,-0.595313 -0.582083,-1.296458 -1.322917,0.582083 m 1.137709,7.3554183 -0.846667,1.150937 1.164167,0.846667 0.833437,-1.164167 -1.150937,-0.833437 m -0.02646,-4.2201053 -0.674687,2.6061463 2.606146,0.687917 0.674687,-2.619376 -2.606146,-0.6746873 m -0.396875,8.0036473 -1.415521,0.224895 0.224896,1.415521 1.415521,-0.224896 -0.224896,-1.41552 m 11.853333,-6.799793 -1.045104,-0.992188 -0.992187,1.045105 1.045104,0.992187 0.992187,-1.045104 m -1.5875,2.659063 -0.926041,-1.111251 -1.11125,0.912814 0.912812,1.11125 1.124479,-0.912813 m -7.540624,3.161771 -0.568855,2.592917 2.566459,0.568854 0.582083,-2.579687 -2.579687,-0.582084 m 4.60375,0.07938 -1.296459,0.595313 0.582084,1.309687 1.309687,-0.582083 -0.595312,-1.322917 m -1.084792,-4.616985 -1.971146,0.621772 0.635,1.971146 1.957917,-0.621771 -0.621771,-1.971147 m 7.342187,5.662084 -1.441979,-0.14552 -0.145521,1.441979 1.42875,0.145521 0.15875,-1.44198"
       style="fill:#999999;fill-opacity:1;stroke:none;stroke-width:0.26458332"
       inkscape:connector-curvature="0"
       inkscape:export-filename="C:\Users\Rob\Minetest\minetest-5.0.1-win64\textures\Kenney\wool\wool_grey.png"
       inkscape:export-xdpi="96"
       inkscape:export-ydpi="96" />
    <path
       id="path6514"
       d="m 36.240041,18.063593 -0.15875,1.44198 -1.42875,-0.145521 0.145521,-1.441979 1.441979,0.14552 M 37.113166,7.5860917 v 2.129896 l -1.521354,0.3439593 -0.463021,-1.9976053 1.984375,-0.47625 m 0,7.3951063 v 1.455208 l -0.714375,0.07937 -0.171979,-1.42875 0.886354,-0.105833 m -16.933333,1.455208 v -1.455208 l 0.542396,-0.06615 0.171979,1.42875 -0.714375,0.0926 m 0,-7.0379183 v -2.129896 h 0.01323 l 0.03969,0.17198 0.436562,1.838854 -0.489479,0.119062 m 12.276667,-1.494896 -0.833438,1.164167 -1.177396,-0.833437 0.846667,-1.177396 1.164167,0.846666 m -10.517188,-1.124479 1.322917,-0.582083 0.582083,1.296458 -1.309687,0.595313 -0.595313,-1.309688 m 1.11125,3.135313 2.606146,0.6746873 -0.674687,2.619376 -2.606146,-0.687917 0.674687,-2.6061463 m 0.02646,4.2201053 1.150937,0.833437 -0.833437,1.164167 -1.164167,-0.846667 0.846667,-1.150937 m -0.423334,3.783542 0.224896,1.415521 -1.415521,0.224895 -0.224896,-1.415521 1.415521,-0.224895 m 2.725209,-0.978959 2.579687,0.582084 -0.582083,2.579687 -2.566459,-0.568854 0.568855,-2.592917 m 7.540624,-3.161771 -1.124479,0.912813 -0.912812,-1.11125 1.11125,-0.912814 0.926041,1.111251 m 1.5875,-2.659063 -0.992187,1.045104 -1.045104,-0.992187 0.992187,-1.045105 1.045104,0.992188 m -5.609166,1.283229 0.621771,1.971147 -1.957917,0.621771 -0.635,-1.971146 1.971146,-0.621772 m 1.084792,4.61698 0.595312,1.322917 -1.309687,0.582083 -0.582084,-1.309687 1.296459,-0.595313"
       style="fill:#8f8f8f;fill-opacity:1;stroke:none;stroke-width:0.26458332"
       inkscape:connector-curvature="0"
       inkscape:export-filename="C:\Users\Rob\Minetest\minetest-5.0.1-win64\textures\Kenney\wool\wool_grey.png"
       inkscape:export-xdpi="96"
       inkscape:export-ydpi="96" />
    <rect
       y="4.8212299"
       x="39.974579"
       height="16.933306"
       width="16.933346"
       id="rect6518"
       style="opacity:1;fill:#494949;fill-opacity:1;fill-rule:nonzero;stroke:none;stroke-width:0.26499999;stroke-linecap:round;stroke-linejoin:bevel;stroke-miterlimit:4;stroke-dasharray:none;stroke-dashoffset:0;stroke-opacity:1;paint-order:normal"
       inkscape:export-filename="C:\Users\Rob\Minetest\minetest-5.0.1-win64\textures\Kenney\wool\wool_dark_grey.png"
       inkscape:export-xdpi="96"
       inkscape:export-ydpi="96" />
    <path
       inkscape:connector-curvature="0"
       style="fill:#545454;fill-opacity:1;stroke:none;stroke-width:0.26458332"
       d="m 46.231983,4.8211964 h 0.912812 l 0.07937,1.045104 -0.899583,0.07937 -0.0926,-1.124479 m 3.770312,0 h 0.899584 l -0.07937,1.230312 -0.899584,-0.06615 0.07937,-1.164166 m 3.161771,0 h 0.912813 l 0.07937,1.09802 -0.899584,0.07937 -0.0926,-1.177395 m 3.743854,1.693333 v 0.912812 l -1.42875,-0.14552 0.07938,-0.899584 1.349375,0.132292 m 0,3.5454176 v 0.899592 l -1.296458,0.145521 -0.0926,-0.899584 1.389062,-0.14552 m 0,3.479271 v 0.912813 l -1.217083,-0.119063 0.07937,-0.899583 1.137708,0.105833 m 0,3.360209 v 0.912812 l -1.296458,0.07937 -0.05292,-0.899583 1.349375,-0.0926 m 0,3.227916 v 0.912813 l -1.336146,-0.171979 0.105834,-0.899584 1.230312,0.15875 m -2.831046,1.627189 H 53.16406 l -0.0926,-1.27 0.899583,-0.06615 0.105834,1.336146 m -3.175,0 h -0.899584 l 0.07937,-1.27 0.912813,0.05292 -0.0926,1.217083 m -3.757084,0 h -0.912815 l -0.105833,-1.322916 0.899583,-0.06615 0.119062,1.389063 m -3.399895,0 H 42.84531 l 0.0926,-1.481667 0.899584,0.05292 -0.0926,1.42875 m -3.770313,-0.714378 v -0.912813 l 1.203854,0.145521 -0.105833,0.899584 -1.098021,-0.132292 m 0,-3.227917 v -0.912812 l 1.098021,-0.07937 0.05292,0.912812 -1.150938,0.07937 m 0,-3.360208 v -0.912813 l 1.296458,0.119063 -0.07937,0.899583 -1.217083,-0.105833 m 0,-3.492501 v -0.899583 l 1.045104,-0.1190636 0.0926,0.8995836 -1.137708,0.119063 m 0,-3.6909386 v -0.754062 l 1.084792,0.0926 -0.07937,0.912813 -0.9525,-0.07937 -0.03969,-0.17198 h -0.01323 m 2.870729,-2.447395 H 43.7449 l -0.06615,1.031875 -0.899584,-0.06615 0.06615,-0.965729"
       id="path6520"
       inkscape:export-filename="C:\Users\Rob\Minetest\minetest-5.0.1-win64\textures\Kenney\wool\wool_dark_grey.png"
       inkscape:export-xdpi="96"
       inkscape:export-ydpi="96" />
    <path
       inkscape:connector-curvature="0"
       style="fill:#404040;fill-opacity:1;stroke:none;stroke-width:0.26458332"
       d="m 56.034795,18.063593 -0.15875,1.44198 -1.42875,-0.145521 0.145521,-1.441979 1.441979,0.14552 M 56.90792,7.5860914 v 2.129896 l -1.521354,0.3439596 -0.463021,-1.9976056 1.984375,-0.47625 m 0,7.3951066 v 1.455208 l -0.714375,0.07937 -0.171979,-1.42875 0.886354,-0.105833 m -16.933333,1.455208 v -1.455208 l 0.542396,-0.06615 0.171979,1.42875 -0.714375,0.0926 m 0,-7.0379186 v -2.129896 h 0.01323 l 0.03969,0.17198 0.436562,1.838854 -0.489479,0.119062 m 12.276667,-1.494896 -0.833438,1.164167 -1.177396,-0.833437 0.846667,-1.177396 1.164167,0.846666 m -10.517188,-1.124479 1.322917,-0.582083 0.582083,1.296458 -1.309687,0.595313 -0.595313,-1.309688 m 1.11125,3.135313 2.606146,0.6746876 -0.674687,2.619376 -2.606146,-0.687917 0.674687,-2.6061466 m 0.02646,4.2201056 1.150937,0.833437 -0.833437,1.164167 -1.164167,-0.846667 0.846667,-1.150937 m -0.423334,3.783542 0.224896,1.415521 -1.415521,0.224895 -0.224896,-1.415521 1.415521,-0.224895 m 2.725209,-0.978959 2.579687,0.582084 -0.582083,2.579687 -2.566459,-0.568854 0.568855,-2.592917 m 7.540624,-3.161771 -1.124479,0.912813 -0.912812,-1.11125 1.11125,-0.912814 0.926041,1.111251 m 1.5875,-2.659063 -0.992187,1.045104 -1.045104,-0.992187 0.992187,-1.045105 1.045104,0.992188 m -5.609166,1.283229 0.621771,1.971147 -1.957917,0.621771 -0.635,-1.971146 1.971146,-0.621772 m 1.084792,4.61698 0.595312,1.322917 -1.309687,0.582083 -0.582084,-1.309687 1.296459,-0.595313"
       id="path6524"
       inkscape:export-filename="C:\Users\Rob\Minetest\minetest-5.0.1-win64\textures\Kenney\wool\wool_dark_grey.png"
       inkscape:export-xdpi="96"
       inkscape:export-ydpi="96" />
    <rect
       style="opacity:1;fill:#222222;fill-opacity:1;fill-rule:nonzero;stroke:none;stroke-width:0.26499999;stroke-linecap:round;stroke-linejoin:bevel;stroke-miterlimit:4;stroke-dasharray:none;stroke-dashoffset:0;stroke-opacity:1;paint-order:normal"
       id="rect6526"
       width="16.933346"
       height="16.933306"
       x="59.448673"
       y="4.8212457"
       inkscape:export-filename="C:\Users\Rob\Minetest\minetest-5.0.1-win64\textures\Kenney\wool\wool_black.png"
       inkscape:export-xdpi="96"
       inkscape:export-ydpi="96" />
    <path
       id="path6528"
       d="m 65.706077,4.8212118 h 0.912812 l 0.07937,1.045104 -0.899583,0.07937 -0.0926,-1.124479 m 3.770312,0 h 0.899584 l -0.07937,1.230312 -0.899584,-0.06615 0.07937,-1.164166 m 3.161771,0 h 0.912813 l 0.07937,1.09802 -0.899584,0.07937 -0.0926,-1.177395 m 3.743854,1.693333 v 0.912812 l -1.42875,-0.14552 0.07938,-0.899584 1.349375,0.132292 m 0,3.5454182 v 0.899592 l -1.296458,0.145521 -0.0926,-0.899584 1.389062,-0.14552 m 0,3.479271 v 0.912813 l -1.217083,-0.119063 0.07937,-0.899583 1.137708,0.105833 m 0,3.360209 v 0.912812 l -1.296458,0.07937 -0.05292,-0.899583 1.349375,-0.0926 m 0,3.227916 v 0.912813 l -1.336146,-0.171979 0.105834,-0.899584 1.230312,0.15875 m -2.831046,1.627189 h -0.912813 l -0.0926,-1.27 0.899583,-0.06615 0.105834,1.336146 m -3.175,0 h -0.899584 l 0.07937,-1.27 0.912813,0.05292 -0.0926,1.217083 m -3.757084,0 h -0.912815 l -0.105833,-1.322916 0.899583,-0.06615 0.119062,1.389063 m -3.399895,0 h -0.899584 l 0.0926,-1.481667 0.899584,0.05292 -0.0926,1.42875 M 59.448675,21.040163 V 20.12735 l 1.203854,0.145521 -0.105833,0.899584 -1.098021,-0.132292 m 0,-3.227917 v -0.912812 l 1.098021,-0.07937 0.05292,0.912812 -1.150938,0.07937 m 0,-3.360208 v -0.912813 l 1.296458,0.119063 -0.07937,0.899583 -1.217083,-0.105833 m 0,-3.492501 v -0.899583 l 1.045104,-0.1190643 0.0926,0.8995843 -1.137708,0.119063 m 0,-3.6909392 v -0.754062 l 1.084792,0.0926 -0.07937,0.912813 -0.9525,-0.07937 -0.03969,-0.17198 h -0.01323 m 2.870729,-2.447395 h 0.899584 l -0.06615,1.031875 -0.899584,-0.06615 0.06615,-0.965729"
       style="fill:#2e2e2e;fill-opacity:1;stroke:none;stroke-width:0.26458332"
       inkscape:connector-curvature="0"
       inkscape:export-filename="C:\Users\Rob\Minetest\minetest-5.0.1-win64\textures\Kenney\wool\wool_black.png"
       inkscape:export-xdpi="96"
       inkscape:export-ydpi="96" />
    <path
       id="path6530"
       d="m 75.508889,18.063609 -0.15875,1.44198 -1.42875,-0.145521 0.145521,-1.441979 1.441979,0.14552 M 76.382014,7.5861068 v 2.1298959 l -1.521354,0.3439603 -0.463021,-1.9976062 1.984375,-0.47625 m 0,7.3951072 v 1.455208 l -0.714375,0.07937 -0.171979,-1.42875 0.886354,-0.105833 m -16.933333,1.455208 v -1.455208 l 0.542396,-0.06615 0.171979,1.42875 -0.714375,0.0926 m 0,-7.0379193 V 7.2685938 h 0.01323 l 0.03969,0.17198 0.436562,1.8388539 -0.489479,0.119062 m 12.276667,-1.4948959 -0.833438,1.1641669 -1.177396,-0.8334369 0.846667,-1.177396 1.164167,0.846666 m -10.517188,-1.124479 1.322917,-0.582083 0.582083,1.296458 -1.309687,0.595313 -0.595313,-1.309688 m 1.11125,3.1353129 2.606146,0.6746883 -0.674687,2.619376 -2.606146,-0.687917 0.674687,-2.6061473 m 0.02646,4.2201063 1.150937,0.833437 -0.833437,1.164167 -1.164167,-0.846667 0.846667,-1.150937 m -0.423334,3.783542 0.224896,1.415521 -1.415521,0.224895 -0.224896,-1.415521 1.415521,-0.224895 m 2.725209,-0.978959 2.579687,0.582084 -0.582083,2.579687 -2.566459,-0.568854 0.568855,-2.592917 m 7.540624,-3.161771 -1.124479,0.912813 -0.912812,-1.11125 1.11125,-0.912814 0.926041,1.111251 m 1.5875,-2.659063 -0.992187,1.045104 -1.045104,-0.992187 0.992187,-1.045105 1.045104,0.992188 m -5.609166,1.283229 0.621771,1.971147 -1.957917,0.621771 -0.635,-1.971146 1.971146,-0.621772 m 1.084792,4.61698 0.595312,1.322917 -1.309687,0.582083 -0.582084,-1.309687 1.296459,-0.595313"
       style="fill:#141414;fill-opacity:1;stroke:none;stroke-width:0.26458332"
       inkscape:connector-curvature="0"
       inkscape:export-filename="C:\Users\Rob\Minetest\minetest-5.0.1-win64\textures\Kenney\wool\wool_black.png"
       inkscape:export-xdpi="96"
       inkscape:export-ydpi="96" />
    <rect
       style="opacity:1;fill:#014f9a;fill-opacity:1;fill-rule:nonzero;stroke:none;stroke-width:0.26499999;stroke-linecap:round;stroke-linejoin:bevel;stroke-miterlimit:4;stroke-dasharray:none;stroke-dashoffset:0;stroke-opacity:1;paint-order:normal"
       id="rect6540"
       width="16.933346"
       height="16.933306"
       x="-5.9745848e-06"
       y="28.377279"
       inkscape:export-filename="C:\Users\Rob\Minetest\minetest-5.0.1-win64\textures\Kenney\wool\wool_blue.png"
       inkscape:export-xdpi="96"
       inkscape:export-ydpi="96" />
    <path
       id="path6542"
       d="m 6.2573981,28.377248 h 0.912812 l 0.07937,1.045104 -0.899583,0.07937 -0.0926,-1.124479 m 3.7703119,0 h 0.899584 l -0.07937,1.230312 -0.8995839,-0.06615 0.07937,-1.164166 m 3.161771,0 h 0.912813 l 0.07937,1.09802 -0.899584,0.07937 -0.0926,-1.177395 m 3.743854,1.693333 v 0.912812 l -1.42875,-0.14552 0.07938,-0.899584 1.349375,0.132292 m 0,3.545418 v 0.899592 l -1.296458,0.145521 -0.0926,-0.899584 1.389062,-0.14552 m 0,3.479271 v 0.912813 l -1.217083,-0.119063 0.07937,-0.899583 1.137708,0.105833 m 0,3.360209 v 0.912812 l -1.296458,0.07937 -0.05292,-0.899583 1.349375,-0.0926 m 0,3.227916 v 0.912813 l -1.336146,-0.171979 0.105834,-0.899584 1.230312,0.15875 m -2.831046,1.627189 h -0.912813 l -0.0926,-1.27 0.899583,-0.06615 0.105834,1.336146 m -3.175,0 h -0.899584 l 0.07937,-1.27 0.912813,0.05292 -0.0926,1.217083 m -3.7570836,0 h -0.912815 l -0.105833,-1.322916 0.899583,-0.06615 0.119062,1.389063 m -3.3998951,0 H 2.870725 l 0.0926,-1.481667 0.899584,0.05292 -0.0926,1.42875 M -4e-6,44.596199 V 43.683386 L 1.20385,43.828907 1.098017,44.728491 -4e-6,44.596199 m 0,-3.227917 V 40.45547 L 1.098017,40.3761 1.150937,41.288912 -1e-6,41.368282 m 0,-3.360208 V 37.095261 L 1.296457,37.214324 1.217087,38.113907 4e-6,38.008074 m 0,-3.492501 V 33.61599 L 1.045108,33.496926 1.137708,34.39651 0,34.515573 m 0,-3.690939 v -0.754062 l 1.084792,0.0926 -0.07937,0.912813 -0.9525,-0.07937 -0.03969,-0.17198 H 2e-6 M 2.870731,28.37724 h 0.899584 l -0.06615,1.031875 -0.899584,-0.06615 0.06615,-0.965729"
       style="fill:#0155a8;fill-opacity:1;stroke:none;stroke-width:0.26458332"
       inkscape:connector-curvature="0"
       inkscape:export-filename="C:\Users\Rob\Minetest\minetest-5.0.1-win64\textures\Kenney\wool\wool_blue.png"
       inkscape:export-xdpi="96"
       inkscape:export-ydpi="96" />
    <path
       id="path6544"
       d="m 16.06021,41.619645 -0.15875,1.44198 -1.42875,-0.145521 0.145521,-1.441979 1.441979,0.14552 m 0.873125,-10.477502 v 2.129896 l -1.521354,0.34396 -0.463021,-1.997606 1.984375,-0.47625 m 0,7.395107 v 1.455208 l -0.714375,0.07937 -0.171979,-1.42875 0.886354,-0.105833 M 2e-6,39.992453 v -1.455208 l 0.542396,-0.06615 0.171979,1.42875 -0.714375,0.0926 m 0,-7.037919 V 30.82463 h 0.01323 l 0.03969,0.17198 0.436562,1.838854 L 5e-6,32.954526 m 12.276667,-1.494896 -0.833438,1.164167 -1.177396,-0.833437 0.846667,-1.177396 1.164167,0.846666 M 1.759484,30.335151 3.082401,29.753068 3.664484,31.049526 2.354797,31.644839 1.759484,30.335151 m 1.11125,3.135313 2.606146,0.674688 -0.674687,2.619376 -2.606146,-0.687917 0.674687,-2.606147 M 2.897194,37.69057 4.048131,38.524007 3.214694,39.688174 2.050527,38.841507 2.897194,37.69057 M 2.47386,41.474112 2.698756,42.889633 1.283235,43.114528 1.058339,41.699007 2.47386,41.474112 M 5.199069,40.495153 7.7787561,41.077237 7.1966731,43.656924 4.630214,43.08807 5.199069,40.495153 m 7.540624,-3.161771 -1.124479,0.912813 -0.912812,-1.11125 1.11125,-0.912814 0.926041,1.111251 m 1.5875,-2.659063 -0.992187,1.045104 -1.045104,-0.992187 0.992187,-1.045105 1.045104,0.992188 m -5.6091659,1.283229 0.621771,1.971147 -1.957917,0.621771 -0.635,-1.971146 1.971146,-0.621772 m 1.084792,4.61698 0.5953119,1.322917 -1.3096869,0.582083 -0.582084,-1.309687 1.296459,-0.595313"
       style="fill:#01498c;fill-opacity:1;stroke:none;stroke-width:0.26458332"
       inkscape:connector-curvature="0"
       inkscape:export-filename="C:\Users\Rob\Minetest\minetest-5.0.1-win64\textures\Kenney\wool\wool_blue.png"
       inkscape:export-xdpi="96"
       inkscape:export-ydpi="96" />
    <rect
       y="28.377275"
       x="20.179825"
       height="16.933306"
       width="16.933346"
       id="rect6546"
       style="opacity:1;fill:#0f9597;fill-opacity:1;fill-rule:nonzero;stroke:none;stroke-width:0.26499999;stroke-linecap:round;stroke-linejoin:bevel;stroke-miterlimit:4;stroke-dasharray:none;stroke-dashoffset:0;stroke-opacity:1;paint-order:normal"
       inkscape:export-filename="C:\Users\Rob\Minetest\minetest-5.0.1-win64\textures\Kenney\wool\wool_cyan.png"
       inkscape:export-xdpi="96"
       inkscape:export-ydpi="96" />
    <path
       inkscape:connector-curvature="0"
       style="fill:#0fa1a3;fill-opacity:1;stroke:none;stroke-width:0.26458332"
       d="m 26.437228,28.377244 h 0.912812 l 0.07937,1.045104 -0.899583,0.07937 -0.0926,-1.124479 m 3.770312,0 h 0.899584 l -0.07937,1.230312 -0.899584,-0.06615 0.07937,-1.164166 m 3.161771,0 h 0.912813 l 0.07937,1.09802 -0.899584,0.07937 -0.0926,-1.177395 m 3.743854,1.693333 v 0.912812 l -1.42875,-0.14552 0.07938,-0.899584 1.349375,0.132292 m 0,3.545418 v 0.899592 l -1.296458,0.145521 -0.0926,-0.899584 1.389062,-0.14552 m 0,3.479271 v 0.912813 l -1.217083,-0.119063 0.07937,-0.899583 1.137708,0.105833 m 0,3.360209 v 0.912812 l -1.296458,0.07937 -0.05292,-0.899583 1.349375,-0.0926 m 0,3.227916 v 0.912813 l -1.336146,-0.171979 0.105834,-0.899584 1.230312,0.15875 m -2.831046,1.627189 h -0.912813 l -0.0926,-1.27 0.899583,-0.06615 0.105834,1.336146 m -3.175,0 h -0.899584 l 0.07937,-1.27 0.912813,0.05292 -0.0926,1.217083 m -3.757084,0 h -0.912815 l -0.105833,-1.322916 0.899583,-0.06615 0.119062,1.389063 m -3.399895,0 h -0.899584 l 0.0926,-1.481667 0.899584,0.05292 -0.0926,1.42875 m -3.770313,-0.714378 v -0.912813 l 1.203854,0.145521 -0.105833,0.899584 -1.098021,-0.132292 m 0,-3.227917 v -0.912812 l 1.098021,-0.07937 0.05292,0.912812 -1.150938,0.07937 m 0,-3.360208 v -0.912813 l 1.296458,0.119063 -0.07937,0.899583 -1.217083,-0.105833 m 0,-3.492501 v -0.899583 l 1.045104,-0.119064 0.0926,0.899584 -1.137708,0.119063 m 0,-3.690939 v -0.754062 l 1.084792,0.0926 -0.07937,0.912813 -0.9525,-0.07937 -0.03969,-0.17198 h -0.01323 m 2.870729,-2.447395 h 0.899584 l -0.06615,1.031875 -0.899584,-0.06615 0.06615,-0.965729"
       id="path6548"
       inkscape:export-filename="C:\Users\Rob\Minetest\minetest-5.0.1-win64\textures\Kenney\wool\wool_cyan.png"
       inkscape:export-xdpi="96"
       inkscape:export-ydpi="96" />
    <path
       inkscape:connector-curvature="0"
       style="fill:#0f8a8c;fill-opacity:1;stroke:none;stroke-width:0.26458332"
       d="m 36.24004,41.619641 -0.15875,1.44198 -1.42875,-0.145521 0.145521,-1.441979 1.441979,0.14552 m 0.873125,-10.477502 v 2.129896 l -1.521354,0.34396 -0.463021,-1.997606 1.984375,-0.47625 m 0,7.395107 v 1.455208 l -0.714375,0.07937 -0.171979,-1.42875 0.886354,-0.105833 m -16.933333,1.455208 v -1.455208 l 0.542396,-0.06615 0.171979,1.42875 -0.714375,0.0926 m 0,-7.037919 v -2.129896 h 0.01323 l 0.03969,0.17198 0.436562,1.838854 -0.489479,0.119062 m 12.276667,-1.494896 -0.833438,1.164167 -1.177396,-0.833437 0.846667,-1.177396 1.164167,0.846666 m -10.517188,-1.124479 1.322917,-0.582083 0.582083,1.296458 -1.309687,0.595313 -0.595313,-1.309688 m 1.11125,3.135313 2.606146,0.674688 -0.674687,2.619376 -2.606146,-0.687917 0.674687,-2.606147 m 0.02646,4.220106 1.150937,0.833437 -0.833437,1.164167 -1.164167,-0.846667 0.846667,-1.150937 m -0.423334,3.783542 0.224896,1.415521 -1.415521,0.224895 -0.224896,-1.415521 1.415521,-0.224895 m 2.725209,-0.978959 2.579687,0.582084 -0.582083,2.579687 -2.566459,-0.568854 0.568855,-2.592917 m 7.540624,-3.161771 -1.124479,0.912813 -0.912812,-1.11125 1.11125,-0.912814 0.926041,1.111251 m 1.5875,-2.659063 -0.992187,1.045104 -1.045104,-0.992187 0.992187,-1.045105 1.045104,0.992188 m -5.609166,1.283229 0.621771,1.971147 -1.957917,0.621771 -0.635,-1.971146 1.971146,-0.621772 m 1.084792,4.61698 0.595312,1.322917 -1.309687,0.582083 -0.582084,-1.309687 1.296459,-0.595313"
       id="path6550"
       inkscape:export-filename="C:\Users\Rob\Minetest\minetest-5.0.1-win64\textures\Kenney\wool\wool_cyan.png"
       inkscape:export-xdpi="96"
       inkscape:export-ydpi="96" />
    <rect
       style="opacity:1;fill:#60de03;fill-opacity:1;fill-rule:nonzero;stroke:none;stroke-width:0.26499999;stroke-linecap:round;stroke-linejoin:bevel;stroke-miterlimit:4;stroke-dasharray:none;stroke-dashoffset:0;stroke-opacity:1;paint-order:normal"
       id="rect6552"
       width="16.933346"
       height="16.933306"
       x="39.974579"
       y="28.377275"
       inkscape:export-filename="C:\Users\Rob\Minetest\minetest-5.0.1-win64\textures\Kenney\wool\wool_green.png"
       inkscape:export-xdpi="96"
       inkscape:export-ydpi="96" />
    <path
       id="path6554"
       d="m 46.231981,28.377243 h 0.912812 l 0.07937,1.045104 -0.899583,0.07937 -0.0926,-1.124479 m 3.770312,0 h 0.899584 l -0.07937,1.230312 -0.899584,-0.06615 0.07937,-1.164166 m 3.161771,0 h 0.912813 l 0.07937,1.09802 -0.899584,0.07937 -0.0926,-1.177395 m 3.743854,1.693333 v 0.912812 l -1.42875,-0.14552 0.07938,-0.899584 1.349375,0.132292 m 0,3.545418 v 0.899592 l -1.296458,0.145521 -0.0926,-0.899584 1.389062,-0.14552 m 0,3.479271 v 0.912813 l -1.217083,-0.119063 0.07937,-0.899583 1.137708,0.105833 m 0,3.360209 v 0.912812 l -1.296458,0.07937 -0.05292,-0.899583 1.349375,-0.0926 m 0,3.227916 v 0.912813 l -1.336146,-0.171979 0.105834,-0.899584 1.230312,0.15875 m -2.831046,1.627189 h -0.912813 l -0.0926,-1.27 0.899583,-0.06615 0.105834,1.336146 m -3.175,0 h -0.899584 l 0.07937,-1.27 0.912813,0.05292 -0.0926,1.217083 m -3.757084,0 h -0.912815 l -0.105833,-1.322916 0.899583,-0.06615 0.119062,1.389063 m -3.399895,0 h -0.899584 l 0.0926,-1.481667 0.899584,0.05292 -0.0926,1.42875 m -3.770313,-0.714378 v -0.912813 l 1.203854,0.145521 -0.105833,0.899584 -1.098021,-0.132292 m 0,-3.227917 v -0.912812 l 1.098021,-0.07937 0.05292,0.912812 -1.150938,0.07937 m 0,-3.360208 v -0.912813 l 1.296458,0.119063 -0.07937,0.899583 -1.217083,-0.105833 m 0,-3.492501 v -0.899583 l 1.045104,-0.119064 0.0926,0.899584 -1.137708,0.119063 m 0,-3.690939 v -0.754062 l 1.084792,0.0926 -0.07937,0.912813 -0.9525,-0.07937 -0.03969,-0.17198 h -0.01323 m 2.870729,-2.447395 h 0.899584 l -0.06615,1.031875 -0.899584,-0.06615 0.06615,-0.965729"
       style="fill:#64e803;fill-opacity:1;stroke:none;stroke-width:0.26458332"
       inkscape:connector-curvature="0"
       inkscape:export-filename="C:\Users\Rob\Minetest\minetest-5.0.1-win64\textures\Kenney\wool\wool_green.png"
       inkscape:export-xdpi="96"
       inkscape:export-ydpi="96" />
    <path
       id="path6556"
       d="m 56.034793,41.61964 -0.15875,1.44198 -1.42875,-0.145521 0.145521,-1.441979 1.441979,0.14552 m 0.873125,-10.477502 v 2.129896 l -1.521354,0.34396 -0.463021,-1.997606 1.984375,-0.47625 m 0,7.395107 v 1.455208 l -0.714375,0.07937 -0.171979,-1.42875 0.886354,-0.105833 M 39.974585,39.992448 V 38.53724 l 0.542396,-0.06615 0.171979,1.42875 -0.714375,0.0926 m 0,-7.037919 v -2.129896 h 0.01323 l 0.03969,0.17198 0.436562,1.838854 -0.489479,0.119062 m 12.276667,-1.494896 -0.833438,1.164167 -1.177396,-0.833437 0.846667,-1.177396 1.164167,0.846666 m -10.517188,-1.124479 1.322917,-0.582083 0.582083,1.296458 -1.309687,0.595313 -0.595313,-1.309688 m 1.11125,3.135313 2.606146,0.674688 -0.674687,2.619376 -2.606146,-0.687917 0.674687,-2.606147 m 0.02646,4.220106 1.150937,0.833437 -0.833437,1.164167 -1.164167,-0.846667 0.846667,-1.150937 m -0.423334,3.783542 0.224896,1.415521 -1.415521,0.224895 -0.224896,-1.415521 1.415521,-0.224895 m 2.725209,-0.978959 2.579687,0.582084 -0.582083,2.579687 -2.566459,-0.568854 0.568855,-2.592917 m 7.540624,-3.161771 -1.124479,0.912813 -0.912812,-1.11125 1.11125,-0.912814 0.926041,1.111251 m 1.5875,-2.659063 -0.992187,1.045104 -1.045104,-0.992187 0.992187,-1.045105 1.045104,0.992188 m -5.609166,1.283229 0.621771,1.971147 -1.957917,0.621771 -0.635,-1.971146 1.971146,-0.621772 m 1.084792,4.61698 0.595312,1.322917 -1.309687,0.582083 -0.582084,-1.309687 1.296459,-0.595313"
       style="fill:#5bd103;fill-opacity:1;stroke:none;stroke-width:0.26458332"
       inkscape:connector-curvature="0"
       inkscape:export-filename="C:\Users\Rob\Minetest\minetest-5.0.1-win64\textures\Kenney\wool\wool_green.png"
       inkscape:export-xdpi="96"
       inkscape:export-ydpi="96" />
    <rect
       y="28.377275"
       x="59.448673"
       height="16.933306"
       width="16.933346"
       id="rect6558"
       style="opacity:1;fill:#2c7a00;fill-opacity:1;fill-rule:nonzero;stroke:none;stroke-width:0.26499999;stroke-linecap:round;stroke-linejoin:bevel;stroke-miterlimit:4;stroke-dasharray:none;stroke-dashoffset:0;stroke-opacity:1;paint-order:normal"
       inkscape:export-filename="C:\Users\Rob\Minetest\minetest-5.0.1-win64\textures\Kenney\wool\wool_dark_green.png"
       inkscape:export-xdpi="96"
       inkscape:export-ydpi="96" />
    <path
       inkscape:connector-curvature="0"
       style="fill:#318700;fill-opacity:1;stroke:none;stroke-width:0.26458332"
       d="m 65.706074,28.377242 h 0.912812 l 0.07937,1.045104 -0.899583,0.07937 -0.0926,-1.124479 m 3.770312,0 h 0.899584 l -0.07937,1.230312 -0.899584,-0.06615 0.07937,-1.164166 m 3.161771,0 h 0.912813 l 0.07937,1.09802 -0.899584,0.07937 -0.0926,-1.177395 m 3.743854,1.693333 v 0.912812 l -1.42875,-0.14552 0.07938,-0.899584 1.349375,0.132292 m 0,3.545418 v 0.899592 l -1.296458,0.145521 -0.0926,-0.899584 1.389062,-0.14552 m 0,3.479271 v 0.912813 l -1.217083,-0.119063 0.07937,-0.899583 1.137708,0.105833 m 0,3.360209 v 0.912812 l -1.296458,0.07937 -0.05292,-0.899583 1.349375,-0.0926 m 0,3.227916 v 0.912813 l -1.336146,-0.171979 0.105834,-0.899584 1.230312,0.15875 m -2.831046,1.627189 h -0.912813 l -0.0926,-1.27 0.899583,-0.06615 0.105834,1.336146 m -3.175,0 h -0.899584 l 0.07937,-1.27 0.912813,0.05292 -0.0926,1.217083 m -3.757084,0 h -0.912815 l -0.105833,-1.322916 0.899583,-0.06615 0.119062,1.389063 m -3.399895,0 h -0.899584 l 0.0926,-1.481667 0.899584,0.05292 -0.0926,1.42875 M 59.448672,44.596193 V 43.68338 l 1.203854,0.145521 -0.105833,0.899584 -1.098021,-0.132292 m 0,-3.227917 v -0.912812 l 1.098021,-0.07937 0.05292,0.912812 -1.150938,0.07937 m 0,-3.360208 v -0.912813 l 1.296458,0.119063 -0.07937,0.899583 -1.217083,-0.105833 m 0,-3.492501 v -0.899583 l 1.045104,-0.119064 0.0926,0.899584 -1.137708,0.119063 m 0,-3.690939 v -0.754062 l 1.084792,0.0926 -0.07937,0.912813 -0.9525,-0.07937 -0.03969,-0.17198 h -0.01323 m 2.870729,-2.447395 h 0.899584 l -0.06615,1.031875 -0.899584,-0.06615 0.06615,-0.965729"
       id="path6560"
       inkscape:export-filename="C:\Users\Rob\Minetest\minetest-5.0.1-win64\textures\Kenney\wool\wool_dark_green.png"
       inkscape:export-xdpi="96"
       inkscape:export-ydpi="96" />
    <path
       inkscape:connector-curvature="0"
       style="fill:#287000;fill-opacity:1;stroke:none;stroke-width:0.26458332"
       d="m 75.508886,41.619639 -0.15875,1.44198 -1.42875,-0.145521 0.145521,-1.441979 1.441979,0.14552 m 0.873125,-10.477502 v 2.129896 l -1.521354,0.34396 -0.463021,-1.997606 1.984375,-0.47625 m 0,7.395107 v 1.455208 l -0.714375,0.07937 -0.171979,-1.42875 0.886354,-0.105833 m -16.933333,1.455208 v -1.455208 l 0.542396,-0.06615 0.171979,1.42875 -0.714375,0.0926 m 0,-7.037919 v -2.129896 h 0.01323 l 0.03969,0.17198 0.436562,1.838854 -0.489479,0.119062 m 12.276667,-1.494896 -0.833438,1.164167 -1.177396,-0.833437 0.846667,-1.177396 1.164167,0.846666 M 61.20816,30.335145 62.531077,29.753062 63.11316,31.04952 61.803473,31.644833 61.20816,30.335145 m 1.11125,3.135313 2.606146,0.674688 -0.674687,2.619376 -2.606146,-0.687917 0.674687,-2.606147 m 0.02646,4.220106 1.150937,0.833437 -0.833437,1.164167 -1.164167,-0.846667 0.846667,-1.150937 m -0.423334,3.783542 0.224896,1.415521 -1.415521,0.224895 -0.224896,-1.415521 1.415521,-0.224895 m 2.725209,-0.978959 2.579687,0.582084 -0.582083,2.579687 -2.566459,-0.568854 0.568855,-2.592917 m 7.540624,-3.161771 -1.124479,0.912813 -0.912812,-1.11125 1.11125,-0.912814 0.926041,1.111251 m 1.5875,-2.659063 -0.992187,1.045104 -1.045104,-0.992187 0.992187,-1.045105 1.045104,0.992188 m -5.609166,1.283229 0.621771,1.971147 -1.957917,0.621771 -0.635,-1.971146 1.971146,-0.621772 m 1.084792,4.61698 0.595312,1.322917 -1.309687,0.582083 -0.582084,-1.309687 1.296459,-0.595313"
       id="path6562"
       inkscape:export-filename="C:\Users\Rob\Minetest\minetest-5.0.1-win64\textures\Kenney\wool\wool_dark_green.png"
       inkscape:export-xdpi="96"
       inkscape:export-ydpi="96" />
    <rect
       y="50.408356"
       x="0"
       height="16.933306"
       width="16.933346"
       id="rect6566"
       style="opacity:1;fill:#ebe817;fill-opacity:1;fill-rule:nonzero;stroke:none;stroke-width:0.26499999;stroke-linecap:round;stroke-linejoin:bevel;stroke-miterlimit:4;stroke-dasharray:none;stroke-dashoffset:0;stroke-opacity:1;paint-order:normal"
       inkscape:export-filename="C:\Users\Rob\Minetest\minetest-5.0.1-win64\textures\Kenney\wool\wool_yellow.png"
       inkscape:export-xdpi="96"
       inkscape:export-ydpi="96" />
    <path
       inkscape:connector-curvature="0"
       style="fill:#f6f317;fill-opacity:1;stroke:none;stroke-width:0.26458332"
       d="m 6.2574041,50.408324 h 0.912812 l 0.07937,1.045104 -0.899583,0.07937 -0.0926,-1.124479 m 3.7703119,0 h 0.899584 l -0.07937,1.230312 -0.8995839,-0.06615 0.07937,-1.164166 m 3.161771,0 h 0.912813 l 0.07937,1.09802 -0.899584,0.07937 -0.0926,-1.177395 m 3.743854,1.693333 v 0.912812 l -1.42875,-0.14552 0.07938,-0.899584 1.349375,0.132292 m 0,3.545418 v 0.899592 l -1.296458,0.145521 -0.0926,-0.899584 1.389062,-0.14552 m 0,3.479271 v 0.912813 l -1.217083,-0.119063 0.07937,-0.899583 1.137708,0.105833 m 0,3.360209 v 0.912812 l -1.296458,0.07937 -0.05292,-0.899583 1.349375,-0.0926 m 0,3.227916 v 0.912813 l -1.336146,-0.171979 0.105834,-0.899584 1.230312,0.15875 m -2.831046,1.627189 h -0.912813 l -0.0926,-1.27 0.899583,-0.06615 0.105834,1.336146 m -3.175,0 h -0.899584 l 0.07937,-1.27 0.912813,0.05292 -0.0926,1.217083 m -3.7570835,0 h -0.912815 l -0.105833,-1.322916 0.899583,-0.06615 0.119062,1.389063 m -3.3998951,0 H 2.870731 l 0.0926,-1.481667 0.899584,0.05292 -0.0926,1.42875 M 1.9745848e-6,66.627275 V 65.714462 L 1.203856,65.859983 1.098023,66.759567 1.9745848e-6,66.627275 m 0,-3.227917 V 62.486546 L 1.098023,62.407176 1.150943,63.319988 4.9745848e-6,63.399358 m 0,-3.360208 V 59.126337 L 1.296463,59.2454 1.217093,60.144983 9.9745848e-6,60.03915 m 0,-3.492501 V 55.647066 L 1.045114,55.528002 1.137714,56.427586 5.9745848e-6,56.546649 m 0,-3.690939 V 52.101648 L 1.084798,52.194248 l -0.07937,0.912813 -0.95250003,-0.07937 -0.03969,-0.17198 H 7.9745848e-6 M 2.870737,50.408316 h 0.899584 l -0.06615,1.031875 -0.899584,-0.06615 0.06615,-0.965729"
       id="path6568"
       inkscape:export-filename="C:\Users\Rob\Minetest\minetest-5.0.1-win64\textures\Kenney\wool\wool_yellow.png"
       inkscape:export-xdpi="96"
       inkscape:export-ydpi="96" />
    <path
       inkscape:connector-curvature="0"
       style="fill:#e0de17;fill-opacity:1;stroke:none;stroke-width:0.26458332"
       d="m 16.060216,63.650721 -0.15875,1.44198 -1.42875,-0.145521 0.145521,-1.441979 1.441979,0.14552 m 0.873125,-10.477502 v 2.129896 l -1.521354,0.34396 -0.463021,-1.997606 1.984375,-0.47625 m 0,7.395107 v 1.455208 l -0.714375,0.07937 -0.171979,-1.42875 0.886354,-0.105833 M 7.9745848e-6,62.023529 V 60.568321 L 0.54240397,60.502171 l 0.171979,1.42875 -0.7143749954152,0.0926 m 0,-7.037919 V 52.855706 H 0.01323797 l 0.03969,0.17198 0.436562,1.838854 L 1.0974585e-5,54.985602 M 12.276678,53.490706 11.44324,54.654873 10.265844,53.821436 11.112511,52.64404 12.276678,53.490706 M 1.75949,52.366227 3.082407,51.784144 3.66449,53.080602 2.354803,53.675915 1.75949,52.366227 M 2.87074,55.50154 5.476886,56.176228 4.802199,58.795604 2.196053,58.107687 2.87074,55.50154 M 2.8972,59.721646 4.048137,60.555083 3.2147,61.71925 2.050533,60.872583 2.8972,59.721646 M 2.473866,63.505188 2.698762,64.920709 1.283241,65.145604 1.058345,63.730083 2.473866,63.505188 M 5.199075,62.526229 7.7787621,63.108313 7.1966791,65.688 4.63022,65.119146 5.199075,62.526229 m 7.540624,-3.161771 -1.124479,0.912813 -0.912812,-1.11125 1.11125,-0.912814 0.926041,1.111251 m 1.5875,-2.659063 -0.992187,1.045104 -1.045104,-0.992187 0.992187,-1.045105 1.045104,0.992188 m -5.6091659,1.283229 0.621771,1.971147 -1.957917,0.621771 -0.635,-1.971146 1.971146,-0.621772 m 1.084792,4.61698 0.5953119,1.322917 -1.3096869,0.582083 -0.582084,-1.309687 1.296459,-0.595313"
       id="path6570"
       inkscape:export-filename="C:\Users\Rob\Minetest\minetest-5.0.1-win64\textures\Kenney\wool\wool_yellow.png"
       inkscape:export-xdpi="96"
       inkscape:export-ydpi="96" />
    <rect
       style="opacity:1;fill:#e36110;fill-opacity:1;fill-rule:nonzero;stroke:none;stroke-width:0.26499999;stroke-linecap:round;stroke-linejoin:bevel;stroke-miterlimit:4;stroke-dasharray:none;stroke-dashoffset:0;stroke-opacity:1;paint-order:normal"
       id="rect6572"
       width="16.933346"
       height="16.933306"
       x="20.179831"
       y="50.408352"
       inkscape:export-filename="C:\Users\Rob\Minetest\minetest-5.0.1-win64\textures\Kenney\wool\wool_orange.png"
       inkscape:export-xdpi="96"
       inkscape:export-ydpi="96" />
    <path
       id="path6574"
       d="m 26.437234,50.40832 h 0.912812 l 0.07937,1.045104 -0.899583,0.07937 -0.0926,-1.124479 m 3.770312,0 h 0.899584 l -0.07937,1.230312 -0.899584,-0.06615 0.07937,-1.164166 m 3.161771,0 h 0.912813 l 0.07937,1.09802 -0.899584,0.07937 -0.0926,-1.177395 m 3.743854,1.693333 v 0.912812 l -1.42875,-0.14552 0.07938,-0.899584 1.349375,0.132292 m 0,3.545418 v 0.899592 l -1.296458,0.145521 -0.0926,-0.899584 1.389062,-0.14552 m 0,3.479271 v 0.912813 l -1.217083,-0.119063 0.07937,-0.899583 1.137708,0.105833 m 0,3.360209 v 0.912812 l -1.296458,0.07937 -0.05292,-0.899583 1.349375,-0.0926 m 0,3.227916 v 0.912813 l -1.336146,-0.171979 0.105834,-0.899584 1.230312,0.15875 m -2.831046,1.627189 h -0.912813 l -0.0926,-1.27 0.899583,-0.06615 0.105834,1.336146 m -3.175,0 h -0.899584 l 0.07937,-1.27 0.912813,0.05292 -0.0926,1.217083 m -3.757084,0 h -0.912815 l -0.105833,-1.322916 0.899583,-0.06615 0.119062,1.389063 m -3.399895,0 h -0.899584 l 0.0926,-1.481667 0.899584,0.05292 -0.0926,1.42875 m -3.770313,-0.714378 v -0.912813 l 1.203854,0.145521 -0.105833,0.899584 -1.098021,-0.132292 m 0,-3.227917 v -0.912812 l 1.098021,-0.07937 0.05292,0.912812 -1.150938,0.07937 m 0,-3.360208 v -0.912813 l 1.296458,0.119063 -0.07937,0.899583 -1.217083,-0.105833 m 0,-3.492501 v -0.899583 l 1.045104,-0.119064 0.0926,0.899584 -1.137708,0.119063 m 0,-3.690939 v -0.754062 l 1.084792,0.0926 -0.07937,0.912813 -0.9525,-0.07937 -0.03969,-0.17198 h -0.01323 m 2.870729,-2.447395 h 0.899584 l -0.06615,1.031875 -0.899584,-0.06615 0.06615,-0.965729"
       style="fill:#ed6510;fill-opacity:1;stroke:none;stroke-width:0.26458332"
       inkscape:connector-curvature="0"
       inkscape:export-filename="C:\Users\Rob\Minetest\minetest-5.0.1-win64\textures\Kenney\wool\wool_orange.png"
       inkscape:export-xdpi="96"
       inkscape:export-ydpi="96" />
    <path
       id="path6576"
       d="m 36.240046,63.650717 -0.15875,1.44198 -1.42875,-0.145521 0.145521,-1.441979 1.441979,0.14552 m 0.873125,-10.477502 v 2.129896 l -1.521354,0.34396 -0.463021,-1.997606 1.984375,-0.47625 m 0,7.395107 v 1.455208 l -0.714375,0.07937 -0.171979,-1.42875 0.886354,-0.105833 m -16.933333,1.455208 v -1.455208 l 0.542396,-0.06615 0.171979,1.42875 -0.714375,0.0926 m 0,-7.037919 v -2.129896 h 0.01323 l 0.03969,0.17198 0.436562,1.838854 -0.489479,0.119062 m 12.276667,-1.494896 -0.833438,1.164167 -1.177396,-0.833437 0.846667,-1.177396 1.164167,0.846666 M 21.93932,52.366223 23.262237,51.78414 23.84432,53.080598 22.534633,53.675911 21.93932,52.366223 m 1.11125,3.135313 2.606146,0.674688 -0.674687,2.619376 -2.606146,-0.687917 0.674687,-2.606147 m 0.02646,4.220106 1.150937,0.833437 -0.833437,1.164167 -1.164167,-0.846667 0.846667,-1.150937 m -0.423334,3.783542 0.224896,1.415521 -1.415521,0.224895 -0.224896,-1.415521 1.415521,-0.224895 m 2.725209,-0.978959 2.579687,0.582084 -0.582083,2.579687 -2.566459,-0.568854 0.568855,-2.592917 m 7.540624,-3.161771 -1.124479,0.912813 -0.912812,-1.11125 1.11125,-0.912814 0.926041,1.111251 m 1.5875,-2.659063 -0.992187,1.045104 -1.045104,-0.992187 0.992187,-1.045105 1.045104,0.992188 m -5.609166,1.283229 0.621771,1.971147 -1.957917,0.621771 -0.635,-1.971146 1.971146,-0.621772 m 1.084792,4.61698 0.595312,1.322917 L 29.26828,64.5106 28.686196,63.200913 29.982655,62.6056"
       style="fill:#d95d10;fill-opacity:1;stroke:none;stroke-width:0.26458332"
       inkscape:connector-curvature="0"
       inkscape:export-filename="C:\Users\Rob\Minetest\minetest-5.0.1-win64\textures\Kenney\wool\wool_orange.png"
       inkscape:export-xdpi="96"
       inkscape:export-ydpi="96" />
    <rect
       y="50.408352"
       x="39.974586"
       height="16.933306"
       width="16.933346"
       id="rect6578"
       style="opacity:1;fill:#653b00;fill-opacity:1;fill-rule:nonzero;stroke:none;stroke-width:0.26499999;stroke-linecap:round;stroke-linejoin:bevel;stroke-miterlimit:4;stroke-dasharray:none;stroke-dashoffset:0;stroke-opacity:1;paint-order:normal"
       inkscape:export-filename="C:\Users\Rob\Minetest\minetest-5.0.1-win64\textures\Kenney\wool\wool_brown.png"
       inkscape:export-xdpi="96"
       inkscape:export-ydpi="96" />
    <path
       inkscape:connector-curvature="0"
       style="fill:#734400;fill-opacity:1;stroke:none;stroke-width:0.26458332"
       d="m 46.231987,50.408319 h 0.912812 l 0.07937,1.045104 -0.899583,0.07937 -0.0926,-1.124479 m 3.770312,0 h 0.899584 l -0.07937,1.230312 -0.899584,-0.06615 0.07937,-1.164166 m 3.161771,0 h 0.912813 l 0.07937,1.09802 -0.899584,0.07937 -0.0926,-1.177395 m 3.743854,1.693333 v 0.912812 l -1.42875,-0.14552 0.07938,-0.899584 1.349375,0.132292 m 0,3.545418 v 0.899592 l -1.296458,0.145521 -0.0926,-0.899584 1.389062,-0.14552 m 0,3.479271 v 0.912813 l -1.217083,-0.119063 0.07937,-0.899583 1.137708,0.105833 m 0,3.360209 v 0.912812 l -1.296458,0.07937 -0.05292,-0.899583 1.349375,-0.0926 m 0,3.227916 v 0.912813 l -1.336146,-0.171979 0.105834,-0.899584 1.230312,0.15875 m -2.831046,1.627189 h -0.912813 l -0.0926,-1.27 0.899583,-0.06615 0.105834,1.336146 m -3.175,0 h -0.899584 l 0.07937,-1.27 0.912813,0.05292 -0.0926,1.217083 m -3.757084,0 h -0.912815 l -0.105833,-1.322916 0.899583,-0.06615 0.119062,1.389063 m -3.399895,0 h -0.899584 l 0.0926,-1.481667 0.899584,0.05292 -0.0926,1.42875 M 39.974585,66.62727 v -0.912813 l 1.203854,0.145521 -0.105833,0.899584 -1.098021,-0.132292 m 0,-3.227917 v -0.912812 l 1.098021,-0.07937 0.05292,0.912812 -1.150938,0.07937 m 0,-3.360208 v -0.912813 l 1.296458,0.119063 -0.07937,0.899583 -1.217083,-0.105833 m 0,-3.492501 v -0.899583 l 1.045104,-0.119064 0.0926,0.899584 -1.137708,0.119063 m 0,-3.690939 v -0.754062 l 1.084792,0.0926 -0.07937,0.912813 -0.9525,-0.07937 -0.03969,-0.17198 h -0.01323 m 2.870729,-2.447395 h 0.899584 l -0.06615,1.031875 -0.899584,-0.06615 0.06615,-0.965729"
       id="path6580"
       inkscape:export-filename="C:\Users\Rob\Minetest\minetest-5.0.1-win64\textures\Kenney\wool\wool_brown.png"
       inkscape:export-xdpi="96"
       inkscape:export-ydpi="96" />
    <path
       inkscape:connector-curvature="0"
       style="fill:#5c3600;fill-opacity:1;stroke:none;stroke-width:0.26458332"
       d="m 56.034799,63.650716 -0.15875,1.44198 -1.42875,-0.145521 0.145521,-1.441979 1.441979,0.14552 m 0.873125,-10.477502 v 2.129896 l -1.521354,0.34396 -0.463021,-1.997606 1.984375,-0.47625 m 0,7.395107 v 1.455208 l -0.714375,0.07937 -0.171979,-1.42875 0.886354,-0.105833 m -16.933333,1.455208 v -1.455208 l 0.542396,-0.06615 0.171979,1.42875 -0.714375,0.0926 m 0,-7.037919 v -2.129896 h 0.01323 l 0.03969,0.17198 0.436562,1.838854 -0.489479,0.119062 m 12.276667,-1.494896 -0.833438,1.164167 -1.177396,-0.833437 0.846667,-1.177396 1.164167,0.846666 m -10.517188,-1.124479 1.322917,-0.582083 0.582083,1.296458 -1.309687,0.595313 -0.595313,-1.309688 m 1.11125,3.135313 2.606146,0.674688 -0.674687,2.619376 -2.606146,-0.687917 0.674687,-2.606147 m 0.02646,4.220106 1.150937,0.833437 -0.833437,1.164167 -1.164167,-0.846667 0.846667,-1.150937 m -0.423334,3.783542 0.224896,1.415521 -1.415521,0.224895 -0.224896,-1.415521 1.415521,-0.224895 m 2.725209,-0.978959 2.579687,0.582084 -0.582083,2.579687 -2.566459,-0.568854 0.568855,-2.592917 m 7.540624,-3.161771 -1.124479,0.912813 -0.912812,-1.11125 1.11125,-0.912814 0.926041,1.111251 m 1.5875,-2.659063 -0.992187,1.045104 -1.045104,-0.992187 0.992187,-1.045105 1.045104,0.992188 m -5.609166,1.283229 0.621771,1.971147 -1.957917,0.621771 -0.635,-1.971146 1.971146,-0.621772 m 1.084792,4.61698 0.595312,1.322917 -1.309687,0.582083 -0.582084,-1.309687 1.296459,-0.595313"
       id="path6582"
       inkscape:export-filename="C:\Users\Rob\Minetest\minetest-5.0.1-win64\textures\Kenney\wool\wool_brown.png"
       inkscape:export-xdpi="96"
       inkscape:export-ydpi="96" />
    <rect
       style="opacity:1;fill:#cc1416;fill-opacity:1;fill-rule:nonzero;stroke:none;stroke-width:0.26499999;stroke-linecap:round;stroke-linejoin:bevel;stroke-miterlimit:4;stroke-dasharray:none;stroke-dashoffset:0;stroke-opacity:1;paint-order:normal"
       id="rect6584"
       width="16.933346"
       height="16.933306"
       x="59.448681"
       y="50.408352"
       inkscape:export-filename="C:\Users\Rob\Minetest\minetest-5.0.1-win64\textures\Kenney\wool\wool_red.png"
       inkscape:export-xdpi="96"
       inkscape:export-ydpi="96" />
    <path
       id="path6586"
       d="m 65.70608,50.408318 h 0.912812 l 0.07937,1.045104 -0.899583,0.07937 -0.0926,-1.124479 m 3.770312,0 h 0.899584 l -0.07937,1.230312 -0.899584,-0.06615 0.07937,-1.164166 m 3.161771,0 h 0.912813 l 0.07937,1.09802 -0.899584,0.07937 -0.0926,-1.177395 m 3.743854,1.693333 v 0.912812 l -1.42875,-0.14552 0.07938,-0.899584 1.349375,0.132292 m 0,3.545418 v 0.899592 l -1.296458,0.145521 -0.0926,-0.899584 1.389062,-0.14552 m 0,3.479271 v 0.912813 l -1.217083,-0.119063 0.07937,-0.899583 1.137708,0.105833 m 0,3.360209 v 0.912812 l -1.296458,0.07937 -0.05292,-0.899583 1.349375,-0.0926 m 0,3.227916 v 0.912813 l -1.336146,-0.171979 0.105834,-0.899584 1.230312,0.15875 m -2.831046,1.627189 h -0.912813 l -0.0926,-1.27 0.899583,-0.06615 0.105834,1.336146 m -3.175,0 H 69.47639 l 0.07937,-1.27 0.912813,0.05292 -0.0926,1.217083 m -3.757084,0 h -0.912815 l -0.105833,-1.322916 0.899583,-0.06615 0.119062,1.389063 m -3.399895,0 h -0.899584 l 0.0926,-1.481667 0.899584,0.05292 -0.0926,1.42875 m -3.770313,-0.714378 v -0.912813 l 1.203854,0.145521 -0.105833,0.899584 -1.098021,-0.132292 m 0,-3.227917 V 62.48654 l 1.098021,-0.07937 0.05292,0.912812 -1.150938,0.07937 m 0,-3.360208 v -0.912813 l 1.296458,0.119063 -0.07937,0.899583 -1.217083,-0.105833 m 0,-3.492501 V 55.64706 l 1.045104,-0.119064 0.0926,0.899584 -1.137708,0.119063 m 0,-3.690939 v -0.754062 l 1.084792,0.0926 -0.07937,0.912813 -0.9525,-0.07937 -0.03969,-0.17198 h -0.01323 m 2.870729,-2.447395 h 0.899584 l -0.06615,1.031875 -0.899584,-0.06615 0.06615,-0.965729"
       style="fill:#db1416;fill-opacity:1;stroke:none;stroke-width:0.26458332"
       inkscape:connector-curvature="0"
       inkscape:export-filename="C:\Users\Rob\Minetest\minetest-5.0.1-win64\textures\Kenney\wool\wool_red.png"
       inkscape:export-xdpi="96"
       inkscape:export-ydpi="96" />
    <path
       id="path6588"
       d="m 75.508892,63.650715 -0.15875,1.44198 -1.42875,-0.145521 0.145521,-1.441979 1.441979,0.14552 m 0.873125,-10.477502 v 2.129896 l -1.521354,0.34396 -0.463021,-1.997606 1.984375,-0.47625 m 0,7.395107 v 1.455208 l -0.714375,0.07937 -0.171979,-1.42875 0.886354,-0.105833 m -16.933333,1.455208 v -1.455208 l 0.542396,-0.06615 0.171979,1.42875 -0.714375,0.0926 m 0,-7.037919 V 52.8557 h 0.01323 l 0.03969,0.17198 0.436562,1.838854 -0.489479,0.119062 M 71.725354,53.4907 70.891916,54.654867 69.71452,53.82143 70.561187,52.644034 71.725354,53.4907 m -10.517188,-1.124479 1.322917,-0.582083 0.582083,1.296458 -1.309687,0.595313 -0.595313,-1.309688 m 1.11125,3.135313 2.606146,0.674688 -0.674687,2.619376 -2.606146,-0.687917 0.674687,-2.606147 m 0.02646,4.220106 1.150937,0.833437 -0.833437,1.164167 -1.164167,-0.846667 0.846667,-1.150937 m -0.423334,3.783542 0.224896,1.415521 -1.415521,0.224895 -0.224896,-1.415521 1.415521,-0.224895 m 2.725209,-0.978959 2.579687,0.582084 -0.582083,2.579687 -2.566459,-0.568854 0.568855,-2.592917 m 7.540624,-3.161771 -1.124479,0.912813 -0.912812,-1.11125 1.11125,-0.912814 0.926041,1.111251 m 1.5875,-2.659063 -0.992187,1.045104 -1.045104,-0.992187 0.992187,-1.045105 1.045104,0.992188 m -5.609166,1.283229 0.621771,1.971147 -1.957917,0.621771 -0.635,-1.971146 1.971146,-0.621772 m 1.084792,4.61698 0.595312,1.322917 -1.309687,0.582083 -0.582084,-1.309687 1.296459,-0.595313"
       style="fill:#bf1416;fill-opacity:1;stroke:none;stroke-width:0.26458332"
       inkscape:connector-curvature="0"
       inkscape:export-filename="C:\Users\Rob\Minetest\minetest-5.0.1-win64\textures\Kenney\wool\wool_red.png"
       inkscape:export-xdpi="96"
       inkscape:export-ydpi="96" />
    <rect
       style="opacity:1;fill:#f5989b;fill-opacity:1;fill-rule:nonzero;stroke:none;stroke-width:0.26499999;stroke-linecap:round;stroke-linejoin:bevel;stroke-miterlimit:4;stroke-dasharray:none;stroke-dashoffset:0;stroke-opacity:1;paint-order:normal"
       id="rect6592"
       width="16.933346"
       height="16.933306"
       x="0"
       y="73.427254"
       inkscape:export-filename="C:\Users\Rob\Minetest\minetest-5.0.1-win64\textures\Kenney\wool\wool_pink.png"
       inkscape:export-xdpi="96"
       inkscape:export-ydpi="96" />
    <path
       id="path6594"
       d="m 6.2574041,73.427225 h 0.912812 l 0.07937,1.045104 -0.899583,0.07937 -0.0926,-1.124479 m 3.7703119,0 h 0.899584 l -0.07937,1.230312 -0.8995839,-0.06615 0.07937,-1.164166 m 3.161771,0 h 0.912813 l 0.07937,1.09802 -0.899584,0.07937 -0.0926,-1.177395 m 3.743854,1.693333 v 0.912812 l -1.42875,-0.14552 0.07938,-0.899584 1.349375,0.132292 m 0,3.545418 v 0.899592 l -1.296458,0.145521 -0.0926,-0.899584 1.389062,-0.14552 m 0,3.479271 v 0.912813 l -1.217083,-0.119063 0.07937,-0.899583 1.137708,0.105833 m 0,3.360209 v 0.912812 l -1.296458,0.07937 -0.05292,-0.899583 1.349375,-0.0926 m 0,3.227916 v 0.912813 l -1.336146,-0.171979 0.105834,-0.899584 1.230312,0.15875 m -2.831046,1.627189 h -0.912813 l -0.0926,-1.27 0.899583,-0.06615 0.105834,1.336146 m -3.175,0 h -0.899584 l 0.07937,-1.27 0.912813,0.05292 -0.0926,1.217083 m -3.7570834,0 h -0.912815 l -0.105833,-1.322916 0.899583,-0.06615 0.119062,1.389063 m -3.3998951,0 H 2.870731 l 0.0926,-1.481667 0.899584,0.05292 -0.0926,1.42875 M 1.9745848e-6,89.646176 V 88.733363 L 1.203856,88.878884 1.098023,89.778468 1.9745848e-6,89.646176 m 0,-3.227917 V 85.505447 L 1.098023,85.426077 1.150943,86.338889 4.9745848e-6,86.418259 m 0,-3.360208 V 82.145238 L 1.296463,82.264301 1.217093,83.163884 9.9745848e-6,83.058051 m 0,-3.492501 V 78.665967 L 1.045114,78.546903 1.137714,79.446487 5.9745848e-6,79.56555 m 0,-3.690939 V 75.120549 L 1.084798,75.213149 l -0.07937,0.912813 -0.95250003,-0.07937 -0.03969,-0.17198 H 7.9745848e-6 M 2.870737,73.427217 h 0.899584 l -0.06615,1.031875 -0.899584,-0.06615 0.06615,-0.965729"
       style="fill:#ff9ea1;fill-opacity:1;stroke:none;stroke-width:0.26458332"
       inkscape:connector-curvature="0"
       inkscape:export-filename="C:\Users\Rob\Minetest\minetest-5.0.1-win64\textures\Kenney\wool\wool_pink.png"
       inkscape:export-xdpi="96"
       inkscape:export-ydpi="96" />
    <path
       id="path6596"
       d="m 16.060216,86.669622 -0.15875,1.44198 -1.42875,-0.145521 0.145521,-1.441979 1.441979,0.14552 M 16.933341,76.19212 v 2.129896 l -1.521354,0.34396 -0.463021,-1.997606 1.984375,-0.47625 m 0,7.395107 v 1.455208 l -0.714375,0.07937 -0.171979,-1.42875 0.886354,-0.105833 M 7.9745848e-6,85.04243 V 83.587222 L 0.54240397,83.521072 l 0.171979,1.42875 -0.7143749954152,0.0926 m 0,-7.037919 V 75.874607 H 0.01323797 l 0.03969,0.17198 0.436562,1.838854 L 1.0974585e-5,78.004503 M 12.276678,76.509607 l -0.833438,1.164167 -1.177396,-0.833437 0.846667,-1.177396 1.164167,0.846666 M 1.75949,75.385128 3.082407,74.803045 3.66449,76.099503 2.354803,76.694816 1.75949,75.385128 M 2.87074,78.520441 5.476886,79.195129 4.802199,81.814505 2.196053,81.126588 2.87074,78.520441 M 2.8972,82.740547 4.048137,83.573984 3.2147,84.738151 2.050533,83.891484 2.8972,82.740547 M 2.473866,86.524089 2.698762,87.93961 1.283241,88.164505 1.058345,86.748984 2.473866,86.524089 M 5.199075,85.54513 7.7787621,86.127214 7.1966791,88.706901 4.63022,88.138047 5.199075,85.54513 m 7.540624,-3.161771 -1.124479,0.912813 -0.912812,-1.11125 1.11125,-0.912814 0.926041,1.111251 m 1.5875,-2.659063 -0.992187,1.045104 -1.045104,-0.992187 0.992187,-1.045105 1.045104,0.992188 m -5.6091659,1.283229 0.621771,1.971147 -1.957917,0.621771 -0.635,-1.971146 1.971146,-0.621772 m 1.084792,4.61698 0.5953119,1.322917 -1.3096869,0.582083 -0.582084,-1.309687 1.296459,-0.595313"
       style="fill:#eb9294;fill-opacity:1;stroke:none;stroke-width:0.26458332"
       inkscape:connector-curvature="0"
       inkscape:export-filename="C:\Users\Rob\Minetest\minetest-5.0.1-win64\textures\Kenney\wool\wool_pink.png"
       inkscape:export-xdpi="96"
       inkscape:export-ydpi="96" />
    <rect
       y="73.427254"
       x="20.179831"
       height="16.933306"
       width="16.933346"
       id="rect6598"
       style="opacity:1;fill:#d1037b;fill-opacity:1;fill-rule:nonzero;stroke:none;stroke-width:0.26499999;stroke-linecap:round;stroke-linejoin:bevel;stroke-miterlimit:4;stroke-dasharray:none;stroke-dashoffset:0;stroke-opacity:1;paint-order:normal"
       inkscape:export-filename="C:\Users\Rob\Minetest\minetest-5.0.1-win64\textures\Kenney\wool\wool_magenta.png"
       inkscape:export-xdpi="96"
       inkscape:export-ydpi="96" />
    <path
       inkscape:connector-curvature="0"
       style="fill:#de0383;fill-opacity:1;stroke:none;stroke-width:0.26458332"
       d="m 26.437234,73.427221 h 0.912812 l 0.07937,1.045104 -0.899583,0.07937 -0.0926,-1.124479 m 3.770312,0 h 0.899584 l -0.07937,1.230312 -0.899584,-0.06615 0.07937,-1.164166 m 3.161771,0 h 0.912813 l 0.07937,1.09802 -0.899584,0.07937 -0.0926,-1.177395 m 3.743854,1.693333 v 0.912812 l -1.42875,-0.14552 0.07938,-0.899584 1.349375,0.132292 m 0,3.545418 v 0.899592 l -1.296458,0.145521 -0.0926,-0.899584 1.389062,-0.14552 m 0,3.479271 v 0.912813 l -1.217083,-0.119063 0.07937,-0.899583 1.137708,0.105833 m 0,3.360209 v 0.912812 l -1.296458,0.07937 -0.05292,-0.899583 1.349375,-0.0926 m 0,3.227916 v 0.912813 l -1.336146,-0.171979 0.105834,-0.899584 1.230312,0.15875 m -2.831046,1.627189 h -0.912813 l -0.0926,-1.27 0.899583,-0.06615 0.105834,1.336146 m -3.175,0 h -0.899584 l 0.07937,-1.27 0.912813,0.05292 -0.0926,1.217083 m -3.757084,0 h -0.912815 l -0.105833,-1.322916 0.899583,-0.06615 0.119062,1.389063 m -3.399895,0 h -0.899584 l 0.0926,-1.481667 0.899584,0.05292 -0.0926,1.42875 m -3.770313,-0.714378 v -0.912813 l 1.203854,0.145521 -0.105833,0.899584 -1.098021,-0.132292 m 0,-3.227917 v -0.912812 l 1.098021,-0.07937 0.05292,0.912812 -1.150938,0.07937 m 0,-3.360208 v -0.912813 l 1.296458,0.119063 -0.07937,0.899583 -1.217083,-0.105833 m 0,-3.492501 v -0.899583 l 1.045104,-0.119064 0.0926,0.899584 -1.137708,0.119063 m 0,-3.690939 v -0.754062 l 1.084792,0.0926 -0.07937,0.912813 -0.9525,-0.07937 -0.03969,-0.17198 h -0.01323 m 2.870729,-2.447395 h 0.899584 l -0.06615,1.031875 -0.899584,-0.06615 0.06615,-0.965729"
       id="path6600"
       inkscape:export-filename="C:\Users\Rob\Minetest\minetest-5.0.1-win64\textures\Kenney\wool\wool_magenta.png"
       inkscape:export-xdpi="96"
       inkscape:export-ydpi="96" />
    <path
       inkscape:connector-curvature="0"
       style="fill:#c70375;fill-opacity:1;stroke:none;stroke-width:0.26458332"
       d="m 36.240046,86.669618 -0.15875,1.44198 -1.42875,-0.145521 0.145521,-1.441979 1.441979,0.14552 m 0.873125,-10.477502 v 2.129896 l -1.521354,0.34396 -0.463021,-1.997606 1.984375,-0.47625 m 0,7.395107 v 1.455208 l -0.714375,0.07937 -0.171979,-1.42875 0.886354,-0.105833 m -16.933333,1.455208 v -1.455208 l 0.542396,-0.06615 0.171979,1.42875 -0.714375,0.0926 m 0,-7.037919 v -2.129896 h 0.01323 l 0.03969,0.17198 0.436562,1.838854 -0.489479,0.119062 m 12.276667,-1.494896 -0.833438,1.164167 -1.177396,-0.833437 0.846667,-1.177396 1.164167,0.846666 m -10.517188,-1.124479 1.322917,-0.582083 0.582083,1.296458 -1.309687,0.595313 -0.595313,-1.309688 m 1.11125,3.135313 2.606146,0.674688 -0.674687,2.619376 -2.606146,-0.687917 0.674687,-2.606147 m 0.02646,4.220106 1.150937,0.833437 -0.833437,1.164167 -1.164167,-0.846667 0.846667,-1.150937 m -0.423334,3.783542 0.224896,1.415521 -1.415521,0.224895 -0.224896,-1.415521 1.415521,-0.224895 m 2.725209,-0.978959 2.579687,0.582084 -0.582083,2.579687 -2.566459,-0.568854 0.568855,-2.592917 m 7.540624,-3.161771 -1.124479,0.912813 -0.912812,-1.11125 1.11125,-0.912814 0.926041,1.111251 m 1.5875,-2.659063 -0.992187,1.045104 -1.045104,-0.992187 0.992187,-1.045105 1.045104,0.992188 m -5.609166,1.283229 0.621771,1.971147 -1.957917,0.621771 -0.635,-1.971146 1.971146,-0.621772 m 1.084792,4.61698 0.595312,1.322917 -1.309687,0.582083 -0.582084,-1.309687 1.296459,-0.595313"
       id="path6602"
       inkscape:export-filename="C:\Users\Rob\Minetest\minetest-5.0.1-win64\textures\Kenney\wool\wool_magenta.png"
       inkscape:export-xdpi="96"
       inkscape:export-ydpi="96" />
    <rect
       style="opacity:1;fill:#3c026b;fill-opacity:1;fill-rule:nonzero;stroke:none;stroke-width:0.26499999;stroke-linecap:round;stroke-linejoin:bevel;stroke-miterlimit:4;stroke-dasharray:none;stroke-dashoffset:0;stroke-opacity:1;paint-order:normal"
       id="rect6604"
       width="16.933346"
       height="16.933306"
       x="39.974586"
       y="73.427254"
       inkscape:export-filename="C:\Users\Rob\Minetest\minetest-5.0.1-win64\textures\Kenney\wool\wool_violet.png"
       inkscape:export-xdpi="96"
       inkscape:export-ydpi="96" />
    <path
       id="path6606"
       d="m 46.231987,73.42722 h 0.912812 l 0.07937,1.045104 -0.899583,0.07937 -0.0926,-1.124479 m 3.770312,0 h 0.899584 l -0.07937,1.230312 -0.899584,-0.06615 0.07937,-1.164166 m 3.161771,0 h 0.912813 l 0.07937,1.09802 -0.899584,0.07937 -0.0926,-1.177395 m 3.743854,1.693333 v 0.912812 l -1.42875,-0.14552 0.07938,-0.899584 1.349375,0.132292 m 0,3.545418 v 0.899592 l -1.296458,0.145521 -0.0926,-0.899584 1.389062,-0.14552 m 0,3.479271 v 0.912813 l -1.217083,-0.119063 0.07937,-0.899583 1.137708,0.105833 m 0,3.360209 v 0.912812 l -1.296458,0.07937 -0.05292,-0.899583 1.349375,-0.0926 m 0,3.227916 v 0.912813 l -1.336146,-0.171979 0.105834,-0.899584 1.230312,0.15875 m -2.831046,1.627189 h -0.912813 l -0.0926,-1.27 0.899583,-0.06615 0.105834,1.336146 m -3.175,0 h -0.899584 l 0.07937,-1.27 0.912813,0.05292 -0.0926,1.217083 m -3.757084,0 h -0.912815 l -0.105833,-1.322916 0.899583,-0.06615 0.119062,1.389063 m -3.399895,0 h -0.899584 l 0.0926,-1.481667 0.899584,0.05292 -0.0926,1.42875 m -3.770313,-0.714378 v -0.912813 l 1.203854,0.145521 -0.105833,0.899584 -1.098021,-0.132292 m 0,-3.227917 v -0.912812 l 1.098021,-0.07937 0.05292,0.912812 -1.150938,0.07937 m 0,-3.360208 v -0.912813 l 1.296458,0.119063 -0.07937,0.899583 -1.217083,-0.105833 m 0,-3.492501 v -0.899583 l 1.045104,-0.119064 0.0926,0.899584 -1.137708,0.119063 m 0,-3.690939 v -0.754062 l 1.084792,0.0926 -0.07937,0.912813 -0.9525,-0.07937 -0.03969,-0.17198 h -0.01323 m 2.870729,-2.447395 h 0.899584 l -0.06615,1.031875 -0.899584,-0.06615 0.06615,-0.965729"
       style="fill:#480280;fill-opacity:1;stroke:none;stroke-width:0.26458332"
       inkscape:connector-curvature="0"
       inkscape:export-filename="C:\Users\Rob\Minetest\minetest-5.0.1-win64\textures\Kenney\wool\wool_violet.png"
       inkscape:export-xdpi="96"
       inkscape:export-ydpi="96" />
    <path
       id="path6608"
       d="m 56.034799,86.669617 -0.15875,1.44198 -1.42875,-0.145521 0.145521,-1.441979 1.441979,0.14552 m 0.873125,-10.477502 v 2.129896 l -1.521354,0.34396 -0.463021,-1.997606 1.984375,-0.47625 m 0,7.395107 v 1.455208 l -0.714375,0.07937 -0.171979,-1.42875 0.886354,-0.105833 m -16.933333,1.455208 v -1.455208 l 0.542396,-0.06615 0.171979,1.42875 -0.714375,0.0926 m 0,-7.037919 v -2.129896 h 0.01323 l 0.03969,0.17198 0.436562,1.838854 -0.489479,0.119062 m 12.276667,-1.494896 -0.833438,1.164167 -1.177396,-0.833437 0.846667,-1.177396 1.164167,0.846666 m -10.517188,-1.124479 1.322917,-0.582083 0.582083,1.296458 -1.309687,0.595313 -0.595313,-1.309688 m 1.11125,3.135313 2.606146,0.674688 -0.674687,2.619376 -2.606146,-0.687917 0.674687,-2.606147 m 0.02646,4.220106 1.150937,0.833437 -0.833437,1.164167 -1.164167,-0.846667 0.846667,-1.150937 m -0.423334,3.783542 0.224896,1.415521 -1.415521,0.224895 -0.224896,-1.415521 1.415521,-0.224895 m 2.725209,-0.978959 2.579687,0.582084 -0.582083,2.579687 -2.566459,-0.568854 0.568855,-2.592917 m 7.540624,-3.161771 -1.124479,0.912813 -0.912812,-1.11125 1.11125,-0.912814 0.926041,1.111251 m 1.5875,-2.659063 -0.992187,1.045104 -1.045104,-0.992187 0.992187,-1.045105 1.045104,0.992188 m -5.609166,1.283229 0.621771,1.971147 -1.957917,0.621771 -0.635,-1.971146 1.971146,-0.621772 m 1.084792,4.61698 0.595312,1.322917 -1.309687,0.582083 -0.582084,-1.309687 1.296459,-0.595313"
       style="fill:#35025e;fill-opacity:1;stroke:none;stroke-width:0.26458332"
       inkscape:connector-curvature="0"
       inkscape:export-filename="C:\Users\Rob\Minetest\minetest-5.0.1-win64\textures\Kenney\wool\wool_violet.png"
       inkscape:export-xdpi="96"
       inkscape:export-ydpi="96" />
  </g>
</svg>
